<svg width="150" height="130" viewBox="0 0 150 130" fill="none" xmlns="http://www.w3.org/2000/svg">
<g clip-path="url(#clip0_1_25)">
<path d="M-6.45043 47.9782H61.7566C72.49 47.9782 81.2227 39.2348 81.2227 28.4901C81.2227 17.7453 72.49 9 61.7566 9H-19.2755V11.406H61.7566C71.1647 11.406 78.8197 19.0704 78.8197 28.4882C78.8197 37.9079 71.1647 45.5705 61.7566 45.5705H-6.45043V47.9782Z" fill="#BC9F77"/>
<path d="M52.1411 47.9782C62.8745 47.9782 71.6036 39.2348 71.6036 28.4901C71.6036 17.7453 62.8763 9 52.1411 9V11.406C61.5455 11.406 69.2006 19.0704 69.2006 28.4882C69.2006 37.9079 61.5455 45.5705 52.1411 45.5705V47.9782Z" fill="#BC9F77"/>
<path d="M42.5239 47.9782C53.2573 47.9782 61.9864 39.2348 61.9864 28.4901C61.9864 17.7453 53.2591 9 42.5239 9V11.406C51.932 11.406 59.5834 19.0704 59.5834 28.4882C59.5834 37.9079 51.932 45.5705 42.5239 45.5705V47.9782Z" fill="#BC9F77"/>
<path d="M-93 121.121H130.745C141.478 121.121 150.211 112.378 150.211 101.633C150.211 90.888 141.478 82.1446 130.745 82.1446H-6.45012V84.5505H130.745C140.153 84.5505 147.805 92.2149 147.805 101.633C147.805 111.051 140.153 118.715 130.745 118.715H-93V121.121Z" fill="#BC9F77"/>
<path d="M121.128 121.121C131.861 121.121 140.594 112.378 140.594 101.633C140.594 90.888 131.861 82.1446 121.128 82.1446V84.5505C130.536 84.5505 138.191 92.2149 138.191 101.633C138.191 111.051 130.536 118.715 121.128 118.715V121.121Z" fill="#BC9F77"/>
<path d="M111.513 121.121C122.247 121.121 130.976 112.378 130.976 101.633C130.976 90.888 122.247 82.1446 111.513 82.1446V84.5505C120.918 84.5505 128.573 92.2149 128.573 101.633C128.573 111.051 120.918 118.715 111.513 118.715V121.121Z" fill="#BC9F77"/>
</g>
<defs>
<clipPath id="clip0_1_25">
<rect width="150" height="130" fill="white"/>
</clipPath>
</defs>
</svg>
