<svg width="157" height="200" viewBox="0 0 157 200" fill="none" xmlns="http://www.w3.org/2000/svg">
<path d="M-7.12723 46.3473H61.0798C71.8132 46.3473 80.5459 37.6039 80.5459 26.8592C80.5459 16.1144 71.8132 7.36914 61.0798 7.36914H-19.9523V9.77509H61.0798C70.4879 9.77509 78.1429 17.4395 78.1429 26.8573C78.1429 36.277 70.4879 43.9396 61.0798 43.9396H-7.12723V46.3473Z" fill="#BC9F77"/>
<path d="M51.4643 46.3473C62.1977 46.3473 70.9268 37.6039 70.9268 26.8592C70.9268 16.1144 62.1995 7.36914 51.4643 7.36914V9.77509C60.8687 9.77509 68.5238 17.4395 68.5238 26.8573C68.5238 36.277 60.8687 43.9396 51.4643 43.9396V46.3473Z" fill="#BC9F77"/>
<path d="M41.8471 46.3473C52.5805 46.3473 61.3096 37.6039 61.3096 26.8592C61.3096 16.1144 52.5823 7.36914 41.8471 7.36914V9.77509C51.2552 9.77509 58.9066 17.4395 58.9066 26.8573C58.9066 36.277 51.2552 43.9396 41.8471 43.9396V46.3473Z" fill="#BC9F77"/>
<path d="M-93.6768 119.49H130.068C140.801 119.49 149.534 110.747 149.534 100.002C149.534 89.2571 140.801 80.5137 130.068 80.5137H-7.12692V82.9196H130.068C139.476 82.9196 147.128 90.584 147.128 100.002C147.128 109.42 139.476 117.084 130.068 117.084H-93.6768V119.49Z" fill="#BC9F77"/>
<path d="M120.451 119.49C131.184 119.49 139.917 110.747 139.917 100.002C139.917 89.2571 131.184 80.5137 120.451 80.5137V82.9196C129.859 82.9196 137.514 90.584 137.514 100.002C137.514 109.42 129.859 117.084 120.451 117.084V119.49Z" fill="#BC9F77"/>
<path d="M110.836 119.49C121.57 119.49 130.299 110.747 130.299 100.002C130.299 89.2571 121.57 80.5137 110.836 80.5137V82.9196C120.241 82.9196 127.896 90.584 127.896 100.002C127.896 109.42 120.241 117.084 110.836 117.084V119.49Z" fill="#BC9F77"/>
</svg>
