<svg width="1440" height="296" viewBox="0 0 1440 296" fill="none" xmlns="http://www.w3.org/2000/svg">
<path d="M74.5741 117.945C74.5741 117.945 400.511 160.009 543.374 167.734C686.237 175.459 997.173 173.51 985.49 202.484C973.807 231.457 1026.84 259.52 1221.69 266.913C1416.29 274.316 1728.43 298.724 1781.06 312.583C1833.44 326.454 2195.66 314.047 2171.43 347.654C2146.96 381.272 2447.32 432.626 2551.97 452.247C2656.62 471.867 -8.44167 568.673 -8.44167 568.673L-29 116.56L74.5741 117.945Z" fill="#B39F77"/>
<mask id="mask0_1016_2389" style="mask-type:luminance" maskUnits="userSpaceOnUse" x="-29" y="116" width="2584" height="453">
<path d="M74.5741 117.945C74.5741 117.945 400.511 160.009 543.374 167.734C686.237 175.459 997.173 173.51 985.49 202.484C973.807 231.457 1026.84 259.52 1221.69 266.913C1416.29 274.316 1728.43 298.724 1781.06 312.583C1833.44 326.454 2195.66 314.047 2171.43 347.654C2146.96 381.272 2447.32 432.626 2551.97 452.247C2656.62 471.867 -8.44167 568.673 -8.44167 568.673L-29 116.56L74.5741 117.945Z" fill="white"/>
</mask>
<g mask="url(#mask0_1016_2389)">
<g opacity="0.31">
<path d="M659.877 38.0397C620.149 49.0145 583.884 60.6132 550.075 72.3086C516.269 84.0559 485.415 95.9816 458.244 108C403.41 132.008 362.814 156.253 342.986 178.721C332.95 189.961 328.039 200.655 328.008 210.762C328.367 213.246 327.746 215.775 328.836 218.174L331.37 225.351L335.855 232.284C337.185 234.568 340.227 236.721 342.044 238.931C343.075 240.03 344.107 241.129 345.382 242.217L349.695 245.355L358.581 251.983L379.636 267.279C393.595 277.583 407.319 288.107 420.323 298.976C446.331 320.714 468.968 343.856 481.424 369.648C483.042 372.856 484.417 376.128 485.55 379.462C486.683 382.797 487.816 386.131 488.696 389.321C499.341 429.209 463.351 468.456 397.885 512.169C377.403 525.654 364.131 535.843 361.22 541.966C360.766 542.768 360.794 543.392 360.58 544.079C360.364 544.714 360.635 545.274 360.661 545.846C360.665 545.95 360.665 545.95 360.673 546.106L360.207 546.648L359.52 547.721L357.901 549.879L354.908 554.182C350.999 559.934 347.58 565.663 344.404 571.329C337.807 582.673 332.673 593.846 328.512 604.818L-317.742 628.11C-297.548 613.699 -276.123 599.389 -253.709 585.243C-242.502 578.17 -231.051 571.085 -219.349 564.094L-201.2 553.267C-196.905 550.623 -192.61 547.98 -188.31 545.44C-184.008 542.952 -179.464 540.401 -175.157 538.018C-114.568 505.726 -22.5378 474.401 29.4534 441.824C84.0663 407.564 81.7364 372.507 84.7195 341.012C85.9082 329.394 85.8682 317.727 85.8188 305.852L85.2504 287.958L85.2767 277.747L85.5251 272.422C85.6895 270.643 86.3411 268.79 86.7504 267.001C88.0559 263.347 88.3847 259.79 90.4247 256.103L96.5444 245.041L105.357 233.857C108.378 230.178 112.866 226.379 116.377 222.677C132.621 207.717 155.002 192.843 182.556 178.463C237.415 149.61 311.019 123.03 391.87 99.4017C432.295 87.5618 474.958 76.4015 519.123 65.9022C563.288 55.4028 608.218 45.546 655.64 36.5655L659.877 38.0397Z" fill="#D6DADB"/>
<path d="M1925.16 -57.1051C1885.67 -46.1935 1849.41 -34.5428 1815.6 -22.8474C1781.79 -11.1001 1750.94 0.825588 1723.77 12.8442C1668.93 36.8518 1628.34 61.0975 1608.51 83.5653C1598.47 94.8048 1593.56 105.499 1593.53 115.606C1593.89 118.09 1593.27 120.619 1594.36 123.018L1596.89 130.195L1601.38 137.128C1602.71 139.412 1605.75 141.565 1607.57 143.775C1608.84 144.863 1609.63 145.973 1610.91 147.061L1615.22 150.199L1624.1 156.827L1645.16 172.123C1659.12 182.427 1672.84 192.951 1685.85 203.82C1711.85 225.558 1734.49 248.7 1746.95 274.492C1748.57 277.7 1749.94 280.972 1751.07 284.306C1752.21 287.641 1753.34 290.975 1754.22 294.165C1764.86 334.053 1728.87 373.3 1663.41 417.013C1642.93 430.499 1629.65 440.687 1626.74 446.81C1626.29 447.612 1626.32 448.236 1626.1 448.923C1625.89 449.558 1626.16 450.118 1626.18 450.69C1626.19 450.794 1626.19 450.794 1626.2 450.95L1625.73 451.492L1625.04 452.565L1623.42 454.723L1620.43 459.026C1616.52 464.778 1613.1 470.507 1609.93 476.173C1603.33 487.517 1598.2 498.69 1594.03 509.662L947.781 532.954C967.975 518.543 989.4 504.234 1011.81 490.087C1023.02 483.014 1034.47 475.929 1046.17 468.938L1064.32 458.111C1068.62 455.467 1072.91 452.824 1077.21 450.284C1081.51 447.796 1086.06 445.245 1090.37 442.862C1150.96 410.57 1242.99 379.245 1294.98 346.668C1349.59 312.408 1347.26 277.351 1350.24 245.856C1351.43 234.238 1351.39 222.571 1351.1 210.707L1350.53 192.813L1350.55 182.602L1350.8 177.277C1350.97 175.498 1351.62 173.646 1352.03 171.856C1353.33 168.202 1353.66 164.645 1355.7 160.958L1361.82 149.896L1370.64 138.712C1373.66 135.033 1378.14 131.234 1381.66 127.532C1397.9 112.573 1420.28 97.6983 1447.83 83.318C1502.69 54.4648 1576.3 27.8847 1657.15 4.25684C1697.57 -7.58308 1740.24 -18.7434 1784.4 -29.2427C1828.57 -39.742 1873.5 -49.5989 1920.92 -58.5794L1925.16 -57.1051Z" fill="#D6DADB"/>
<path d="M188.984 244.276C181.23 251.765 175.187 259.124 172.816 266.317C170.687 273.446 170.514 280.434 174.244 286.933C177.973 293.431 183.654 299.684 192.745 305.418C201.834 311.099 212.626 316.495 226.09 321.3C239.554 326.106 254.233 330.647 271.58 334.547C279.769 336.623 288.923 338.342 297.841 340.281C307.005 342.208 316.41 344.073 324.846 346.19C359.803 354.341 389.195 364.205 410.079 375.757C420.156 381.602 428.045 387.859 433.74 394.424C438.703 401.075 442.204 407.948 442.777 415.163C443.347 416.908 442.94 418.75 442.778 420.581C442.616 422.411 442.699 424.231 442.292 426.072C441.234 429.767 440.665 433.439 438.63 437.23C436.023 444.642 430.004 452.521 422.017 460.281C406.05 475.958 380.029 491.675 351.289 506.943C322.306 522.273 290.607 537.207 261.111 552.04L218.335 549.922C249.782 534.844 282.959 520.051 312.215 505.333C341.715 490.604 367.535 475.834 383.798 461.29C392.051 453.986 398.106 446.887 401.703 439.691C403.992 436.097 405.058 432.558 406.368 429.008C407.025 427.259 407.191 425.533 407.603 423.795C407.77 422.068 408.426 420.319 408.103 418.615C408.526 411.72 406.02 405.166 402.05 398.783C397.594 392.474 390.943 386.473 382.099 380.78C363.927 369.521 337.481 359.732 304.728 351.48C296.782 349.341 288.11 347.443 279.434 345.442C271.001 343.377 261.593 341.46 253.641 339.217C236.769 334.984 222.319 330.067 209.086 324.938C195.852 319.81 185.533 314.028 176.919 308.013C168.551 301.986 163.345 295.398 160.336 288.555C157.327 281.711 158.467 274.418 161.565 267.037C164.908 259.644 171.919 251.98 180.649 244.394L188.984 244.276Z" fill="#D6DADB"/>
<path d="M309.748 505.029C294.579 484.309 287.699 462.482 287.907 440.073C288.604 417.642 294.914 394.59 313.934 370.544C323.688 358.484 336.386 346.447 354.46 333.956C372.783 321.558 396.026 309.458 419.53 297.71C442.787 285.922 466.3 274.382 484.913 262.961C494.463 257.213 502.3 251.543 509.155 245.866C515.526 240.315 520.658 234.508 525.303 228.775C543.636 205.802 552.173 183.17 557.046 160.861C561.916 138.501 563.121 116.463 561.394 94.6626C559.667 72.8623 554.767 51.4147 547.914 30.16L542.285 14.2673C540.328 8.99079 537.639 3.79963 536.41 -1.66625C534.938 -7.06901 534.202 -12.4532 531.758 -17.6555C529.559 -22.8689 525.898 -27.8596 518.097 -32.1932L526.122 -33.7041C534.907 -29.3111 539.312 -24.1459 542.246 -18.9658C545.182 -13.7338 546.652 -8.38305 548.608 -3.10651C550.563 2.11804 553.742 7.28692 556.43 12.4781L564.012 28.1778C573.554 49.206 580.899 70.4904 585.072 92.1273C589.489 113.753 590.734 135.732 588.316 158.085C585.896 180.386 579.821 203.219 563.235 226.842C559.088 232.76 554.45 238.649 547.866 244.887C541.032 251.032 532.974 257.233 523.441 263.345C504.621 275.609 481.371 287.553 459.338 299.286C437.061 311.03 416.244 322.551 400.571 333.891C385.385 345.156 374.381 356.7 366.308 367.955C350.411 390.556 346.753 412.601 348.711 434.079C350.911 455.493 359.946 476.179 377.021 495.667L309.748 505.029Z" fill="#D6DADB"/>
<path d="M1055.73 441.78C1071.37 424.139 1080.38 406.695 1084.03 389.755C1087.92 372.804 1085.45 356.351 1074.7 340.952C1052.45 310.187 1033.86 278.944 1023.56 246.646C1018.9 230.449 1016.19 214.007 1019.83 196.963C1021.89 188.43 1025.67 179.716 1033.35 170.719C1037.56 166.204 1042.26 161.666 1049.66 157.111C1056.57 152.681 1062.5 148.244 1067.69 143.788C1077.59 134.951 1084.06 126.166 1088.58 117.522C1092.84 108.889 1095.89 100.363 1097.23 91.9679C1098.81 83.5612 1099.41 75.2511 1099.52 67.0152C1099.34 62.9084 1099.64 58.7794 1098.97 54.7988C1098.63 52.7825 1098.3 50.8182 1097.72 48.865C1097.19 47.9516 1097.63 46.8896 1099.29 45.772C1100.96 44.6544 1103.35 43.3474 1108.44 42.022L1115.47 40.0877C1116.45 40.0431 1117.68 40.0915 1118.66 40.0989L1120.14 40.2401L1121.37 40.2884C1122.84 40.3776 1124.08 40.5299 1125.31 40.7341C1127.53 40.9979 1129.27 41.4398 1130.51 41.852C1133.25 42.6653 1134.27 43.6605 1134.57 44.741C1135.16 46.8502 1135.25 48.9815 1135.35 51.1129C1135.54 55.3757 1135.49 59.5976 1134.46 63.916C1132.89 72.4786 1129.36 81.2342 1124.37 90.0566C1114.37 107.649 1099.98 125.598 1077.26 143.718C1071.58 148.248 1064.92 152.822 1057.52 157.326C1050.36 161.715 1045.65 166.148 1041.44 170.507C1033.74 179.296 1029.72 187.918 1027.41 196.41C1023.27 213.372 1025.25 229.848 1029.66 246.056C1038.49 278.42 1057.58 309.642 1080.07 340.343C1090.58 355.858 1093.54 372.341 1090.63 389.299C1087.48 406.32 1079.44 423.72 1064.31 441.546L1055.73 441.78Z" fill="#D6DADB"/>
<path d="M1114.64 480.515C1130.28 462.874 1139.29 445.429 1142.94 428.49C1146.83 411.539 1144.36 395.086 1133.61 379.687C1111.36 348.922 1092.77 317.679 1082.47 285.381C1077.81 269.184 1075.1 252.742 1078.74 235.698C1080.8 227.165 1084.58 218.451 1092.26 209.454C1096.47 204.939 1101.17 200.401 1108.57 195.845C1115.48 191.416 1121.41 186.979 1126.6 182.523C1136.5 173.686 1142.97 164.901 1147.48 156.257C1151.75 147.624 1154.8 139.098 1156.13 130.703C1157.71 122.296 1158.32 113.986 1158.43 105.75C1158.25 101.643 1158.55 97.5142 1157.88 93.5337C1157.54 91.5174 1157.21 89.5531 1156.63 87.5999C1156.09 86.6864 1156.54 85.6245 1158.2 84.5068C1159.87 83.3892 1162.26 82.0823 1167.35 80.7569L1174.38 78.8225C1175.36 78.778 1176.59 78.8263 1177.57 78.8338L1179.05 78.9749L1180.28 79.0233C1181.75 79.1124 1182.98 79.2647 1184.22 79.469C1186.44 79.7327 1188.18 80.1746 1189.42 80.5869C1192.16 81.4002 1193.18 82.3953 1193.48 83.4759C1194.06 85.585 1194.16 87.7164 1194.26 89.8478C1194.45 94.1105 1194.4 98.3324 1193.37 102.651C1191.8 111.213 1188.27 119.969 1183.27 128.791C1173.28 146.384 1158.89 164.333 1136.17 182.453C1130.49 186.983 1123.83 191.557 1116.43 196.061C1109.27 200.45 1104.56 204.883 1100.35 209.242C1092.65 218.031 1088.63 226.653 1086.32 235.145C1082.18 252.107 1084.16 268.582 1088.57 284.791C1097.4 317.155 1116.48 348.377 1138.97 379.078C1149.49 394.592 1152.45 411.075 1149.54 428.034C1146.39 445.055 1138.35 462.454 1123.22 480.281L1114.64 480.515Z" fill="#D6DADB"/>
<path d="M687.967 553.259C703.599 535.618 712.617 518.174 716.262 501.234C720.152 484.284 717.686 467.83 706.929 452.431C684.681 421.667 666.09 390.423 655.791 358.125C651.13 341.928 648.42 325.486 652.061 308.442C654.125 299.91 657.899 291.195 665.584 282.198C669.794 277.683 674.494 273.146 681.89 268.59C688.802 264.16 694.733 259.723 699.926 255.267C709.827 246.43 716.295 237.645 720.808 229.001C725.076 220.368 728.122 211.843 729.457 203.447C731.037 195.04 731.641 186.73 731.757 178.494C731.57 174.388 731.873 170.259 731.201 166.278C730.864 164.262 730.53 162.297 729.95 160.344C729.418 159.431 729.86 158.369 731.527 157.251C733.193 156.134 735.586 154.827 740.677 153.501L747.702 151.567C748.682 151.522 749.91 151.571 750.892 151.578L752.37 151.719L753.598 151.768C755.074 151.857 756.308 152.009 757.543 152.213C759.763 152.477 761.5 152.919 762.745 153.331C765.48 154.145 766.507 155.14 766.801 156.22C767.388 158.329 767.485 160.461 767.581 162.592C767.775 166.855 767.722 171.077 766.692 175.395C765.119 183.958 761.592 192.713 756.597 201.536C746.605 219.129 732.213 237.078 709.489 255.197C703.809 259.727 697.148 264.302 689.749 268.805C682.59 273.194 677.886 277.628 673.669 281.987C665.974 290.776 661.951 299.398 659.639 307.89C655.505 324.851 657.48 341.327 661.897 357.535C670.727 389.9 689.807 421.121 712.298 451.823C722.815 467.337 725.772 483.82 722.864 500.778C719.713 517.799 711.674 535.199 696.541 553.025L687.967 553.259Z" fill="#D6DADB"/>
<path d="M371.18 361.846C345.358 338.798 331.683 313.165 353.197 284.63C358.76 277.501 366.525 270.271 376.988 263.023C386.957 255.694 401.586 248.361 417.451 241.232C449.913 226.889 492.975 213.731 536.568 201.435C580.65 189.116 625.987 177.417 668.365 165.384C711.225 153.173 753.592 140.88 795.708 128.495C879.697 103.734 962.69 78.6549 1045.93 53.6161L1077.61 59.7812C992.388 84.4411 907.662 109.183 821.207 133.638C778.104 145.913 734.504 158.053 690.413 170.164C645.836 182.401 599.509 193.884 555.648 205.672C512.276 217.438 470.889 229.686 439.602 242.882C407.575 256.007 387.605 269.938 375.225 283.576C351.696 310.953 361.445 336.555 384.087 359.801L371.18 361.846Z" fill="#D6DADB"/>
</g>
</g>
</svg>
