<svg width="133" height="160" viewBox="0 0 133 160" fill="none" xmlns="http://www.w3.org/2000/svg">
<mask id="path-1-inside-1_904_2282" fill="white">
<path fill-rule="evenodd" clip-rule="evenodd" d="M108.819 28.4183C107.081 29.0195 106.344 29.5635 105.791 30.7945C104.448 33.6002 103.921 37.8661 103.368 49.7187C103 57.2769 102.947 67.9844 103.079 96.8144C103.184 115.452 102.947 124.7 102.184 132.315C101.683 137.354 101.051 141.333 100.709 141.333C99.8664 141.333 94.995 137.096 90.7293 132.63C87.2009 128.937 86.4636 128.536 82.9352 128.25C78.7221 127.906 74.6934 129.509 74.6934 131.485C74.6934 132.287 76.7209 137.698 78.1955 140.904C80.8023 146.601 84.831 151.697 89.3337 155.018C93.9681 158.454 99.3661 160 106.818 160C113.032 160 117.667 158.969 121.616 156.765C128.094 153.072 130.859 146.687 132.202 132.172C132.834 125.33 132.939 120.434 132.649 111.845C132.044 94.5813 130.753 83.3585 127.33 65.465C124.539 50.9212 123.117 44.9376 120.853 38.2669C118.667 31.7393 117.851 29.907 116.877 29.2199C115.165 27.9888 111.268 27.6167 108.819 28.4183ZM109.318 4.79903C114.268 1.90742 116.48 0.87677 119.113 0.332794C124.117 -0.697861 129.857 0.762238 131.147 3.36754C131.595 4.28369 131.621 4.56998 131.358 5.51477C130.331 9.23662 124.406 14.2754 116.559 18.0832C104.947 23.7518 92.0709 26.5862 79.9847 26.1567C73.0595 25.899 69.6627 24.9256 69.0571 23.0075C68.3461 20.8316 70.7686 19.3715 78.7734 17.1956C91.9129 13.6169 99.6808 10.4677 109.318 4.79903ZM2.38592 4.25488C3.57084 2.7375 6.51998 1.30603 10.0221 0.590286C12.6816 0.0463257 19.6068 0.27536 22.5559 1.01973C32.246 3.45325 40.1455 10.6107 40.6458 17.4531C40.8828 20.5451 39.4872 23.1791 36.9067 24.5246C33.6152 26.2424 29.2968 26.3569 23.7935 24.8396C14.2088 22.2056 8.33686 17.9398 3.6235 10.0953C1.51697 6.57388 1.33265 5.65773 2.38592 4.25488ZM70.6894 52.2098C74.5339 49.4041 81.1168 46.5125 85.7248 45.5677C87.0414 45.3101 88.9636 45.1956 91.2808 45.2528C95.8888 45.3673 97.8373 45.9972 99.7069 47.944C101.26 49.5759 101.55 50.6066 101.55 54.4429C101.55 59.6249 99.6542 66.0665 96.4154 71.9356C93.7823 76.6595 88.4633 83.4734 82.881 89.2852C80.3005 91.9764 79.6949 92.4344 78.4309 92.8352C76.772 93.3792 74.7182 93.2361 73.2436 92.4631C72.243 91.9477 71.927 91.2892 72.164 90.2299C72.2693 89.7432 72.085 89.1134 71.4531 88.0255C70.9528 87.1952 69.8205 84.7044 68.8989 82.5C68.0036 80.2955 66.687 77.1462 65.9761 75.4857C64.2382 71.3917 63.7642 69.3017 64.2119 67.6984C64.3962 67.04 64.9755 66.0093 65.5021 65.4367L66.4764 64.3774L65.4495 63.2895C64.8702 62.6882 64.2645 61.7148 64.1065 61.1423C63.8696 60.2261 63.8959 59.8826 64.3962 58.7946C65.1071 57.22 68.0826 54.0707 70.6894 52.2098ZM83.4866 69.4735C85.6458 61.8866 86.4358 58.5656 86.6991 55.9603C86.8044 55.0441 86.7781 54.2998 86.6464 54.2998C86.1198 54.3284 82.2754 56.447 79.4579 58.3079C74.6918 61.3999 73.6123 62.631 74.4022 64.0052C74.7445 64.6064 74.3232 65.3222 73.3753 65.7516C72.954 65.952 72.5853 66.2383 72.5853 66.3815C72.5853 67.0972 73.8229 69.044 76.0084 71.7638C77.325 73.3957 78.9049 75.5716 79.5105 76.545C80.1162 77.547 80.6955 78.3487 80.8008 78.3487C80.9061 78.3487 81.0904 77.9192 81.2221 77.4039C81.3235 77.0289 81.9563 74.819 82.7471 72.0568C82.9829 71.2334 83.2327 70.361 83.4866 69.4735ZM5.70323 59.6245C4.04434 59.9681 1.77982 60.9701 1.0162 61.6859C-0.932342 63.5182 -0.142393 64.9783 3.93901 67.1255C10.3639 70.5038 17.2365 72.0498 25.8733 72.0498C31.1659 72.0498 33.4041 71.7063 34.6154 70.7042C37.1432 68.6429 35.5896 67.3545 25.8469 63.5182C17.3945 60.1971 15.4459 59.6818 10.4429 59.5959C8.20473 59.5387 6.07187 59.5673 5.70323 59.6245ZM33.3783 90.5159C33.7996 90.2583 34.7475 89.8861 35.5111 89.6857C36.2747 89.4566 38.039 89.2562 39.4082 89.2562C43.3316 89.2276 45.9121 90.1151 47.1234 91.8615L47.65 92.6345L47.0444 94.8676C44.5165 104.287 37.5123 118.802 31.0874 127.906C28.6912 131.313 25.0575 135.121 22.8983 136.552C18.2902 139.587 13.0239 140.561 7.6786 139.358C4.88745 138.728 2.91258 137.726 1.88564 136.438C0.437403 134.548 1.0167 133.489 9.78513 121.579C23.6619 102.769 32.6673 90.9167 33.3783 90.5159Z"/>
</mask>
<path fill-rule="evenodd" clip-rule="evenodd" d="M108.819 28.4183C107.081 29.0195 106.344 29.5635 105.791 30.7945C104.448 33.6002 103.921 37.8661 103.368 49.7187C103 57.2769 102.947 67.9844 103.079 96.8144C103.184 115.452 102.947 124.7 102.184 132.315C101.683 137.354 101.051 141.333 100.709 141.333C99.8664 141.333 94.995 137.096 90.7293 132.63C87.2009 128.937 86.4636 128.536 82.9352 128.25C78.7221 127.906 74.6934 129.509 74.6934 131.485C74.6934 132.287 76.7209 137.698 78.1955 140.904C80.8023 146.601 84.831 151.697 89.3337 155.018C93.9681 158.454 99.3661 160 106.818 160C113.032 160 117.667 158.969 121.616 156.765C128.094 153.072 130.859 146.687 132.202 132.172C132.834 125.33 132.939 120.434 132.649 111.845C132.044 94.5813 130.753 83.3585 127.33 65.465C124.539 50.9212 123.117 44.9376 120.853 38.2669C118.667 31.7393 117.851 29.907 116.877 29.2199C115.165 27.9888 111.268 27.6167 108.819 28.4183ZM109.318 4.79903C114.268 1.90742 116.48 0.87677 119.113 0.332794C124.117 -0.697861 129.857 0.762238 131.147 3.36754C131.595 4.28369 131.621 4.56998 131.358 5.51477C130.331 9.23662 124.406 14.2754 116.559 18.0832C104.947 23.7518 92.0709 26.5862 79.9847 26.1567C73.0595 25.899 69.6627 24.9256 69.0571 23.0075C68.3461 20.8316 70.7686 19.3715 78.7734 17.1956C91.9129 13.6169 99.6808 10.4677 109.318 4.79903ZM2.38592 4.25488C3.57084 2.7375 6.51998 1.30603 10.0221 0.590286C12.6816 0.0463257 19.6068 0.27536 22.5559 1.01973C32.246 3.45325 40.1455 10.6107 40.6458 17.4531C40.8828 20.5451 39.4872 23.1791 36.9067 24.5246C33.6152 26.2424 29.2968 26.3569 23.7935 24.8396C14.2088 22.2056 8.33686 17.9398 3.6235 10.0953C1.51697 6.57388 1.33265 5.65773 2.38592 4.25488ZM70.6894 52.2098C74.5339 49.4041 81.1168 46.5125 85.7248 45.5677C87.0414 45.3101 88.9636 45.1956 91.2808 45.2528C95.8888 45.3673 97.8373 45.9972 99.7069 47.944C101.26 49.5759 101.55 50.6066 101.55 54.4429C101.55 59.6249 99.6542 66.0665 96.4154 71.9356C93.7823 76.6595 88.4633 83.4734 82.881 89.2852C80.3005 91.9764 79.6949 92.4344 78.4309 92.8352C76.772 93.3792 74.7182 93.2361 73.2436 92.4631C72.243 91.9477 71.927 91.2892 72.164 90.2299C72.2693 89.7432 72.085 89.1134 71.4531 88.0255C70.9528 87.1952 69.8205 84.7044 68.8989 82.5C68.0036 80.2955 66.687 77.1462 65.9761 75.4857C64.2382 71.3917 63.7642 69.3017 64.2119 67.6984C64.3962 67.04 64.9755 66.0093 65.5021 65.4367L66.4764 64.3774L65.4495 63.2895C64.8702 62.6882 64.2645 61.7148 64.1065 61.1423C63.8696 60.2261 63.8959 59.8826 64.3962 58.7946C65.1071 57.22 68.0826 54.0707 70.6894 52.2098ZM83.4866 69.4735C85.6458 61.8866 86.4358 58.5656 86.6991 55.9603C86.8044 55.0441 86.7781 54.2998 86.6464 54.2998C86.1198 54.3284 82.2754 56.447 79.4579 58.3079C74.6918 61.3999 73.6123 62.631 74.4022 64.0052C74.7445 64.6064 74.3232 65.3222 73.3753 65.7516C72.954 65.952 72.5853 66.2383 72.5853 66.3815C72.5853 67.0972 73.8229 69.044 76.0084 71.7638C77.325 73.3957 78.9049 75.5716 79.5105 76.545C80.1162 77.547 80.6955 78.3487 80.8008 78.3487C80.9061 78.3487 81.0904 77.9192 81.2221 77.4039C81.3235 77.0289 81.9563 74.819 82.7471 72.0568C82.9829 71.2334 83.2327 70.361 83.4866 69.4735ZM5.70323 59.6245C4.04434 59.9681 1.77982 60.9701 1.0162 61.6859C-0.932342 63.5182 -0.142393 64.9783 3.93901 67.1255C10.3639 70.5038 17.2365 72.0498 25.8733 72.0498C31.1659 72.0498 33.4041 71.7063 34.6154 70.7042C37.1432 68.6429 35.5896 67.3545 25.8469 63.5182C17.3945 60.1971 15.4459 59.6818 10.4429 59.5959C8.20473 59.5387 6.07187 59.5673 5.70323 59.6245ZM33.3783 90.5159C33.7996 90.2583 34.7475 89.8861 35.5111 89.6857C36.2747 89.4566 38.039 89.2562 39.4082 89.2562C43.3316 89.2276 45.9121 90.1151 47.1234 91.8615L47.65 92.6345L47.0444 94.8676C44.5165 104.287 37.5123 118.802 31.0874 127.906C28.6912 131.313 25.0575 135.121 22.8983 136.552C18.2902 139.587 13.0239 140.561 7.6786 139.358C4.88745 138.728 2.91258 137.726 1.88564 136.438C0.437403 134.548 1.0167 133.489 9.78513 121.579C23.6619 102.769 32.6673 90.9167 33.3783 90.5159Z" fill="#353938"/>
<path d="M105.791 30.7945L105.913 30.8492L105.911 30.8521L105.791 30.7945ZM108.819 28.4183L108.776 28.2923L108.778 28.2916L108.819 28.4183ZM103.368 49.7187L103.502 49.7249L103.502 49.7252L103.368 49.7187ZM103.079 96.8144L102.946 96.8152L102.946 96.815L103.079 96.8144ZM102.184 132.315L102.051 132.302L102.051 132.302L102.184 132.315ZM90.7293 132.63L90.8257 132.538L90.8257 132.538L90.7293 132.63ZM82.9352 128.25L82.9244 128.383L82.9243 128.383L82.9352 128.25ZM78.1955 140.904L78.3166 140.848L78.3167 140.849L78.1955 140.904ZM89.3337 155.018L89.4129 154.911L89.4131 154.911L89.3337 155.018ZM121.616 156.765L121.682 156.881L121.681 156.881L121.616 156.765ZM132.202 132.172L132.334 132.184L132.334 132.184L132.202 132.172ZM132.649 111.845L132.783 111.84L132.783 111.84L132.649 111.845ZM127.33 65.465L127.461 65.4399L127.461 65.44L127.33 65.465ZM120.853 38.2669L120.726 38.3097L120.726 38.3092L120.853 38.2669ZM116.877 29.2199L116.8 29.3289L116.799 29.3282L116.877 29.2199ZM119.113 0.332794L119.087 0.202218L119.087 0.202203L119.113 0.332794ZM109.318 4.79903L109.251 4.6841L109.251 4.6839L109.318 4.79903ZM131.147 3.36754L131.267 3.30836L131.267 3.309L131.147 3.36754ZM131.358 5.51477L131.229 5.47931L131.229 5.47897L131.358 5.51477ZM116.559 18.0832L116.501 17.9633L116.501 17.9632L116.559 18.0832ZM79.9847 26.1567L79.98 26.29L79.9797 26.29L79.9847 26.1567ZM69.0571 23.0075L69.1838 22.966L69.1842 22.9673L69.0571 23.0075ZM78.7734 17.1956L78.8085 17.3243L78.8084 17.3243L78.7734 17.1956ZM10.0221 0.590286L10.0488 0.720915L10.0488 0.720919L10.0221 0.590286ZM2.38592 4.25488L2.27927 4.17481L2.28083 4.17282L2.38592 4.25488ZM22.5559 1.01973L22.5235 1.14905L22.5233 1.14901L22.5559 1.01973ZM40.6458 17.4531L40.5128 17.4633L40.5128 17.4628L40.6458 17.4531ZM36.9067 24.5246L36.845 24.4064L36.845 24.4064L36.9067 24.5246ZM23.7935 24.8396L23.8289 24.711L23.829 24.711L23.7935 24.8396ZM3.6235 10.0953L3.50921 10.164L3.50908 10.1638L3.6235 10.0953ZM85.7248 45.5677L85.698 45.4371L85.6992 45.4369L85.7248 45.5677ZM70.6894 52.2098L70.7681 52.3175L70.7669 52.3183L70.6894 52.2098ZM91.2808 45.2528L91.2841 45.1195L91.2841 45.1195L91.2808 45.2528ZM99.7069 47.944L99.8031 47.8516L99.8035 47.8521L99.7069 47.944ZM96.4154 71.9356L96.5322 72L96.5319 72.0005L96.4154 71.9356ZM82.881 89.2852L82.7847 89.1929L82.7848 89.1928L82.881 89.2852ZM78.4309 92.8352L78.3894 92.7085L78.3906 92.7081L78.4309 92.8352ZM73.2436 92.4631L73.3047 92.3445L73.3055 92.345L73.2436 92.4631ZM72.164 90.2299L72.2943 90.2582L72.2941 90.2591L72.164 90.2299ZM71.4531 88.0255L71.5673 87.9566L71.5684 87.9585L71.4531 88.0255ZM68.8989 82.5L68.7759 82.5514L68.7754 82.5501L68.8989 82.5ZM65.9761 75.4857L65.8535 75.5382L65.8533 75.5378L65.9761 75.4857ZM64.2119 67.6984L64.0834 67.6626L64.0835 67.6625L64.2119 67.6984ZM65.5021 65.4367L65.404 65.3464L65.404 65.3464L65.5021 65.4367ZM66.4764 64.3774L66.5733 64.2859L66.6586 64.3762L66.5745 64.4677L66.4764 64.3774ZM65.4495 63.2895L65.5455 63.197L65.5464 63.198L65.4495 63.2895ZM64.1065 61.1423L63.978 61.1777L63.9775 61.1756L64.1065 61.1423ZM64.3962 58.7946L64.5177 58.8495L64.5173 58.8503L64.3962 58.7946ZM86.6991 55.9603L86.5664 55.9469L86.5666 55.9451L86.6991 55.9603ZM83.4866 69.4735L83.6149 69.51L83.6148 69.5102L83.4866 69.4735ZM86.6464 54.2998L86.6392 54.1664H86.6464V54.2998ZM79.4579 58.3079L79.5314 58.4192L79.5304 58.4198L79.4579 58.3079ZM74.4022 64.0052L74.5178 63.9388L74.5181 63.9392L74.4022 64.0052ZM73.3753 65.7516L73.318 65.6312L73.3202 65.6302L73.3753 65.7516ZM76.0084 71.7638L75.9047 71.8476L75.9045 71.8474L76.0084 71.7638ZM79.5105 76.545L79.6238 76.4745L79.6246 76.476L79.5105 76.545ZM81.2221 77.4039L81.0929 77.3709L81.0934 77.3691L81.2221 77.4039ZM82.7471 72.0568L82.6189 72.0201L82.6189 72.0201L82.7471 72.0568ZM1.0162 61.6859L0.924859 61.5887L0.925016 61.5886L1.0162 61.6859ZM5.70323 59.6245L5.67615 59.4938L5.68276 59.4928L5.70323 59.6245ZM3.93901 67.1255L3.87696 67.2435L3.87693 67.2435L3.93901 67.1255ZM34.6154 70.7042L34.5304 70.6015L34.5311 70.6009L34.6154 70.7042ZM25.8469 63.5182L25.8957 63.3941L25.8958 63.3941L25.8469 63.5182ZM10.4429 59.5959L10.4406 59.7292L10.4395 59.7292L10.4429 59.5959ZM35.5111 89.6857L35.5495 89.8135L35.545 89.8146L35.5111 89.6857ZM33.3783 90.5159L33.4479 90.6298L33.4437 90.6321L33.3783 90.5159ZM39.4082 89.2562L39.4092 89.3896H39.4082V89.2562ZM47.1234 91.8615L47.2329 91.7855L47.2336 91.7865L47.1234 91.8615ZM47.65 92.6345L47.7602 92.5595L47.7948 92.6102L47.7787 92.6694L47.65 92.6345ZM47.0444 94.8676L46.9156 94.8331L46.9157 94.8327L47.0444 94.8676ZM31.0874 127.906L30.9784 127.83L30.9785 127.829L31.0874 127.906ZM22.8983 136.552L22.972 136.663L22.9716 136.664L22.8983 136.552ZM7.6786 139.358L7.64934 139.488L7.64925 139.488L7.6786 139.358ZM1.88564 136.438L1.78136 136.521L1.77982 136.519L1.88564 136.438ZM9.78513 121.579L9.67776 121.5L9.67784 121.5L9.78513 121.579ZM105.669 30.7399C105.953 30.109 106.287 29.646 106.779 29.2649C107.267 28.8863 107.902 28.5944 108.776 28.2923L108.863 28.5443C107.998 28.8434 107.396 29.124 106.942 29.4756C106.493 29.8244 106.182 30.249 105.913 30.8492L105.669 30.7399ZM103.235 49.7125C103.512 43.7862 103.782 39.7518 104.151 36.8472C104.521 33.9423 104.99 32.1583 105.671 30.737L105.911 30.8521C105.249 32.2365 104.784 33.9883 104.416 36.8808C104.048 39.7738 103.778 43.7986 103.502 49.7249L103.235 49.7125ZM102.946 96.815C102.814 67.9864 102.866 57.2748 103.235 49.7122L103.502 49.7252C103.133 57.2791 103.081 67.9824 103.212 96.8138L102.946 96.815ZM102.051 132.302C102.814 124.694 103.051 115.453 102.946 96.8152L103.212 96.8137C103.318 115.452 103.081 124.705 102.316 132.328L102.051 132.302ZM100.709 141.2C100.665 141.2 100.653 141.229 100.671 141.206C100.685 141.189 100.704 141.155 100.728 141.1C100.774 140.991 100.827 140.824 100.884 140.6C100.998 140.154 101.124 139.504 101.255 138.693C101.518 137.071 101.801 134.82 102.051 132.302L102.316 132.328C102.066 134.849 101.783 137.107 101.519 138.735C101.387 139.549 101.259 140.208 101.143 140.666C101.085 140.894 101.028 141.077 100.973 141.205C100.945 141.269 100.916 141.326 100.882 141.369C100.853 141.407 100.796 141.467 100.709 141.467V141.2ZM90.8257 132.538C92.956 134.768 95.2373 136.941 97.0904 138.556C98.0172 139.364 98.8351 140.03 99.4725 140.494C99.7915 140.726 100.063 140.905 100.278 141.026C100.386 141.087 100.478 141.131 100.553 141.16C100.63 141.19 100.681 141.2 100.709 141.2V141.467C100.632 141.467 100.546 141.443 100.457 141.409C100.366 141.374 100.262 141.323 100.148 141.259C99.9193 141.131 99.6385 140.944 99.3156 140.709C98.6693 140.239 97.8448 139.567 96.9152 138.757C95.0556 137.137 92.7684 134.958 90.6329 132.722L90.8257 132.538ZM82.9459 128.117C84.7119 128.26 85.8038 128.433 86.8974 129.046C87.9843 129.655 89.0642 130.694 90.8257 132.538L90.6329 132.722C88.866 130.873 87.813 129.865 86.7671 129.279C85.7278 128.696 84.6868 128.526 82.9244 128.383L82.9459 128.117ZM74.56 131.485C74.56 130.943 74.8368 130.439 75.2967 130.001C75.7565 129.563 76.4084 129.18 77.1855 128.874C78.7401 128.261 80.8212 127.944 82.946 128.117L82.9243 128.383C80.8361 128.212 78.7963 128.525 77.2833 129.122C76.5265 129.42 75.9079 129.787 75.4807 130.194C75.0535 130.601 74.8267 131.039 74.8267 131.485H74.56ZM78.0743 140.96C77.3353 139.353 76.4585 137.195 75.7665 135.339C75.4205 134.411 75.1202 133.557 74.9061 132.884C74.7992 132.548 74.7133 132.255 74.6541 132.021C74.596 131.791 74.56 131.604 74.56 131.485H74.8267C74.8267 131.566 74.8541 131.724 74.9126 131.956C74.97 132.183 75.0541 132.47 75.1603 132.804C75.3725 133.471 75.6712 134.32 76.0164 135.246C76.7068 137.098 77.5811 139.249 78.3166 140.848L78.0743 140.96ZM89.2546 155.126C84.7317 151.79 80.6894 146.675 78.0742 140.96L78.3167 140.849C80.9152 146.528 84.9304 151.605 89.4129 154.911L89.2546 155.126ZM106.818 160.133C99.3457 160.133 93.9175 158.582 89.2543 155.126L89.4131 154.911C94.0187 158.326 99.3865 159.867 106.818 159.867V160.133ZM121.681 156.881C117.706 159.1 113.047 160.133 106.818 160.133V159.867C113.017 159.867 117.627 158.839 121.551 156.648L121.681 156.881ZM132.334 132.184C130.991 146.705 128.222 153.152 121.682 156.881L121.55 156.649C127.966 152.991 130.726 146.67 132.069 132.16L132.334 132.184ZM132.783 111.84C133.072 120.434 132.967 125.335 132.334 132.184L132.069 132.16C132.7 125.324 132.806 120.434 132.516 111.849L132.783 111.84ZM127.461 65.44C130.886 83.3398 132.177 94.5694 132.783 111.84L132.516 111.85C131.911 94.5932 130.621 83.3772 127.199 65.4901L127.461 65.44ZM120.979 38.224C123.247 44.9039 124.67 50.8951 127.461 65.4399L127.199 65.4901C124.408 50.9472 122.988 44.9712 120.726 38.3097L120.979 38.224ZM116.953 29.1109C117.472 29.4769 117.932 30.1365 118.532 31.4995C119.134 32.8658 119.887 34.9613 120.979 38.2245L120.726 38.3092C119.633 35.0449 118.885 32.9605 118.288 31.607C117.691 30.2502 117.255 29.65 116.8 29.3289L116.953 29.1109ZM108.778 28.2916C110.024 27.8834 111.63 27.7762 113.137 27.9241C114.642 28.0718 116.071 28.4762 116.954 29.1117L116.799 29.3282C115.971 28.7326 114.596 28.3353 113.111 28.1895C111.63 28.044 110.063 28.1515 108.861 28.545L108.778 28.2916ZM119.14 0.46337C116.53 1.00256 114.335 2.02302 109.385 4.91416L109.251 4.6839C114.202 1.79183 116.43 0.750979 119.087 0.202218L119.14 0.46337ZM131.028 3.42671C130.72 2.80543 130.141 2.2423 129.357 1.76311C128.573 1.28451 127.591 0.894431 126.49 0.615947C124.287 0.0588627 121.622 -0.0477501 119.14 0.463385L119.087 0.202203C121.608 -0.317316 124.315 -0.209208 126.555 0.357419C127.676 0.640791 128.684 1.03981 129.496 1.53552C130.306 2.03063 130.929 2.627 131.267 3.30837L131.028 3.42671ZM131.229 5.47897C131.361 5.00801 131.413 4.72097 131.386 4.44334C131.359 4.16508 131.251 3.88328 131.027 3.42607L131.267 3.309C131.491 3.76795 131.62 4.08737 131.652 4.41749C131.684 4.74824 131.618 5.07674 131.486 5.55057L131.229 5.47897ZM116.501 17.9632C120.416 16.0633 123.849 13.8575 126.43 11.6651C129.015 9.46851 130.727 7.30017 131.229 5.47931L131.486 5.55023C130.962 7.45122 129.198 9.66321 126.602 11.8684C124.002 14.0778 120.549 16.2953 116.618 18.2031L116.501 17.9632ZM79.9894 26.0235C92.0524 26.4521 104.907 23.6231 116.501 17.9633L116.618 18.203C104.987 23.8806 92.0894 26.7202 79.98 26.29L79.9894 26.0235ZM69.1842 22.9673C69.4656 23.8587 70.4065 24.5639 72.1879 25.0767C73.9625 25.5874 76.5299 25.8948 79.9897 26.0235L79.9797 26.29C76.5143 26.161 73.9207 25.8528 72.1142 25.3329C70.3145 24.815 69.2541 24.0744 68.9299 23.0476L69.1842 22.9673ZM78.8084 17.3243C74.8049 18.4125 72.2149 19.3176 70.7154 20.2159C69.9663 20.6647 69.5034 21.1036 69.2675 21.5497C69.0349 21.9896 69.0154 22.4506 69.1838 22.966L68.9303 23.0489C68.7433 22.4764 68.76 21.9389 69.0318 21.4251C69.3003 20.9174 69.8101 20.4474 70.5783 19.9872C72.1135 19.0675 74.7372 18.1546 78.7385 17.067L78.8084 17.3243ZM109.386 4.91395C99.7362 10.5898 91.957 13.7431 78.8085 17.3243L78.7384 17.067C91.8689 13.4907 99.6253 10.3456 109.251 4.6841L109.386 4.91395ZM10.0488 0.720919C8.30708 1.07688 6.70492 1.61046 5.3929 2.24211C4.07834 2.87497 3.06551 3.60126 2.49101 4.33695L2.28083 4.17282C2.89125 3.39113 3.94545 2.64299 5.27722 2.00184C6.61153 1.35946 8.23499 0.819435 9.99539 0.459653L10.0488 0.720919ZM22.5233 1.14901C21.063 0.780414 18.6059 0.537372 16.1759 0.455141C13.7448 0.372875 11.3621 0.452306 10.0488 0.720915L9.99537 0.459657C11.3416 0.184305 13.7512 0.106274 16.1849 0.188627C18.6196 0.271016 21.0998 0.514676 22.5886 0.890451L22.5233 1.14901ZM40.5128 17.4628C40.266 14.0878 38.1913 10.6173 34.9574 7.6818C31.7255 4.74814 27.3479 2.36063 22.5235 1.14905L22.5884 0.890412C27.454 2.11235 31.8712 4.5203 35.1366 7.48434C38.4 10.4465 40.5252 13.976 40.7787 17.4434L40.5128 17.4628ZM36.845 24.4064C39.3744 23.0875 40.7461 20.5065 40.5128 17.4633L40.7787 17.4429C41.0194 20.5838 39.5999 23.2707 36.9683 24.6429L36.845 24.4064ZM23.829 24.711C29.3163 26.224 33.5958 26.1022 36.845 24.4064L36.9684 24.6428C33.6347 26.3827 29.2774 26.4899 23.7581 24.9681L23.829 24.711ZM3.73779 10.0267C8.43173 17.8388 14.2737 22.0852 23.8289 24.711L23.7582 24.9681C14.1439 22.3261 8.24199 18.0408 3.50921 10.164L3.73779 10.0267ZM2.49254 4.33494C2.23397 4.67934 2.05839 4.9848 1.96679 5.30116C1.87581 5.61536 1.86521 5.94899 1.95026 6.35317C2.12262 7.17216 2.68247 8.26249 3.73793 10.0269L3.50908 10.1638C2.45801 8.40672 1.87243 7.27824 1.68931 6.40809C1.59663 5.96769 1.60577 5.58917 1.71064 5.22699C1.81488 4.86698 2.01124 4.53185 2.27929 4.17483L2.49254 4.33494ZM85.7516 45.6984C81.1621 46.6393 74.5969 49.5232 70.768 52.3175L70.6108 52.1021C74.4708 49.285 81.0714 46.3857 85.698 45.4371L85.7516 45.6984ZM91.2775 45.3861C88.9646 45.329 87.0533 45.4436 85.7504 45.6986L85.6992 45.4369C87.0294 45.1765 88.9626 45.0622 91.2841 45.1195L91.2775 45.3861ZM99.6107 48.0364C98.6892 47.0767 97.7531 46.4458 96.4801 46.0383C95.2019 45.6291 93.5782 45.4433 91.2775 45.3861L91.2841 45.1195C93.5914 45.1769 95.246 45.3632 96.5614 45.7843C97.8821 46.2071 98.8551 46.8645 99.8031 47.8516L99.6107 48.0364ZM101.417 54.4429C101.417 52.5238 101.344 51.3243 101.083 50.4031C100.824 49.4904 100.379 48.8432 99.6103 48.0359L99.8035 47.8521C100.588 48.6767 101.065 49.3607 101.339 50.3304C101.612 51.2916 101.683 52.5256 101.683 54.4429H101.417ZM96.2987 71.8712C99.5298 66.0161 101.417 59.5966 101.417 54.4429H101.683C101.683 59.6532 99.7787 66.117 96.5322 72L96.2987 71.8712ZM82.7848 89.1928C88.3627 83.3856 93.6734 76.581 96.299 71.8707L96.5319 72.0005C93.8912 76.738 88.5639 83.5611 82.9771 89.3775L82.7848 89.1928ZM78.3906 92.7081C79.0096 92.5119 79.462 92.3041 80.0794 91.8146C80.7031 91.3202 81.4935 90.5395 82.7847 89.1929L82.9772 89.3775C81.6879 90.722 80.8853 91.516 80.2451 92.0236C79.5986 92.5361 79.1162 92.7578 78.4712 92.9623L78.3906 92.7081ZM73.3055 92.345C74.7462 93.1002 76.7625 93.242 78.3894 92.7085L78.4725 92.9619C76.7816 93.5164 74.6902 93.3719 73.1817 92.5811L73.3055 92.345ZM72.2941 90.2591C72.1795 90.7714 72.2029 91.1675 72.3598 91.4925C72.517 91.8183 72.8186 92.0942 73.3047 92.3445L73.1826 92.5816C72.668 92.3166 72.3113 92.0056 72.1196 91.6084C71.9276 91.2106 71.9115 90.7478 72.0339 90.2008L72.2941 90.2591ZM71.5684 87.9585C72.2 89.0459 72.4115 89.7166 72.2943 90.2582L72.0337 90.2017C72.1272 89.7699 71.97 89.1809 71.3378 88.0924L71.5684 87.9585ZM69.0219 82.4485C69.9443 84.6549 71.0729 87.1363 71.5673 87.9567L71.3389 88.0943C70.8326 87.2541 69.6967 84.754 68.7759 82.5514L69.0219 82.4485ZM66.0987 75.4332C66.8099 77.0945 68.1268 80.2445 69.0224 82.4498L68.7754 82.5501C67.8804 80.3464 66.5641 77.1979 65.8535 75.5382L66.0987 75.4332ZM64.3403 67.7343C64.1243 68.5077 64.1277 69.4072 64.4044 70.6286C64.6815 71.8514 65.2307 73.3886 66.0988 75.4336L65.8533 75.5378C64.9835 73.4888 64.4268 71.934 64.1444 70.6875C63.8616 69.4395 63.8518 68.4924 64.0834 67.6626L64.3403 67.7343ZM65.6003 65.527C65.0868 66.0852 64.5185 67.0975 64.3403 67.7344L64.0835 67.6625C64.2738 66.9824 64.8642 65.9334 65.404 65.3464L65.6003 65.527ZM66.5745 64.4677L65.6003 65.527L65.404 65.3464L66.3782 64.2871L66.5745 64.4677ZM65.5464 63.198L66.5733 64.2859L66.3794 64.4689L65.3525 63.381L65.5464 63.198ZM64.2351 61.1068C64.309 61.3749 64.4922 61.7487 64.7331 62.1345C64.9729 62.5186 65.2636 62.9044 65.5455 63.197L65.3534 63.382C65.056 63.0733 64.7542 62.6718 64.5069 62.2757C64.2607 61.8814 64.062 61.4822 63.978 61.1777L64.2351 61.1068ZM64.5173 58.8503C64.2677 59.3931 64.1442 59.7345 64.1073 60.0484C64.0708 60.3593 64.1181 60.6544 64.2356 61.1089L63.9775 61.1756C63.858 60.7139 63.8 60.3792 63.8425 60.0173C63.8846 59.6584 64.0244 59.284 64.275 58.7389L64.5173 58.8503ZM70.7669 52.3183C69.4717 53.2429 68.0825 54.4895 66.9284 55.7015C65.7709 56.9172 64.8632 58.0843 64.5177 58.8495L64.2747 58.7398C64.6401 57.9303 65.5756 56.7355 66.7353 55.5176C67.8984 54.2961 69.3003 53.0376 70.612 52.1013L70.7669 52.3183ZM86.8317 55.9737C86.567 58.5927 85.7735 61.9251 83.6149 69.51L83.3584 69.437C85.5181 61.8481 86.3045 58.5385 86.5664 55.9469L86.8317 55.9737ZM86.6464 54.1664C86.7344 54.1664 86.7843 54.2297 86.8055 54.2656C86.8289 54.3052 86.8441 54.3534 86.8549 54.4005C86.8771 54.4971 86.8898 54.6288 86.8949 54.7821C86.905 55.0911 86.8847 55.513 86.8315 55.9755L86.5666 55.9451C86.6188 55.4914 86.6379 55.0831 86.6283 54.7909C86.6235 54.6436 86.6115 54.5319 86.595 54.4603C86.5866 54.4233 86.5789 54.4062 86.5761 54.4015C86.5711 54.3931 86.5913 54.4331 86.6464 54.4331V54.1664ZM79.3844 58.1967C80.7964 57.264 82.4649 56.2674 83.8465 55.5002C84.5372 55.1166 85.1576 54.7896 85.6391 54.5564C85.8797 54.4399 86.0873 54.346 86.2524 54.2801C86.4109 54.2168 86.5482 54.1716 86.6392 54.1666L86.6536 54.4329C86.613 54.4351 86.5149 54.4624 86.3513 54.5277C86.1944 54.5904 85.9932 54.6812 85.7553 54.7964C85.2799 55.0267 84.6643 55.351 83.9759 55.7333C82.5993 56.4978 80.9368 57.4909 79.5314 58.4192L79.3844 58.1967ZM74.2866 64.0717C74.0774 63.7078 73.986 63.3414 74.0575 62.9463C74.1281 62.5558 74.355 62.1547 74.7467 61.7123C75.5275 60.8306 77.0044 59.7407 79.3853 58.1961L79.5304 58.4198C77.1454 59.9671 75.6994 61.0388 74.9464 61.8891C74.5711 62.3129 74.3784 62.6704 74.3199 62.9938C74.2622 63.3128 74.332 63.6155 74.5178 63.9388L74.2866 64.0717ZM73.3202 65.6302C73.7777 65.4229 74.0947 65.1523 74.2577 64.8752C74.4179 64.6028 74.4307 64.3248 74.2863 64.0712L74.5181 63.9392C74.716 64.2869 74.6893 64.6673 74.4875 65.0104C74.2884 65.3489 73.9207 65.6509 73.4303 65.8731L73.3202 65.6302ZM72.452 66.3815C72.452 66.2963 72.5021 66.2202 72.5465 66.1662C72.5958 66.1061 72.663 66.044 72.7396 65.9834C72.8934 65.8618 73.0997 65.735 73.318 65.6312L73.4325 65.872C73.2295 65.9686 73.0408 66.0852 72.905 66.1926C72.8368 66.2465 72.7855 66.2954 72.7525 66.3355C72.7146 66.3817 72.7187 66.3951 72.7187 66.3815H72.452ZM75.9045 71.8474C74.8101 70.4855 73.951 69.3146 73.3648 68.3927C73.0718 67.9319 72.8454 67.5309 72.6918 67.1978C72.5402 66.8692 72.452 66.591 72.452 66.3815H72.7187C72.7187 66.5298 72.7851 66.7634 72.9339 67.0861C73.0807 67.4043 73.3003 67.7942 73.5898 68.2496C74.1687 69.16 75.0212 70.3224 76.1124 71.6803L75.9045 71.8474ZM79.3973 76.6154C78.7957 75.6484 77.2195 73.4772 75.9047 71.8476L76.1122 71.6801C77.4306 73.3142 79.0141 75.4947 79.6237 76.4746L79.3973 76.6154ZM80.8008 78.482C80.7571 78.482 80.7229 78.4633 80.7069 78.4537C80.6872 78.4418 80.6685 78.427 80.6518 78.4123C80.6181 78.3826 80.58 78.3422 80.5391 78.295C80.4567 78.1998 80.3528 78.0645 80.2349 77.9003C79.9988 77.5712 79.7006 77.1173 79.3964 76.614L79.6246 76.476C79.9261 76.9748 80.2204 77.4226 80.4516 77.7449C80.5675 77.9063 80.666 78.0341 80.7407 78.1205C80.7784 78.1641 80.8076 78.1941 80.8281 78.2122C80.833 78.2165 80.8369 78.2197 80.8399 78.222C80.8429 78.2243 80.8443 78.2252 80.8443 78.2251C80.8442 78.2251 80.8435 78.2246 80.8422 78.224C80.8409 78.2234 80.8387 78.2223 80.8356 78.2212C80.8302 78.2192 80.8179 78.2153 80.8008 78.2153V78.482ZM81.3513 77.4369C81.2842 77.6994 81.203 77.943 81.1236 78.1233C81.0842 78.2127 81.043 78.2917 81.0014 78.3505C80.9808 78.3796 80.9567 78.4087 80.9288 78.4318C80.9028 78.4534 80.8588 78.482 80.8008 78.482V78.2153C80.7692 78.2153 80.7539 78.2305 80.7586 78.2266C80.7615 78.2242 80.7701 78.2157 80.7837 78.1965C80.8104 78.1587 80.8433 78.0981 80.8796 78.0157C80.9515 77.8525 81.0283 77.6236 81.0929 77.3709L81.3513 77.4369ZM82.8753 72.0935C82.0842 74.8567 81.4519 77.065 81.3508 77.4387L81.0934 77.3691C81.1951 76.9929 81.8284 74.7813 82.6189 72.0201L82.8753 72.0935ZM83.6148 69.5102C83.3608 70.3977 83.1111 71.2701 82.8753 72.0935L82.6189 72.0201C82.8547 71.1967 83.1045 70.3243 83.3584 69.4368L83.6148 69.5102ZM0.925016 61.5886C1.32427 61.2144 2.09903 60.7775 2.97022 60.3936C3.84531 60.008 4.83528 59.6681 5.67619 59.494L5.73027 59.7551C4.91229 59.9245 3.94054 60.2574 3.07775 60.6377C2.21105 61.0196 1.47174 61.4416 1.10738 61.7832L0.925016 61.5886ZM3.87693 67.2435C2.85341 66.705 2.0317 66.2073 1.40599 65.7337C0.781451 65.2609 0.343973 64.8061 0.0989615 64.3508C-0.148867 63.8902 -0.198115 63.4316 -0.0501594 62.9665C0.0958014 62.5076 0.429906 62.0542 0.924859 61.5887L1.10754 61.783C0.628221 62.2337 0.330366 62.6499 0.203959 63.0473C0.0795468 63.4384 0.117523 63.8225 0.333789 64.2244C0.552873 64.6316 0.956361 65.0589 1.56694 65.5211C2.17635 65.9824 2.98391 66.4724 4.00109 67.0075L3.87693 67.2435ZM25.8733 72.1831C17.2189 72.1831 10.3243 70.6336 3.87696 67.2435L4.00106 67.0075C10.4036 70.374 17.2541 71.9165 25.8733 71.9165V72.1831ZM34.7003 70.807C34.0681 71.33 33.1784 71.6718 31.7951 71.8846C30.4119 72.0973 28.5207 72.1831 25.8733 72.1831V71.9165C28.5185 71.9165 30.3927 71.8305 31.7546 71.621C33.1163 71.4115 33.9513 71.0805 34.5304 70.6015L34.7003 70.807ZM25.8958 63.3941C28.3321 64.3535 30.2592 65.1546 31.7393 65.8489C33.2174 66.5422 34.2586 67.1331 34.9172 67.6738C35.5734 68.2126 35.8802 68.7274 35.8141 69.2675C35.7497 69.7942 35.3338 70.2904 34.6996 70.8075L34.5311 70.6009C35.1608 70.0874 35.4987 69.6495 35.5494 69.2351C35.5985 68.8339 35.382 68.4004 34.748 67.8799C34.1163 67.3613 33.1004 66.7819 31.626 66.0903C30.1537 65.3997 28.2331 64.6011 25.7981 63.6422L25.8958 63.3941ZM10.4452 59.4626C12.9524 59.5056 14.7016 59.6565 16.8844 60.2147C19.0628 60.7718 21.6705 61.734 25.8957 63.3941L25.7982 63.6423C21.5709 61.9813 18.9781 61.0254 16.8183 60.473C14.6631 59.9219 12.9365 59.7721 10.4406 59.7292L10.4452 59.4626ZM5.68276 59.4928C5.87909 59.4623 6.51638 59.4411 7.37088 59.434C8.23145 59.4268 9.32572 59.434 10.4463 59.4626L10.4395 59.7292C9.32193 59.7006 8.23067 59.6935 7.37311 59.7006C6.50947 59.7078 5.896 59.7295 5.72369 59.7563L5.68276 59.4928ZM35.545 89.8146C34.7881 90.0133 33.8538 90.3814 33.4478 90.6297L33.3087 90.4022C33.7453 90.1352 34.707 89.7589 35.4773 89.5567L35.545 89.8146ZM39.4082 89.3896C38.0449 89.3896 36.2953 89.5897 35.5494 89.8134L35.4728 89.558C36.2542 89.3236 38.033 89.1229 39.4082 89.1229V89.3896ZM47.0138 91.9375C45.8425 90.2487 43.3232 89.361 39.4092 89.3896L39.4072 89.1229C43.34 89.0942 45.9818 89.9816 47.2329 91.7855L47.0138 91.9375ZM47.5398 92.7096L47.0132 91.9366L47.2336 91.7865L47.7602 92.5595L47.5398 92.7096ZM46.9157 94.8327L47.5213 92.5996L47.7787 92.6694L47.1731 94.9025L46.9157 94.8327ZM30.9785 127.829C37.3956 118.736 44.3924 104.235 46.9156 94.8331L47.1732 94.9022C44.6407 104.338 37.6291 118.868 31.1963 127.983L30.9785 127.829ZM22.8246 136.441C24.9646 135.022 28.5872 131.229 30.9784 127.83L31.1965 127.983C28.7953 131.397 25.1503 135.219 22.972 136.663L22.8246 136.441ZM7.70786 139.228C13.0175 140.422 18.2468 139.456 22.8249 136.441L22.9716 136.664C18.3336 139.718 13.0303 140.699 7.64934 139.488L7.70786 139.228ZM1.98991 136.355C2.98853 137.608 4.92721 138.6 7.70795 139.228L7.64925 139.488C4.84768 138.856 2.83662 137.845 1.78138 136.521L1.98991 136.355ZM9.8925 121.658C5.5051 127.617 3.17589 130.85 2.12182 132.829C1.59484 133.818 1.39764 134.475 1.4092 134.991C1.42059 135.5 1.63537 135.892 1.99147 136.357L1.77982 136.519C1.4118 136.039 1.15589 135.59 1.1426 134.997C1.12947 134.411 1.35358 133.704 1.88645 132.703C2.95207 130.703 5.29672 127.451 9.67776 121.5L9.8925 121.658ZM33.4437 90.6321C33.4351 90.6369 33.4139 90.6522 33.377 90.6857C33.3419 90.7175 33.298 90.7608 33.245 90.8163C33.139 90.9272 33.0009 91.0821 32.8309 91.2809C32.491 91.6783 32.0279 92.2462 31.4477 92.9765C30.2876 94.4368 28.6623 96.5429 26.6251 99.2248C22.5508 104.589 16.8306 112.254 9.89242 121.658L9.67784 121.5C16.6164 112.095 22.3373 104.429 26.4127 99.0635C28.4503 96.381 30.077 94.2732 31.2389 92.8106C31.8198 92.0794 32.2853 91.5086 32.6282 91.1076C32.7996 90.9072 32.9413 90.7481 33.0522 90.6321C33.1076 90.5741 33.1563 90.5259 33.1978 90.4882C33.2376 90.4521 33.277 90.42 33.3128 90.3998L33.4437 90.6321Z" fill="#BC9F77" mask="url(#path-1-inside-1_904_2282)"/>
</svg>
