<svg width="147" height="60" viewBox="0 0 147 60" fill="none" xmlns="http://www.w3.org/2000/svg">
<g clip-path="url(#clip0_1144_3115)">
<path d="M145.771 49.3734L145.771 11.4939C140.423 10.5541 136.231 6.43364 135.292 1.22883L10.9129 1.22883C10.0456 6.21678 6.21524 10.1204 1.22851 11.277L1.22852 49.5903C5.85388 50.6746 9.53972 54.2168 10.6961 58.771L135.509 58.771C136.665 53.9276 140.712 50.2409 145.771 49.3734Z" stroke="#BC9F77" stroke-width="3.4016" stroke-miterlimit="10" stroke-linecap="round" stroke-linejoin="round"/>
<rect x="4.5" y="4.5" width="138" height="51" stroke="#BC9F77"/>
<g opacity="0.5">
<path d="M135.019 56.0001C132.035 53.9311 128.843 52.3449 125.442 51.3105L124.193 50.9656C123.777 50.8277 123.361 50.6898 122.944 50.6208L121.626 50.3449C121.209 50.276 120.793 50.138 120.307 50.138C119.891 50.0691 119.405 50.0001 118.989 49.9311C118.572 49.8622 118.086 49.7932 117.67 49.7932L116.351 49.7242C115.935 49.7242 115.449 49.6553 115.033 49.7242H113.714C113.298 49.7242 112.812 49.7242 112.396 49.7932L111.147 49.8622C110.73 49.9311 110.245 49.9311 109.828 50.0001L108.51 50.207C108.093 50.276 107.607 50.3449 107.191 50.4829L105.942 50.8277C105.526 50.9656 105.109 51.0346 104.693 51.1725C101.292 52.207 98.1 53.7932 95.116 55.8622C97.6143 53.1725 100.737 51.1036 104.207 49.7242C105.04 49.3105 105.942 49.1036 106.844 48.8277C107.26 48.6898 107.746 48.5518 108.163 48.4829L109.551 48.207C110.036 48.0691 110.453 48.0691 110.938 48.0001L112.326 47.8622C112.812 47.7932 113.229 47.7932 113.714 47.7932H115.102C115.588 47.7932 116.004 47.7932 116.49 47.8622L117.878 48.0001C118.364 48.0001 118.78 48.0691 119.266 48.207C119.752 48.276 120.168 48.3449 120.654 48.4139C121.14 48.4829 121.556 48.6208 122.042 48.7587L123.361 49.1036C124.263 49.3105 125.095 49.7242 125.998 50.0001C129.398 51.2415 132.59 53.3105 135.019 56.0001Z" fill="#B48250"/>
<path d="M112.327 51.5863C109.967 50.0691 107.538 48.9656 104.97 48.138C102.403 47.3794 99.7656 46.9656 97.1286 46.9656C94.4915 46.9656 91.8544 47.3104 89.2867 48.0691C86.7884 48.8277 84.3595 50.0001 82 51.4484C83.8043 49.3794 86.2332 47.7242 88.8009 46.6208C91.438 45.5173 94.2833 44.9656 97.1286 45.0346C99.9738 45.0346 102.819 45.6553 105.456 46.7587C108.163 47.8622 110.522 49.4484 112.327 51.5863Z" fill="#B48250"/>
<path d="M142.167 42.6897C139.808 41.1724 137.309 40 134.672 39.1724C132.035 38.4138 129.329 38 126.622 37.931C123.916 37.931 121.209 38.2759 118.572 39.0345C116.005 39.8621 113.506 41.0345 111.077 42.5517C112.951 40.4138 115.38 38.7586 118.086 37.6552C120.793 36.4828 123.708 36 126.692 36C129.606 36 132.521 36.6207 135.228 37.7241C137.865 38.8276 140.294 40.4828 142.167 42.6897Z" fill="#B48250"/>
<path fill-rule="evenodd" clip-rule="evenodd" d="M92.4097 41.9311C92.4097 42.5518 91.9239 43.0345 91.2993 43.0345C90.6747 43.0345 90.189 42.5518 90.189 41.9311C90.189 41.3104 90.6747 40.8276 91.2993 40.8276C91.9239 40.8276 92.4097 41.3104 92.4097 41.9311Z" fill="#B48250"/>
<path fill-rule="evenodd" clip-rule="evenodd" d="M130.162 46.9655C130.162 47.5862 129.676 48.069 129.051 48.069C128.427 48.069 127.941 47.5862 127.941 46.9655C127.941 46.3448 128.427 45.8621 129.051 45.8621C129.676 45.931 130.162 46.3448 130.162 46.9655Z" fill="#B48250"/>
<path d="M141.89 38.7587C142.503 38.7587 143 38.2646 143 37.6552C143 37.0458 142.503 36.5518 141.89 36.5518C141.276 36.5518 140.779 37.0458 140.779 37.6552C140.779 38.2646 141.276 38.7587 141.89 38.7587Z" fill="#B48250"/>
</g>
</g>
<defs>
<clipPath id="clip0_1144_3115">
<rect width="60" height="147" fill="white" transform="translate(0 60) rotate(-90)"/>
</clipPath>
</defs>
</svg>
