<?xml version="1.0" encoding="utf-8"?>
<!-- Generator: Adobe Illustrator 16.0.0, SVG Export Plug-In . SVG Version: 6.00 Build 0)  -->
<!DOCTYPE svg PUBLIC "-//W3C//DTD SVG 1.1//EN" "http://www.w3.org/Graphics/SVG/1.1/DTD/svg11.dtd">
<svg version="1.1" id="圖層_1" xmlns="http://www.w3.org/2000/svg" xmlns:xlink="http://www.w3.org/1999/xlink" x="0px" y="0px"
	 width="136.063px" height="136.063px" viewBox="0 0 136.063 136.063" enable-background="new 0 0 136.063 136.063"
	 xml:space="preserve">
<g>
	<g>
		<g>
			<path fill="#EDEDEC" d="M92.996,76.13c-1.653-3.298-2.402-9.302,3.448-19.205c7.904-13.395,5.69-19.688,5.671-19.739
				c-0.094-0.243-0.028-0.518,0.16-0.696c0.194-0.168,0.466-0.21,0.699-0.103c3.252,1.561,10.652,9.049,12.829,22.247
				c1.794,10.975-1.943,16.875-4.335,19.408c-2.635,2.797-6.093,4.193-9.484,3.84C97.902,81.456,94.622,79.358,92.996,76.13z
				 M114.562,58.831c-1.972-11.946-8.008-18.36-10.951-20.557c0.309,2.701,0.009,8.975-6.091,19.286
				c-5.56,9.413-4.926,14.983-3.402,17.996c1.43,2.845,4.345,4.691,7.998,5.068c2.999,0.322,6.064-0.938,8.438-3.447
				C112.785,74.808,116.271,69.281,114.562,58.831l0.616-0.098L114.562,58.831z"/>
		</g>
		<path fill="#EDEDEC" d="M105.04,49.702c0.505,1.033,0.953,2.098,1.309,3.209c0.354,1.107,0.625,2.261,0.803,3.434
			c0.374,2.35,0.393,4.789,0.15,7.232c-0.524,4.901-2.065,9.755-4.131,14.367c-2.064,4.61-4.596,9.026-7.419,13.231
			c-1.419,2.092-2.905,4.146-4.447,6.143c-0.785,0.99-1.578,1.971-2.392,2.924c-0.402,0.48-0.813,0.951-1.243,1.408
			c-0.205,0.234-0.42,0.457-0.635,0.674c-0.094,0.111-0.216,0.205-0.31,0.309l-0.157,0.139l-0.057,0.047l-0.009,0.01
			c0.009,0,0.009,0,0.009-0.01c0.02-0.008,0.02-0.018,0.037-0.008l0.253,1.037c0.037-0.02,0.083-0.049,0.131-0.066l0.056-0.047
			l0.037-0.018l0.122-0.113l0.205-0.178c0.122-0.111,0.234-0.223,0.346-0.336c0.225-0.242,0.448-0.477,0.664-0.711
			c0.429-0.477,0.851-0.961,1.261-1.449c0.831-0.973,1.635-1.977,2.42-2.982c1.561-2.025,3.046-4.105,4.458-6.25
			c2.821-4.279,5.363-8.764,7.372-13.478c0.514-1.178,0.98-2.369,1.409-3.573c0.439-1.201,0.824-2.417,1.169-3.649
			c0.691-2.443,1.177-4.948,1.384-7.429c0.194-2.485,0.12-4.985-0.356-7.325c-0.233-1.177-0.533-2.335-0.943-3.419
			C106.106,51.729,105.619,50.688,105.04,49.702z"/>
	</g>
	<path fill-rule="evenodd" clip-rule="evenodd" fill="#EDEDEC" d="M102.181,102.37c-10.866,7.324-25.919,8.932-42.018,4.035
		c-5.981-1.896-10.942-4.709-16.465-7.58c-4.876-2.525,0.216,1.785,1.674,2.984c11.576,9.297,25.751,12.455,39.485,11.352
		c-1.447,0.514-2.934,0.973-4.457,1.355c-1.971,0.504-3.951,0.879-5.933,1.121c-2.551-0.299-5.064-0.682-7.615-1.281
		c-3.56-0.877-7.391-2.242-11.063-4.063l-0.159-0.057c-8.381-3-15.417-8.111-20.537-15.037c-0.02-0.018-0.028-0.027-0.028-0.027
		c-7.568-10.998-8.84-23.985-3.363-36.59c6.559-14.81,24.377-27.026,40.243-19.387c5.392,2.7,11.38,9.11,8.381,15.547
		c-1.905,4.06-2.253-0.589-2.738-2.205c-0.673-2.158-1.783-4.214-3.82-5.396c-5.71-3.303-13.932-3.247-19.053,1.901
		c-3.063,3.083-5.42,6.307-6.774,9.783c0.131-0.299,0.271-0.603,0.412-0.902c3.204-6.387,10.419-13.259,18.238-11.559
		c9.251,2.215,8.438,12.414,6.176,19.833c16.455-7.167,14.044-30.742-6.483-37.09c-12.698-3.495-24.069-0.967-32.9,5.396
		c6.093-6.456,14.026-11.324,23.275-13.665c16.071-4.079,32.312,0.43,43.869,10.628C88.399,20.144,70.944,15.023,53.659,19.405
		C26.647,26.254,10.305,53.696,17.153,80.7c6.85,27.014,34.292,43.355,61.296,36.508c10.969-2.785,20.181-8.961,26.787-17.131
		l0.094-0.098l-0.037,0.029c3.783-4.688,6.708-10.021,8.624-15.74C111.412,91.089,107.404,97.284,102.181,102.37z M36.438,103.81
		c-0.71-0.758-1.401-1.543-2.101-2.355c-8.13-9.973-12.709-25.296-7.374-38.204c0.487-1.165,0.028,0.948,0,1.125
		c-2.634,14.758,1.038,26.967,11.362,37.443c0.936,0.943,1.897,1.859,2.869,2.764c3.316,3.057,5.036,5.234,8.896,7.635
		c0.214,0.131,0.429,0.262,0.653,0.393C45.503,110.526,40.662,107.546,36.438,103.81z"/>
	<g>
		<path fill="#EDEDEC" d="M53.963,74.304c0,0.817-0.122,1.468-0.364,1.952s-0.555,0.842-0.938,1.071s-0.798,0.383-1.244,0.459
			c-0.446,0.077-0.86,0.114-1.243,0.114c-0.944,0-1.895-0.012-2.852-0.037s-1.92-0.039-2.89-0.039c-1.607,0-3.222,0.09-4.841,0.268
			c-1.621,0.18-3.196,0.563-4.727,1.148c-0.026-0.203-0.045-0.414-0.058-0.631c-0.014-0.217-0.02-0.428-0.02-0.632
			c0-1.021,0.229-1.786,0.689-2.296c0.459-0.51,1.077-0.848,1.855-1.015c0.778-0.165,1.64-0.249,2.584-0.249
			c0.434,0,1.346,0,2.736,0s3.081-0.012,5.071-0.038C49.714,74.355,51.794,74.329,53.963,74.304z M43.476,64.965
			c0,0.817-0.083,1.939-0.248,3.368c-0.167,1.429-0.377,3.023-0.632,4.784c-0.255,1.76-0.511,3.559-0.766,5.396
			c-0.255,1.836-0.466,3.592-0.631,5.262c-0.167,1.672-0.249,3.133-0.249,4.383c0,0.943,0.044,1.773,0.134,2.488
			c0.089,0.713,0.223,1.275,0.402,1.684c-1.506-0.383-2.667-0.85-3.483-1.398c-0.816-0.547-1.378-1.211-1.684-1.988
			c-0.307-0.779-0.459-1.691-0.459-2.738c0-0.789,0.076-1.842,0.229-3.156c0.152-1.314,0.338-2.787,0.555-4.42
			s0.434-3.33,0.65-5.091s0.402-3.495,0.555-5.205c0.153-1.709,0.23-3.291,0.23-4.746c0-0.536-0.014-1.071-0.039-1.607
			c-0.025-0.536-0.063-1.046-0.114-1.531c1.326,0.051,2.366,0.191,3.119,0.421c0.752,0.23,1.301,0.542,1.646,0.938
			s0.561,0.855,0.65,1.377C43.431,63.709,43.476,64.302,43.476,64.965z M59.512,64.965c0,0.817-0.083,1.939-0.249,3.368
			c-0.166,1.429-0.376,3.023-0.631,4.784c-0.256,1.76-0.511,3.559-0.766,5.396c-0.256,1.836-0.466,3.592-0.632,5.262
			c-0.166,1.672-0.248,3.133-0.248,4.383c0,1.939,0.178,3.33,0.535,4.172c-1.506-0.383-2.666-0.85-3.482-1.398
			c-0.817-0.547-1.378-1.211-1.684-1.988c-0.307-0.779-0.46-1.691-0.46-2.738c0-0.789,0.077-1.842,0.229-3.156
			c0.153-1.314,0.338-2.787,0.556-4.42c0.216-1.633,0.434-3.33,0.65-5.091s0.401-3.495,0.555-5.205
			c0.153-1.709,0.229-3.291,0.229-4.746c0-0.536-0.013-1.071-0.038-1.607c-0.025-0.536-0.063-1.046-0.114-1.531
			c1.326,0.051,2.366,0.191,3.119,0.421c0.752,0.23,1.301,0.542,1.646,0.938c0.344,0.396,0.561,0.855,0.65,1.377
			C59.467,63.709,59.512,64.302,59.512,64.965z"/>
	</g>
	<g>
		<path fill="#EDEDEC" d="M63.437,100.021c0.077-0.305,0.229-0.707,0.46-1.205c0.229-0.498,0.593-1,1.091-1.512
			c0.497-0.51,1.18-0.938,2.047-1.281c0.867-0.346,1.978-0.518,3.33-0.518c1.862,0,3.68-0.063,5.453-0.191
			c1.773-0.127,3.388-0.299,4.842-0.516s2.603-0.467,3.444-0.746c-0.229,1.912-0.811,3.387-1.741,4.42
			c-0.932,1.033-2.073,1.549-3.426,1.549c-0.587,0-1.333-0.057-2.238-0.172c-0.906-0.115-1.939-0.223-3.101-0.324
			s-2.417-0.154-3.77-0.154c-0.995,0-2.028,0.045-3.1,0.135C65.656,99.594,64.56,99.768,63.437,100.021z M70.747,98.414
			l-4.096-0.037c-0.408-0.51-0.688-1.064-0.842-1.666c-0.153-0.598-0.229-1.293-0.229-2.086c0-0.789,0.076-1.842,0.229-3.156
			s0.338-2.787,0.555-4.42s0.434-3.33,0.651-5.09c0.216-1.762,0.401-3.496,0.555-5.206c0.153-1.709,0.229-3.291,0.229-4.745
			c0-0.536-0.013-1.072-0.038-1.607c-0.026-0.536-0.064-1.047-0.115-1.531c1.326,0.051,2.366,0.191,3.119,0.421
			s1.302,0.542,1.646,0.938c0.345,0.395,0.562,0.854,0.651,1.377c0.089,0.523,0.134,1.117,0.134,1.779
			c0,0.817-0.083,1.939-0.249,3.368s-0.377,3.024-0.632,4.784s-0.511,3.559-0.765,5.396c-0.256,1.836-0.466,3.592-0.632,5.262
			c-0.166,1.672-0.249,3.133-0.249,4.383c0,0.332,0.006,0.65,0.02,0.957C70.702,97.84,70.721,98.135,70.747,98.414z"/>
	</g>
</g>
</svg>
