<?xml version="1.0" encoding="UTF-8"?>
<svg id="_製作層" data-name="製作層" xmlns="http://www.w3.org/2000/svg" viewBox="0 0 88.72 87.82">
  <defs>
    <style>
      .cls-1 {
        opacity: .8;
      }

      .cls-2 {
        fill: #313636;
      }

      .cls-2, .cls-3 {
        stroke: #353938;
        stroke-miterlimit: 10;
        stroke-width: .75px;
      }

      .cls-3 {
        fill: #323736;
      }
    </style>
  </defs>
  <path class="cls-2" d="M44.46,31.96c-.82-.32-1.71,.24-2.46,.48-1.11,.36-2.23,.48-3.39,.46-5.15-.09-10.31-.24-15.46-.32-.84-.01-1.75,0-2.42,.5s-.83,1.72-.09,2.12c.45,.24,1.01,.09,1.5-.06,4.03-1.21,8.31-1.53,12.47-.94,.67,.1,.38,4.9,.38,5.4-.04,3.1-.16,6.2-.36,9.3s-.4,6.11-1.35,9.02c-.7,2.14-1.99,4.17-3.94,5.3-2.18,1.27-4.09,.71-6.25,.04-.2,1.83,1.85,3.21,3.45,3.59,1.92,.45,4.03,.05,5.66-1.07,3.03-2.09,4.08-6.13,4.55-9.57,.57-4.14,.2-8.22,.05-12.37-.08-2.27-.1-4.54,.12-6.8,.05-.53,.36-1.88-.05-2.33,.97,1.04,3.62,.71,4.83,.39,.83-.22,1.95-.82,2.46-1.52,.57-.79,.88-1.42,.32-1.63Z"/>
  <path class="cls-2" d="M25.38,45.73c.52-.3,1.19-.59,2.01-.85,.31-.09,.59-.12,.81-.09,.22,.03,.5,.13,.83,.29,.42,.2,.71,.3,.88,.31,.19,.01,.42-.08,.71-.29,.27-.2,.5-.44,.68-.71,.18-.29,.26-.59,.23-.9-.02-.34-.03-.6-.02-.79,.01-.19,.04-.42,.09-.69,.05-.31,.1-.66,.14-1.04,.05-.38,.09-.75,.14-1.11,.1-.69-.05-1.19-.44-1.5-.39-.29-1.02-.44-1.94-.44-.28,0-.57,.01-.89,.04-.3,.02-.66,.06-1.09,.11-.25,.02-.53,.02-.83-.02-.3-.03-.77-.14-1.38-.3-.61-.15-1.1-.09-1.45,.2-.36,.29-.51,.72-.46,1.29,.05,.48,.08,.88,.11,1.2,.02,.32,.06,.71,.11,1.17,.09,.87,.11,1.6,.04,2.16-.05,.38-.08,.69-.11,.92-.03,.26,0,.45,.09,.6,.26,.44,.6,.67,1,.67,.23,0,.48-.08,.75-.23Zm.13-3.99v-1.09c0-.31,.07-.56,.21-.75,.14-.19,.31-.3,.51-.34,.38-.05,.81-.09,1.27-.12,.47-.04,.85-.05,1.15-.05,.28,0,.5,.04,.63,.12,.12,.08,.21,.24,.25,.49,.05,.3,.08,.7,.11,1.19,.02,.48,.02,.86,0,1.11h0c-.02,.29-.08,.49-.17,.62-.06,.08-.21,.18-.61,.24-.35,.05-.76,.09-1.23,.12-.47,.04-.83,.07-1.1,.09-.49,.06-.67,0-.72-.03-.1-.06-.17-.23-.21-.47-.05-.39-.07-.77-.07-1.11Z"/>
  <path class="cls-2" d="M9.93,40.87c.29,0,.63-.02,1.03-.06,.59-.06,1.13-.13,1.61-.19,.46-.06,1.19-.12,2.17-.19,.96-.07,1.44-.3,1.46-.71,.02-.4-.41-.71-1.3-.95h0c-.38-.09-.81-.23-1.29-.4-.48-.17-1.12-.42-1.95-.78-.35-.16-.67-.27-.95-.34-.28-.07-.56-.08-.81-.02-.25,.05-.52,.18-.78,.38-.25,.19-.54,.44-.86,.77-.27,.27-.42,.6-.44,.98-.02,.39,.2,.75,.64,1.05,.36,.27,.73,.42,1.08,.45,.11,.01,.24,.02,.39,.02Z"/>
  <path class="cls-2" d="M18,44.27c-.38-.28-.96-.08-1.74,.6-.81,.69-1.65,1.38-2.56,2.13-.87,.71-1.55,1.24-2.07,1.62-.36,.3-.68,.5-.95,.59-.28,.09-.68,.17-1.2,.25-.73,.1-1.27,.4-1.6,.91-.32,.51-.37,1.07-.11,1.66,.18,.35,.48,.68,.89,.98,.41,.3,.9,.48,1.45,.54,.43,.03,.84,0,1.23-.1,.29-.08,.57-.19,.83-.34,.61-.35,1.19-1.04,1.74-2.05,.2-.36,.4-.72,.6-1.04,.19-.32,.43-.67,.72-1.07,.28-.39,.6-.8,.93-1.23,.34-.43,.76-.94,1.29-1.55,.48-.52,.74-.91,.79-1.19,.06-.38-.09-.59-.23-.69h0Z"/>
  <path class="cls-2" d="M13.03,32.78c.36,.23,.83,.48,1.39,.74,.24,.12,.49,.22,.73,.32,.32,.13,.64,.24,.95,.33,.95,.34,1.32-.01,1.46-.36,.1-.27,.03-.45-.06-.56-.1-.14-.33-.3-.7-.5-.51-.28-.82-.55-.92-.79-.1-.24-.29-.57-.55-.99-.23-.43-.61-.67-1.13-.73-.51-.05-.97,.07-1.38,.36-.47,.34-.7,.69-.69,1.05,.01,.39,.3,.77,.89,1.14Z"/>
  <path class="cls-2" d="M54.43,40.83c0-1.17,0-2.29,.02-3.35,.01-1.05,.03-1.95,.05-2.72h1.56c.63,0,1.1-.02,1.42-.07,.33-.05,.56-.13,.7-.24,.29-.2,.42-.4,.41-.6-.01-.19-.15-.36-.42-.51-.5-.27-1.11-.38-1.82-.34-.73,.04-1.28,.02-1.79,.06,.04-.78,.08-1.32,.1-1.6,.15-1.06,.07-2.07-.22-2.99-.13-.45-.32-.72-.58-.82-.19-.07-.48-.07-.79,.34-.28,.35-.45,.83-.51,1.43-.06,.58-.07,1.07-.02,1.46,.02,.11,.04,.37,.04,.91v1.27c-.25,0-.47,0-.66-.02-.21-.01-.43-.03-.64-.05-.53-.05-1.11-.02-1.71,.07-.61,.1-1.31,.35-2.08,.77-.29,.16-.47,.34-.56,.55-.09,.22-.06,.43,.09,.61,.14,.17,.38,.28,.72,.35,.33,.06,.75,.03,1.27-.09,.6-.12,1.19-.22,1.76-.29,.55-.07,1.16-.12,1.81-.17v.8c0,.22,0,.47-.02,.75-.34,.49-.67,.93-.99,1.29-.53,.6-1.12,1.13-1.76,1.57-.65,.45-1.39,.84-2.2,1.17-.82,.33-1.82,.69-2.97,1.07-.65,.22-1.08,.45-1.32,.69-.25,.26-.29,.65-.12,1.14,.11,.39,.45,.61,1.03,.65,.53,.04,1.22-.1,2.04-.42,1.1-.41,2.21-1,3.29-1.77,1.03-.73,1.93-1.8,3-2.43-.05,.03-.03,1.94-.04,2.12-.06,.91-.1,1.82-.13,2.73-.04,1.13-.07,2.26-.07,3.39,0,.87-.23,2.03,.33,2.77,.29,.34,.55,.51,.79,.51,.02,0,.04,0,.06,0,.25-.03,.47-.23,.68-.59,.13-.21,.22-.48,.27-.84,.05-.34,.07-.78,.07-1.31-.02-1.19-.04-2.41-.05-3.65-.01-1.24-.02-2.45-.02-3.62Z"/>
  <path class="cls-2" d="M57.46,41.66c.35,.45,.72,.72,1.1,.78,.04,0,.09,.01,.13,.01,.35,0,.68-.25,.98-.73h0c.48-.84,.31-1.58-.5-2.14-.47-.33-.94-.63-1.39-.9-.44-.26-.87-.49-1.28-.68-.55-.29-.94-.35-1.18-.19-.09,.06-.15,.15-.18,.25-.04,.19,.05,.42,.26,.73,.19,.29,.48,.72,.88,1.29,.4,.58,.79,1.11,1.17,1.58Z"/>
  <path class="cls-2" d="M86.65,48.6c-1.9-.96-4.34-.89-6.38-1.51-2.66-.82-5.11-2.19-7.29-3.91-.98-.77-1.88-1.41-2.61-2-.72-.58-1.33-1.1-1.8-1.55-.46-.43-.88-.88-1.25-1.32,.02-.75,.03-1.43,.03-2.08s0-1.21,.03-1.72c.63,0,1.24,.02,1.79,.05,.57,.03,1.2,.1,1.87,.2,.57,.07,.97,.08,1.24,.03,.27-.05,.49-.16,.66-.32,.28-.28,.39-.46,.38-.61-.02-.13-.12-.27-.32-.4-.23-.18-.45-.29-.66-.33-.2-.04-.43-.07-.7-.09-.69-.05-1.4-.08-2.1-.11-.66-.02-1.36-.04-2.08-.04,0-.14,0-.28,.02-.42,.01-.17,.03-.32,.05-.44,.05-.48,.08-.89,.11-1.22s.04-.63,.05-.88c.01-.25,.01-.49,0-.69-.01-.21-.03-.41-.05-.6-.05-.44-.14-.8-.28-1.05-.15-.27-.32-.44-.52-.51-.2-.07-.42-.04-.62,.08-.2,.12-.37,.31-.53,.57-.13,.23-.22,.62-.28,1.19-.06,.55-.07,1.3-.02,2.2v1.74c-.44,0-.87,0-1.29,.02-.46,.01-.94,.02-1.41,.02s-.83,.01-1.12,.04c-.29,.02-.54,.06-.74,.11-.21,.05-.39,.13-.54,.23-.15,.1-.32,.23-.52,.41-.31,.28-.45,.52-.42,.72,.02,.15,.12,.27,.29,.36,.37,.19,.99,.24,1.88,.14,.82-.09,1.57-.17,2.22-.21,.59-.04,1.14-.09,1.66-.13v2.83c-.38,1.07-.78,1.99-1.2,2.74-.42,.75-.93,1.42-1.52,2-.58,.58-1.3,1.11-2.13,1.6-.83,.49-1.84,.99-3,1.51-.75,.34-1.19,.69-1.34,1.05-.15,.37-.05,.78,.29,1.23,.21,.27,.5,.43,.86,.46,.35,.03,.87-.15,1.59-.55,.71-.38,1.37-.76,1.96-1.15,.59-.39,1.15-.82,1.66-1.28,.52-.47,1.03-1,1.52-1.59,.41-.5,.84-1.08,1.27-1.75,0,.8,0,1.57-.02,2.32-.01,.89-.02,1.71-.04,2.45v.08c-.01,.72-.02,1.36-.04,1.92-.01,.59-.02,1.05-.02,1.37-.02,.71-.04,1.3-.05,1.76-.01,.47,0,.85,.02,1.14,.02,.29,.05,.51,.07,.66,.03,.16,.06,.3,.12,.42,.29,.64,.55,.93,.81,.93s.52-.28,.81-.89c.17-.34,.28-.75,.32-1.21,.04-.45,.04-1.17,.02-2.2-.05-1.61-.07-3.3-.07-5.03,0-1.59,0-3.17,.04-4.76,4.56,4.35,8.89,9.74,15.67,10.38,1.37,.13,2.83-.01,3.93-.84,.27-.2,.53-.49,.48-.82-.04-.31-.33-.51-.6-.66-.06-.03-.11-.06-.17-.09Zm-21.14-14.18l1.63-.03h0s-1.63,.04-1.63,.04h0s0,0,0,0Z"/>
  <g class="cls-1">
    <path class="cls-3" d="M10.38,20.29C4.06,28.99,1.4,40.61,3.72,51.09c1.17,5.22,3.42,10.15,6.14,14.74,4.06,6.91,9.74,13.23,17.08,16.81,9.91,4.43,21.84,5.43,31.91,1,5.06-2.19,9.29-5.82,13.03-9.81,3.7-4.01,7.61-7.99,10.23-12.81,3.87-7.11,5.7-15.61,3.89-23.57-1.12-5.35-4.1-10.03-7.04-14.58-5.96-8.98-15.09-16.1-25.39-19.23-10.96-3.3-21.56-.17-30.88,5.97-4.74,2.77-9.02,6.27-12.32,10.67h0Zm-.64-.48c3.32-4.5,7.77-8.03,12.5-10.93C31.71,2.32,42.55-1.3,54.05,1.97c10.86,3.08,20.21,10.64,26.28,20.02,2.97,4.72,5.95,9.62,7.03,15.18,2.28,11.1-1.84,22.81-9.27,31.11-7.62,8.65-15.05,16.35-26.97,18.29-16.57,2.58-34.63-4.95-43.75-19.19C-2.69,51.97-.93,34.34,9.74,19.8h0Z"/>
    <path class="cls-2" d="M44.6,87.44c-14.92,0-29.71-7.62-37.56-19.86C-2.63,52.75-1.73,34.81,9.44,19.58h0c2.98-4.04,7.1-7.65,12.6-11.03C32.96,1,43.77-1.34,54.15,1.61c10.46,2.97,20.11,10.32,26.49,20.18,3.26,5.17,6.04,9.89,7.08,15.31,2.16,10.52-1.43,22.57-9.36,31.43-7.87,8.93-15.34,16.48-27.19,18.41-2.18,.34-4.38,.5-6.57,.5ZM10.68,20.51C4.27,29.33,1.81,40.74,4.09,51.01c1.04,4.67,3.04,9.46,6.1,14.63,4.53,7.72,10.38,13.48,16.92,16.67,10.5,4.7,22.32,5.07,31.6,.99,4.35-1.88,8.45-4.97,12.91-9.73l1.14-1.23c3.3-3.55,6.71-7.22,9.04-11.5,4.16-7.64,5.53-15.92,3.86-23.3-1.12-5.38-4.24-10.2-6.99-14.46-6.04-9.1-15.22-16.05-25.19-19.08-9.83-2.96-20.11-.97-30.56,5.92-5.07,2.96-9.18,6.52-12.23,10.58Zm-.64-.49C-.94,34.99-1.82,52.61,7.67,67.17c4.61,7.2,11.67,12.77,19.74,16.09-.21-.09-.41-.18-.62-.27-6.68-3.26-12.65-9.12-17.25-16.96-3.1-5.24-5.12-10.1-6.18-14.85-2.33-10.48,.19-22.11,6.72-31.1h0c3.1-4.15,7.29-7.77,12.43-10.77C33.14,2.28,43.64,.26,53.69,3.29c10.13,3.07,19.46,10.14,25.6,19.38,2.79,4.32,5.94,9.2,7.09,14.71,1.71,7.56,.32,16.02-3.93,23.82-2.38,4.37-5.82,8.07-9.15,11.65l-1.14,1.23c-.31,.33-.62,.65-.93,.97,2.23-2.17,4.38-4.55,6.57-7.03,7.78-8.69,11.3-20.48,9.19-30.78-1.02-5.3-3.77-9.95-6.98-15.05-6.28-9.7-15.78-16.94-26.06-19.86-10.15-2.88-20.75-.58-31.5,6.85-5.43,3.34-9.48,6.88-12.41,10.85h0Z"/>
  </g>
  <g>
    <path d="M42.95,60.11v-.14s.68,.07,.68,.07l.62,.04v.14c-.19-.01-.29-.01-.33,0-.04,0-.07,.02-.08,.04-.02,.03-.04,.1-.05,.21,0,.03-.03,.24-.07,.62l-.03,.3c.29,.04,.64,.07,1.05,.11,.32,.03,.57,.05,.76,.05l.03-.3c.02-.2,.03-.39,.04-.58,0-.14,0-.22,0-.25-.01-.03-.04-.05-.08-.06-.04-.02-.14-.03-.31-.05v-.14c.33,.04,.54,.06,.66,.07,.04,0,.26,.02,.64,.05v.14c-.19-.01-.29-.02-.33,0-.04,0-.07,.02-.08,.04-.02,.03-.04,.1-.05,.21,0,.03-.03,.24-.07,.62l-.09,1.01c-.02,.2-.03,.39-.04,.58,0,.14,0,.22,0,.25,.01,.03,.04,.05,.08,.07,.04,.02,.14,.03,.31,.05v.14c-.29-.04-.52-.06-.7-.08-.19-.02-.39-.03-.59-.04v-.14c.19,.01,.29,.02,.33,0,.04,0,.07-.02,.08-.04,.02-.03,.04-.1,.05-.21,0-.03,.03-.24,.07-.62l.05-.5c-.41-.05-.72-.08-.93-.1-.23-.02-.52-.04-.88-.07l-.05,.5c-.02,.2-.03,.39-.05,.58,0,.14,0,.22,0,.25,.01,.03,.04,.05,.08,.07,.04,.01,.14,.03,.31,.05v.14c-.21-.03-.41-.06-.62-.08-.23-.02-.45-.04-.68-.04v-.14c.19,.01,.29,.01,.33,0,.04,0,.07-.02,.08-.04,.02-.03,.04-.1,.05-.21,0-.03,.03-.24,.07-.62l.09-1.01c.02-.2,.03-.39,.05-.58,0-.14,0-.22,0-.25-.01-.03-.04-.05-.08-.06-.04-.02-.14-.03-.31-.05Z"/>
    <path d="M47.5,61.93c0-.23,.03-.45,.09-.64,.07-.2,.18-.38,.34-.54,.16-.16,.34-.28,.54-.37s.43-.13,.7-.13c.24,0,.46,.03,.66,.09,.2,.06,.36,.15,.49,.26,.13,.11,.23,.23,.31,.36,.06,.1,.1,.21,.14,.35,.04,.13,.06,.28,.06,.43,0,.49-.15,.91-.47,1.24-.33,.33-.74,.51-1.25,.52-.23,0-.45-.03-.65-.1-.2-.07-.37-.18-.51-.32-.14-.14-.25-.32-.32-.53-.08-.21-.12-.42-.12-.62Zm.45-.19c0,.14,.02,.28,.05,.42,.03,.14,.07,.27,.11,.37,.07,.17,.17,.32,.28,.44,.12,.12,.24,.2,.38,.26,.14,.05,.3,.08,.47,.08,.24,0,.44-.07,.61-.18,.17-.12,.3-.28,.38-.49,.08-.21,.12-.45,.11-.72,0-.23-.04-.45-.1-.64-.04-.12-.09-.23-.16-.32-.06-.1-.14-.18-.23-.25-.09-.07-.2-.13-.34-.18-.14-.05-.29-.07-.45-.07-.23,0-.44,.06-.61,.17-.17,.11-.3,.26-.39,.46-.08,.2-.12,.42-.12,.67Z"/>
    <path d="M52.52,63.14l-.02-.11c.08-.06,.13-.1,.15-.13,.01-.02,.02-.03,.02-.06,0-.04,0-.13-.03-.26-.04-.2-.06-.31-.06-.35l-.24-1.16c-.04-.2-.08-.38-.13-.57-.03-.14-.06-.21-.08-.24-.02-.02-.05-.04-.09-.04s-.14,0-.32,.04l-.03-.14c.35-.06,.57-.1,.65-.12,.09-.02,.3-.07,.61-.15l.03,.14c-.17,.04-.27,.07-.31,.09-.03,.02-.06,.04-.07,.07-.01,.03,0,.1,.01,.21,0,.03,.04,.23,.12,.61l.3,1.45c.03,.15,.06,.27,.08,.37,.17-.02,.33-.05,.49-.09,.4-.08,.68-.17,.83-.25,0-.05,.02-.1,.02-.16v-.38s.16-.03,.16-.03c.01,.22,.03,.48,.06,.77-.06,.02-.1,.04-.13,.05-.07,.02-.19,.05-.34,.08l-1.28,.25c-.14,.03-.28,.06-.42,.11Z"/>
    <path d="M57.27,61.81l.04,.13c-.3,.08-.5,.13-.59,.16l-.65,.21-.04-.13c.17-.05,.26-.09,.3-.11,.03-.02,.05-.05,.06-.07,0-.03,0-.1-.03-.21,0-.03-.06-.23-.17-.6l-.29-.98c-.06-.19-.11-.38-.17-.56-.04-.13-.08-.21-.1-.23s-.05-.03-.09-.03c-.04,0-.14,.02-.31,.07l-.04-.13c.27-.07,.48-.13,.63-.17,.14-.04,.35-.11,.61-.2l.04,.13c-.17,.05-.27,.09-.3,.11-.03,.02-.05,.05-.06,.07,0,.03,0,.1,.03,.21,0,.03,.06,.23,.17,.6l.29,.97c.06,.19,.11,.38,.17,.56,.04,.13,.08,.21,.1,.23s.06,.03,.09,.03c.04,0,.14-.02,.31-.07Z"/>
    <path d="M58.58,61.56l-.05-.13c.14-.06,.23-.11,.27-.15,.02-.02,.02-.03,.03-.05,0-.03-.02-.11-.06-.23-.06-.18-.12-.34-.18-.47l-.67-1.66s-.03-.07-.04-.08c-.02-.02-.06-.04-.11-.06-.03-.01-.07-.01-.1,0-.03,0-.11,.03-.22,.07l-.05-.13c.23-.09,.37-.14,.43-.17,.1-.04,.2-.08,.29-.13,.18,.1,.31,.18,.39,.23l.63,.35,.92,.49c.29,.16,.53,.28,.7,.37,.11,.06,.2,.1,.28,.13l-.6-1.49c-.05-.13-.12-.29-.2-.46-.05-.11-.09-.18-.11-.2-.02-.01-.04-.02-.06-.02-.05,0-.15,.03-.29,.08l-.05-.13c.16-.06,.33-.12,.49-.19,.15-.06,.29-.12,.42-.18l.05,.13c-.14,.06-.23,.11-.27,.14-.02,.02-.02,.03-.02,.06,0,.03,.02,.11,.06,.23,.06,.18,.12,.34,.17,.47l.4,.98c.08,.2,.23,.57,.46,1.11l-.23,.02h-.05s-.02,0-.03,0c-.01,0-.05-.02-.11-.05-.16-.08-.29-.15-.37-.19l-.4-.23-2.14-1.14,.63,1.56c.05,.13,.12,.29,.2,.47,.05,.11,.09,.18,.11,.2,.02,.02,.04,.02,.06,.02,.05,0,.15-.03,.29-.08l.05,.13c-.12,.04-.26,.09-.4,.15-.16,.06-.33,.14-.51,.22Z"/>
  </g>
</svg>