<svg width="359" height="171" viewBox="0 0 359 171" fill="none" xmlns="http://www.w3.org/2000/svg">
<g clip-path="url(#clip0_1036_37779)">
<path d="M52 24.7C52.9 9.10004 75.4 6.10004 75.4 6.10004C75.4 6.10004 47.5 5.30004 46.4 24.8C45.4 44.4 88.3 44.2 88.3 44.2C88.3 44.2 51.2 40.3 52 24.7ZM330 71.4C330 46.4 288.6 46.7 288.6 46.7C288.6 46.7 322.2 48.6 322.2 71.1C322.2 86 287 92.5 263.4 95.2C285.5 92.2 306.1 85 306.1 68.3C306.1 35.9 198.9 45.8 156.1 44.7C113.3 43.6 91 36.6 91.6 22.5C92.2 8.40004 122 2.80004 144.5 2.80004C169.5 2.80004 176.6 11.8 176.6 15.9C176.6 20.1 173.9 25.5 157.9 25.5C147.9 25.5 143.4 18.8 145.6 17.2C147.8 15.5 156 22.2 158.1 17.8C160.2 13.4 144.5 11.1 140.6 16.3C136.7 21.6 144.1 27.5 157.9 28C158.5 28 159.1 28 159.7 28C168.3 28.6 194.2 29.2 194.2 14.4C194.2 1.40004 158 3.98606e-05 138.7 0.20004C136.4 0.20004 133.7 0.20004 130.9 0.20004C114.2 -0.69996 70.1 -0.89996 67.9 20.9C65.6 43.4 114 46.5 130 46.9C146.3 48.4 163.8 48.1 175.3 48.3C202.8 48.9 301.9 39.8 301.9 69.4C301.9 99 182.8 96.6 182.8 96.6C182.8 96.6 197.8 97.2 213.4 97.2C218.5 97.2 230 97.6 243.4 96.9C252.1 97.2 330 98.7 330 71.4ZM188.3 15C188.3 23.2 177.9 26.2 169.1 27.2C178.4 25.3 181 20.2 181 14.8C181 10.7 175 6.50004 166.4 3.70004C178.3 5.90004 188.3 9.30004 188.3 15ZM75 22C75 10.2 93.1 4.90004 109.8 2.60004C97.8 5.40004 87.5 11.3 87.2 23.9C87 34.5 96.7 40.5 110.3 43.8C93.8 40.6 75 34.2 75 22ZM320.5 49.2C320.5 49.2 349.4 53.1 348.8 71.1C348.2 89.2 323.8 91.7 323.8 91.7C323.8 91.7 358.5 89.5 359.1 70.6C359.7 51.7 320.5 49.2 320.5 49.2Z" fill="url(#paint0_linear_1036_37779)"/>
<g opacity="0.6">
<path d="M204.2 59.4001C199.3 58.7001 193.9 58.3001 188.1 58.2001C184.7 57.6001 177.3 57.2001 169.2 57.4001C157.1 57.0001 127.1 57.0001 127.1 68.8001C127.1 81.5001 159.7 82.9001 168.3 83.1001C171.5 83.4001 174.6 83.6001 177.1 83.7001C178.7 83.8001 180.1 83.9001 181.5 83.9001C192.4 83.9001 204.5 82.2001 204.5 77.3001C204.5 72.4001 180 71.5001 176.7 71.5001C173.3 71.5001 170.5 73.9001 174.6 76.0001C178.7 78.1001 178.8 75.1001 181.7 74.1001C184.6 73.2001 201.5 75.2001 201.5 77.3001C201.5 79.4001 190.8 82.3001 176.1 80.7001C161.4 79.1001 153.799 75.8001 153.9 71.4001C154 67.0001 163.1 60.3001 185.4 60.3001C207.7 60.3001 231.1 69.9001 231.1 79.8001C231.1 89.7001 205.4 97.0001 156.3 97.0001C135.1 97.0001 99.1995 94.0001 71.1995 96.1001C66.9995 95.7001 55.1995 96.0001 43.5995 98.0001C33.5995 98.7001 -0.100481 102 0.0995193 114.5C0.399519 129.2 28.5995 128.9 28.5995 128.9C28.5995 128.9 6.79952 125.7 6.79952 114.2C6.79952 106.4 25.2995 101.6 36.9995 99.4001C25.8995 102.1 16.5995 106.6 16.5995 113.8C16.5995 126.4 44.0995 131.2 60.1995 132.3C89.8995 136.3 131.3 134.6 131.3 152.9C131.3 161.8 109.7 168.6 89.4995 168.6C69.2995 168.6 52.0995 163.4 52.0995 158.3C52.0995 153.2 59.3995 151.1 68.5995 151.1C77.7995 151.1 93.5995 153.1 93.5995 156.7C93.5995 158.5 87.9995 160 81.8995 160.2C75.2995 160.4 68.1995 159.3 67.8995 158.5C67.0995 156.4 75.3995 155.9 73.4995 155C71.5995 154.1 62.1995 153.7 62.1995 157.3C62.1995 159.2 72.7995 161.8 82.7995 161.7C91.6995 161.6 99.9995 159.2 99.9995 156.8C99.9995 151.5 80.2995 149 68.6995 149C66.9995 149 65.1995 149.1 63.5995 149.2C63.8995 149.2 63.9995 149.1 63.9995 149.1C63.9995 149.1 36.3995 148.6 34.9995 157C33.6995 164.7 66.0995 168.4 72.2995 169C77.7995 169.9 83.7995 170.4 90.0995 170.4C99.1995 170.4 108 169.6 115.3 167.9C123 167.1 145.3 164.1 146.6 154C147.6 146.2 134.6 140.6 125.1 137.6C133 139.3 155.1 145.2 155.2 155.5C155.3 163.2 139 165.2 139 165.2C139 165.2 158.6 165.2 158.6 154.2C158.6 143.2 132.3 138.6 124.5 137.4C121 136.3 118 135.6 116.5 135.2C88.7995 125.4 38.7995 127.8 38.7995 115.5C38.7995 98.5001 74.9995 99.4001 141.9 99.4001C208.799 99.4001 234.8 93.0001 234.8 79.7001C234.8 73.6001 230.9 68.7001 223.9 65.1001C234.2 68.5001 244 73.0001 243.9 78.1001C243.6 88.5001 216.4 94.5001 216.4 94.5001C216.4 94.5001 250.2 92.0001 251.6 78.1001C252.8 66.2001 215.1 60.8001 204.2 59.4001ZM40.0995 157.6C40.2995 153.7 51.4995 151.2 58.4995 150C51.6995 151.5 46.9995 154.4 46.9995 158.1C46.9995 160.9 52.2995 164.1 60.6995 166.6C51.1995 164.3 39.8995 160.9 40.0995 157.6ZM143.4 153.5C143.4 159.8 129.8 164.2 120.7 166.4C129 163.6 134.3 159.3 134.3 153.4C134.3 145.8 128.9 140.6 120.6 137C128.8 140.1 143.4 146.7 143.4 153.5ZM30.5995 115.7C30.5995 118.9 31.8995 121.6 34.1995 123.7C26.9995 121.2 21.5995 117.9 21.5995 113.6C21.5995 107.3 31.9995 103.6 43.4995 101.2C35.4995 104.3 30.5995 108.9 30.5995 115.7ZM129.5 68.9001C129.5 65.5001 136.1 63.0001 144.2 61.3001C140 63.0001 137.2 65.5001 137.2 68.8001C137.2 77.4001 153.4 81.4001 166.7 82.9001C156.8 82.3001 129.5 79.6001 129.5 68.9001ZM149.1 71.1001C149.1 74.4001 152.7 77.1001 157.6 79.2001C149.3 77.3001 142.3 74.3001 142.3 68.9001C142.3 65.7001 148.3 63.8001 156 62.5001C150.1 65.2001 149.1 68.7001 149.1 71.1001Z" fill="url(#paint1_linear_1036_37779)"/>
</g>
</g>
<defs>
<linearGradient id="paint0_linear_1036_37779" x1="297.141" y1="-45.8931" x2="73.4319" y2="175.316" gradientUnits="userSpaceOnUse">
<stop stop-color="#C8B4A0"/>
<stop offset="1" stop-color="white"/>
</linearGradient>
<linearGradient id="paint1_linear_1036_37779" x1="125.826" y1="201.048" x2="125.826" y2="42.7014" gradientUnits="userSpaceOnUse">
<stop stop-color="#FCEDF4"/>
<stop offset="0.1921" stop-color="#F6E7EB"/>
<stop offset="0.5054" stop-color="#E7D6D3"/>
<stop offset="0.8987" stop-color="#CFBCAB"/>
<stop offset="1" stop-color="#C8B4A0"/>
</linearGradient>
<clipPath id="clip0_1036_37779">
<rect width="359.1" height="170.4" fill="white"/>
</clipPath>
</defs>
</svg>
