<?xml version="1.0" encoding="utf-8"?>
<!-- Generator: Adobe Illustrator 16.0.0, SVG Export Plug-In . SVG Version: 6.00 Build 0)  -->
<!DOCTYPE svg PUBLIC "-//W3C//DTD SVG 1.1//EN" "http://www.w3.org/Graphics/SVG/1.1/DTD/svg11.dtd">
<svg version="1.1" id="Layer_1" xmlns="http://www.w3.org/2000/svg" xmlns:xlink="http://www.w3.org/1999/xlink" x="0px" y="0px"
	 width="181.016px" height="170.293px" viewBox="0 0 181.016 170.293" enable-background="new 0 0 181.016 170.293"
	 xml:space="preserve">
<g>
	<defs>
		<ellipse id="SVGID_3_" cx="90.508" cy="85.146" rx="90.508" ry="85.146"/>
	</defs>
	<clipPath id="SVGID_2_">
		<use xlink:href="#SVGID_3_"  overflow="visible"/>
	</clipPath>
	<g clip-path="url(#SVGID_2_)">
		<path fill="#5E5E5E" d="M435.633-50.957v-1.965c-11.068,2.354-21.385,8.93-28.213,19.777c-4.17-0.586-8.418-0.613-12.863,0.059
			c-17.402-27.744-57.656-27.799-75.119-0.059c-4.168-0.586-8.416-0.613-12.863,0.059c-17.402-27.744-57.656-27.799-75.117-0.059
			c-4.17-0.586-8.418-0.613-12.863,0.059c-17.404-27.744-57.658-27.799-75.119-0.059c-4.17-0.586-8.418-0.613-12.863,0.059
			c-17.404-27.744-57.658-27.799-75.119-0.059c-4.17-0.586-8.418-0.613-12.863,0.059C25.226-60.83-15.028-60.885-32.49-33.145
			c-3.013-0.424-6.069-0.551-9.209-0.338v1.932c2.586-0.18,5.295-0.135,8.133,0.209C-12.675-28.811,1.51-9.129-2.543-8.426
			c-8.771,1.521-2.471,2.975-10.242-5.26c-7.859-8.328-18.556-11.963-28.914-11.074v1.916c10.301-0.912,21.003,2.881,28.521,11.582
			c4.786,5.541,3.437,4.592,0.434,5.912c-5.225,2.299-1.498,2.23-7.231-3.303c-6.061-5.848-14.055-8.277-21.724-7.412v1.965
			c7.959-0.955,16.301,1.891,22.025,8.568c3.227,3.764,2.361,1.764-3.496,6.607c-4.212-6.734-11.648-9.496-18.53-8.359v1.943
			c4.886-0.916,10.121,0.395,14.088,4.049c4.687,4.316,2.798,2.926-1.999,8.938c-1.895-5.523-7.495-7.5-12.089-6.033v2.094
			c1.913-0.848,4.237-0.998,6.596,0.256c2.207,1.172,4.944,4.174,3.083,7.004c-0.942,1.436,0.625,0.291-6.67,0.291
			c-1.23,0-2.203,0.033-3.009,0.082v1.955C-15.074,11.336,1.568,35.707-2.543,36.42c-7.785,1.352-3.676,2.633-8.467-3.266
			c-7.832-9.641-19.438-14.016-30.689-13.072v1.953c10.439-0.92,21.273,2.969,28.753,11.805c4.454,5.262,3.261,4.311,0.202,5.656
			c-6.324,2.783-0.414,1.4-10.044-5.656c-5.682-4.166-12.434-5.756-18.911-5.023v1.912c7.931-0.963,16.257,1.857,22.025,8.586
			c3.227,3.764,2.361,1.762-3.496,6.607c-4.205-6.723-11.643-9.496-18.53-8.363v1.947c4.886-0.916,10.121,0.395,14.088,4.049
			c4.688,4.316,2.794,2.932-1.999,8.938c-1.9-5.539-7.498-7.502-12.089-6.033v2.094c1.913-0.848,4.237-0.998,6.596,0.256
			c2.207,1.172,4.944,4.174,3.083,7.004c-0.938,1.428,0.563,0.291-6.67,0.291c-1.23,0-2.203,0.033-3.009,0.082v1.986
			c14.786-1.027,30.042,5.57,38.973,19.824c2.289,3.656,1.959,2.961,0.184,3.27c-7.785,1.35-3.676,2.631-8.467-3.268
			c-7.849-9.66-19.451-14.018-30.689-13.068v1.963c1.439-0.131,2.922-0.182,4.459-0.115C-19.625,67.535-8.044,82.473-10.949,83.6
			c-9.012,3.502-1.428,3.346-10.95-4.25c-5.863-4.676-12.997-6.461-19.8-5.691v1.938c0.872-0.115,1.759-0.188,2.664-0.201
			c12.453-0.15,23.098,10.357,20.184,12.23c-8.621,5.543-0.45,2.211-11.502-3.471c-3.576-1.838-7.548-2.404-11.346-1.768v1.945
			c9.549-1.627,18.783,5.975,15.734,8.963c-1.31,1.285-2.509,2.619-3.646,4.043c-1.903-5.549-7.5-7.49-12.089-6.018v2.027
			c5.811-2.502,12.279,3.354,9.679,7.311c-0.942,1.434,0.596,0.291-6.67,0.291c-1.23,0-2.203,0.033-3.009,0.08v1.99
			c14.776-1.035,30.025,5.539,38.973,19.822c2.291,3.658,1.963,2.961,0.184,3.27c-7.789,1.35-3.674,2.635-8.467-3.268
			c-7.9-9.707-19.488-14.021-30.689-13.068v1.961c1.439-0.129,2.922-0.18,4.459-0.115c17.646,0.754,29.19,15.699,26.291,16.824
			c-9.012,3.502-1.428,3.344-10.95-4.25c-5.84-4.658-12.977-6.461-19.8-5.691v1.936c0.872-0.115,1.76-0.188,2.664-0.199
			c12.885-0.18,22.958,10.447,20.184,12.23c-8.623,5.543-0.449,2.211-11.502-3.471c-3.633-1.867-7.6-2.396-11.346-1.768v1.947
			c9.549-1.627,18.783,5.973,15.734,8.961c-1.326,1.301-2.526,2.641-3.646,4.043c-1.9-5.539-7.498-7.488-12.089-6.018v1.988
			c1.194-0.518,2.624-0.738,4.305-0.451c3.682,0.627,7.486,4.586,5.375,7.801c-1.044,1.588-2.208-0.229-9.679,0.369v1.984
			c14.91-1.053,30.312,5.637,39.235,20.24c2.086,3.418,1.837,2.393-1.968,3.227c-4.924,1.076-2.381,1.813-6.064-2.949
			c-7.84-10.135-19.716-14.688-31.203-13.723v1.914c10.479-0.92,21.313,3.021,28.753,11.809c4.454,5.262,3.261,4.313,0.202,5.656
			c-5.224,2.299-1.504,2.225-7.231-3.301c-6.005-5.793-14.01-8.258-21.724-7.389v1.971c7.063-1.141,15.135,0.502,22.025,8.539
			c3.208,3.74,2.378,1.748-3.496,6.607c-4.032-6.447-11.429-9.555-18.53-8.369v1.951c6.338-1.168,13.268,1.379,17.057,7.693
			c-11.062,9.998-0.435-0.135-13.289-1.164c-1.421-0.113-2.697,0.096-3.768,0.449v1.979c1.194-0.516,2.624-0.736,4.305-0.449
			c3.682,0.627,7.487,4.586,5.375,7.801c-1.09,1.658-1.859-0.289-9.679,0.363v1.99c14.926-1.047,30.332,5.672,39.235,20.24
			c2.086,3.416,1.837,2.393-1.968,3.227c-4.924,1.076-2.382,1.813-6.064-2.949c-7.801-10.086-19.687-14.686-31.203-13.729v1.92
			c10.476-0.918,21.309,3.018,28.753,11.809c4.454,5.262,3.261,4.313,0.202,5.656c-5.224,2.299-1.504,2.225-7.231-3.301
			c-6.024-5.813-14.026-8.258-21.724-7.389v1.961c7.057-1.143,15.124,0.498,22.025,8.549c3.225,3.76,2.361,1.762-3.496,6.607
			c-4.032-6.447-11.429-9.555-18.53-8.371v1.953c6.338-1.168,13.268,1.379,17.057,7.693c-11.065,10-0.381-0.139-13.289-1.164
			c-1.425-0.113-2.701,0.098-3.768,0.449v1.979c1.194-0.516,2.624-0.736,4.305-0.449c3.682,0.627,7.487,4.586,5.375,7.801
			c-1.09,1.658-1.859-0.289-9.679,0.363v2.283c17.665-1.363,36.107,7.484,43.189,28.434c8.748,25.871-8.863,36.637-2.347,36.637
			c3.235-5.281,5.377-11.295,6.157-17.723c0.781,6.428,2.923,12.441,6.158,17.723c7.362,0-11.699-9.729-2.234-36.971
			c15.621-44.959,82.479-33.705,82.479,13.881c0,19.094-10.312,23.09-4.579,23.09c3.236-5.281,5.377-11.295,6.158-17.723
			c0.781,6.428,2.922,12.441,6.158,17.723c6.686,0-4.579-2.385-4.579-23.09c0-47.791,67.411-58.453,82.593-13.547
			c8.748,25.873-8.864,36.637-2.348,36.637c3.236-5.281,5.377-11.295,6.158-17.723c0.781,6.428,2.922,12.441,6.158,17.723
			c7.361,0-11.699-9.729-2.234-36.971c15.709-45.213,82.479-33.422,82.479,13.881c0,19.094-10.311,23.09-4.578,23.09
			c3.234-5.281,5.377-11.295,6.158-17.723c0.781,6.428,2.922,12.441,6.156,17.723c6.688,0-4.578-2.385-4.578-23.09
			c0-47.824,67.336-58.682,82.592-13.547c8.752,25.879-8.865,36.637-2.346,36.637c3.234-5.281,5.377-11.295,6.158-17.723
			c0.779,6.428,2.922,12.441,6.156,17.723c7.354,0-11.699-9.756-2.232-36.971c12.334-35.512,56.27-35.799,74.479-11.324v-2.762
			c-0.494-0.582-1.125-1.299-1.951-2.189c-1.057-1.135-0.031-2.549,1.951-3.773v-2.152c-0.814,0.484-1.605,1.021-2.352,1.643
			c-3.123,2.594-0.324,2.623-6.5-1.754c-1.184-0.836,2.607-4.932,8.852-7.365v-2.094c-2.285,0.85-4.5,2.025-6.574,3.549
			c-7.377,5.404-1.563,5.238-10.045,1.506c-1.434-0.631,5.432-8.816,16.619-12.117v-2.016c-6.826,1.834-13.203,5.717-18.125,11.648
			c-1.406,1.703-0.561,1.592-2.42,0.979c-5.607-1.852-7.576,0.014-1.676-6.555c6.188-6.891,13.996-11.201,22.221-13.041v-1.984
			c-0.053,0.01-0.1,0.018-0.154,0.031c-4.93,1.078-2.381,1.813-6.066-2.949c-14.02-18.164-41.336-18.561-55.873-0.686
			c-4.625,5.711-1.285,4.9-7.078,3.635c-3.508-0.77-3.506,0.17-1.631-2.949c15.861-26.428,53.287-27.477,70.803-3.004v-3.221
			c-0.65-0.789-1.58-1.838-2.932-3.205c0.895-1.012,1.883-1.871,2.932-2.604v-2.291c-0.813,0.482-1.604,1.02-2.352,1.641
			c-3.123,2.594-0.324,2.623-6.5-1.754c-1.184-0.836,2.607-4.932,8.852-7.365v-2.094c-2.285,0.85-4.5,2.025-6.574,3.549
			c-7.377,5.406-1.563,5.238-10.045,1.506c-1.434-0.629,5.432-8.814,16.619-12.117v-2.012c-6.842,1.842-13.221,5.734-18.125,11.645
			c-1.406,1.703-0.561,1.592-2.42,0.979c-5.611-1.854-7.576,0.016-1.676-6.555c6.188-6.887,13.996-11.199,22.221-13.041v-1.984
			c-0.053,0.01-0.1,0.02-0.154,0.031c-4.922,1.076-2.383,1.813-6.064-2.949c-14.043-18.145-41.336-18.584-55.875-0.686
			c-4.629,5.717-1.275,4.902-7.078,3.635c-3.508-0.77-3.506,0.17-1.631-2.949c15.898-26.512,53.326-27.41,70.803-3.002v-3.209
			c-0.494-0.582-1.125-1.299-1.951-2.189c-1.057-1.135-0.031-2.549,1.951-3.773v-2.15c-0.813,0.482-1.604,1.02-2.352,1.641
			c-3.123,2.594-0.324,2.623-6.5-1.754c-1.184-0.836,2.607-4.932,8.852-7.363v-2.096c-2.285,0.85-4.5,2.025-6.576,3.549
			c-7.375,5.406-1.561,5.238-10.043,1.506c-1.434-0.629,5.432-8.814,16.619-12.117v-2.012c-6.842,1.844-13.221,5.736-18.125,11.645
			c-1.406,1.703-0.561,1.592-2.42,0.979c-5.598-1.848-7.576,0.018-1.676-6.555c6.189-6.889,13.996-11.199,22.221-13.039v-1.986
			c-0.053,0.012-0.1,0.02-0.154,0.031c-4.926,1.076-2.381,1.813-6.066-2.949c-14.057-18.191-41.355-18.539-55.873-0.686
			c-4.627,5.713-1.287,4.9-7.078,3.635c-3.5-0.768-3.502,0.168-1.631-2.949c15.891-26.477,53.311-27.438,70.803-3.002v-3.209
			c-0.494-0.582-1.125-1.299-1.951-2.189c-1.057-1.135-0.031-2.549,1.951-3.771v-2.152c-0.813,0.482-1.604,1.02-2.352,1.641
			c-3.125,2.596-0.324,2.621-6.5-1.754c-1.184-0.836,2.607-4.93,8.852-7.363v-2.096c-2.285,0.85-4.498,2.027-6.576,3.549
			c-7.346,5.385-1.564,5.238-10.043,1.508c-1.52-0.67,5.477-8.809,16.619-12.107v-2.004c-7.361,1.99-14.188,6.352-19.205,13.059
			c-7.617-2.791-7.883-0.738-5.631-3.795c6.42-8.719,15.326-14.141,24.836-16.27v-1.969c-5.4,1.176-2.355,1.791-6.732-3.605
			c-14.387-17.707-41.34-17.637-55.629,0.359c-4.619,5.834-0.594,4.314-8.699,2.908c-2.76-0.479,8.508-18.119,27.662-22.27
			c21.428-4.641,37.58,8.387,43.398,16.443v-2.965c-0.494-0.584-1.125-1.301-1.951-2.189c-1.057-1.137-0.031-2.551,1.951-3.775
			v-2.15c-0.813,0.484-1.604,1.021-2.352,1.641c-3.125,2.596-0.324,2.623-6.5-1.752c-1.18-0.836,2.609-4.924,8.852-7.354v-2.086
			c-2.734,1.006-5.33,2.445-7.66,4.342c-5.939,4.824-0.617,4.164-9.693,0.371c4.648-6.014,10.771-9.943,17.354-11.828v-1.973
			c-7.346,1.984-14.17,6.338-19.205,13.07c-7.617-2.789-7.883-0.738-5.631-3.793c6.408-8.703,15.316-14.137,24.836-16.271v-1.969
			c-5.4,1.176-2.355,1.791-6.732-3.604c-14.387-17.709-41.34-17.639-55.629,0.357c-4.619,5.834-0.594,4.314-8.699,2.908
			c-2.65-0.459,8.375-18.092,27.662-22.27c21.514-4.658,37.602,8.357,43.398,16.42v-2.941c-0.494-0.584-1.125-1.301-1.951-2.189
			c-1.08-1.16-0.004-2.553,1.951-3.758v-2.166c-7.291,4.313-0.879,5.26-9.602-0.646c2.736-3.156,6.041-5.432,9.602-6.859V9.963
			c-2.734,1.006-5.33,2.447-7.66,4.342c-5.922,4.811-0.65,4.15-9.693,0.371c4.648-6.014,10.771-9.943,17.354-11.828V0.877
			c-7.346,1.982-14.17,6.338-19.205,13.068c-7.617-2.789-7.883-0.738-5.631-3.793c6.408-8.703,15.316-14.137,24.836-16.271v-1.969
			c-6.232,1.361-1.305,2.035-8.508-5.598c-14.365-15.219-38.262-14.824-52.203,0.432c-7.303,7.996-1.117,6.43-10.35,4.828
			c-2.975-0.516,13.123-26.385,41.771-22.916c13.844,1.678,24.68,10.826,29.289,17.051v-2.828c-0.93-1.148-1.893-2.268-2.932-3.316
			c0.893-1.01,1.881-1.869,2.932-2.604v-2.283c-1.563,0.934-3.025,2.107-4.316,3.553c-1.652-1.529-3.416-2.939-5.285-4.207
			c2.734-3.154,6.041-5.438,9.602-6.873v-2.066c-4.191,1.547-8.082,4.168-11.238,7.885c-1.945-1.197-3.986-2.248-6.115-3.139
			c4.637-5.998,10.76-9.945,17.354-11.846v-1.992c-7.328,1.984-14.143,6.344-19.205,13.107c-2.234-0.818-4.557-1.451-6.941-1.902
			C415.939-42.637,425.436-48.68,435.633-50.957z M318.363-31.342c20.887,2.531,35.102,22.209,31.021,22.916
			c-8.773,1.523-2.471,2.975-10.242-5.26c-14.418-15.277-38.313-14.771-52.201,0.432c-7.502,8.209-1.045,6.443-10.352,4.828
			C273.611-8.941,289.721-34.809,318.363-31.342z M331.953,215.576c-9.518-9.182-24.121-10.055-34.617-2.355
			c-10.215,7.482-3.412,8.797-10.545,5.656c-2.576-1.133-3.832-0.207,0.461-5.389c13.469-16.256,38.258-16.227,51.73-0.268
			c4.453,5.262,3.26,4.313,0.201,5.656C333.959,221.178,337.689,221.111,331.953,215.576z M328.76,225.305
			c-5.162-8.254-15.865-11.086-24.398-6.332c-11.078,6.17-2.229,9.121-11.463,3.189c-3.854-2.479,21.604-24.17,39.357-3.467
			C335.482,222.463,334.615,220.457,328.76,225.305z M341.432,213.221c-14.133-18.262-41.43-18.467-55.873-0.686
			c-4.637,5.705-1.266,4.906-7.08,3.635c-3.506-0.768-3.506,0.17-1.631-2.949c16.393-27.332,55.932-27.582,72.617-0.277
			c2.09,3.416,1.832,2.395-1.967,3.227C342.572,217.246,345.115,217.982,341.432,213.221z M243.971,215.576
			c-9.455-9.123-24.061-10.098-34.617-2.355c-10.213,7.482-3.412,8.797-10.545,5.656c-2.576-1.133-3.824-0.215,0.461-5.389
			c13.418-16.23,38.193-16.254,51.73-0.268c4.453,5.262,3.262,4.313,0.203,5.656C245.979,221.176,249.699,221.104,243.971,215.576z
			 M240.777,225.305c-5.172-8.27-15.879-11.076-24.396-6.332c-11.088,6.168-2.225,9.125-11.463,3.189
			c-3.871-2.49,21.6-24.172,39.355-3.465C247.498,222.457,246.635,220.459,240.777,225.305z M253.449,213.221
			c-14.045-18.162-41.346-18.564-55.873-0.686c-4.633,5.707-1.273,4.904-7.08,3.635c-3.506-0.768-3.504,0.17-1.629-2.949
			c16.389-27.332,55.928-27.584,72.615-0.277c2.086,3.416,1.836,2.393-1.967,3.227C254.592,217.246,257.133,217.982,253.449,213.221
			z M155.988,215.576c-9.576-9.236-24.188-10.004-34.616-2.355c-10.214,7.482-3.413,8.797-10.546,5.656
			c-2.576-1.133-3.826-0.215,0.461-5.389c13.444-16.264,38.24-16.225,51.73-0.268c4.454,5.262,3.26,4.313,0.203,5.656
			C157.994,221.176,161.723,221.109,155.988,215.576z M152.795,225.305c-5.172-8.27-15.879-11.076-24.396-6.332
			c-11.088,6.17-2.212,9.135-11.464,3.189c-3.853-2.479,21.599-24.17,39.356-3.467C159.516,222.459,158.652,220.457,152.795,225.305
			z M165.468,213.221c-14.069-18.191-41.37-18.535-55.874-0.686c-4.633,5.707-1.271,4.904-7.08,3.635
			c-3.508-0.77-3.504,0.17-1.629-2.949c16.39-27.33,55.93-27.582,72.615-0.277c2.086,3.416,1.838,2.393-1.967,3.227
			C166.608,217.246,169.15,217.982,165.468,213.221z M68.006,215.576c-9.502-9.17-24.119-10.055-34.615-2.355
			c-10.215,7.482-3.412,8.797-10.546,5.656c-2.577-1.133-3.825-0.215,0.46-5.389c13.418-16.23,38.217-16.252,51.731-0.268
			c4.454,5.262,3.26,4.313,0.202,5.656C70.014,221.176,73.734,221.102,68.006,215.576z M64.813,225.305
			c-5.184-8.287-15.895-11.068-24.396-6.332c-11.086,6.168-2.225,9.125-11.463,3.189c-3.85-2.475,21.602-24.166,39.355-3.467
			C71.535,222.461,70.67,220.457,64.813,225.305z M77.486,213.221c-14.068-18.189-41.369-18.539-55.875-0.686
			c-4.632,5.707-1.273,4.904-7.08,3.635c-3.505-0.768-3.504,0.17-1.629-2.949c16.335-27.264,55.891-27.646,72.616-0.277
			c2.086,3.418,1.837,2.393-1.968,3.227C78.627,217.246,81.169,217.982,77.486,213.221z M112.157-25.76
			c-1.858,1.281-3.609,2.703-5.247,4.246c-7.223-8.398-20.096-8.572-27.521-0.256c-1.652-1.529-3.414-2.939-5.283-4.207
			C84.246-37.68,102.219-37.502,112.157-25.76z M72.467-27.031c-1.945-1.197-3.987-2.248-6.113-3.139
			c13.581-17.572,39.93-17.588,53.479,0.162c-2.106,0.904-4.126,1.973-6.05,3.18C103.064-39.715,83.385-39.893,72.467-27.031z
			 M105.537-20.166c-1.613,1.656-3.096,3.438-4.438,5.328c-3.709-5.693-11.898-5.906-15.885-0.354
			c-1.347-1.859-2.829-3.615-4.441-5.244C87.41-27.938,99.057-27.822,105.537-20.166z M99.894-13.047
			c-0.86,1.348-1.654,2.742-2.368,4.184c-11.77-1.189-6.395,2.615-11.124-4.607C89.518-18.785,97.129-18.52,99.894-13.047z
			 M127.64,10.775c1.641,2.313,1.466,0.521-5.96,3.322C107.42-5.158,78.813-5.186,64.5,13.945c-7.617-2.789-7.882-0.736-5.631-3.793
			C76.023-13.139,110.836-12.918,127.64,10.775z M200.139-25.76c-1.857,1.281-3.609,2.703-5.246,4.246
			c-7.223-8.398-20.096-8.572-27.521-0.256c-1.652-1.529-3.415-2.939-5.284-4.207C172.229-37.68,190.201-37.502,200.139-25.76z
			 M160.448-27.031c-1.944-1.197-3.986-2.248-6.113-3.139c13.581-17.572,39.931-17.588,53.479,0.162
			c-2.105,0.904-4.125,1.973-6.049,3.18C191.047-39.715,171.367-39.893,160.448-27.031z M193.52-20.166
			c-1.613,1.656-3.096,3.438-4.438,5.328c-3.709-5.693-11.899-5.906-15.885-0.354c-1.348-1.859-2.83-3.615-4.442-5.244
			C175.393-27.936,187.039-27.822,193.52-20.166z M187.877-13.047c-0.861,1.348-1.654,2.742-2.369,4.184
			c-11.771-1.189-6.393,2.617-11.125-4.607C177.5-18.785,185.111-18.52,187.877-13.047z M215.621,10.775
			c1.635,2.303,1.475,0.518-5.959,3.322c-14.268-19.266-42.875-19.271-57.181-0.152c-7.616-2.789-7.882-0.736-5.63-3.793
			C163.971-13.092,198.781-12.973,215.621,10.775z M288.121-25.76c-1.857,1.281-3.609,2.703-5.248,4.246
			c-7.221-8.398-20.094-8.572-27.52-0.256c-1.652-1.529-3.416-2.939-5.285-4.207C260.209-37.68,278.182-37.502,288.121-25.76z
			 M248.43-27.031c-1.943-1.197-3.986-2.248-6.113-3.139c13.582-17.572,39.932-17.588,53.48,0.162
			c-2.105,0.904-4.125,1.973-6.049,3.18C279.029-39.715,259.35-39.893,248.43-27.031z M281.502-20.166
			c-1.613,1.656-3.096,3.438-4.438,5.328c-3.709-5.693-11.9-5.906-15.885-0.354c-1.348-1.859-2.83-3.615-4.443-5.244
			C263.375-27.938,275.021-27.822,281.502-20.166z M275.857-13.047c-0.861,1.348-1.654,2.742-2.367,4.184
			c-11.771-1.189-6.395,2.617-11.125-4.607C265.482-18.785,273.094-18.52,275.857-13.047z M303.604,10.775
			c1.641,2.313,1.467,0.521-5.961,3.322c-14.305-19.318-42.914-19.219-57.18-0.152c-7.615-2.789-7.881-0.736-5.629-3.793
			C252-13.154,286.813-12.902,303.604,10.775z M281.412,201.207c-6.816-6.311-17.104-6.473-24.094-0.67
			c-3.127,2.596-0.324,2.623-6.5-1.754c-2.227-1.574,13.131-14.66,29.328-6.566c2.221,1.109,8.82,5.656,7.531,6.566
			C281.52,203.146,283.818,203.436,281.412,201.207z M281.502,204.061c-8.289,8.506-0.818,5.113-8.709,1.715
			c-2.314-0.996-4.676-1.025-7.012-0.191c-8.439,3.012-0.615,6.715-9.045-1.793C263.422,196.238,275.107,196.506,281.502,204.061z
			 M253.096,192.873c-7.377,5.404-1.563,5.24-10.045,1.506c-1.797-0.789,9.453-13.486,25.945-13.486
			c17.018,0,27.363,13.086,26.449,13.486c-6.686,2.941-5.121,3.672-6.396,2.252C279.871,186.416,264.406,184.576,253.096,192.873z
			 M241.545,191.895c-1.41,1.701-0.555,1.594-2.42,0.979c-5.609-1.852-7.576,0.016-1.676-6.555
			c18.643-20.746,51.793-18.209,67.074,5.186c-7.539,1.514-6.361,2.627-7.334,1.369
			C283.045,174.629,255.988,174.488,241.545,191.895z M226.016,180.57c-1.596-0.127-3.021,0.141-4.164,0.574
			c-10.514,4-0.137,10.734-10.822,0.887c6.227-10.893,21.814-11.063,28.273-0.297C228.242,191.732,238.869,181.6,226.016,180.57z
			 M231.926,190.35c-1.234,1.877-2.051-0.871-13.168,0.771c-2.701,0.393-0.342-9.959,7.795-8.572
			C230.236,183.176,234.039,187.137,231.926,190.35z M193.43,201.207c-6.752-6.25-17.035-6.529-24.094-0.67
			c-3.126,2.596-0.324,2.623-6.5-1.754c-2.217-1.568,13.158-14.646,29.328-6.566c2.213,1.105,8.82,5.654,7.531,6.566
			C193.537,203.146,195.836,203.436,193.43,201.207z M193.52,204.061c-8.289,8.506-0.818,5.113-8.709,1.715
			c-2.348-1.01-4.707-1.014-7.012-0.191c-8.439,3.012-0.615,6.715-9.044-1.793C175.458,196.219,187.139,196.525,193.52,204.061z
			 M165.113,192.873c-7.376,5.404-1.563,5.238-10.045,1.506c-1.801-0.791,9.469-13.486,25.947-13.486
			c17.029,0,27.373,13.08,26.447,13.486c-6.727,2.961-5.111,3.682-6.395,2.252C191.92,186.451,176.46,184.551,165.113,192.873z
			 M153.563,191.896c-1.412,1.699-0.553,1.592-2.419,0.977c-5.499-1.816-7.565,0.002-1.677-6.555
			c18.599-20.707,51.773-18.24,67.074,5.186c-7.541,1.514-6.361,2.627-7.332,1.369C194.982,174.523,167.916,174.588,153.563,191.896
			z M138.033,180.57c-1.596-0.127-3.021,0.141-4.163,0.574c-10.5,3.994-0.149,10.721-10.823,0.887
			c6.221-10.883,21.811-11.07,28.274-0.297C140.256,191.732,150.891,181.6,138.033,180.57z M143.944,190.35
			c-1.226,1.863-2.033-0.873-13.169,0.771c-2.7,0.391-0.342-9.959,7.795-8.572C142.252,183.176,146.057,187.135,143.944,190.35z
			 M105.447,201.207c-6.751-6.25-17.035-6.529-24.094-0.67c-3.125,2.596-0.323,2.623-6.5-1.754
			c-2.221-1.572,13.137-14.658,29.328-6.566c2.214,1.105,8.822,5.656,7.531,6.566C105.555,203.146,107.854,203.436,105.447,201.207z
			 M105.537,204.061c-8.289,8.506-0.818,5.113-8.709,1.715c-2.348-1.01-4.707-1.014-7.012-0.191
			c-8.439,3.012-0.615,6.715-9.043-1.793C87.473,196.223,99.156,196.521,105.537,204.061z M77.131,192.873
			c-7.375,5.404-1.563,5.24-10.045,1.506c-1.797-0.789,9.456-13.486,25.947-13.486c16.977,0,27.4,13.068,26.447,13.486
			c-6.723,2.959-5.113,3.68-6.396,2.252C103.904,186.412,88.439,184.582,77.131,192.873z M65.58,191.896
			c-1.412,1.699-0.553,1.592-2.418,0.977c-5.5-1.816-7.564-0.002-1.677-6.555c18.638-20.752,51.799-18.199,67.073,5.186
			c-7.541,1.514-6.359,2.627-7.332,1.369C107.086,174.635,80.021,174.482,65.58,191.896z M125.539-0.664
			c6.213-6.387,16.277-6.646,22.814-0.627c4.688,4.318,2.795,2.93-2,8.938c-3.054-8.902-15.698-8.584-18.301,0.459
			C123.077,1.701,121.584,3.402,125.539-0.664z M121.581,1.361c-5.937-5.01-6.414-3.002-3.979-6.09
			c9.813-12.445,28.441-12.754,38.689-0.803c3.225,3.762,2.361,1.762-3.496,6.607C145.541-10.52,128.641-10.395,121.581,1.361z
			 M140.861,3.963c2.206,1.172,4.943,4.174,3.083,7.004c-0.938,1.428,0.563,0.291-6.67,0.291c-7.724,0-6.147,1.268-7.172-0.291
			C128.067,7.871,134.226,0.441,140.861,3.963z M173.421,36.42c-7.784,1.352-3.676,2.633-8.466-3.266
			c-14.365-17.713-41.4-17.627-55.629,0.357c-4.619,5.834-0.607,4.313-8.699,2.908c-2.742-0.475,8.519-18.123,27.661-22.27
			C158.377,7.635,177.818,35.658,173.421,36.42z M213.521-0.664c6.154-6.326,16.217-6.703,22.814-0.627
			c4.686,4.316,2.797,2.926-2,8.938c-3.049-8.889-15.695-8.598-18.301,0.457C211.059,1.701,209.564,3.402,213.521-0.664z
			 M209.563,1.361c-5.936-5.01-6.412-3.004-3.979-6.09c9.813-12.445,28.443-12.754,38.689-0.803
			c3.225,3.764,2.359,1.764-3.496,6.607C233.5-10.557,216.602-10.359,209.563,1.361z M228.844,3.963
			c2.205,1.172,4.943,4.174,3.082,7.004c-0.941,1.436,0.625,0.291-6.67,0.291c-7.748,0-6.148,1.266-7.172-0.291
			C215.994,7.787,222.291,0.484,228.844,3.963z M261.402,36.42c-7.783,1.352-3.676,2.633-8.465-3.266
			c-14.34-17.65-41.33-17.695-55.629,0.357c-4.619,5.834-0.607,4.313-8.699,2.908c-2.76-0.479,8.506-18.119,27.66-22.27
			C246.342,7.639,265.816,35.656,261.402,36.42z M243.971,170.73c-9.557-9.223-24.174-10.016-34.617-2.355
			c-10.213,7.482-3.412,8.797-10.545,5.656c-2.576-1.133-3.826-0.213,0.461-5.387c13.393-16.203,38.164-16.291,51.73-0.27
			c4.453,5.262,3.262,4.313,0.203,5.656C245.979,176.33,249.699,176.258,243.971,170.73z M240.777,180.459
			c-5.172-8.27-15.879-11.076-24.396-6.332c-11.633,6.477-1.957,9.301-11.463,3.189c-3.871-2.49,21.604-24.168,39.355-3.465
			C247.48,177.592,246.65,175.6,240.777,180.459z M253.449,168.375c-14.148-18.295-41.455-18.432-55.873-0.686
			c-4.633,5.707-1.271,4.904-7.08,3.635c-3.506-0.768-3.504,0.17-1.629-2.949c16.32-27.217,55.852-27.709,72.615-0.277
			c2.086,3.416,1.836,2.393-1.967,3.227C254.592,172.4,257.133,173.137,253.449,168.375z M155.988,170.73
			c-9.633-9.293-24.252-9.957-34.616-2.355c-10.214,7.482-3.413,8.797-10.546,5.656c-2.576-1.133-3.826-0.213,0.461-5.387
			c13.35-16.15,38.148-16.334,51.73-0.27c4.455,5.262,3.262,4.313,0.203,5.656C157.994,176.332,161.723,176.264,155.988,170.73z
			 M152.795,180.459c-5.172-8.27-15.879-11.076-24.396-6.332c-11.375,6.332-2.086,9.217-11.464,3.189
			c-3.858-2.482,21.61-24.166,39.356-3.465C159.516,177.611,158.652,175.611,152.795,180.459z M165.468,168.375
			c-14.067-18.189-41.368-18.539-55.874-0.686c-4.633,5.707-1.271,4.904-7.08,3.635c-3.508-0.77-3.504,0.17-1.629-2.949
			c16.426-27.416,55.978-27.504,72.615-0.277c2.086,3.418,1.838,2.393-1.967,3.227C166.608,172.4,169.15,173.137,165.468,168.375z
			 M181.016,18.859c6.605,0,13.346,4.895,11.779,6.58c-6.168,6.633-1.605,4.9-6.619,1.697c-1.967-1.258-4.604-1.865-7.213-1.297
			c-9.807,2.141-1.692,7.703-9.227-0.4C167.25,22.766,176.197,18.859,181.016,18.859z M162.087,18.869
			c10.115-11.676,28.151-11.482,38.052,0.217c-8.408,5.801-2.502,5.039-9.363,0.695c-5.635-3.57-12.91-3.867-18.938-0.355
			C164.303,23.814,170.862,24.816,162.087,18.869z M186.201,29.578c2.588,2.367,1.381,2.217-0.693,6.404
			c-11.853-1.197-6.366,2.662-11.125-4.607C176.979,26.949,182.684,26.359,186.201,29.578z M215.621,55.621
			c1.635,2.303,1.475,0.518-5.959,3.322c-14.293-19.303-42.902-19.236-57.181-0.152c-7.616-2.789-7.882-0.736-5.63-3.793
			C163.971,31.754,198.781,31.873,215.621,55.621z M193.43,156.361c-6.752-6.25-17.035-6.529-24.094-0.67
			c-3.126,2.596-0.324,2.623-6.5-1.754c-2.217-1.568,13.158-14.646,29.328-6.566c2.213,1.105,8.82,5.654,7.531,6.566
			C193.537,158.301,195.836,158.59,193.43,156.361z M193.52,159.215c-8.289,8.506-0.818,5.113-8.709,1.717
			c-2.348-1.012-4.707-1.016-7.012-0.193c-8.441,3.014-0.613,6.717-9.044-1.793C175.458,151.373,187.139,151.68,193.52,159.215z
			 M165.112,148.027c-7.375,5.404-1.562,5.238-10.044,1.506c-1.787-0.785,9.453-13.486,25.947-13.486
			c16.994,0,27.393,13.072,26.447,13.486c-6.68,2.939-5.121,3.67-6.396,2.252C191.887,141.568,176.42,139.734,165.112,148.027z
			 M153.563,147.051c-1.412,1.699-0.553,1.592-2.419,0.977c-5.554-1.834-7.569,0.006-1.677-6.555
			c18.541-20.641,51.725-18.314,67.074,5.186c-7.717,1.549-6.338,2.656-7.332,1.369C195.064,129.785,168,129.641,153.563,147.051z
			 M181.016,125.447c-5.748,0-2.775,1.514-6.633-4.381c3.138-5.352,10.758-4.994,13.494,0.424
			C184.348,127.008,187.256,125.447,181.016,125.447z M184.811,116.086c-2.344-1.01-4.701-1.016-7.012-0.193
			c-8.451,3.018-0.61,6.719-9.044-1.791c6.707-7.578,18.388-7.264,24.765,0.268C185.227,122.879,192.699,119.482,184.811,116.086z
			 M193.43,111.516c-6.74-6.24-17.026-6.537-24.094-0.67c-3.125,2.596-0.324,2.621-6.5-1.754
			c-2.225-1.572,13.137-14.658,29.328-6.566c2.213,1.105,8.82,5.654,7.531,6.566C193.537,113.455,195.838,113.744,193.43,111.516z
			 M198.586,104.498c-9.986-8.6-24.563-8.627-34.56-0.502c-5.922,4.813-0.626,4.166-9.691,0.371
			c13.653-17.666,40.048-17.428,53.479,0.162C199.227,108.219,203.734,108.932,198.586,104.498z M152.481,103.637
			c-7.616-2.789-7.882-0.738-5.63-3.795c17.083-23.193,51.898-23.166,68.77,0.625c1.633,2.301,1.475,0.518-5.959,3.322
			C195.432,84.559,166.827,84.48,152.481,103.637z M174.383,76.221c2.589-4.414,8.291-5.025,11.818-1.797
			c2.588,2.367,1.381,2.217-0.693,6.404C173.655,79.631,179.142,83.488,174.383,76.221z M186.176,71.982
			c-1.967-1.258-4.604-1.865-7.213-1.297c-9.807,2.139-1.692,7.703-9.227-0.402c-2.486-2.674,6.461-6.578,11.279-6.578
			c6.096,0,13.52,4.707,11.779,6.578C186.627,76.918,191.189,75.184,186.176,71.982z M190.775,64.627
			c-5.635-3.57-12.91-3.867-18.938-0.355c-7.54,4.391-0.981,5.387-9.751-0.557c10.115-11.676,28.151-11.482,38.052,0.217
			C191.73,69.732,197.637,68.971,190.775,64.627z M198.586,59.652c-9.986-8.598-24.563-8.627-34.56-0.502
			c-5.923,4.813-0.626,4.166-9.691,0.371c13.654-17.668,40.058-17.424,53.479,0.162C199.227,63.373,203.734,64.084,198.586,59.652z
			 M163.221,39.496c-6.324,2.783-0.416,1.4-10.045-5.656c-11.043-8.096-25.957-6.486-35.137,2.857
			c-6.021,6.129-0.43,5.184-9.771,1.756c12.008-20.246,39.953-22.094,54.75-4.613C167.473,39.102,166.279,38.15,163.221,39.496z
			 M117.602,40.117c9.802-12.43,28.392-12.813,38.689-0.803c3.225,3.762,2.361,1.762-3.496,6.607
			c-7.26-11.604-24.156-11.467-31.214,0.285C115.645,41.197,115.168,43.203,117.602,40.117z M125.539,44.182
			c6.213-6.387,16.277-6.646,22.814-0.627c4.689,4.32,2.792,2.934-2,8.938c-3.054-8.902-15.698-8.584-18.301,0.457
			C123.078,46.545,121.584,48.248,125.539,44.182z M140.861,48.809c2.206,1.172,4.943,4.174,3.083,7.004
			c-0.942,1.436,0.595,0.291-6.67,0.291c-7.724,0-6.147,1.268-7.171-0.291C128.072,52.725,134.223,45.285,140.861,48.809z
			 M173.421,81.266c-7.784,1.35-3.676,2.631-8.466-3.268c-14.364-17.711-41.4-17.627-55.629,0.359
			c-4.619,5.834-0.607,4.313-8.699,2.908c-2.73-0.475,8.533-18.125,27.661-22.27C158.379,52.48,177.818,80.504,173.421,81.266z
			 M163.018,78.684c4.455,5.264,3.262,4.313,0.203,5.658c-6.324,2.783-0.415,1.4-10.045-5.658
			c-11.043-8.094-25.957-6.484-35.137,2.859c-6.025,6.133-0.43,5.184-9.771,1.756C120.275,63.053,148.221,61.205,163.018,78.684z
			 M117.602,84.961c9.802-12.428,28.392-12.811,38.689-0.801c3.225,3.762,2.361,1.762-3.496,6.607
			c-7.242-11.578-24.139-11.498-31.214,0.285C115.645,86.043,115.167,88.049,117.602,84.961z M125.539,89.025
			c6.213-6.385,16.278-6.645,22.814-0.625c4.697,4.326,2.777,2.951-2,8.938c-3.054-8.904-15.698-8.586-18.301,0.457
			C123.077,91.391,121.584,93.092,125.539,89.025z M138.57,92.857c3.686,0.629,7.485,4.588,5.374,7.801
			c-1.224,1.861-2.054-0.869-13.169,0.771C128.069,101.828,130.423,91.467,138.57,92.857z M173.5,123.252
			c2.082,3.418,1.844,2.393-1.967,3.227c-4.926,1.076-2.383,1.813-6.065-2.949c-14.231-18.383-41.522-18.348-55.874-0.686
			c-4.633,5.707-1.273,4.904-7.08,3.635c-3.51-0.77-3.502,0.17-1.629-2.949C117.336,96.119,156.862,96.025,173.5,123.252z
			 M111.287,123.799c13.357-16.158,38.117-16.33,51.73-0.27c4.454,5.264,3.261,4.313,0.203,5.658
			c-5.227,2.299-1.494,2.234-7.232-3.303c-9.478-9.143-24.078-10.082-34.615-2.355c-10.25,7.512-3.398,8.803-10.547,5.658
			C108.25,128.053,107,128.973,111.287,123.799z M156.291,129.006c3.224,3.762,2.363,1.76-3.496,6.607
			c-5.172-8.27-15.879-11.076-24.396-6.332c-11.176,6.223-2.18,9.156-11.464,3.189C113.032,129.961,138.557,108.328,156.291,129.006
			z M151.321,136.889c-11.065,9.998-0.431-0.133-13.288-1.164c-1.596-0.127-3.021,0.141-4.163,0.574
			c-10.514,4-0.139,10.738-10.823,0.887C129.27,126.297,144.864,126.127,151.321,136.889z M138.57,137.703
			c3.682,0.627,7.486,4.586,5.374,7.801c-1.226,1.863-2.033-0.873-13.169,0.771C128.075,146.666,130.434,136.316,138.57,137.703z
			 M174.383,165.912c3.137-5.352,10.758-4.994,13.494,0.422c-3.521,5.508-0.605,3.959-6.861,3.959
			C175.262,170.293,178.249,171.811,174.383,165.912z M226.553,137.703c3.684,0.629,7.486,4.586,5.373,7.801
			c-1.188,1.807-2.527-0.801-13.168,0.771C216.057,146.668,218.416,136.316,226.553,137.703z M226.016,135.725
			c-1.596-0.127-3.021,0.141-4.164,0.574c-10.514,4-0.137,10.734-10.822,0.887c6.223-10.885,21.813-11.063,28.273-0.297
			C228.24,146.891,238.873,136.756,226.016,135.725z M216.381,129.281c-11.633,6.477-1.957,9.301-11.463,3.189
			c-3.906-2.514,21.631-24.137,39.355-3.465c3.225,3.762,2.361,1.762-3.496,6.607C235.605,127.344,224.898,124.537,216.381,129.281z
			 M243.971,125.885c-9.469-9.137-24.078-10.084-34.615-2.355c-10.25,7.512-3.398,8.803-10.547,5.658
			c-2.576-1.135-3.826-0.215,0.461-5.389c13.33-16.127,38.092-16.359,51.73-0.27c4.453,5.262,3.262,4.313,0.203,5.658
			C245.979,131.484,249.701,131.412,243.971,125.885z M253.449,123.529c-14.188-18.344-41.49-18.387-55.873-0.686
			c-4.633,5.707-1.273,4.904-7.08,3.635c-3.51-0.77-3.5,0.17-1.629-2.949c16.43-27.373,55.955-27.541,72.615-0.277
			c2.082,3.418,1.844,2.391-1.967,3.227C254.59,127.555,257.133,128.291,253.449,123.529z M231.926,100.658
			c-1.188,1.807-2.525-0.801-13.168,0.771c-2.707,0.398-0.354-9.963,7.795-8.572C230.238,93.486,234.037,97.445,231.926,100.658z
			 M216.035,97.795c-4.977-6.404-6.471-4.703-2.514-8.77c6.166-6.338,16.229-6.689,22.814-0.625c4.688,4.316,2.787,2.938-2,8.938
			C231.287,88.447,218.641,88.738,216.035,97.795z M209.563,91.053c-5.943-5.018-6.416-3-3.979-6.092
			c9.762-12.377,28.34-12.871,38.689-0.801c3.225,3.762,2.359,1.762-3.496,6.607C233.518,79.162,216.621,79.299,209.563,91.053z
			 M241.158,78.684c-11.066-8.109-25.973-6.467-35.137,2.859c-6.029,6.137-0.428,5.186-9.771,1.756
			c12.01-20.242,39.949-22.098,54.75-4.615c4.455,5.264,3.262,4.313,0.203,5.658C244.879,87.125,250.787,85.74,241.158,78.684z
			 M252.938,77.998c-14.34-17.648-41.33-17.693-55.629,0.359c-4.623,5.838-0.594,4.314-8.699,2.908
			c-2.76-0.479,8.506-18.119,27.66-22.27c29.924-6.479,49.57,21.5,45.133,22.27C253.613,82.617,257.73,83.9,252.938,77.998z
			 M231.926,55.813c-0.938,1.428,0.564,0.291-6.67,0.291c-7.748,0-6.148,1.266-7.172-0.291c-2.027-3.086,4.113-10.533,10.76-7.004
			C231.049,49.98,233.787,52.982,231.926,55.813z M216.035,52.949c-4.977-6.404-6.471-4.701-2.514-8.768
			c6.154-6.326,16.217-6.703,22.814-0.627c4.688,4.316,2.793,2.932-2,8.938C231.285,43.602,218.641,43.895,216.035,52.949z
			 M209.563,46.207c-5.934-5.008-6.412-3.004-3.979-6.09c9.762-12.379,28.34-12.873,38.689-0.803
			c3.225,3.764,2.359,1.762-3.496,6.607C233.518,34.316,216.621,34.455,209.563,46.207z M241.158,33.84
			c-11.066-8.111-25.973-6.469-35.137,2.857c-6.029,6.137-0.428,5.188-9.771,1.756c12.014-20.25,39.957-22.088,54.75-4.613
			c4.455,5.262,3.262,4.311,0.203,5.656C244.881,42.279,250.785,40.895,241.158,33.84z M198.586,14.807
			c-10.098-8.693-24.672-8.537-34.56-0.502c-5.923,4.813-0.626,4.166-9.691,0.371c13.651-17.664,40.054-17.43,53.479,0.162
			C199.227,18.527,203.734,19.238,198.586,14.807z M110.604,14.807c-10.096-8.691-24.672-8.539-34.559-0.502
			c-5.916,4.807-0.645,4.158-9.691,0.371c13.623-17.633,40.031-17.457,53.479,0.162C111.245,18.527,115.75,19.238,110.604,14.807z
			 M112.157,19.086c-8.409,5.801-2.504,5.039-9.364,0.695c-5.635-3.57-12.91-3.865-18.938-0.355
			c-7.533,4.387-0.977,5.391-9.75-0.557C84.28,7.127,102.313,7.453,112.157,19.086z M93.033,18.859c6.096,0,13.52,4.707,11.779,6.58
			c-6.154,6.619-1.617,4.893-6.619,1.697c-1.969-1.258-4.607-1.865-7.213-1.297c-9.807,2.141-1.691,7.703-9.227-0.4
			C79.268,22.764,88.215,18.859,93.033,18.859z M98.219,29.578c2.585,2.365,1.383,2.213-0.693,6.404
			c-11.854-1.197-6.365,2.662-11.124-4.607C88.973,26.99,94.67,26.328,98.219,29.578z M127.64,55.621
			c1.641,2.313,1.466,0.521-5.96,3.322c-14.288-19.309-42.908-19.229-57.18-0.152c-7.617-2.791-7.881-0.738-5.631-3.793
			C76.025,31.705,110.838,31.932,127.64,55.621z M119.833,59.684c-8.588,3.689-4.082,4.4-9.229-0.031
			c-10.096-8.691-24.672-8.539-34.559-0.502c-5.916,4.807-0.645,4.158-9.691,0.371C79.977,41.889,106.385,42.064,119.833,59.684z
			 M112.157,63.932c-8.409,5.801-2.504,5.039-9.364,0.695c-5.635-3.57-12.91-3.865-18.938-0.355
			c-7.533,4.387-0.977,5.391-9.75-0.557C84.28,51.973,102.313,52.299,112.157,63.932z M93.033,63.705
			c6.629,0,13.336,4.906,11.779,6.578c-6.154,6.621-1.617,4.895-6.619,1.699c-1.969-1.258-4.607-1.865-7.213-1.297
			c-9.807,2.139-1.691,7.703-9.227-0.402C79.268,67.609,88.215,63.705,93.033,63.705z M98.219,74.424
			c2.585,2.365,1.383,2.213-0.693,6.404c-11.854-1.199-6.365,2.662-11.124-4.607C88.99,71.805,94.693,71.197,98.219,74.424z
			 M127.64,100.467c1.634,2.303,1.475,0.518-5.96,3.32c-14.232-19.232-42.832-19.309-57.18-0.15
			c-7.618-2.791-7.881-0.74-5.631-3.795C76.023,76.553,110.836,76.773,127.64,100.467z M119.833,104.529
			c-8.587,3.697-4.104,4.381-9.229-0.031c-10.096-8.693-24.672-8.541-34.559-0.502c-5.929,4.816-0.608,4.172-9.691,0.371
			C79.966,86.746,106.373,86.895,119.833,104.529z M104.182,102.525c2.214,1.105,8.82,5.654,7.531,6.566
			c-6.158,4.363-3.857,4.652-6.266,2.424c-6.74-6.24-17.025-6.537-24.094-0.67c-3.125,2.596-0.323,2.621-6.5-1.754
			C72.629,107.52,87.99,94.434,104.182,102.525z M105.537,114.369c-8.287,8.508-0.823,5.113-8.709,1.717
			c-2.344-1.01-4.701-1.016-7.012-0.193c-8.451,3.018-0.609,6.719-9.043-1.791C87.477,106.527,99.156,106.834,105.537,114.369z
			 M99.894,121.49c-3.528,5.518-0.62,3.957-6.86,3.957c-5.749,0-2.773,1.514-6.632-4.381
			C89.554,115.689,97.175,116.107,99.894,121.49z M128.559,146.658c-7.54,1.514-6.36,2.627-7.332,1.369
			c-14.141-18.236-41.204-18.391-55.646-0.977c-1.412,1.699-0.553,1.592-2.418,0.977c-5.558-1.834-7.571,0.008-1.677-6.555
			C80.123,120.721,113.281,123.27,128.559,146.658z M93.033,136.047c17.108,0,27.34,13.096,26.447,13.486
			c-6.682,2.941-5.121,3.67-6.396,2.252c-9.155-10.189-24.624-12.068-35.954-3.758c-7.346,5.383-1.566,5.236-10.045,1.506
			C65.286,148.742,76.547,136.047,93.033,136.047z M104.182,147.371c2.213,1.105,8.82,5.654,7.531,6.566
			c-6.158,4.363-3.858,4.652-6.266,2.424c-6.751-6.25-17.035-6.529-24.094-0.67c-3.125,2.596-0.323,2.621-6.5-1.754
			C72.633,152.367,87.99,139.279,104.182,147.371z M105.537,159.215c-8.285,8.506-0.821,5.113-8.709,1.717
			c-2.348-1.012-4.707-1.016-7.012-0.193c-8.449,3.016-0.595,6.734-9.043-1.793C87.496,151.35,99.176,151.701,105.537,159.215z
			 M99.894,166.334c-3.528,5.518-0.62,3.959-6.86,3.959c-5.752,0-2.773,1.512-6.632-4.381
			C89.563,160.52,97.187,160.975,99.894,166.334z M268.996,170.293c-5.75,0-2.771,1.512-6.631-4.381
			c3.146-5.365,10.768-4.975,13.492,0.422C272.336,171.842,275.252,170.293,268.996,170.293z M272.793,160.932
			c-2.314-0.998-4.676-1.027-7.012-0.193c-8.449,3.016-0.596,6.734-9.045-1.793c6.695-7.563,18.377-7.275,24.766,0.27
			C273.215,167.723,280.678,164.326,272.793,160.932z M281.412,156.361c-6.816-6.311-17.104-6.473-24.094-0.67
			c-3.125,2.596-0.324,2.621-6.5-1.754c-2.227-1.576,13.139-14.656,29.328-6.566c2.213,1.105,8.818,5.654,7.531,6.566
			C281.438,158.359,283.83,158.6,281.412,156.361z M253.094,148.027c-7.346,5.383-1.564,5.236-10.043,1.506
			c-1.793-0.787,9.449-13.486,25.945-13.486c16.984,0,27.398,13.07,26.449,13.486c-6.682,2.941-5.123,3.67-6.396,2.252
			C279.852,141.551,264.381,139.748,253.094,148.027z M241.545,147.049c-1.41,1.701-0.555,1.594-2.42,0.979
			c-5.49-1.813-7.566,0.004-1.676-6.555c18.684-20.791,51.826-18.158,67.074,5.186c-7.719,1.549-6.338,2.656-7.334,1.369
			C282.979,129.699,255.922,129.723,241.545,147.049z M268.996,125.447c-5.748,0-2.773,1.514-6.631-4.381
			c3.139-5.352,10.758-4.994,13.492,0.424C272.338,126.994,275.256,125.447,268.996,125.447z M272.793,116.086
			c-2.344-1.01-4.703-1.016-7.012-0.193c-8.447,3.02-0.598,6.732-9.045-1.791c6.717-7.588,18.395-7.254,24.766,0.268
			C273.217,122.875,280.68,119.482,272.793,116.086z M281.412,111.516c-6.756-6.254-17.043-6.523-24.094-0.67
			c-3.127,2.596-0.324,2.621-6.5-1.754c-2.26-1.6,13.152-14.648,29.328-6.566c2.213,1.105,8.818,5.654,7.531,6.566
			C281.52,113.455,283.818,113.744,281.412,111.516z M286.566,104.498c-10.094-8.693-24.67-8.541-34.559-0.504
			c-5.912,4.807-0.65,4.156-9.691,0.373c13.619-17.627,40.025-17.467,53.48,0.162C287.211,108.227,291.697,108.914,286.566,104.498z
			 M240.463,103.637c-7.615-2.791-7.881-0.738-5.629-3.795c17.121-23.244,51.93-23.121,68.77,0.625
			c1.633,2.303,1.475,0.518-5.961,3.32C283.33,84.445,254.705,84.602,240.463,103.637z M262.365,76.221
			c2.572-4.385,8.268-5.049,11.818-1.797c2.588,2.369,1.379,2.221-0.693,6.404C261.639,79.629,267.123,83.488,262.365,76.221z
			 M274.158,71.982c-1.969-1.258-4.604-1.865-7.213-1.297c-9.809,2.139-1.693,7.703-9.229-0.402
			c-2.484-2.674,6.463-6.578,11.279-6.578c6.631,0,13.336,4.906,11.781,6.578C274.609,76.918,279.172,75.184,274.158,71.982z
			 M278.758,64.627c-5.646-3.576-12.922-3.859-18.939-0.355c-7.539,4.391-1.002,5.373-9.75-0.557
			c10.184-11.752,28.217-11.406,38.053,0.217C279.713,69.732,285.617,68.971,278.758,64.627z M286.566,59.652
			c-10.094-8.691-24.67-8.539-34.559-0.502c-5.922,4.813-0.625,4.166-9.691,0.371c13.631-17.641,40.035-17.453,53.48,0.162
			C287.209,63.373,291.715,64.084,286.566,59.652z M240.463,58.791c-7.615-2.789-7.881-0.736-5.629-3.793
			c17.154-23.291,51.965-23.074,68.77,0.623c1.633,2.303,1.475,0.518-5.961,3.322C283.352,39.643,254.74,39.709,240.463,58.791z
			 M262.365,31.375c2.576-4.393,8.275-5.041,11.818-1.797c2.588,2.369,1.379,2.221-0.693,6.404
			C261.639,34.785,267.123,38.645,262.365,31.375z M274.158,27.137c-1.969-1.258-4.604-1.865-7.213-1.297
			c-9.809,2.141-1.693,7.703-9.229-0.4c-2.484-2.676,6.463-6.58,11.279-6.58c6.098,0,13.521,4.707,11.781,6.58
			C274.609,32.072,279.172,30.34,274.158,27.137z M278.758,19.781c-5.635-3.57-12.91-3.867-18.939-0.355
			c-7.541,4.393-1,5.373-9.75-0.557c10.182-11.752,28.217-11.406,38.053,0.217C279.713,24.887,285.617,24.125,278.758,19.781z
			 M286.566,14.807c-10.074-8.674-24.65-8.557-34.559-0.502c-5.922,4.813-0.625,4.166-9.691,0.371
			c13.631-17.641,40.035-17.453,53.48,0.162C287.209,18.527,291.715,19.238,286.566,14.807z M251.203-5.35
			c-5.227,2.299-1.496,2.234-7.232-3.303c-10.834-10.455-27.707-9.92-37.949,0.504c-6.029,6.137-0.428,5.188-9.771,1.756
			c11.842-19.967,39.473-22.285,54.52-4.869C255.555-5.721,254.205-6.67,251.203-5.35z M163.221-5.35
			c-5.227,2.301-1.494,2.234-7.232-3.303c-10.788-10.408-27.662-9.967-37.949,0.504c-6.034,6.143-0.43,5.184-9.771,1.756
			c11.872-20.016,39.506-22.244,54.52-4.869C167.572-5.721,166.223-6.672,163.221-5.35z M75.238-5.35
			c-5.225,2.299-1.498,2.23-7.232-3.303c-10.834-10.455-27.705-9.92-37.948,0.504c-6.03,6.137-0.429,5.188-9.772,1.756
			c11.838-19.959,39.463-22.295,54.52-4.869C79.59-5.721,78.241-6.67,75.238-5.35z M29.62-4.729
			c9.813-12.445,28.442-12.752,38.688-0.803c3.225,3.762,2.361,1.762-3.496,6.607c-7.276-11.633-24.174-11.436-31.214,0.285
			C27.664-3.648,27.186-1.643,29.62-4.729z M37.557-0.664c6.154-6.326,16.217-6.703,22.814-0.627c4.686,4.316,2.798,2.926-2,8.938
			C55.313-1.27,42.671-0.93,40.07,8.105C35.096,1.701,33.602,3.402,37.557-0.664z M52.879,3.963
			c2.207,1.172,4.943,4.174,3.084,7.004c-0.943,1.436,0.624,0.291-6.671,0.291c-7.749,0-6.148,1.266-7.171-0.291
			C40.03,7.787,46.327,0.484,52.879,3.963z M85.438,36.42c-7.784,1.352-3.675,2.631-8.466-3.266
			c-14.34-17.652-41.331-17.693-55.629,0.357c-4.619,5.834-0.607,4.313-8.699,2.908c-2.751-0.477,8.486-18.117,27.661-22.27
			C70.273,7.652,89.871,35.652,85.438,36.42z M75.035,33.84c4.454,5.262,3.262,4.311,0.203,5.656
			c-6.324,2.783-0.416,1.4-10.045-5.656c-11.09-8.129-25.993-6.447-35.136,2.857c-6.03,6.137-0.429,5.188-9.772,1.756
			C32.295,18.211,60.211,16.354,75.035,33.84z M29.62,40.117c9.761-12.379,28.339-12.873,38.688-0.803
			c3.227,3.764,2.361,1.762-3.496,6.607c-7.244-11.58-24.142-11.49-31.214,0.285C27.664,41.199,27.186,43.203,29.62,40.117z
			 M37.557,44.182c6.154-6.326,16.217-6.703,22.814-0.627c4.688,4.318,2.793,2.93-2,8.938c-3.066-8.941-15.705-8.559-18.301,0.457
			C35.096,46.545,33.602,48.248,37.557,44.182z M52.879,48.809c2.206,1.172,4.943,4.174,3.083,7.004
			c-0.937,1.428,0.563,0.291-6.67,0.291c-7.723,0-6.147,1.268-7.171-0.291C40.092,52.727,46.232,45.279,52.879,48.809z
			 M85.438,81.266c-7.782,1.35-3.677,2.629-8.466-3.268c-14.34-17.65-41.331-17.691-55.629,0.359
			c-4.622,5.838-0.593,4.314-8.699,2.908c-2.66-0.461,8.401-18.098,27.661-22.27C70.352,52.48,89.848,80.502,85.438,81.266z
			 M75.035,78.684c4.454,5.262,3.262,4.313,0.203,5.658c-6.322,2.781-0.422,1.395-10.045-5.658
			c-11.09-8.127-25.993-6.445-35.136,2.859c-6.029,6.137-0.429,5.186-9.772,1.756C32.297,63.055,60.214,61.201,75.035,78.684z
			 M29.62,84.961c9.761-12.377,28.339-12.871,38.688-0.801c3.225,3.762,2.361,1.762-3.496,6.607
			c-7.244-11.582-24.143-11.49-31.214,0.285C27.654,86.035,27.182,88.053,29.62,84.961z M37.557,89.025
			c6.168-6.338,16.229-6.689,22.814-0.625c4.688,4.316,2.789,2.938-2,8.938c-3.066-8.941-15.705-8.561-18.301,0.457
			C35.096,91.391,33.602,93.092,37.557,89.025z M50.588,92.857c3.686,0.629,7.486,4.588,5.375,7.801
			c-1.189,1.809-2.557-0.797-13.17,0.771C40.087,101.828,42.455,91.469,50.588,92.857z M85.519,123.252
			c2.065,3.393,1.852,2.391-1.968,3.227c-4.926,1.076-2.382,1.813-6.064-2.949c-14.122-18.258-41.422-18.473-55.875-0.686
			c-4.633,5.707-1.272,4.904-7.08,3.635c-3.51-0.77-3.501,0.17-1.629-2.949C29.391,96.057,68.912,96.078,85.519,123.252z
			 M23.305,123.799c13.274-16.059,38.017-16.426,51.73-0.27c4.453,5.262,3.264,4.311,0.203,5.658
			c-5.225,2.297-1.504,2.223-7.232-3.303c-9.451-9.119-24.055-10.102-34.615-2.355c-10.249,7.512-3.397,8.803-10.546,5.658
			C20.268,128.053,19.018,128.973,23.305,123.799z M68.309,129.006c3.227,3.764,2.361,1.762-3.496,6.607
			c-5.184-8.287-15.895-11.068-24.396-6.332c-11.633,6.477-1.955,9.301-11.463,3.189C25.051,129.961,50.574,108.328,68.309,129.006z
			 M63.34,136.889c-11.064,10.002-0.432-0.133-13.289-1.164c-1.596-0.127-3.021,0.141-4.162,0.574
			c-10.514,4-0.138,10.734-10.824,0.887C41.287,126.301,56.879,126.123,63.34,136.889z M50.588,137.703
			c3.685,0.629,7.486,4.586,5.375,7.801c-1.189,1.807-2.529-0.801-13.17,0.771C40.094,146.668,42.452,136.316,50.588,137.703z
			 M85.519,168.098c2.086,3.418,1.837,2.393-1.968,3.227c-4.924,1.076-2.382,1.813-6.064-2.949
			c-14.165-18.314-41.47-18.414-55.875-0.686c-4.633,5.707-1.271,4.904-7.08,3.635c-3.505-0.768-3.504,0.17-1.629-2.949
			C29.362,140.904,68.915,140.928,85.519,168.098z M23.305,168.645c13.381-16.188,38.182-16.295,51.731-0.27
			c4.454,5.264,3.261,4.313,0.202,5.656c-5.225,2.299-1.504,2.225-7.232-3.301c-9.573-9.238-24.191-10.002-34.615-2.355
			c-10.215,7.482-3.412,8.797-10.546,5.656C20.268,172.898,19.018,173.818,23.305,168.645z M68.309,173.852
			c3.225,3.76,2.361,1.76-3.496,6.607c-5.184-8.287-15.895-11.068-24.396-6.332c-11.633,6.477-1.955,9.301-11.463,3.189
			C25.096,174.834,50.561,153.148,68.309,173.852z M63.34,181.734c-11.063,9.998-0.436-0.135-13.289-1.164
			c-1.596-0.127-3.021,0.141-4.162,0.574c-10.514,4-0.138,10.734-10.824,0.887C41.286,171.148,56.874,170.961,63.34,181.734z
			 M50.588,182.549c3.685,0.627,7.486,4.588,5.375,7.801c-1.235,1.877-2.053-0.871-13.17,0.771
			C40.094,191.514,42.452,181.162,50.588,182.549z M86.401,210.758c3.157-5.387,10.78-4.947,13.492,0.422
			c-3.528,5.518-0.62,3.959-6.86,3.959C87.281,215.139,90.26,216.65,86.401,210.758z M174.383,210.758
			c3.137-5.352,10.758-4.994,13.494,0.422c-3.51,5.496-0.605,3.959-6.861,3.959C175.262,215.139,178.243,216.65,174.383,210.758z
			 M262.365,210.758c3.158-5.387,10.779-4.947,13.492,0.422c-3.52,5.506-0.602,3.959-6.861,3.959
			C263.244,215.139,266.225,216.65,262.365,210.758z M314.533,182.549c3.686,0.629,7.488,4.588,5.375,7.801
			c-1.225,1.863-2.041-0.873-13.168,0.771C304.039,191.512,306.398,181.162,314.533,182.549z M313.998,180.57
			c-1.596-0.127-3.021,0.141-4.164,0.574c-10.516,4-0.131,10.736-10.824,0.887c6.225-10.887,21.811-11.068,28.275-0.297
			C316.223,191.734,326.854,181.6,313.998,180.57z M304.361,174.127c-11.094,6.18-2.215,9.133-11.463,3.189
			c-3.848-2.477,21.611-24.166,39.357-3.465c3.225,3.76,2.359,1.76-3.496,6.607C323.598,172.205,312.895,169.375,304.361,174.127z
			 M331.953,170.73c-9.568-9.229-24.188-10.006-34.617-2.355c-10.215,7.482-3.412,8.797-10.545,5.656
			c-2.576-1.133-3.832-0.205,0.461-5.389c13.543-16.346,38.326-16.145,51.73-0.268c4.453,5.262,3.26,4.313,0.201,5.656
			C333.959,176.332,337.689,176.266,331.953,170.73z M341.432,168.375c-14.061-18.193-41.369-18.535-55.873-0.686
			c-4.633,5.707-1.273,4.904-7.08,3.635c-3.506-0.768-3.506,0.17-1.631-2.949c16.379-27.334,55.936-27.576,72.617-0.277
			c2.09,3.416,1.832,2.395-1.967,3.227C342.572,172.4,345.115,173.137,341.432,168.375z M314.533,137.703
			c3.686,0.629,7.486,4.586,5.375,7.801c-1.227,1.863-2.033-0.873-13.168,0.771C304.039,146.666,306.398,136.316,314.533,137.703z
			 M313.998,135.725c-1.596-0.127-3.021,0.141-4.164,0.574c-10.514,4-0.139,10.736-10.824,0.887
			c6.219-10.879,21.809-11.07,28.275-0.297C316.223,146.889,326.854,136.754,313.998,135.725z M304.361,129.281
			c-11.094,6.18-2.215,9.133-11.463,3.189c-3.898-2.508,21.621-24.148,39.357-3.465c3.227,3.766,2.359,1.76-3.496,6.607
			C323.598,127.359,312.895,124.529,304.361,129.281z M331.953,125.885c-9.5-9.162-24.1-10.066-34.617-2.355
			c-10.248,7.512-3.396,8.803-10.545,5.658c-2.576-1.135-3.832-0.207,0.461-5.389c13.414-16.189,38.117-16.305,51.73-0.27
			c4.453,5.264,3.26,4.313,0.201,5.658C333.959,131.486,337.686,131.418,331.953,125.885z M341.432,123.529
			c-14.15-18.297-41.457-18.434-55.873-0.686c-4.637,5.705-1.266,4.906-7.08,3.635c-3.512-0.77-3.502,0.17-1.631-2.949
			c16.479-27.473,56.014-27.447,72.617-0.277c2.09,3.416,1.83,2.395-1.967,3.227C342.572,127.557,345.115,128.291,341.432,123.529z
			 M319.908,100.658c-0.941,1.434,0.625,0.291-6.67,0.291c-7.723,0-6.148,1.266-7.172-0.291c-2.029-3.09,4.121-10.527,10.758-7.004
			C319.031,94.824,321.77,97.828,319.908,100.658z M304.018,97.795c-4.977-6.404-6.471-4.703-2.514-8.77
			c6.154-6.324,16.217-6.701,22.814-0.625c4.688,4.316,2.787,2.938-2,8.938C319.264,88.436,306.619,88.752,304.018,97.795z
			 M297.545,91.053c-5.943-5.018-6.416-3-3.979-6.092c9.76-12.377,28.342-12.869,38.689-0.801c3.227,3.766,2.359,1.762-3.496,6.607
			C321.5,79.162,304.604,79.299,297.545,91.053z M329.141,78.684c-11.02-8.08-25.939-6.502-35.137,2.859
			c-6.025,6.133-0.432,5.186-9.771,1.756c12.01-20.246,39.928-22.098,54.75-4.615c4.453,5.262,3.262,4.313,0.201,5.658
			C332.834,87.135,338.813,85.768,329.141,78.684z M340.92,77.998c-14.342-17.65-41.332-17.691-55.631,0.359
			c-4.619,5.836-0.594,4.314-8.699,2.908c-2.754-0.477,8.504-18.119,27.662-22.27c30.047-6.506,49.541,21.506,45.133,22.27
			C341.611,82.615,345.705,83.895,340.92,77.998z M319.908,55.813c-0.943,1.436,0.625,0.291-6.67,0.291
			c-7.723,0-6.146,1.268-7.172-0.291c-2.029-3.088,4.121-10.527,10.758-7.004C319.031,49.98,321.77,52.982,319.908,55.813z
			 M304.018,52.949c-4.977-6.404-6.471-4.701-2.514-8.768c6.154-6.326,16.217-6.703,22.814-0.627c4.689,4.32,2.791,2.932-2,8.938
			C319.266,43.594,306.621,43.902,304.018,52.949z M297.545,46.207c-5.938-5.01-6.412-3.004-3.979-6.09
			c9.76-12.379,28.342-12.871,38.689-0.803c3.229,3.768,2.357,1.764-3.496,6.607C321.502,34.32,304.605,34.449,297.545,46.207z
			 M329.141,33.84c-11.02-8.082-25.939-6.504-35.137,2.857c-6.025,6.133-0.432,5.186-9.771,1.756
			c12.01-20.244,39.928-22.098,54.75-4.613c4.453,5.262,3.26,4.311,0.201,5.656C332.834,42.291,338.813,40.922,329.141,33.84z
			 M340.92,33.154c-14.342-17.652-41.332-17.693-55.631,0.357c-4.617,5.834-0.605,4.313-8.699,2.908
			c-2.686-0.465,8.398-18.096,27.662-22.27c30.09-6.516,49.531,21.508,45.133,22.27C341.604,37.771,345.705,39.051,340.92,33.154z
			 M319.908,10.967c-0.943,1.436,0.625,0.291-6.67,0.291c-7.723,0-6.146,1.268-7.172-0.291c-2.035-3.096,4.123-10.525,10.758-7.004
			C319.031,5.135,321.77,8.137,319.908,10.967z M304.018,8.105c-4.977-6.404-6.471-4.703-2.514-8.77
			c6.154-6.326,16.217-6.701,22.814-0.627c4.686,4.316,2.797,2.926-2,8.938C319.266-1.252,306.621-0.943,304.018,8.105z
			 M297.545,1.361c-5.936-5.01-6.414-3.002-3.979-6.09c9.77-12.391,28.4-12.801,38.689-0.803c3.227,3.766,2.359,1.762-3.496,6.607
			C321.484-10.555,304.586-10.361,297.545,1.361z M331.953-8.652c-10.783-10.402-27.658-9.973-37.949,0.504
			c-6.029,6.137-0.428,5.188-9.771,1.756c11.867-20.01,39.494-22.258,54.518-4.869c4.789,5.543,3.439,4.59,0.434,5.912
			C333.959-3.049,337.691-3.115,331.953-8.652z M304.523-32.723c-2.367,0.475-4.664,1.139-6.881,1.975
			c-14.266-19.273-42.795-19.369-57.18-0.152c-2.234-0.818-4.555-1.451-6.941-1.902C250.326-58.406,287.738-58.42,304.523-32.723z
			 M230.381-31.342c20.893,2.531,35.076,22.213,31.021,22.916c-8.77,1.521-2.469,2.975-10.242-5.26
			c-14.385-15.244-38.285-14.801-52.201,0.432c-7.307,7.998-1.117,6.43-10.35,4.828C185.639-8.939,201.746-34.809,230.381-31.342z
			 M216.541-32.723c-2.367,0.475-4.664,1.139-6.879,1.975c-14.268-19.271-42.796-19.369-57.181-0.152
			c-2.234-0.818-4.556-1.451-6.941-1.902C162.345-58.406,199.756-58.42,216.541-32.723z M142.398-31.342
			c20.894,2.533,35.076,22.213,31.022,22.916c-8.743,1.518-2.56,2.881-10.242-5.26c-14.416-15.275-38.31-14.775-52.202,0.432
			c-7.297,7.99-1.159,6.424-10.35,4.828C97.632-8.943,113.784-34.805,142.398-31.342z M128.559-32.723
			c-2.367,0.475-4.664,1.139-6.879,1.975C107.412-50.021,78.884-50.117,64.5-30.9c-2.234-0.818-4.557-1.451-6.941-1.902
			C74.362-58.406,111.774-58.42,128.559-32.723z M54.416-31.342C75.34-28.807,89.482-9.127,85.438-8.426
			c-8.776,1.523-2.466,2.979-10.241-5.26c-14.42-15.277-38.313-14.771-52.203,0.432c-7.305,7.998-1.117,6.43-10.35,4.828
			C9.669-8.941,25.764-34.811,54.416-31.342z M-30.424-32.803c16.805-25.604,54.217-25.617,71,0.08
			c-2.366,0.475-4.664,1.139-6.879,1.975C19.43-50.02-9.098-50.117-23.482-30.9C-25.717-31.719-28.039-32.352-30.424-32.803z
			 M-15.516-27.031c-1.944-1.197-3.986-2.248-6.114-3.139c13.582-17.572,39.93-17.588,53.481,0.162
			c-2.107,0.904-4.127,1.973-6.051,3.18C15.083-39.715-4.597-39.893-15.516-27.031z M-8.594-21.77
			c-1.651-1.529-3.414-2.939-5.283-4.207C-3.736-37.68,14.236-37.502,24.175-25.76c-1.857,1.281-3.609,2.703-5.247,4.246
			C11.705-29.912-1.167-30.086-8.594-21.77z M-2.768-15.191c-1.347-1.859-2.828-3.615-4.441-5.244
			c6.638-7.502,18.283-7.387,24.764,0.27c-1.613,1.656-3.096,3.438-4.437,5.328C9.408-20.531,1.219-20.744-2.768-15.191z
			 M11.912-13.047c-0.861,1.348-1.654,2.742-2.369,4.184c-11.77-1.189-6.394,2.617-11.124-4.607
			C1.535-18.785,9.147-18.52,11.912-13.047z M-29.113,10.152c17.121-23.246,51.929-23.123,68.771,0.623
			c1.633,2.303,1.475,0.518-5.961,3.322C19.401-5.207-9.207-5.135-23.482,13.945C-31.098,11.156-31.365,13.209-29.113,10.152z
			 M-21.629,14.676C-8-2.965,18.405-2.777,31.852,14.838c-8.59,3.689-4.082,4.4-9.23-0.031C12.525,6.115-2.051,6.268-11.938,14.305
			C-17.861,19.117-12.563,18.471-21.629,14.676z M-13.877,18.869C-3.695,7.117,14.339,7.463,24.175,19.086
			c-8.409,5.801-2.503,5.039-9.364,0.695c-5.594-3.545-12.869-3.891-18.938-0.355C-11.669,23.818-5.129,24.799-13.877,18.869z
			 M-6.229,25.439c-2.486-2.676,6.461-6.58,11.279-6.58c6.605,0,13.347,4.895,11.78,6.58c-6.168,6.633-1.606,4.9-6.618,1.697
			c-1.969-1.258-4.605-1.865-7.215-1.297C-6.809,27.98,1.307,33.543-6.229,25.439z M9.543,35.982
			c-11.852-1.197-6.365,2.662-11.124-4.607c2.576-4.393,8.274-5.041,11.817-1.797C12.824,31.945,11.618,31.795,9.543,35.982z
			 M-29.113,54.998c17.121-23.244,51.929-23.123,68.771,0.623c1.633,2.303,1.475,0.518-5.961,3.322
			c-14.227-19.211-42.834-19.326-57.18-0.152C-31.099,56.002-31.365,58.055-29.113,54.998z M-21.629,59.521
			C-8,41.881,18.405,42.068,31.852,59.684c-8.59,3.689-4.082,4.4-9.23-0.031c-10.004-8.613-24.583-8.611-34.559-0.502
			C-17.867,63.969-12.543,63.324-21.629,59.521z M-13.877,63.715c10.182-11.752,28.216-11.406,38.052,0.217
			c-8.409,5.801-2.503,5.039-9.364,0.695C9.176,61.057,1.9,60.76-4.127,64.271C-11.668,68.662-5.129,69.645-13.877,63.715z
			 M-6.229,70.283c-2.486-2.674,6.462-6.578,11.279-6.578c6.605,0,13.347,4.895,11.78,6.578c-6.168,6.635-1.606,4.9-6.618,1.699
			c-1.969-1.258-4.605-1.865-7.215-1.297C-6.809,72.824,1.307,78.389-6.229,70.283z M-1.581,76.221
			c2.571-4.385,8.267-5.049,11.817-1.797c2.588,2.367,1.382,2.217-0.693,6.404C-2.309,79.631,3.178,83.49-1.581,76.221z
			 M-30.424,101.732c15.338-23.365,48.443-25.789,67.022-5.105c5.932,6.605,3.988,4.85-1.176,6.555
			c-4.219,1.395-7.813-12.439-27.992-13.785C-3.247,88.693-13.3,92.756-20.4,100.002C-25.541,105.248-20.813,103.555-30.424,101.732
			z M-20.896,104.689c-2.091-0.92,10.353-14.346,27.786-13.396c15.475,0.838,25.744,12.896,24.607,13.396
			c-10.834,4.766-0.754,3.75-13.282-3.287c-8.929-5.016-20.233-4.695-29.067,1.779C-18.227,108.586-12.413,108.42-20.896,104.689z
			 M-13.129,109.092c-0.844-0.598-1.094-0.316,0.578-1.969c16.735-16.537,38.602,0.328,36.281,1.969
			c-6.157,4.363-3.857,4.652-6.265,2.424c-6.714-6.215-16.995-6.563-24.094-0.67C-9.754,113.441-6.951,113.467-13.129,109.092z
			 M-6.229,115.129c-0.97-1.043-1.671-0.848,1.236-3.113c10.66-8.303,23.996,0.775,21.823,3.113
			c-6.146,6.611-1.624,4.891-6.618,1.699c-1.945-1.242-4.578-1.873-7.215-1.297C-6.809,117.67,1.307,123.232-6.229,115.129z
			 M-1.581,121.066c2.573-4.387,8.269-5.047,11.817-1.799c2.584,2.365,1.385,2.213-0.693,6.406
			C-2.32,124.475,3.181,128.342-1.581,121.066z M-24.82,148.027c-5.492-1.813-7.566,0.004-1.676-6.555
			c18.548-20.643,51.723-18.316,67.073,5.186c-7.718,1.549-6.337,2.656-7.332,1.369c-14.208-18.324-41.266-18.307-55.646-0.979
			C-23.812,148.75-22.957,148.643-24.82,148.027z M-20.896,149.533c-1.797-0.789,9.456-13.486,25.946-13.486
			c16.994,0,27.393,13.072,26.447,13.486c-6.68,2.939-5.121,3.67-6.395,2.252c-9.148-10.18-24.608-12.08-35.955-3.758
			C-18.197,153.41-12.417,153.264-20.896,149.533z M-13.129,153.938c-2.232-1.582,13.145-14.654,29.329-6.566
			c2.213,1.105,8.82,5.654,7.53,6.566c-6.157,4.363-3.857,4.652-6.265,2.424c-6.741-6.24-17.024-6.539-24.094-0.67
			C-9.754,158.287-6.951,158.313-13.129,153.938z M-7.209,158.945c6.723-7.596,18.402-7.244,24.764,0.27
			c-8.287,8.506-0.818,5.113-8.708,1.717c-2.315-0.998-4.675-1.027-7.012-0.193C-6.613,163.754,1.222,167.455-7.209,158.945z
			 M-1.581,165.912c3.146-5.365,10.767-4.975,13.493,0.422c-3.521,5.508-0.605,3.959-6.861,3.959
			C-0.701,170.293,2.278,171.805-1.581,165.912z M-24.82,192.873c-5.609-1.852-7.578,0.016-1.676-6.555
			c18.6-20.701,51.764-18.248,67.073,5.186c-7.537,1.514-6.36,2.627-7.332,1.369c-14.143-18.24-41.199-18.387-55.646-0.979
			C-23.812,193.596-22.957,193.488-24.82,192.873z M-20.896,194.379c-1.911-0.84,9.618-13.486,25.946-13.486
			c17.029,0,27.374,13.08,26.447,13.486c-6.727,2.961-5.111,3.682-6.395,2.252c-9.147-10.178-24.607-12.08-35.955-3.758
			C-18.227,198.277-12.413,198.113-20.896,194.379z M-13.129,198.783c-2.239-1.586,13.188-14.633,29.329-6.566
			c2.214,1.105,8.82,5.654,7.53,6.566c-6.157,4.363-3.857,4.652-6.265,2.424c-6.741-6.24-17.024-6.539-24.094-0.67
			C-9.752,203.131-6.952,203.16-13.129,198.783z M-7.209,203.791c6.699-7.568,18.382-7.27,24.764,0.27
			c-8.287,8.506-0.818,5.113-8.708,1.715c-2.315-0.996-4.675-1.025-7.012-0.191C-6.615,208.6,1.24,212.318-7.209,203.791z
			 M-1.581,210.758c3.157-5.387,10.78-4.947,13.493,0.422c-3.521,5.506-0.605,3.959-6.861,3.959
			C-0.701,215.139,2.278,216.65-1.581,210.758z M5.301,274.383c-0.79-6.428-1.605-5.271-0.25-5.271
			C7.112,269.111,6.131,267.635,5.301,274.383z M5.051,267.188c-2.661,0-0.155-0.693-5.521-9.801
			c-2.973-5.043,8.589-8.871,12.383-1.361C5.671,265.785,8.58,267.188,5.051,267.188z M16.831,249.666
			c-6.168,6.635-1.606,4.9-6.618,1.697c-1.969-1.256-4.605-1.865-7.215-1.295c-9.807,2.139-1.691,7.701-9.227-0.402
			c-2.546-2.738,6.986-7.098,12.946-6.494C11.344,243.643,18.607,247.754,16.831,249.666z M23.73,243.629
			c-6.157,4.363-3.857,4.652-6.265,2.424c-6.812-6.307-17.101-6.479-24.094-0.67c-3.126,2.594-0.323,2.623-6.501-1.754
			c-2.239-1.586,13.188-14.633,29.329-6.566C18.413,238.168,25.021,242.719,23.73,243.629z M31.498,239.225
			c-6.727,2.961-5.111,3.682-6.395,2.252c-9.197-10.234-24.666-12.037-35.955-3.758c-7.375,5.404-1.562,5.24-10.044,1.506
			c-1.911-0.84,9.618-13.486,25.946-13.486C22.08,225.738,32.425,238.818,31.498,239.225z M33.244,237.719
			c-14.168-18.271-41.223-18.359-55.646-0.979c-1.411,1.699-0.555,1.594-2.419,0.979c-5.588-1.846-7.574,0.01-1.676-6.555
			c18.571-20.672,51.751-18.281,67.073,5.186C33.039,237.861,34.216,238.977,33.244,237.719z M55.963,235.195
			c-1.235,1.877-2.053-0.871-13.17,0.771c-2.699,0.393-0.341-9.959,7.795-8.572C54.272,228.021,58.074,231.98,55.963,235.195z
			 M50.051,225.416c-1.598-0.127-3.023,0.141-4.162,0.574c-10.514,4-0.138,10.734-10.824,0.887
			c6.223-10.885,21.81-11.07,28.275-0.297C52.273,236.582,62.959,226.441,50.051,225.416z M93.283,274.383
			c-0.791-6.428-1.605-5.271-0.25-5.271C95.095,269.111,94.113,267.635,93.283,274.383z M93.033,267.188
			c-2.662,0-0.161-0.701-5.522-9.801c-3.006-5.1,8.606-8.836,12.383-1.361C93.652,265.787,96.563,267.188,93.033,267.188z
			 M104.813,249.666c-6.154,6.621-1.615,4.895-6.619,1.697c-1.967-1.256-4.604-1.865-7.213-1.295
			c-9.807,2.139-1.691,7.701-9.227-0.402c-2.547-2.738,6.986-7.098,12.945-6.494C99.325,243.643,106.588,247.754,104.813,249.666z
			 M111.713,243.629c-6.158,4.363-3.858,4.652-6.266,2.424c-6.74-6.24-17.025-6.539-24.094-0.67c-3.125,2.596-0.323,2.623-6.5-1.754
			c-2.221-1.572,13.137-14.658,29.328-6.566C106.396,238.168,113.002,242.717,111.713,243.629z M119.48,239.225
			c-6.723,2.959-5.113,3.68-6.396,2.252c-9.118-10.148-24.571-12.104-35.954-3.758c-7.375,5.404-1.563,5.238-10.045,1.506
			c-1.801-0.791,9.471-13.486,25.947-13.486C110.049,225.738,120.395,238.824,119.48,239.225z M121.227,237.719
			c-14.142-18.238-41.205-18.391-55.646-0.979c-1.412,1.701-0.553,1.594-2.418,0.979c-5.503-1.816-7.567,0.002-1.677-6.555
			c18.675-20.793,51.828-18.156,67.073,5.186C121.018,237.863,122.199,238.977,121.227,237.719z M143.944,235.195
			c-1.226,1.863-2.033-0.873-13.169,0.771c-2.7,0.391-0.342-9.959,7.795-8.572C142.252,228.021,146.057,231.98,143.944,235.195z
			 M138.033,225.416c-1.594-0.127-3.021,0.141-4.163,0.574c-10.517,4-0.132,10.736-10.823,0.887
			c6.221-10.883,21.811-11.07,28.274-0.297C140.255,236.58,150.94,226.441,138.033,225.416z M181.266,274.383
			c-0.791-6.428-1.606-5.271-0.25-5.271C183.076,269.111,182.094,267.637,181.266,274.383z M181.016,267.188
			c-2.662,0-0.162-0.701-5.522-9.801c-2.985-5.064,8.591-8.869,12.384-1.361C181.633,265.787,184.545,267.188,181.016,267.188z
			 M192.795,249.666c-6.168,6.635-1.605,4.9-6.619,1.697c-1.967-1.256-4.604-1.865-7.213-1.295
			c-9.807,2.139-1.692,7.701-9.227-0.402c-2.547-2.738,6.986-7.098,12.945-6.494C187.309,243.643,194.57,247.754,192.795,249.666z
			 M199.695,243.629c-6.158,4.363-3.859,4.652-6.266,2.424c-6.74-6.24-17.025-6.539-24.094-0.67c-3.126,2.596-0.324,2.623-6.5-1.754
			c-2.217-1.568,13.158-14.646,29.328-6.566C194.377,238.168,200.986,242.719,199.695,243.629z M207.463,239.225
			c-6.727,2.961-5.111,3.682-6.395,2.252c-9.182-10.217-24.65-12.051-35.955-3.758c-7.376,5.404-1.563,5.238-10.045,1.506
			c-1.904-0.836,9.606-13.486,25.947-13.486C198.045,225.738,208.389,238.818,207.463,239.225z M209.209,237.719
			c-14.232-18.354-41.299-18.279-55.646-0.979c-1.412,1.701-0.553,1.594-2.419,0.979c-5.554-1.834-7.569,0.004-1.677-6.555
			c18.488-20.592,51.684-18.377,67.074,5.186C209,237.863,210.18,238.977,209.209,237.719z M231.926,235.195
			c-1.234,1.877-2.051-0.871-13.168,0.771c-2.701,0.393-0.342-9.959,7.795-8.572C230.236,228.021,234.039,231.98,231.926,235.195z
			 M226.016,225.416c-1.6-0.127-3.027,0.143-4.164,0.574c-10.514,4-0.137,10.734-10.822,0.887
			c6.227-10.893,21.814-11.063,28.273-0.297C228.238,236.582,238.924,226.441,226.016,225.416z M269.248,274.383
			c-0.791-6.428-1.607-5.271-0.252-5.271C271.059,269.111,270.078,267.635,269.248,274.383z M268.996,267.188
			c-2.66,0-0.154-0.693-5.521-9.801c-2.973-5.043,8.59-8.871,12.383-1.361C269.617,265.785,272.525,267.188,268.996,267.188z
			 M280.777,249.666c-6.168,6.635-1.605,4.9-6.619,1.697c-1.969-1.256-4.605-1.865-7.213-1.295
			c-9.807,2.139-1.693,7.701-9.229-0.402c-2.545-2.738,6.988-7.098,12.947-6.494C275.279,243.641,282.557,247.752,280.777,249.666z
			 M287.678,243.629c-6.158,4.363-3.859,4.652-6.266,2.424c-6.828-6.322-17.119-6.463-24.094-0.67
			c-3.127,2.594-0.324,2.623-6.5-1.754c-2.227-1.574,13.131-14.66,29.328-6.566C282.359,238.168,288.967,242.717,287.678,243.629z
			 M295.445,239.225c-6.686,2.941-5.121,3.672-6.396,2.252c-9.197-10.236-24.668-12.035-35.953-3.758
			c-7.377,5.404-1.563,5.24-10.045,1.506c-1.797-0.789,9.453-13.486,25.945-13.486C285.992,225.738,296.391,238.811,295.445,239.225
			z M297.189,237.719c-14.141-18.24-41.197-18.389-55.645-0.979c-1.41,1.699-0.555,1.594-2.42,0.979
			c-5.588-1.846-7.572,0.01-1.676-6.555c18.621-20.727,51.795-18.217,67.074,5.186C296.984,237.863,298.162,238.977,297.189,237.719
			z M319.908,235.195c-1.225,1.863-2.041-0.873-13.168,0.771c-2.701,0.391-0.342-9.959,7.793-8.572
			C318.219,228.021,322.021,231.982,319.908,235.195z M313.998,225.416c-1.596-0.127-3.023,0.141-4.164,0.574
			c-10.516,4-0.131,10.736-10.824,0.887c6.219-10.877,21.807-11.076,28.275-0.297C316.225,236.576,326.896,226.441,313.998,225.416z
			 M357.23,274.383c-0.791-6.428-1.607-5.271-0.252-5.271C359.041,269.111,358.061,267.635,357.23,274.383z M356.979,267.188
			c-2.66,0-0.16-0.701-5.521-9.801c-3-5.094,8.604-8.842,12.383-1.361C357.258,266.309,360.664,267.188,356.979,267.188z
			 M368.76,249.666c-6.148,6.611-1.625,4.889-6.619,1.697c-1.941-1.238-4.572-1.873-7.213-1.295
			c-9.807,2.137-1.693,7.701-9.229-0.402c-2.545-2.738,6.988-7.098,12.947-6.494C363.273,243.643,370.535,247.754,368.76,249.666z
			 M375.658,243.629c-6.156,4.363-3.857,4.652-6.264,2.424c-6.74-6.24-17.027-6.539-24.094-0.67c-3.127,2.594-0.324,2.623-6.5-1.754
			c-2.248-1.59,13.195-14.633,29.328-6.566C370.35,238.17,376.947,242.717,375.658,243.629z M383.426,239.225
			c-6.684,2.941-5.119,3.67-6.395,2.252c-9.129-10.16-24.584-12.094-35.955-3.758c-7.375,5.404-1.561,5.238-10.043,1.506
			c-1.787-0.785,9.445-13.486,25.945-13.486C373.963,225.738,384.375,238.809,383.426,239.225z M407.891,235.195
			c-1.182,1.795-2.559-0.797-13.17,0.771c-2.709,0.393-0.346-9.959,7.795-8.572C406.197,228.021,410,231.98,407.891,235.195z
			 M401.979,225.416c-1.6-0.127-3.027,0.143-4.164,0.574c-10.514,4-0.131,10.734-10.822,0.887
			c6.221-10.883,21.811-11.07,28.273-0.297C404.23,236.561,414.842,226.439,401.979,225.416z M416.74,225.305
			c-5.162-8.254-15.863-11.086-24.396-6.332c-10.377,5.775-2.389,9.023-11.463,3.189c-3.906-2.514,21.623-24.145,39.355-3.465
			C423.461,222.457,422.598,220.459,416.74,225.305z M375.232,213.488c13.344-16.164,38.182-16.316,51.73-0.268
			c4.453,5.262,3.262,4.311,0.203,5.656c-5.225,2.299-1.504,2.225-7.232-3.301c-9.531-9.193-24.145-10.039-34.615-2.355
			c-10.227,7.49-3.404,8.799-10.545,5.656C372.197,217.744,370.945,218.664,375.232,213.488z M392.504,236.35
			c-7.689,1.543-6.338,2.654-7.332,1.369c-14.078-18.158-41.137-18.473-55.645-0.979c-1.412,1.701-0.555,1.594-2.42,0.979
			c-5.611-1.854-7.576,0.014-1.676-6.555C344.043,210.439,377.215,212.939,392.504,236.35z M356.979,215.139
			c-5.75,0-2.771,1.512-6.631-4.381c3.143-5.359,10.76-4.982,13.492,0.422C360.32,216.678,363.248,215.139,356.979,215.139z
			 M360.775,205.775c-2.363-1.016-4.723-1.008-7.012-0.191c-8.449,3.016-0.613,6.717-9.045-1.793
			c6.705-7.576,18.393-7.262,24.764,0.27C361.197,212.57,368.656,209.17,360.775,205.775z M375.658,198.783
			c-6.156,4.363-3.857,4.652-6.264,2.424c-6.74-6.242-17.025-6.539-24.094-0.67c-3.127,2.596-0.324,2.623-6.5-1.754
			c-2.248-1.59,13.195-14.633,29.328-6.566C370.195,193.248,376.934,197.885,375.658,198.783z M383.426,194.379
			c-6.684,2.941-5.119,3.672-6.395,2.252c-9.178-10.215-24.641-12.053-35.955-3.758c-7.375,5.404-1.561,5.238-10.043,1.506
			c-1.906-0.836,9.602-13.486,25.945-13.486C373.967,180.893,384.377,193.963,383.426,194.379z M407.891,190.35
			c-1.182,1.797-2.559-0.797-13.17,0.771c-2.709,0.393-0.346-9.959,7.795-8.572C406.197,183.176,410,187.135,407.891,190.35z
			 M401.979,180.57c-1.596-0.127-3.021,0.141-4.164,0.574c-10.514,4-0.131,10.734-10.822,0.887
			c6.221-10.883,21.811-11.07,28.273-0.297C404.15,191.785,414.895,181.605,401.979,180.57z M416.74,180.459
			c-5.162-8.254-15.863-11.086-24.396-6.332c-11.113,6.189-2.211,9.139-11.463,3.189c-3.904-2.512,21.627-24.141,39.355-3.465
			C423.461,177.613,422.598,175.613,416.74,180.459z M375.232,168.645c13.412-16.248,38.248-16.238,51.73-0.27
			c4.455,5.262,3.262,4.311,0.203,5.656c-5.225,2.299-1.504,2.225-7.232-3.301c-9.631-9.291-24.256-9.957-34.615-2.355
			c-10.227,7.49-3.404,8.799-10.545,5.656C372.197,172.898,370.945,173.818,375.232,168.645z M392.504,191.504
			c-7.689,1.545-6.338,2.656-7.332,1.369c-14.078-18.158-41.137-18.473-55.645-0.977c-1.412,1.699-0.555,1.592-2.42,0.977
			c-5.611-1.854-7.576,0.014-1.676-6.555C343.928,165.721,377.119,167.947,392.504,191.504z M356.979,170.293
			c-5.752,0-2.771,1.514-6.631-4.381c3.164-5.4,10.789-4.928,13.492,0.422C360.32,171.83,363.248,170.293,356.979,170.293z
			 M360.775,160.932c-2.363-1.018-4.723-1.01-7.012-0.193c-8.451,3.018-0.592,6.732-9.045-1.793c6.73-7.602,18.41-7.238,24.764,0.27
			C361.197,167.725,368.656,164.326,360.775,160.932z M375.658,153.938c-6.24,4.422-3.846,4.662-6.264,2.424
			c-6.74-6.242-17.025-6.537-24.094-0.67c-3.127,2.596-0.324,2.623-6.5-1.754c-2.248-1.59,13.195-14.633,29.328-6.566
			C370.195,148.402,376.932,153.035,375.658,153.938z M383.426,149.533c-6.684,2.941-5.119,3.672-6.395,2.252
			c-9.156-10.191-24.625-12.07-35.955-3.758c-7.346,5.383-1.564,5.236-10.043,1.506c-1.797-0.789,9.455-13.486,25.945-13.486
			C374.014,136.047,384.363,149.123,383.426,149.533z M407.891,145.504c-0.943,1.434,0.623,0.291-6.67,0.291
			c-7.693,0-6.154,1.26-7.172-0.291c-2.027-3.088,4.129-10.529,10.758-7.004C407.012,139.67,409.748,142.672,407.891,145.504z
			 M404.078,136.129c-1.381-0.432-2.541-0.564-4.131-0.352c-12.383,1.66-2.066,11.443-12.955,1.408
			c6.217-10.877,21.813-11.068,28.273-0.297C404.686,146.457,414.832,139.5,404.078,136.129z M419.398,133.592
			c-5.115,3.623-0.262,1.9-7.715-3.313c-6.275-4.391-14.916-4.559-21.49,0.42c-7.104,5.387-2.033,6.873-7.654,2.893
			c-2.271-1.611-4.068-1.146,1.316-6.336c9.426-9.082,24.336-9.441,34.178-0.502C424.061,132.229,421.988,131.758,419.398,133.592z
			 M375.232,123.799c13.299-16.111,38.104-16.369,51.73-0.27c4.453,5.264,3.262,4.311,0.203,5.658
			c-5.225,2.297-1.502,2.225-7.232-3.303c-9.492-9.156-24.092-10.066-34.615-2.355c-10.244,7.51-3.4,8.803-10.545,5.658
			C372.197,128.055,370.945,128.973,375.232,123.799z M392.506,146.658c-7.537,1.51-6.361,2.627-7.334,1.369
			c-14.111-18.199-41.176-18.424-55.645-0.977c-1.412,1.699-0.555,1.592-2.42,0.977c-5.576-1.842-7.572,0.01-1.676-6.555
			C343.93,120.873,377.121,123.105,392.506,146.658z M356.979,125.447c-5.18,0-3.301,1.17-5.521-2.596
			c-3.004-5.104,8.605-8.838,12.383-1.361C360.32,126.986,363.248,125.447,356.979,125.447z M368.76,115.129
			c-6.148,6.611-1.625,4.889-6.619,1.699c-1.951-1.246-4.586-1.871-7.213-1.297c-9.807,2.139-1.693,7.701-9.229-0.402
			c-2.545-2.738,6.988-7.098,12.947-6.494C363.271,109.105,370.533,113.217,368.76,115.129z M375.658,109.092
			c-6.156,4.363-3.857,4.652-6.264,2.424c-6.74-6.24-17.027-6.537-24.094-0.67c-3.127,2.596-0.324,2.623-6.5-1.754
			c-2.24-1.584,13.148-14.656,29.328-6.566C370.35,103.635,376.947,108.18,375.658,109.092z M383.426,104.689
			c-6.684,2.941-5.119,3.67-6.395,2.252c-9.127-10.16-24.586-12.096-35.955-3.76c-7.346,5.385-1.564,5.238-10.043,1.508
			c-1.832-0.807,9.512-13.488,25.945-13.488C374.002,91.201,384.355,104.281,383.426,104.689z M407.891,100.658
			c-0.943,1.434,0.621,0.291-6.67,0.291c-7.719,0-6.152,1.264-7.172-0.291c-2.104-3.205,4.217-10.479,10.758-7.004
			C407.012,94.824,409.748,97.826,407.891,100.658z M404.078,91.283c-1.354-0.424-2.514-0.568-4.131-0.352
			c-12.389,1.66-2.057,11.449-12.955,1.41c6.223-10.887,21.816-11.064,28.273-0.299C404.686,101.607,414.832,94.654,404.078,91.283z
			 M419.398,88.746c-5.115,3.623-0.262,1.9-7.715-3.313c-6.268-4.385-14.912-4.564-21.49,0.422
			c-7.104,5.385-2.033,6.871-7.654,2.891c-2.271-1.609-4.068-1.146,1.316-6.336c9.492-9.145,24.398-9.383,34.178-0.502
			C424.061,87.383,421.988,86.912,419.398,88.746z M426.963,78.684c4.453,5.264,3.262,4.311,0.203,5.658
			c-6.34,2.789-0.348,1.453-10.045-5.658c-10.947-8.027-25.871-6.566-35.135,2.859c-6.035,6.143-0.426,5.18-9.771,1.756
			C384.225,63.057,412.182,61.197,426.963,78.684z M392.504,101.814c-7.605,1.523-6.35,2.639-7.332,1.367
			c-14.15-18.291-41.248-18.338-55.645-0.977c-1.408,1.697-0.559,1.592-2.42,0.977c-5.553-1.834-7.566,0.004-1.676-6.555
			C343.93,76.027,377.121,78.26,392.504,101.814z M350.348,76.221c2.576-4.393,8.273-5.041,11.816-1.797
			c2.582,2.361,1.387,2.207-0.693,6.404C349.623,79.631,355.107,83.486,350.348,76.221z M368.76,70.283
			c-6.148,6.611-1.625,4.889-6.619,1.699c-1.975-1.262-4.613-1.863-7.213-1.297c-9.809,2.139-1.693,7.703-9.229-0.402
			c-2.486-2.672,6.463-6.578,11.279-6.578C363.6,63.705,370.316,68.605,368.76,70.283z M366.74,64.627
			c-5.623-3.563-12.898-3.873-18.939-0.355c-7.533,4.387-0.975,5.391-9.75-0.557c10.17-11.732,28.191-11.426,38.053,0.217
			C367.688,69.736,373.602,68.971,366.74,64.627z M374.549,59.652c-10.002-8.615-24.584-8.609-34.559-0.502
			c-5.92,4.811-0.617,4.172-9.691,0.371c13.635-17.641,40.029-17.451,53.48,0.162C375.189,63.373,379.697,64.084,374.549,59.652z
			 M407.891,55.813c-0.938,1.426,0.555,0.291-6.67,0.291c-7.723,0-6.15,1.266-7.172-0.291c-2.035-3.1,4.135-10.521,10.758-7.004
			C407.012,49.98,409.748,52.98,407.891,55.813z M410.299,52.492c-3.055-8.902-15.697-8.588-18.301,0.457
			c-4.975-6.404-6.469-4.701-2.512-8.768c6.162-6.338,16.227-6.691,22.813-0.627C416.984,47.869,415.096,46.482,410.299,52.492z
			 M416.74,45.922c-7.246-11.582-24.143-11.488-31.213,0.285c-5.926-5-6.412-3.006-3.979-6.09
			c9.795-12.42,28.379-12.826,38.688-0.803C423.461,43.076,422.598,41.076,416.74,45.922z M426.963,33.84
			c4.453,5.262,3.262,4.309,0.203,5.656c-6.34,2.789-0.348,1.455-10.045-5.656c-10.947-8.029-25.871-6.568-35.135,2.857
			c-6.035,6.145-0.426,5.182-9.771,1.756C384.227,18.205,412.186,16.355,426.963,33.84z M391.586,55.621
			c1.641,2.314,1.465,0.521-5.961,3.322c-14.201-19.234-42.852-19.303-57.18-0.152c-7.617-2.791-7.881-0.738-5.631-3.793
			C339.971,31.711,374.779,31.924,391.586,55.621z M350.348,31.375c2.576-4.393,8.273-5.041,11.816-1.797
			c2.582,2.361,1.387,2.209-0.693,6.404C349.623,34.785,355.107,38.641,350.348,31.375z M368.76,25.439
			c-6.148,6.609-1.625,4.887-6.619,1.697c-1.975-1.262-4.613-1.863-7.213-1.297c-9.809,2.139-1.693,7.703-9.229-0.4
			c-2.486-2.674,6.463-6.58,11.279-6.58C363.484,18.859,370.369,23.705,368.76,25.439z M366.74,19.781
			c-5.637-3.57-12.912-3.865-18.939-0.355c-7.539,4.391-1.002,5.373-9.75-0.557c10.17-11.732,28.191-11.426,38.053,0.217
			C367.688,24.891,373.602,24.125,366.74,19.781z M374.549,14.807c-10.002-8.615-24.584-8.609-34.559-0.502
			c-5.92,4.811-0.617,4.172-9.691,0.371c13.635-17.641,40.029-17.451,53.48,0.162C375.191,18.527,379.697,19.238,374.549,14.807z
			 M407.891,10.967c-0.943,1.436,0.621,0.291-6.67,0.291c-7.723,0-6.15,1.266-7.172-0.291c-2.111-3.213,4.225-10.473,10.758-7.004
			C407.012,5.135,409.748,8.137,407.891,10.967z M410.299,7.646c-3.053-8.9-15.697-8.59-18.301,0.459
			c-4.975-6.404-6.469-4.703-2.512-8.77c6.162-6.338,16.227-6.691,22.813-0.627C416.986,3.025,415.092,1.641,410.299,7.646z
			 M416.74,1.076c-7.227-11.553-24.129-11.51-31.213,0.285c-5.943-5.016-6.416-2.998-3.979-6.09
			c9.77-12.387,28.396-12.805,38.688-0.803C423.461-1.77,422.598-3.768,416.74,1.076z M426.732-11.262
			c4.791,5.547,3.436,4.59,0.434,5.912c-5.225,2.299-1.502,2.227-7.232-3.303c-10.857-10.473-27.721-9.902-37.947,0.504
			c-6.035,6.145-0.426,5.182-9.771,1.756C384.021-26.293,411.627-28.746,426.732-11.262z M391.586,10.775
			c1.641,2.314,1.465,0.521-5.961,3.322c-14.258-19.254-42.865-19.283-57.18-0.152c-7.617-2.789-7.881-0.738-5.631-3.793
			C339.934-13.086,374.746-12.969,391.586,10.775z M350.348-13.471c3.117-5.314,10.729-5.049,13.492,0.424
			c-0.861,1.348-1.654,2.742-2.369,4.184C349.705-10.053,355.076-6.25,350.348-13.471z M365.047-14.838
			c-3.709-5.691-11.9-5.906-15.885-0.354c-1.348-1.859-2.83-3.615-4.443-5.244c6.639-7.502,18.285-7.385,24.764,0.27
			C367.869-18.51,366.387-16.729,365.047-14.838z M370.855-21.514c-7.223-8.398-20.094-8.572-27.521-0.256
			c-1.65-1.529-3.414-2.939-5.283-4.207c10.141-11.703,28.113-11.525,38.053,0.217C374.246-24.479,372.494-23.057,370.855-21.514z
			 M377.729-26.828c-10.717-12.887-30.396-13.064-41.316-0.203c-1.943-1.197-3.986-2.248-6.113-3.139
			c13.582-17.572,39.93-17.588,53.48,0.162C381.672-29.104,379.654-28.035,377.729-26.828z M385.625-30.748
			c-14.266-19.271-42.795-19.369-57.18-0.152c-2.234-0.818-4.557-1.451-6.941-1.902c16.805-25.604,54.217-25.617,71,0.08
			C390.139-32.248,387.842-31.584,385.625-30.748z"/>
	</g>
</g>
</svg>
