<svg width="138" height="401" viewBox="0 0 138 401" fill="none" xmlns="http://www.w3.org/2000/svg">
<mask id="path-1-outside-1_1144_3084" maskUnits="userSpaceOnUse" x="22" y="4.99999" width="81" height="395" fill="black">
<rect fill="white" x="22" y="4.99999" width="81" height="395"/>
<path d="M27 8.736L98.04 8.736L98.04 28.224C98.04 49.92 86.808 63.264 62.808 63.264C38.904 63.264 27 49.92 27 28.992L27 8.736ZM38.424 22.944L38.424 27.264C38.424 40.608 45.528 48.768 62.808 48.768C80.088 48.768 86.712 40.608 86.712 27.264L86.712 22.944L38.424 22.944ZM27 85.2672L98.04 85.2672L98.04 109.939C98.04 124.819 92.856 136.627 76.536 136.627C60.696 136.627 53.784 124.819 53.784 109.939L53.784 99.4752L27 99.4752L27 85.2672ZM65.016 99.4752L65.016 108.595C65.016 117.811 68.952 122.803 76.536 122.803C84.12 122.803 86.712 117.811 86.712 108.595L86.712 99.4752L65.016 99.4752ZM27 123.859L57.432 107.347L66.36 117.235L27 139.699L27 123.859ZM27 158.705L98.04 158.705L98.04 172.913L27 172.913L27 158.705ZM27 198.392L98.04 198.392L98.04 212.792L60.12 233.432L44.76 240.632L44.76 241.112C52.152 240.344 61.656 239.192 69.72 239.192L98.04 239.192L98.04 252.728L27 252.728L27 238.232L65.016 217.688L80.184 210.488L80.184 210.008C72.6 210.68 63.672 211.832 55.416 211.832L27 211.832L27 198.392ZM27 278.298L98.04 278.298L98.04 292.506L67.224 292.506L67.224 292.698L98.04 316.315L98.04 331.963L70.104 310.17L27 335.706L27 320.25L58.872 301.818L46.968 292.506L27 292.506L27 278.298ZM25.656 370.889C25.656 361.289 29.304 351.881 35.928 344.969L45.72 353.129C41.016 358.121 37.944 364.937 37.944 371.177C37.944 378.569 41.112 382.409 46.008 382.409C51.288 382.409 53.016 378.089 55.704 371.753L59.736 362.249C62.616 355.145 68.472 347.849 78.744 347.849C90.36 347.849 99.288 358.121 99.288 372.425C99.288 380.682 96.024 388.937 90.168 394.697L81.24 387.594C84.984 382.985 87.096 378.282 87.096 372.425C87.096 366.185 84.312 362.249 79.704 362.249C74.616 362.249 72.696 367.337 70.296 373.385L66.456 382.697C62.904 391.242 57.336 396.905 47.16 396.905C35.544 396.905 25.656 387.209 25.656 370.889Z"/>
</mask>
<path d="M27 8.736L27 5.736L24 5.736L24 8.736L27 8.736ZM98.04 8.736L101.04 8.736L101.04 5.736L98.04 5.736L98.04 8.736ZM38.424 22.944L38.424 19.944L35.424 19.944L35.424 22.944L38.424 22.944ZM86.712 22.944L89.712 22.944L89.712 19.944L86.712 19.944L86.712 22.944ZM27 11.736L98.04 11.736L98.04 5.736L27 5.736L27 11.736ZM95.04 8.736L95.04 28.224L101.04 28.224L101.04 8.736L95.04 8.736ZM95.04 28.224C95.04 38.5855 92.3606 46.4908 87.2602 51.802C82.1808 57.0913 74.2609 60.264 62.808 60.264L62.808 66.264C75.3551 66.264 85.0512 62.7647 91.5878 55.958C98.1034 49.1732 101.04 39.5585 101.04 28.224L95.04 28.224ZM62.808 60.264C51.4048 60.264 43.3079 57.0907 38.0592 51.8525C32.8083 46.6122 30 38.8982 30 28.992L24 28.992C24 40.0138 27.1437 49.4358 33.8208 56.0995C40.5001 62.7653 50.3071 66.264 62.808 66.264L62.808 60.264ZM30 28.992L30 8.736L24 8.736L24 28.992L30 28.992ZM35.424 22.944L35.424 27.264L41.424 27.264L41.424 22.944L35.424 22.944ZM35.424 27.264C35.424 34.448 37.3451 40.7441 42.0789 45.2036C46.7793 49.6317 53.7468 51.768 62.808 51.768L62.808 45.768C54.5892 45.768 49.3647 43.8243 46.1931 40.8364C43.0549 37.8799 41.424 33.424 41.424 27.264L35.424 27.264ZM62.808 51.768C71.8669 51.768 78.74 49.6323 83.3307 45.1715C87.9395 40.6931 89.712 34.3946 89.712 27.264L83.712 27.264C83.712 33.4774 82.1725 37.9308 79.1493 40.8685C76.108 43.8237 71.0291 45.768 62.808 45.768L62.808 51.768ZM89.712 27.264L89.712 22.944L83.712 22.944L83.712 27.264L89.712 27.264ZM86.712 19.944L38.424 19.944L38.424 25.944L86.712 25.944L86.712 19.944ZM27 85.2672L27 82.2672L24 82.2672L24 85.2672L27 85.2672ZM98.04 85.2672L101.04 85.2672L101.04 82.2672L98.04 82.2672L98.04 85.2672ZM53.784 99.4752L56.784 99.4752L56.784 96.4752L53.784 96.4752L53.784 99.4752ZM27 99.4752L24 99.4752L24 102.475L27 102.475L27 99.4752ZM65.016 99.4752L65.016 96.4752L62.016 96.4752L62.016 99.4752L65.016 99.4752ZM86.712 99.4752L89.712 99.4752L89.712 96.4752L86.712 96.4752L86.712 99.4752ZM27 123.859L25.5693 121.222L24 122.074L24 123.859L27 123.859ZM57.432 107.347L59.6586 105.337L58.0764 103.584L56.0013 104.71L57.432 107.347ZM66.36 117.235L67.847 119.841L71.0856 117.992L68.5866 115.225L66.36 117.235ZM27 139.699L24 139.699L24 144.866L28.487 142.305L27 139.699ZM27 88.2672L98.04 88.2672L98.04 82.2672L27 82.2672L27 88.2672ZM95.04 85.2672L95.04 109.939L101.04 109.939L101.04 85.2672L95.04 85.2672ZM95.04 109.939C95.04 117.123 93.7721 123.073 90.9425 127.154C88.2502 131.037 83.868 133.627 76.536 133.627L76.536 139.627C85.524 139.627 91.8937 136.313 95.8735 130.572C99.7159 125.03 101.04 117.636 101.04 109.939L95.04 109.939ZM76.536 133.627C69.45 133.627 64.68 131.034 61.5963 127.032C58.4238 122.915 56.784 116.97 56.784 109.939L50.784 109.939C50.784 117.789 52.6002 125.187 56.8437 130.694C61.176 136.317 67.782 139.627 76.536 139.627L76.536 133.627ZM56.784 109.939L56.784 99.4752L50.784 99.4752L50.784 109.939L56.784 109.939ZM53.784 96.4752L27 96.4752L27 102.475L53.784 102.475L53.784 96.4752ZM30 99.4752L30 85.2672L24 85.2672L24 99.4752L30 99.4752ZM62.016 99.4752L62.016 108.595L68.016 108.595L68.016 99.4752L62.016 99.4752ZM62.016 108.595C62.016 113.565 63.068 117.897 65.5951 121.036C68.212 124.287 72.0375 125.803 76.536 125.803L76.536 119.803C73.4505 119.803 71.516 118.823 70.2689 117.274C68.932 115.613 68.016 112.841 68.016 108.595L62.016 108.595ZM76.536 125.803C81.0711 125.803 84.6834 124.249 86.9661 120.816C89.0684 117.655 89.712 113.356 89.712 108.595L83.712 108.595C83.712 113.051 83.0596 115.855 81.9699 117.494C81.0606 118.861 79.5849 119.803 76.536 119.803L76.536 125.803ZM89.712 108.595L89.712 99.4752L83.712 99.4752L83.712 108.595L89.712 108.595ZM86.712 96.4752L65.016 96.4752L65.016 102.475L86.712 102.475L86.712 96.4752ZM28.4307 126.496L58.8627 109.984L56.0013 104.71L25.5693 121.222L28.4307 126.496ZM55.2053 109.358L64.1333 119.246L68.5866 115.225L59.6586 105.337L55.2053 109.358ZM64.873 114.63L25.5129 137.094L28.487 142.305L67.847 119.841L64.873 114.63ZM30 139.699L30 123.859L24 123.859L24 139.699L30 139.699ZM27 158.705L27 155.705L24 155.705L24 158.705L27 158.705ZM98.04 158.705L101.04 158.705L101.04 155.705L98.04 155.705L98.04 158.705ZM98.04 172.913L98.04 175.913L101.04 175.913L101.04 172.913L98.04 172.913ZM27 172.913L24 172.913L24 175.913L27 175.913L27 172.913ZM27 161.705L98.04 161.705L98.04 155.705L27 155.705L27 161.705ZM95.04 158.705L95.04 172.913L101.04 172.913L101.04 158.705L95.04 158.705ZM98.04 169.913L27 169.913L27 175.913L98.04 175.913L98.04 169.913ZM30 172.913L30 158.705L24 158.705L24 172.913L30 172.913ZM27 198.392L27 195.392L24 195.392L24 198.392L27 198.392ZM98.04 198.392L101.04 198.392L101.04 195.392L98.04 195.392L98.04 198.392ZM98.04 212.792L99.4742 215.427L101.04 214.575L101.04 212.792L98.04 212.792ZM60.12 233.432L61.3933 236.149L61.475 236.11L61.5542 236.067L60.12 233.432ZM44.76 240.632L43.4867 237.916L41.76 238.725L41.76 240.632L44.76 240.632ZM44.76 241.112L41.76 241.112L41.76 244.44L45.07 244.096L44.76 241.112ZM98.04 239.192L101.04 239.192L101.04 236.192L98.04 236.192L98.04 239.192ZM98.04 252.728L98.04 255.728L101.04 255.728L101.04 252.728L98.04 252.728ZM27 252.728L24 252.728L24 255.728L27 255.728L27 252.728ZM27 238.232L25.5737 235.593L24 236.443L24 238.232L27 238.232ZM65.016 217.688L63.7295 214.978L63.6587 215.012L63.5897 215.049L65.016 217.688ZM80.184 210.488L81.4705 213.198L83.184 212.385L83.184 210.488L80.184 210.488ZM80.184 210.008L83.184 210.008L83.184 206.731L79.9192 207.02L80.184 210.008ZM27 211.832L24 211.832L24 214.832L27 214.832L27 211.832ZM27 201.392L98.04 201.392L98.04 195.392L27 195.392L27 201.392ZM95.04 198.392L95.04 212.792L101.04 212.792L101.04 198.392L95.04 198.392ZM96.6058 210.157L58.6858 230.797L61.5542 236.067L99.4742 215.427L96.6058 210.157ZM58.8467 230.716L43.4867 237.916L46.0333 243.349L61.3933 236.149L58.8467 230.716ZM41.76 240.632L41.76 241.112L47.76 241.112L47.76 240.632L41.76 240.632ZM45.07 244.096C52.56 243.318 61.8549 242.192 69.72 242.192L69.72 236.192C61.457 236.192 51.744 237.37 44.45 238.128L45.07 244.096ZM69.72 242.192L98.04 242.192L98.04 236.192L69.72 236.192L69.72 242.192ZM95.04 239.192L95.04 252.728L101.04 252.728L101.04 239.192L95.04 239.192ZM98.04 249.728L27 249.728L27 255.728L98.04 255.728L98.04 249.728ZM30 252.728L30 238.232L24 238.232L24 252.728L30 252.728ZM28.4263 240.872L66.4423 220.328L63.5897 215.049L25.5737 235.593L28.4263 240.872ZM66.3025 220.398L81.4705 213.198L78.8975 207.778L63.7295 214.978L66.3025 220.398ZM83.184 210.488L83.184 210.008L77.184 210.008L77.184 210.488L83.184 210.488ZM79.9192 207.02C72.1613 207.707 63.4951 208.832 55.416 208.832L55.416 214.832C63.8489 214.832 73.0387 213.653 80.4488 212.997L79.9192 207.02ZM55.416 208.832L27 208.832L27 214.832L55.416 214.832L55.416 208.832ZM30 211.832L30 198.392L24 198.392L24 211.832L30 211.832ZM27 278.298L27 275.298L24 275.298L24 278.298L27 278.298ZM98.04 278.298L101.04 278.298L101.04 275.298L98.04 275.298L98.04 278.298ZM98.04 292.506L98.04 295.506L101.04 295.506L101.04 292.506L98.04 292.506ZM67.224 292.506L67.224 289.506L64.224 289.506L64.224 292.506L67.224 292.506ZM67.224 292.698L64.224 292.698L64.224 294.179L65.3992 295.08L67.224 292.698ZM98.04 316.315L101.04 316.315L101.04 314.834L99.8648 313.933L98.04 316.315ZM98.04 331.962L96.1948 334.328L101.04 338.108L101.04 331.962L98.04 331.962ZM70.104 310.17L71.9492 307.805L70.3356 306.546L68.5749 307.589L70.104 310.17ZM27 335.707L24 335.707L24 340.971L28.5291 338.288L27 335.707ZM27 320.25L25.4981 317.653L24 318.52L24 320.25L27 320.25ZM58.872 301.819L60.3739 304.415L64.2186 302.192L60.7204 299.456L58.872 301.819ZM46.968 292.506L48.8164 290.144L48.002 289.506L46.968 289.506L46.968 292.506ZM27 292.506L24 292.506L24 295.506L27 295.506L27 292.506ZM27 281.298L98.04 281.298L98.04 275.298L27 275.298L27 281.298ZM95.04 278.298L95.04 292.506L101.04 292.506L101.04 278.298L95.04 278.298ZM98.04 289.506L67.224 289.506L67.224 295.506L98.04 295.506L98.04 289.506ZM64.224 292.506L64.224 292.698L70.224 292.698L70.224 292.506L64.224 292.506ZM65.3992 295.08L96.2152 318.696L99.8648 313.933L69.0488 290.317L65.3992 295.08ZM95.04 316.315L95.04 331.962L101.04 331.962L101.04 316.315L95.04 316.315ZM99.8852 329.597L71.9492 307.805L68.2588 312.536L96.1948 334.328L99.8852 329.597ZM68.5749 307.589L25.4709 333.125L28.5291 338.288L71.6331 312.752L68.5749 307.589ZM30 335.707L30 320.25L24 320.25L24 335.707L30 335.707ZM28.5019 322.847L60.3739 304.415L57.3701 299.221L25.4981 317.653L28.5019 322.847ZM60.7204 299.456L48.8164 290.144L45.1196 294.869L57.0236 304.181L60.7204 299.456ZM46.968 289.506L27 289.506L27 295.506L46.968 295.506L46.968 289.506ZM30 292.506L30 278.298L24 278.298L24 292.506L30 292.506ZM35.928 344.97L37.8485 342.665L35.6985 340.873L33.762 342.894L35.928 344.97ZM45.72 353.129L47.9034 355.187L50.0902 352.866L47.6405 350.825L45.72 353.129ZM55.704 371.754L52.9422 370.582L52.9422 370.582L55.704 371.754ZM59.736 362.25L62.4977 363.421L62.5071 363.399L62.5162 363.377L59.736 362.25ZM90.168 394.698L88.3001 397.045L90.3783 398.699L92.2717 396.836L90.168 394.698ZM81.24 387.594L78.9116 385.702L77.0005 388.054L79.3721 389.941L81.24 387.594ZM70.296 373.385L73.0694 374.529L73.0771 374.511L73.0845 374.492L70.296 373.385ZM66.456 382.698L69.2261 383.849L69.2294 383.841L66.456 382.698ZM28.656 370.889C28.656 362.034 32.0251 353.378 38.0939 347.045L33.762 342.894C26.5829 350.385 22.656 360.545 22.656 370.889L28.656 370.889ZM34.0074 347.274L43.7994 355.434L47.6405 350.825L37.8485 342.665L34.0074 347.274ZM43.5366 351.072C38.4113 356.511 34.944 364.034 34.944 371.177L40.944 371.177C40.944 365.841 43.6207 359.732 47.9034 355.187L43.5366 351.072ZM34.944 371.177C34.944 375.247 35.8083 378.773 37.7345 381.358C39.7458 384.057 42.6835 385.41 46.008 385.41L46.008 379.41C44.4364 379.41 43.3422 378.842 42.5455 377.773C41.6636 376.59 40.944 374.5 40.944 371.177L34.944 371.177ZM46.008 385.41C49.7123 385.41 52.3006 383.784 54.2132 381.277C55.9254 379.032 57.1862 375.941 58.4657 372.925L52.9422 370.582C51.5338 373.902 50.5866 376.138 49.4427 377.638C48.4994 378.875 47.5836 379.41 46.008 379.41L46.008 385.41ZM58.4657 372.925L62.4977 363.421L56.9742 361.078L52.9422 370.582L58.4657 372.925ZM62.5162 363.377C65.1834 356.798 70.2377 350.849 78.744 350.849L78.744 344.849C66.7063 344.849 60.0486 353.493 56.9558 361.122L62.5162 363.377ZM78.744 350.849C88.2516 350.849 96.288 359.288 96.288 372.426L102.288 372.426C102.288 356.955 92.4684 344.849 78.744 344.849L78.744 350.849ZM96.288 372.426C96.288 379.928 93.312 387.397 88.0643 392.559L92.2717 396.836C98.736 390.478 102.288 381.435 102.288 372.426L96.288 372.426ZM92.0359 392.35L83.1079 385.246L79.3721 389.941L88.3001 397.045L92.0359 392.35ZM83.5683 389.485C87.6332 384.482 90.096 379.131 90.096 372.426L84.096 372.426C84.096 377.432 82.3348 381.489 78.9116 385.702L83.5683 389.485ZM90.096 372.426C90.096 368.908 89.3178 365.679 87.5613 363.243C85.7284 360.701 82.9771 359.25 79.704 359.25L79.704 365.25C81.0388 365.25 81.9836 365.766 82.6946 366.752C83.4822 367.844 84.096 369.703 84.096 372.426L90.096 372.426ZM79.704 359.25C75.8895 359.25 73.3197 361.272 71.5322 363.832C69.8697 366.213 68.6555 369.386 67.5075 372.279L73.0845 374.492C74.3365 371.337 75.2822 368.942 76.4517 367.267C77.4963 365.771 78.4305 365.25 79.704 365.25L79.704 359.25ZM67.5225 372.242L63.6825 381.554L69.2294 383.841L73.0694 374.529L67.5225 372.242ZM63.6858 381.546C62.0222 385.548 59.9943 388.604 57.419 390.662C54.8997 392.676 51.6438 393.905 47.16 393.905L47.16 399.905C52.8521 399.905 57.4683 398.303 61.165 395.349C64.8056 392.439 67.3378 388.391 69.2261 383.849L63.6858 381.546ZM47.16 393.905C37.5526 393.905 28.656 385.928 28.656 370.889L22.656 370.889C22.656 388.491 33.5354 399.905 47.16 399.905L47.16 393.905Z" fill="#BC9F77" fill-opacity="0.4" mask="url(#path-1-outside-1_1144_3084)"/>
</svg>
