<svg width="159" height="160" viewBox="0 0 159 160" fill="none" xmlns="http://www.w3.org/2000/svg">
<mask id="path-1-inside-1_1782_3266" fill="white">
<path fill-rule="evenodd" clip-rule="evenodd" d="M89.0035 2.06334C89.4386 1.33 90.657 0.525694 91.9625 0.170852C93.2461 -0.183989 97.4018 0.0525716 98.6637 0.525694C100.317 1.16441 102.537 3.74292 103.733 6.41606C104.669 8.4978 106.214 13.1817 106.496 14.9086C106.583 15.3817 106.736 15.8548 106.866 15.9258C106.975 15.9968 108.324 15.1925 109.847 14.1516C113.437 11.6914 113.959 11.4785 117.157 11.3602C120.116 11.2183 121.901 11.5731 123.511 12.614C127.014 14.8376 125.338 18.6463 118.463 24.2055C116.287 25.956 110.195 30.2851 109.586 30.5216C109.477 30.5453 109.803 33.455 110.282 36.9561C111.218 43.6508 111.827 48.7841 112.284 53.4444L112.545 56.1885L115.047 56.9455C118.92 58.1046 130.321 62.0789 138.371 65.0595C148.988 69.0101 149.358 69.1757 151.969 70.5241C155.711 72.4875 157.67 74.3327 158.192 76.3908C158.823 78.9693 156.016 81.4769 151.251 82.5414C149.467 82.9435 148.575 82.9909 145.442 82.8962C137.326 82.636 126.47 79.3715 115.439 73.8833C114.481 73.4101 113.676 73.0789 113.633 73.1263C113.524 73.2445 113.894 95.8361 114.242 110.053C114.829 133.71 114.024 142.699 110.63 150.269C109.347 153.155 107.758 155.591 106.344 156.845C101.797 160.914 92.3759 161.08 89.2863 157.153C88.1549 155.71 88.3943 154.763 90.0261 154.148L90.7223 153.888V151.854C90.7223 148.708 90.3307 141.374 89.852 135.484C88.2855 116.157 88.1114 109.06 88.6989 88.7629L88.8294 83.8188L88.2855 84.2683C87.9809 84.5285 86.8713 85.5694 85.8269 86.5866C79.0386 93.1157 74.1215 95.5049 67.442 95.5049C60.4144 95.5049 55.78 92.5006 57.6512 89.1651C57.9123 88.7156 60.1968 86.1135 62.7424 83.3694C65.288 80.6016 68.4646 77.0295 69.8353 75.3972C74.8177 69.4123 80.3876 61.4165 84.0863 54.9347C84.7529 53.7721 85.579 52.3493 86.2705 51.1584C86.6624 50.4834 87.011 49.8829 87.2629 49.4465L88.5466 47.2701L88.416 43.6035C88.3072 40.8357 88.1984 39.9131 87.9809 39.9131C87.8286 39.9131 86.5014 40.2443 85.0219 40.6228C77.0587 42.7518 68.5081 43.7217 64.7223 42.9647C63.0687 42.6336 61.3934 41.711 61.0888 40.9776C60.7842 40.2443 61.0888 39.3927 61.8721 38.8486C62.1767 38.6357 66.5499 36.7668 71.6194 34.7088C80.6487 31.0421 86.6319 28.4162 87.611 27.7066C88.0897 27.3754 88.1114 27.2334 88.1114 24.1108C88.1114 22.3366 88.2202 16.8011 88.3725 11.8097C88.5901 3.88486 88.6771 2.65474 89.0035 2.06334ZM22.6439 13.1582C22.8833 12.6378 24.2322 11.8571 25.3854 11.5259C25.8423 11.4077 27.1477 11.3367 28.2791 11.384C31.9778 11.5259 33.7402 12.7324 35.2197 16.1152C35.8941 17.6292 37.8523 23.8508 37.8523 24.4658C37.8523 24.9389 38.2439 24.8443 40.4414 23.8035C44.9452 21.6981 47.7736 21.1067 50.5151 21.6981C53.8222 22.3841 54.91 23.969 53.6046 26.0981C52.7778 27.4701 50.6021 29.8121 48.6222 31.5153C46.8163 33.053 40.9636 37.3111 40.6372 37.3111C40.3762 37.3111 40.4197 38.5412 40.7895 41.5928C41.0941 44.0294 41.9862 54.2962 42.6607 63.0016L42.9218 66.3608L45.6632 67.4726C47.1644 68.064 50.0799 69.4597 52.1033 70.5479C57.3469 73.3393 59.0874 75.1372 58.6088 77.2426C58.3477 78.4017 56.977 79.4899 54.9753 80.1759C53.6264 80.6491 52.9301 80.72 49.9276 80.72C48.013 80.72 45.8808 80.6254 45.1628 80.5308L43.8791 80.3179L44.0314 82.7781C44.0967 84.1028 44.2272 89.4728 44.2925 94.6771C44.5971 114.099 43.3787 124.318 40.0716 130.256C38.505 133.095 36.6121 134.727 34.0448 135.508C30.89 136.454 27.6916 136.288 25.4506 135.058C24.4498 134.514 24.1017 134.135 23.2096 132.598C21.926 130.398 21.9695 129.996 23.536 129.404L24.6239 128.978L24.4933 127.914C24.428 127.323 24.167 123.443 23.9276 119.279C23.5142 111.97 23.3184 106.765 22.8398 90.6556C22.7092 86.4921 22.5569 82.163 22.4699 81.0275L22.3393 78.9695L20.6858 80.6254C16.9 84.434 13.049 87.1308 10.4163 87.8169C6.71759 88.7631 2.12679 87.7932 1.32177 85.9007C0.973655 85.0491 1.49583 83.9136 3.60629 80.9093C4.49834 79.6318 5.93432 77.5738 6.78286 76.3436C9.02386 73.1501 11.9829 67.9457 14.4632 62.8597C17.3352 56.9693 17.705 56.4489 19.7067 55.3843L21.3167 54.5091V50.4875V46.4896L20.8381 46.6316C17.3569 47.6961 11.5042 48.666 8.45817 48.666C4.60713 48.666 0.995412 47.4832 0.212149 45.9929C-0.070696 45.4251 -0.070696 45.2832 0.212149 44.7391C0.647295 43.8875 1.34353 43.509 10.1117 39.4638C14.3109 37.524 18.5101 35.5369 19.4674 35.0401L21.208 34.1175L21.3385 27.0207C21.4908 19.0249 21.9042 14.6485 22.6439 13.1582Z"/>
</mask>
<path fill-rule="evenodd" clip-rule="evenodd" d="M89.0035 2.06334C89.4386 1.33 90.657 0.525694 91.9625 0.170852C93.2461 -0.183989 97.4018 0.0525716 98.6637 0.525694C100.317 1.16441 102.537 3.74292 103.733 6.41606C104.669 8.4978 106.214 13.1817 106.496 14.9086C106.583 15.3817 106.736 15.8548 106.866 15.9258C106.975 15.9968 108.324 15.1925 109.847 14.1516C113.437 11.6914 113.959 11.4785 117.157 11.3602C120.116 11.2183 121.901 11.5731 123.511 12.614C127.014 14.8376 125.338 18.6463 118.463 24.2055C116.287 25.956 110.195 30.2851 109.586 30.5216C109.477 30.5453 109.803 33.455 110.282 36.9561C111.218 43.6508 111.827 48.7841 112.284 53.4444L112.545 56.1885L115.047 56.9455C118.92 58.1046 130.321 62.0789 138.371 65.0595C148.988 69.0101 149.358 69.1757 151.969 70.5241C155.711 72.4875 157.67 74.3327 158.192 76.3908C158.823 78.9693 156.016 81.4769 151.251 82.5414C149.467 82.9435 148.575 82.9909 145.442 82.8962C137.326 82.636 126.47 79.3715 115.439 73.8833C114.481 73.4101 113.676 73.0789 113.633 73.1263C113.524 73.2445 113.894 95.8361 114.242 110.053C114.829 133.71 114.024 142.699 110.63 150.269C109.347 153.155 107.758 155.591 106.344 156.845C101.797 160.914 92.3759 161.08 89.2863 157.153C88.1549 155.71 88.3943 154.763 90.0261 154.148L90.7223 153.888V151.854C90.7223 148.708 90.3307 141.374 89.852 135.484C88.2855 116.157 88.1114 109.06 88.6989 88.7629L88.8294 83.8188L88.2855 84.2683C87.9809 84.5285 86.8713 85.5694 85.8269 86.5866C79.0386 93.1157 74.1215 95.5049 67.442 95.5049C60.4144 95.5049 55.78 92.5006 57.6512 89.1651C57.9123 88.7156 60.1968 86.1135 62.7424 83.3694C65.288 80.6016 68.4646 77.0295 69.8353 75.3972C74.8177 69.4123 80.3876 61.4165 84.0863 54.9347C84.7529 53.7721 85.579 52.3493 86.2705 51.1584C86.6624 50.4834 87.011 49.8829 87.2629 49.4465L88.5466 47.2701L88.416 43.6035C88.3072 40.8357 88.1984 39.9131 87.9809 39.9131C87.8286 39.9131 86.5014 40.2443 85.0219 40.6228C77.0587 42.7518 68.5081 43.7217 64.7223 42.9647C63.0687 42.6336 61.3934 41.711 61.0888 40.9776C60.7842 40.2443 61.0888 39.3927 61.8721 38.8486C62.1767 38.6357 66.5499 36.7668 71.6194 34.7088C80.6487 31.0421 86.6319 28.4162 87.611 27.7066C88.0897 27.3754 88.1114 27.2334 88.1114 24.1108C88.1114 22.3366 88.2202 16.8011 88.3725 11.8097C88.5901 3.88486 88.6771 2.65474 89.0035 2.06334ZM22.6439 13.1582C22.8833 12.6378 24.2322 11.8571 25.3854 11.5259C25.8423 11.4077 27.1477 11.3367 28.2791 11.384C31.9778 11.5259 33.7402 12.7324 35.2197 16.1152C35.8941 17.6292 37.8523 23.8508 37.8523 24.4658C37.8523 24.9389 38.2439 24.8443 40.4414 23.8035C44.9452 21.6981 47.7736 21.1067 50.5151 21.6981C53.8222 22.3841 54.91 23.969 53.6046 26.0981C52.7778 27.4701 50.6021 29.8121 48.6222 31.5153C46.8163 33.053 40.9636 37.3111 40.6372 37.3111C40.3762 37.3111 40.4197 38.5412 40.7895 41.5928C41.0941 44.0294 41.9862 54.2962 42.6607 63.0016L42.9218 66.3608L45.6632 67.4726C47.1644 68.064 50.0799 69.4597 52.1033 70.5479C57.3469 73.3393 59.0874 75.1372 58.6088 77.2426C58.3477 78.4017 56.977 79.4899 54.9753 80.1759C53.6264 80.6491 52.9301 80.72 49.9276 80.72C48.013 80.72 45.8808 80.6254 45.1628 80.5308L43.8791 80.3179L44.0314 82.7781C44.0967 84.1028 44.2272 89.4728 44.2925 94.6771C44.5971 114.099 43.3787 124.318 40.0716 130.256C38.505 133.095 36.6121 134.727 34.0448 135.508C30.89 136.454 27.6916 136.288 25.4506 135.058C24.4498 134.514 24.1017 134.135 23.2096 132.598C21.926 130.398 21.9695 129.996 23.536 129.404L24.6239 128.978L24.4933 127.914C24.428 127.323 24.167 123.443 23.9276 119.279C23.5142 111.97 23.3184 106.765 22.8398 90.6556C22.7092 86.4921 22.5569 82.163 22.4699 81.0275L22.3393 78.9695L20.6858 80.6254C16.9 84.434 13.049 87.1308 10.4163 87.8169C6.71759 88.7631 2.12679 87.7932 1.32177 85.9007C0.973655 85.0491 1.49583 83.9136 3.60629 80.9093C4.49834 79.6318 5.93432 77.5738 6.78286 76.3436C9.02386 73.1501 11.9829 67.9457 14.4632 62.8597C17.3352 56.9693 17.705 56.4489 19.7067 55.3843L21.3167 54.5091V50.4875V46.4896L20.8381 46.6316C17.3569 47.6961 11.5042 48.666 8.45817 48.666C4.60713 48.666 0.995412 47.4832 0.212149 45.9929C-0.070696 45.4251 -0.070696 45.2832 0.212149 44.7391C0.647295 43.8875 1.34353 43.509 10.1117 39.4638C14.3109 37.524 18.5101 35.5369 19.4674 35.0401L21.208 34.1175L21.3385 27.0207C21.4908 19.0249 21.9042 14.6485 22.6439 13.1582Z" fill="#EDEDED"/>
<path d="M91.9625 0.170852L91.9974 0.299518L91.998 0.299366L91.9625 0.170852ZM89.0035 2.06334L88.8887 1.99527L88.8867 1.99892L89.0035 2.06334ZM98.6637 0.525694L98.7118 0.40131L98.7105 0.400846L98.6637 0.525694ZM103.733 6.41606L103.611 6.47054L103.612 6.47072L103.733 6.41606ZM106.496 14.9086L106.365 14.9302L106.365 14.9327L106.496 14.9086ZM106.866 15.9258L106.939 15.8138L106.93 15.8087L106.866 15.9258ZM109.847 14.1516L109.922 14.2617L109.922 14.2616L109.847 14.1516ZM117.157 11.3602L117.162 11.4934L117.164 11.4934L117.157 11.3602ZM123.511 12.614L123.438 12.7259L123.439 12.7265L123.511 12.614ZM118.463 24.2055L118.546 24.3093L118.547 24.3091L118.463 24.2055ZM109.586 30.5216L109.614 30.6519L109.624 30.6497L109.634 30.6459L109.586 30.5216ZM110.282 36.9561L110.15 36.9742L110.15 36.9745L110.282 36.9561ZM112.284 53.4444L112.417 53.4318L112.416 53.4314L112.284 53.4444ZM112.545 56.1885L112.412 56.2011L112.421 56.2902L112.506 56.3161L112.545 56.1885ZM115.047 56.9455L115.008 57.0731L115.009 57.0732L115.047 56.9455ZM138.371 65.0595L138.417 64.9346L138.417 64.9345L138.371 65.0595ZM151.969 70.5241L152.031 70.406L152.03 70.4056L151.969 70.5241ZM158.192 76.3908L158.321 76.3591L158.321 76.358L158.192 76.3908ZM151.251 82.5414L151.222 82.4113L151.222 82.4113L151.251 82.5414ZM145.442 82.8962L145.438 83.0295L145.438 83.0295L145.442 82.8962ZM115.439 73.8833L115.498 73.7639L115.498 73.7637L115.439 73.8833ZM113.633 73.1263L113.731 73.2165L113.731 73.2165L113.633 73.1263ZM114.242 110.053L114.109 110.057L114.109 110.057L114.242 110.053ZM110.63 150.269L110.509 150.214L110.508 150.215L110.63 150.269ZM106.344 156.845L106.256 156.745L106.255 156.746L106.344 156.845ZM89.2863 157.153L89.1814 157.235L89.1815 157.235L89.2863 157.153ZM90.0261 154.148L89.9794 154.024L89.979 154.024L90.0261 154.148ZM90.7223 153.888L90.769 154.013L90.8556 153.981V153.888H90.7223ZM89.852 135.484L89.7191 135.495L89.7191 135.495L89.852 135.484ZM88.6989 88.7629L88.8321 88.7668L88.8322 88.7665L88.6989 88.7629ZM88.8294 83.8188L88.9627 83.8223L88.9704 83.5293L88.7445 83.716L88.8294 83.8188ZM88.2855 84.2683L88.2005 84.1655L88.1989 84.1669L88.2855 84.2683ZM85.8269 86.5866L85.9193 86.6827L85.9199 86.6821L85.8269 86.5866ZM57.6512 89.1651L57.5359 89.0981L57.5349 89.0999L57.6512 89.1651ZM62.7424 83.3694L62.8401 83.46L62.8405 83.4596L62.7424 83.3694ZM69.8353 75.3972L69.9374 75.483L69.9377 75.4826L69.8353 75.3972ZM84.0863 54.9347L83.9706 54.8684L83.9705 54.8686L84.0863 54.9347ZM86.2705 51.1584L86.1552 51.0914L86.1552 51.0914L86.2705 51.1584ZM87.2629 49.4465L87.148 49.3788L87.1474 49.3799L87.2629 49.4465ZM88.5466 47.2701L88.6614 47.3379L88.6812 47.3043L88.6798 47.2654L88.5466 47.2701ZM88.416 43.6035L88.5493 43.5987L88.5493 43.5982L88.416 43.6035ZM85.0219 40.6228L84.9888 40.4936L84.9874 40.494L85.0219 40.6228ZM64.7223 42.9647L64.6961 43.0955L64.6962 43.0955L64.7223 42.9647ZM61.0888 40.9776L60.9657 41.0288L60.9657 41.0288L61.0888 40.9776ZM61.8721 38.8486L61.9482 38.9581L61.9485 38.9579L61.8721 38.8486ZM71.6194 34.7088L71.6695 34.8323L71.6695 34.8323L71.6194 34.7088ZM87.611 27.7066L87.5351 27.5969L87.5327 27.5986L87.611 27.7066ZM88.3725 11.8097L88.5058 11.8137L88.5058 11.8133L88.3725 11.8097ZM25.3854 11.5259L25.3519 11.3968L25.3486 11.3978L25.3854 11.5259ZM22.6439 13.1582L22.7634 13.2175L22.7651 13.2139L22.6439 13.1582ZM28.2791 11.384L28.2735 11.5172L28.274 11.5172L28.2791 11.384ZM35.2197 16.1152L35.0975 16.1686L35.0979 16.1695L35.2197 16.1152ZM40.4414 23.8035L40.385 23.6827L40.3843 23.683L40.4414 23.8035ZM50.5151 21.6981L50.4869 21.8284L50.488 21.8286L50.5151 21.6981ZM53.6046 26.0981L53.4909 26.0284L53.4904 26.0293L53.6046 26.0981ZM48.6222 31.5153L48.7086 31.6169L48.7091 31.6164L48.6222 31.5153ZM40.7895 41.5928L40.6572 41.6089L40.6572 41.6094L40.7895 41.5928ZM42.6607 63.0016L42.5277 63.0119L42.5277 63.0119L42.6607 63.0016ZM42.9218 66.3608L42.7888 66.3711L42.7952 66.4533L42.8716 66.4843L42.9218 66.3608ZM45.6632 67.4726L45.6131 67.5962L45.6143 67.5967L45.6632 67.4726ZM52.1033 70.5479L52.0402 70.6653L52.0407 70.6656L52.1033 70.5479ZM58.6088 77.2426L58.4788 77.213L58.4787 77.2133L58.6088 77.2426ZM54.9753 80.1759L54.9321 80.0498L54.9312 80.0501L54.9753 80.1759ZM45.1628 80.5308L45.1409 80.6624L45.1453 80.663L45.1628 80.5308ZM43.8791 80.3179L43.9009 80.1863L43.7357 80.1589L43.746 80.3261L43.8791 80.3179ZM44.0314 82.7781L44.1646 82.7715L44.1645 82.7699L44.0314 82.7781ZM44.2925 94.6771L44.1591 94.6788L44.1592 94.6792L44.2925 94.6771ZM40.0716 130.256L39.9551 130.191L39.9548 130.191L40.0716 130.256ZM34.0448 135.508L34.0831 135.635L34.0836 135.635L34.0448 135.508ZM25.4506 135.058L25.5148 134.941L25.5143 134.941L25.4506 135.058ZM23.2096 132.598L23.325 132.531L23.3248 132.531L23.2096 132.598ZM23.536 129.404L23.5831 129.529L23.5846 129.528L23.536 129.404ZM24.6239 128.978L24.6725 129.103L24.7688 129.065L24.7562 128.962L24.6239 128.978ZM24.4933 127.914L24.3608 127.929L24.361 127.93L24.4933 127.914ZM23.9276 119.279L23.7945 119.287L23.7945 119.287L23.9276 119.279ZM22.8398 90.6556L22.973 90.6516L22.973 90.6514L22.8398 90.6556ZM22.4699 81.0275L22.3368 81.036L22.3369 81.0377L22.4699 81.0275ZM22.3393 78.9695L22.4724 78.961L22.4537 78.6662L22.245 78.8753L22.3393 78.9695ZM20.6858 80.6254L20.5914 80.5312L20.5912 80.5314L20.6858 80.6254ZM10.4163 87.8169L10.4494 87.946L10.45 87.9459L10.4163 87.8169ZM1.32177 85.9007L1.19834 85.9512L1.19908 85.9529L1.32177 85.9007ZM3.60629 80.9093L3.71539 80.9859L3.71561 80.9856L3.60629 80.9093ZM6.78286 76.3436L6.67371 76.2671L6.6731 76.2679L6.78286 76.3436ZM14.4632 62.8597L14.583 62.9181L14.583 62.9181L14.4632 62.8597ZM19.7067 55.3843L19.7693 55.5021L19.7704 55.5015L19.7067 55.3843ZM21.3167 54.5091L21.3804 54.6262L21.4501 54.5883V54.5091H21.3167ZM21.3167 46.4896H21.4501V46.311L21.2788 46.3618L21.3167 46.4896ZM20.8381 46.6316L20.8002 46.5037L20.7991 46.5041L20.8381 46.6316ZM0.212149 45.9929L0.0927776 46.0523L0.0941234 46.0549L0.212149 45.9929ZM0.212149 44.7391L0.330455 44.8006L0.330881 44.7998L0.212149 44.7391ZM10.1117 39.4638L10.1676 39.5849L10.1676 39.5848L10.1117 39.4638ZM19.4674 35.0401L19.5288 35.1585L19.5298 35.1579L19.4674 35.0401ZM21.208 34.1175L21.2704 34.2353L21.3398 34.1985L21.3413 34.12L21.208 34.1175ZM21.3385 27.0207L21.2052 27.0181L21.2052 27.0182L21.3385 27.0207ZM91.9275 0.0421873C91.2611 0.223329 90.6176 0.51887 90.0843 0.863141C89.5532 1.20598 89.121 1.60391 88.8888 1.9953L89.1181 2.13138C89.321 1.78943 89.7156 1.41854 90.2289 1.08718C90.74 0.757251 91.3584 0.473216 91.9974 0.299517L91.9275 0.0421873ZM98.7105 0.400846C98.3808 0.277213 97.8724 0.172162 97.2835 0.0887363C96.6919 0.00493536 96.0101 -0.0582194 95.3285 -0.0953494C94.6469 -0.132478 93.9636 -0.143683 93.369 -0.12319C92.7774 -0.102799 92.2638 -0.0507873 91.9269 0.0423383L91.998 0.299366C92.3029 0.215071 92.7902 0.163587 93.3782 0.143319C93.9633 0.123153 94.6385 0.134126 95.314 0.170922C95.9895 0.207718 96.6635 0.270236 97.2461 0.352767C97.8314 0.435673 98.3157 0.537613 98.6169 0.650541L98.7105 0.400846ZM103.855 6.36158C103.251 5.01258 102.39 3.68882 101.471 2.62099C100.555 1.55648 99.5691 0.732471 98.7118 0.401316L98.6157 0.650071C99.4119 0.957631 100.363 1.74223 101.269 2.79494C102.172 3.84434 103.019 5.14641 103.611 6.47054L103.855 6.36158ZM106.628 14.8871C106.485 14.0123 106.025 12.4008 105.486 10.754C104.947 9.10526 104.325 7.40865 103.855 6.36141L103.612 6.47072C104.076 7.50521 104.695 9.19143 105.233 10.8368C105.771 12.4841 106.225 14.078 106.365 14.9302L106.628 14.8871ZM106.93 15.8087C106.934 15.8107 106.915 15.7985 106.882 15.7391C106.853 15.6863 106.822 15.6133 106.791 15.5239C106.728 15.3457 106.67 15.1161 106.627 14.8845L106.365 14.9327C106.41 15.1742 106.471 15.4178 106.539 15.6121C106.573 15.709 106.61 15.7971 106.649 15.8678C106.684 15.9319 106.734 16.0055 106.803 16.043L106.93 15.8087ZM109.772 14.0415C109.012 14.5608 108.296 15.0206 107.758 15.3411C107.489 15.5016 107.266 15.6259 107.105 15.7053C107.024 15.7453 106.962 15.772 106.92 15.7865C106.898 15.7939 106.887 15.7964 106.883 15.7969C106.87 15.7987 106.902 15.79 106.939 15.8141L106.793 16.0375C106.844 16.0705 106.9 16.0638 106.919 16.0611C106.948 16.0572 106.978 16.0486 107.006 16.0388C107.065 16.0188 107.138 15.9862 107.223 15.9445C107.393 15.8605 107.623 15.732 107.894 15.5702C108.439 15.2461 109.159 14.7832 109.922 14.2617L109.772 14.0415ZM117.153 11.2269C115.553 11.2861 114.603 11.3689 113.601 11.7532C112.605 12.1354 111.563 12.8138 109.772 14.0416L109.922 14.2616C111.721 13.0292 112.735 12.371 113.697 12.0022C114.653 11.6353 115.563 11.5526 117.162 11.4934L117.153 11.2269ZM123.583 12.502C121.94 11.4398 120.124 11.0844 117.151 11.227L117.164 11.4934C120.109 11.3521 121.861 11.7063 123.438 12.7259L123.583 12.502ZM118.547 24.3091C121.986 21.528 124.147 19.1689 125.001 17.2122C125.429 16.2304 125.534 15.3386 125.294 14.543C125.054 13.7471 124.476 13.0689 123.582 12.5014L123.439 12.7265C124.297 13.2708 124.823 13.9026 125.039 14.62C125.255 15.3376 125.168 16.1624 124.756 17.1055C123.93 18.9989 121.815 21.3238 118.379 24.1018L118.547 24.3091ZM109.634 30.6459C109.725 30.6107 109.898 30.5092 110.124 30.3669C110.355 30.2214 110.653 30.0252 110.999 29.7916C111.691 29.3243 112.578 28.7056 113.514 28.0399C115.386 26.7091 117.455 25.1873 118.546 24.3093L118.379 24.1016C117.295 24.9742 115.231 26.4921 113.36 27.8226C112.425 28.4876 111.539 29.1049 110.849 29.5706C110.504 29.8035 110.209 29.998 109.982 30.1413C109.749 30.2879 109.599 30.3734 109.538 30.3973L109.634 30.6459ZM110.414 36.938C110.175 35.1882 109.974 33.5867 109.846 32.4203C109.782 31.8368 109.737 31.3636 109.714 31.0355C109.703 30.8709 109.698 30.7457 109.698 30.6621C109.699 30.6195 109.7 30.5928 109.702 30.5788C109.704 30.5709 109.704 30.5741 109.701 30.5824C109.699 30.5866 109.694 30.5979 109.683 30.6107C109.672 30.6239 109.65 30.6442 109.614 30.6519L109.558 30.3913C109.483 30.4075 109.457 30.4721 109.453 30.4821C109.445 30.503 109.441 30.5243 109.439 30.5398C109.434 30.5728 109.432 30.6144 109.432 30.6605C109.431 30.7543 109.437 30.8876 109.448 31.0538C109.471 31.3873 109.517 31.8648 109.581 32.4493C109.709 33.6189 109.911 35.2229 110.15 36.9741L110.414 36.938ZM112.416 53.4314C111.959 48.769 111.35 43.6338 110.414 36.9376L110.15 36.9745C111.085 43.6678 111.694 48.7993 112.151 53.4574L112.416 53.4314ZM112.678 56.1759L112.417 53.4318L112.151 53.457L112.412 56.2011L112.678 56.1759ZM115.086 56.8179L112.583 56.0609L112.506 56.3161L115.008 57.0731L115.086 56.8179ZM138.417 64.9345C130.367 61.9537 118.962 57.9782 115.085 56.8178L115.009 57.0732C118.877 58.2311 130.275 62.204 138.325 65.1846L138.417 64.9345ZM152.03 70.4056C149.411 69.0528 149.033 68.8844 138.417 64.9346L138.324 65.1845C148.944 69.1358 149.306 69.2986 151.908 70.6426L152.03 70.4056ZM158.321 76.358C157.784 74.2402 155.777 72.3717 152.031 70.406L151.907 70.6422C155.645 72.6034 157.555 74.4253 158.063 76.4236L158.321 76.358ZM151.28 82.6715C153.677 82.1361 155.593 81.2355 156.833 80.1335C158.075 79.0306 158.652 77.7119 158.321 76.3591L158.062 76.4225C158.362 77.6483 157.851 78.8726 156.656 79.9342C155.46 80.9967 153.59 81.8821 151.222 82.4113L151.28 82.6715ZM145.438 83.0295C148.575 83.1242 149.48 83.0773 151.28 82.6715L151.222 82.4113C149.454 82.8098 148.575 82.8575 145.446 82.763L145.438 83.0295ZM115.379 74.0026C126.419 79.4954 137.296 82.7684 145.438 83.0295L145.446 82.763C137.357 82.5036 126.52 79.2476 115.498 73.7639L115.379 74.0026ZM113.731 73.2165C113.709 73.2407 113.684 73.249 113.673 73.2519C113.661 73.255 113.653 73.2551 113.651 73.2551C113.646 73.2551 113.648 73.2546 113.658 73.2567C113.678 73.2605 113.71 73.2694 113.757 73.2847C113.849 73.3149 113.98 73.3652 114.142 73.4327C114.465 73.5674 114.903 73.7672 115.38 74.0028L115.498 73.7637C115.017 73.5262 114.574 73.3239 114.244 73.1865C114.08 73.118 113.942 73.0648 113.84 73.0314C113.79 73.0149 113.745 73.002 113.709 72.9949C113.691 72.9915 113.67 72.9883 113.649 72.9884C113.638 72.9885 113.622 72.9894 113.605 72.994C113.589 72.9984 113.56 73.0089 113.535 73.036L113.731 73.2165ZM114.375 110.05C114.201 102.942 114.022 93.7401 113.899 86.3005C113.838 82.5807 113.791 79.3017 113.766 76.9453C113.754 75.7671 113.747 74.8199 113.747 74.1637C113.747 73.8355 113.748 73.5808 113.751 73.4067C113.753 73.3194 113.755 73.2536 113.757 73.2093C113.758 73.1869 113.759 73.172 113.76 73.1635C113.761 73.1588 113.761 73.1588 113.761 73.1614C113.76 73.1626 113.759 73.1672 113.757 73.1736C113.756 73.1764 113.749 73.1966 113.731 73.2165L113.535 73.036C113.515 73.0569 113.508 73.0786 113.506 73.0837C113.503 73.0924 113.501 73.1001 113.5 73.1049C113.498 73.1148 113.496 73.1248 113.496 73.1328C113.494 73.1497 113.492 73.171 113.491 73.1952C113.488 73.2442 113.486 73.3137 113.485 73.4019C113.481 73.5786 113.48 73.8353 113.48 74.1639C113.48 74.8214 113.487 75.7696 113.5 76.9481C113.525 79.3052 113.572 82.5849 113.633 86.3049C113.755 93.745 113.935 102.948 114.109 110.057L114.375 110.05ZM110.752 150.323C114.16 142.721 114.963 133.702 114.375 110.05L114.109 110.057C114.696 133.717 113.888 142.676 110.509 150.214L110.752 150.323ZM106.433 156.945C107.867 155.673 109.465 153.216 110.752 150.323L110.508 150.215C109.228 153.093 107.649 155.51 106.256 156.745L106.433 156.945ZM89.1815 157.235C90.7645 159.247 93.9447 160.19 97.2709 160.131C100.602 160.071 104.129 159.006 106.433 156.945L106.255 156.746C104.012 158.753 100.554 159.805 97.2662 159.864C93.9727 159.923 90.8976 158.985 89.3911 157.07L89.1815 157.235ZM89.979 154.024C89.1525 154.335 88.6295 154.748 88.4906 155.308C88.3525 155.865 88.6102 156.507 89.1814 157.235L89.3912 157.07C88.831 156.356 88.6427 155.803 88.7494 155.372C88.8553 154.945 89.2678 154.577 90.0731 154.273L89.979 154.024ZM90.6756 153.763L89.9794 154.024L90.0727 154.273L90.769 154.013L90.6756 153.763ZM90.589 151.854V153.888H90.8556V151.854H90.589ZM89.7191 135.495C90.1977 141.384 90.589 148.713 90.589 151.854H90.8556C90.8556 148.702 90.4636 141.364 89.9849 135.473L89.7191 135.495ZM88.5656 88.7591C87.978 109.061 88.1522 116.162 89.7191 135.495L89.9849 135.473C88.4188 116.151 88.2448 109.059 88.8321 88.7668L88.5656 88.7591ZM88.6961 83.8153L88.5656 88.7594L88.8322 88.7665L88.9627 83.8223L88.6961 83.8153ZM88.3704 84.3711L88.9143 83.9216L88.7445 83.716L88.2005 84.1655L88.3704 84.3711ZM85.9199 86.6821C86.9647 85.6645 88.0713 84.6266 88.3721 84.3697L88.1989 84.1669C87.8905 84.4304 86.7778 85.4742 85.7339 86.4911L85.9199 86.6821ZM67.442 95.6383C70.7995 95.6383 73.7189 95.0374 76.6519 93.6141C79.5823 92.1921 82.5202 89.952 85.9193 86.6827L85.7345 86.4905C82.3453 89.7503 79.4305 91.9693 76.5354 93.3742C73.6428 94.7779 70.7639 95.3716 67.442 95.3716V95.6383ZM57.5349 89.0999C57.0498 89.9646 56.9823 90.8186 57.2785 91.6096C57.5729 92.3957 58.2206 93.1041 59.1371 93.6977C60.9692 94.8845 63.913 95.6383 67.442 95.6383V95.3716C63.9433 95.3716 61.0562 94.6232 59.282 93.4739C58.3954 92.8996 57.7961 92.2314 57.5282 91.5161C57.2622 90.8057 57.317 90.0334 57.7675 89.2303L57.5349 89.0999ZM62.6446 83.2787C61.3712 84.6515 60.1628 85.9889 59.2399 87.0397C58.7785 87.5651 58.388 88.0192 58.0963 88.3706C57.808 88.7177 57.608 88.974 57.5359 89.0981L57.7665 89.2321C57.8249 89.1314 58.0084 88.8939 58.3014 88.541C58.591 88.1923 58.9797 87.7401 59.4403 87.2157C60.3613 86.167 61.568 84.8314 62.8401 83.46L62.6446 83.2787ZM69.7332 75.3115C68.3643 76.9415 65.1893 80.5119 62.6443 83.2791L62.8405 83.4596C65.3867 80.6913 68.5648 77.1175 69.9374 75.483L69.7332 75.3115ZM83.9705 54.8686C80.2758 61.3433 74.7105 69.3327 69.7328 75.3119L69.9377 75.4826C74.9249 69.4918 80.4993 61.4897 84.2021 55.0008L83.9705 54.8686ZM86.1552 51.0914C85.4637 52.2823 84.6374 53.7054 83.9706 54.8684L84.202 55.001C84.8683 53.8388 85.6942 52.4164 86.3858 51.2253L86.1552 51.0914ZM87.1474 49.3799C86.8957 49.8161 86.5471 50.4164 86.1552 51.0914L86.3858 51.2253C86.7776 50.5504 87.1264 49.9498 87.3784 49.5132L87.1474 49.3799ZM88.4317 47.2024L87.148 49.3788L87.3777 49.5142L88.6614 47.3379L88.4317 47.2024ZM88.2828 43.6082L88.4133 47.2749L88.6798 47.2654L88.5493 43.5987L88.2828 43.6082ZM87.9809 40.0464C87.9536 40.0464 87.9442 40.0296 87.9526 40.0404C87.9627 40.0532 87.9794 40.0831 87.9986 40.142C88.0368 40.2584 88.073 40.4492 88.1068 40.736C88.1741 41.3067 88.2284 42.2244 88.2828 43.6087L88.5493 43.5982C88.4949 42.2147 88.4403 41.2872 88.3717 40.7048C88.3375 40.4149 88.2989 40.202 88.2521 40.059C88.2289 39.9882 88.2005 39.9244 88.1625 39.8759C88.1229 39.8254 88.0625 39.7798 87.9809 39.7798V40.0464ZM85.0549 40.752C85.7946 40.5627 86.4956 40.3855 87.0305 40.2556C87.2981 40.1906 87.5234 40.1377 87.6908 40.101C87.7747 40.0827 87.8431 40.0686 87.8946 40.0592C87.9204 40.0545 87.9411 40.0512 87.9568 40.049C87.9647 40.0479 87.9708 40.0473 87.9753 40.0468C87.98 40.0464 87.9816 40.0464 87.9809 40.0464V39.7798C87.9477 39.7798 87.8984 39.7875 87.8468 39.7969C87.7908 39.8071 87.719 39.8219 87.6338 39.8405C87.4634 39.8778 87.2358 39.9313 86.9676 39.9964C86.431 40.1268 85.7287 40.3043 84.9888 40.4936L85.0549 40.752ZM64.6962 43.0955C66.6105 43.4783 69.7119 43.4228 73.3208 43.0085C76.9337 42.5937 81.0686 41.8178 85.0563 40.7516L84.9874 40.494C81.012 41.5569 76.89 42.3303 73.2904 42.7436C69.6866 43.1573 66.6199 43.2082 64.7484 42.834L64.6962 43.0955ZM60.9657 41.0288C61.0533 41.2397 61.2328 41.4511 61.4654 41.6519C61.7 41.8543 61.998 42.0538 62.3356 42.2389C63.0108 42.609 63.8558 42.9272 64.6961 43.0955L64.7485 42.834C63.9353 42.6711 63.1158 42.3624 62.4638 42.0051C62.1379 41.8264 61.8565 41.6371 61.6396 41.45C61.4208 41.2611 61.2766 41.0822 61.212 40.9265L60.9657 41.0288ZM61.796 38.7391C60.9739 39.3102 60.6316 40.2243 60.9657 41.0288L61.212 40.9265C60.9369 40.2642 61.2038 39.4752 61.9482 38.9581L61.796 38.7391ZM71.5692 34.5852C69.0339 35.6145 66.6726 36.5965 64.9067 37.3479C64.0239 37.7236 63.2894 38.0418 62.7564 38.2796C62.49 38.3984 62.2732 38.4974 62.1132 38.5736C61.9582 38.6473 61.8449 38.7049 61.7957 38.7393L61.9485 38.9579C61.9754 38.939 62.0655 38.8916 62.2278 38.8144C62.3849 38.7396 62.5994 38.6416 62.865 38.5231C63.3961 38.2862 64.1289 37.9687 65.0111 37.5933C66.7754 36.8425 69.1354 35.8611 71.6695 34.8323L71.5692 34.5852ZM87.5327 27.5986C87.2994 27.7677 86.7533 28.0599 85.9113 28.4642C85.0736 28.8665 83.9533 29.3752 82.5805 29.9766C79.8352 31.1795 76.0832 32.7521 71.5692 34.5852L71.6695 34.8323C76.1848 32.9987 79.9391 31.4251 82.6875 30.2209C84.0616 29.6189 85.1851 29.1088 86.0267 28.7046C86.8641 28.3024 87.433 28.0002 87.6893 27.8145L87.5327 27.5986ZM87.9781 24.1108C87.9781 25.6776 87.9723 26.4815 87.9087 26.937C87.8772 27.1622 87.8333 27.2869 87.7787 27.3724C87.7247 27.4571 87.6529 27.5154 87.5351 27.5969L87.6869 27.8162C87.8084 27.7321 87.9189 27.6485 88.0035 27.5158C88.0877 27.384 88.1389 27.2159 88.1728 26.9739C88.2397 26.495 88.2448 25.6666 88.2448 24.1108H87.9781ZM88.2392 11.8056C88.0869 16.7972 87.9781 22.3345 87.9781 24.1108H88.2448C88.2448 22.3388 88.3535 16.805 88.5058 11.8137L88.2392 11.8056ZM88.8867 1.99892C88.7069 2.32483 88.6036 2.81062 88.5141 4.17777C88.4242 5.55289 88.348 7.84444 88.2392 11.806L88.5058 11.8133C88.6146 7.85007 88.6907 5.56417 88.7802 4.19518C88.8703 2.81823 88.9737 2.39326 89.1202 2.12776L88.8867 1.99892ZM25.3486 11.3978C24.7601 11.5668 24.1243 11.8495 23.6042 12.1563C23.3441 12.3097 23.1102 12.4708 22.9247 12.6286C22.742 12.7841 22.5949 12.9457 22.5228 13.1025L22.7651 13.2139C22.8126 13.1105 22.9239 12.9794 23.0975 12.8317C23.2682 12.6865 23.4886 12.5341 23.7397 12.3859C24.2423 12.0895 24.8574 11.8163 25.4222 11.6541L25.3486 11.3978ZM28.2847 11.2508C27.7145 11.2269 27.1012 11.2329 26.5725 11.2597C26.0477 11.2863 25.5949 11.334 25.3519 11.3969L25.4188 11.655C25.6327 11.5996 26.0611 11.5526 26.586 11.526C27.1072 11.4996 27.7123 11.4937 28.2735 11.5172L28.2847 11.2508ZM35.3418 16.0618C34.5971 14.3591 33.7737 13.1862 32.6567 12.4241C31.5397 11.662 30.146 11.3222 28.2842 11.2508L28.274 11.5172C30.111 11.5877 31.4477 11.9221 32.5065 12.6444C33.5652 13.3667 34.3627 14.4885 35.0975 16.1686L35.3418 16.0618ZM37.9856 24.4658C37.9856 24.3703 37.9505 24.1897 37.8966 23.9618C37.8411 23.7274 37.7615 23.426 37.6642 23.0785C37.4696 22.3833 37.2033 21.4991 36.9161 20.5876C36.3427 18.7675 35.6823 16.8261 35.3415 16.061L35.0979 16.1695C35.4315 16.9183 36.0874 18.8447 36.6617 20.6677C36.9484 21.5776 37.2138 22.4588 37.4074 23.1504C37.5042 23.4963 37.5828 23.7938 37.6371 24.0232C37.6929 24.2593 37.719 24.4076 37.719 24.4658H37.9856ZM40.3843 23.683C39.2811 24.2055 38.6472 24.4824 38.29 24.5732C38.2022 24.5954 38.1375 24.6047 38.0905 24.6053C38.0433 24.6059 38.0226 24.5975 38.015 24.5931C38.0102 24.5903 37.9856 24.576 37.9856 24.4658H37.719C37.719 24.5922 37.7434 24.7435 37.8807 24.8235C37.9441 24.8605 38.0177 24.8728 38.0937 24.8719C38.1698 24.871 38.2571 24.8566 38.3556 24.8316C38.7436 24.7331 39.4043 24.4422 40.4985 23.924L40.3843 23.683ZM50.5432 21.5677C47.7585 20.967 44.897 21.5734 40.385 23.6827L40.4979 23.9242C44.9934 21.8227 47.7888 21.2463 50.4869 21.8284L50.5432 21.5677ZM53.7183 26.1678C54.3874 25.0765 54.4621 24.0875 53.8989 23.2806C53.3467 22.4895 52.2051 21.9125 50.5421 21.5675L50.488 21.8286C52.1321 22.1697 53.188 22.7281 53.6802 23.4333C54.1614 24.1226 54.1272 24.9907 53.4909 26.0284L53.7183 26.1678ZM48.7091 31.6164C50.693 29.9098 52.8812 27.5569 53.7188 26.1669L53.4904 26.0293C52.6744 27.3834 50.5112 29.7144 48.5352 31.4143L48.7091 31.6164ZM40.6372 37.4444C40.6746 37.4444 40.7106 37.4315 40.7323 37.423C40.759 37.4125 40.7893 37.3982 40.8219 37.3814C40.8875 37.3476 40.9712 37.2992 41.0697 37.2388C41.2671 37.1177 41.5316 36.944 41.8436 36.732C42.468 36.3077 43.2878 35.7265 44.1533 35.0977C45.883 33.8409 47.8014 32.3893 48.7086 31.6169L48.5357 31.4138C47.6371 32.179 45.7262 33.6253 43.9965 34.882C43.1323 35.5099 42.3149 36.0893 41.6937 36.5115C41.3829 36.7227 41.1224 36.8936 40.9303 37.0114C40.834 37.0705 40.7567 37.115 40.6998 37.1444C40.6712 37.1591 40.6499 37.1689 40.6351 37.1747C40.6155 37.1824 40.6203 37.1778 40.6372 37.1778V37.4444ZM40.9219 41.5768C40.737 40.0511 40.6343 38.9856 40.61 38.3029C40.5979 37.96 40.6058 37.7219 40.6304 37.5726C40.6429 37.4968 40.658 37.4557 40.6689 37.437C40.678 37.4214 40.6689 37.4444 40.6372 37.4444V37.1778C40.5403 37.1778 40.4755 37.2392 40.4385 37.3028C40.4032 37.3633 40.3817 37.4422 40.3673 37.5293C40.3382 37.7061 40.3312 37.9662 40.3435 38.3123C40.3682 39.0075 40.4722 40.083 40.6572 41.6089L40.9219 41.5768ZM42.7936 62.9913C42.1192 54.2869 41.2269 44.0167 40.9218 41.5763L40.6572 41.6094C40.9614 44.0422 41.8532 54.3054 42.5277 63.0119L42.7936 62.9913ZM43.0547 66.3504L42.7936 62.9913L42.5277 63.0119L42.7888 66.3711L43.0547 66.3504ZM45.7133 67.3491L42.9719 66.2372L42.8716 66.4843L45.6131 67.5962L45.7133 67.3491ZM52.1665 70.4305C50.1404 69.3409 47.2199 67.9426 45.7121 67.3486L45.6143 67.5967C47.109 68.1855 50.0194 69.5786 52.0402 70.6653L52.1665 70.4305ZM58.7388 77.2721C58.9908 76.1638 58.6503 75.1439 57.5975 74.0596C56.5512 72.982 54.7891 71.8266 52.166 70.4302L52.0407 70.6656C54.6611 72.0606 56.391 73.1998 57.4062 74.2454C58.4149 75.2842 58.7054 76.216 58.4788 77.213L58.7388 77.2721ZM55.0185 80.3021C56.0301 79.9554 56.8879 79.5053 57.5283 78.9906C58.1675 78.4769 58.5994 77.8912 58.7389 77.2719L58.4787 77.2133C58.3571 77.7531 57.9731 78.2911 57.3612 78.7827C56.7506 79.2735 55.9222 79.7105 54.9321 80.0498L55.0185 80.3021ZM49.9276 80.8534C52.9319 80.8534 53.6477 80.7829 55.0194 80.3018L54.9312 80.0501C53.605 80.5152 52.9283 80.5867 49.9276 80.5867V80.8534ZM45.1453 80.663C45.8726 80.7588 48.0123 80.8534 49.9276 80.8534V80.5867C48.0136 80.5867 45.8889 80.492 45.1802 80.3986L45.1453 80.663ZM43.8573 80.4494L45.1409 80.6623L45.1846 80.3992L43.9009 80.1863L43.8573 80.4494ZM44.1645 82.7699L44.0122 80.3096L43.746 80.3261L43.8983 82.7863L44.1645 82.7699ZM44.4258 94.6755C44.3605 89.4713 44.23 84.099 44.1646 82.7715L43.8982 82.7847C43.9633 84.1066 44.0939 89.4743 44.1591 94.6788L44.4258 94.6755ZM40.188 130.321C41.8536 127.33 42.9879 123.272 43.6688 117.539C44.3498 111.805 44.5781 104.388 44.4258 94.675L44.1592 94.6792C44.3114 104.388 44.0829 111.791 43.404 117.507C42.725 123.224 41.5966 127.244 39.9551 130.191L40.188 130.321ZM34.0836 135.635C36.6902 134.843 38.6083 133.183 40.1883 130.32L39.9548 130.191C38.4017 133.006 36.534 134.611 34.006 135.38L34.0836 135.635ZM25.3865 135.175C27.6672 136.427 30.9045 136.589 34.0831 135.635L34.0065 135.38C30.8754 136.319 27.7161 136.15 25.5148 134.941L25.3865 135.175ZM23.0943 132.665C23.5404 133.434 23.8566 133.924 24.1908 134.29C24.5284 134.661 24.8799 134.9 25.387 135.175L25.5143 134.941C25.0205 134.673 24.6975 134.45 24.3879 134.111C24.0748 133.767 23.771 133.3 23.325 132.531L23.0943 132.665ZM23.4889 129.28C23.0962 129.428 22.7838 129.569 22.5629 129.737C22.3362 129.909 22.1991 130.115 22.1714 130.384C22.1447 130.643 22.2216 130.944 22.3761 131.306C22.5316 131.671 22.7733 132.115 23.0945 132.665L23.3248 132.531C23.0041 131.981 22.7699 131.55 22.6214 131.202C22.472 130.851 22.417 130.602 22.4366 130.411C22.4551 130.231 22.5424 130.088 22.7243 129.95C22.912 129.807 23.1925 129.676 23.5831 129.529L23.4889 129.28ZM24.5753 128.854L23.4874 129.28L23.5846 129.528L24.6725 129.103L24.5753 128.854ZM24.361 127.93L24.4915 128.995L24.7562 128.962L24.6257 127.898L24.361 127.93ZM23.7945 119.287C24.0337 123.449 24.295 127.333 24.3608 127.929L24.6258 127.899C24.5611 127.312 24.3002 123.437 24.0607 119.272L23.7945 119.287ZM22.7065 90.6595C23.1851 106.769 23.381 111.975 23.7945 119.287L24.0607 119.272C23.6475 111.964 23.4517 106.761 22.973 90.6516L22.7065 90.6595ZM22.3369 81.0377C22.4237 82.1694 22.5759 86.4943 22.7065 90.6598L22.973 90.6514C22.8425 86.4899 22.6902 82.1567 22.6028 81.0174L22.3369 81.0377ZM22.2063 78.9779L22.3368 81.036L22.6029 81.0191L22.4724 78.961L22.2063 78.9779ZM20.7801 80.7196L22.4337 79.0637L22.245 78.8753L20.5914 80.5312L20.7801 80.7196ZM10.45 87.9459C11.7884 87.5971 13.4244 86.7413 15.1951 85.5013C16.9677 84.26 18.8829 82.6283 20.7803 80.7194L20.5912 80.5314C18.7029 82.4311 16.7997 84.0521 15.0421 85.2829C13.2827 86.515 11.6769 87.3506 10.3827 87.6878L10.45 87.9459ZM1.19908 85.9529C1.41621 86.4633 1.88162 86.8976 2.49633 87.2474C3.1128 87.5983 3.89158 87.8714 4.75639 88.0538C6.48558 88.4184 8.57875 88.4246 10.4494 87.946L10.3833 87.6877C8.55517 88.1554 6.50357 88.1497 4.81142 87.7928C3.96556 87.6145 3.21453 87.3494 2.62823 87.0157C2.04017 86.681 1.62985 86.2843 1.44447 85.8485L1.19908 85.9529ZM3.49719 80.8326C2.4422 82.3344 1.77737 83.3784 1.42085 84.1567C1.06359 84.9366 1.00391 85.4755 1.19835 85.9512L1.44519 85.8503C1.29152 85.4743 1.31887 85.0196 1.66328 84.2678C2.00843 83.5143 2.65992 82.4884 3.71539 80.9859L3.49719 80.8326ZM6.6731 76.2679C5.82483 77.4977 4.38908 79.5554 3.49697 80.8329L3.71561 80.9856C4.6076 79.7083 6.04382 77.6498 6.89261 76.4194L6.6731 76.2679ZM14.3433 62.8012C11.8648 67.8837 8.90927 73.0813 6.67372 76.2671L6.892 76.4202C9.13846 73.2189 12.1009 68.0078 14.583 62.9181L14.3433 62.8012ZM19.6441 55.2666C18.6329 55.8044 18.0203 56.2128 17.3022 57.2357C16.593 58.2459 15.7774 59.86 14.3433 62.8012L14.583 62.9181C16.0209 59.969 16.8263 58.3777 17.5204 57.3889C18.2057 56.4129 18.7788 56.0288 19.7693 55.5021L19.6441 55.2666ZM21.2531 54.3919L19.643 55.2672L19.7704 55.5015L21.3804 54.6262L21.2531 54.3919ZM21.1834 50.4875V54.5091H21.4501V50.4875H21.1834ZM21.1834 46.4896V50.4875H21.4501V46.4896H21.1834ZM20.876 46.7594L21.3547 46.6175L21.2788 46.3618L20.8002 46.5038L20.876 46.7594ZM8.45817 48.7993C11.52 48.7993 17.386 47.8267 20.8771 46.7591L20.7991 46.5041C17.3279 47.5656 11.4884 48.5327 8.45817 48.5327V48.7993ZM0.0941234 46.0549C0.305193 46.4565 0.699402 46.8253 1.21843 47.1521C1.73914 47.48 2.39512 47.7717 3.14351 48.0151C4.64037 48.5019 6.52012 48.7993 8.45817 48.7993V48.5327C6.54518 48.5327 4.69355 48.2387 3.22597 47.7615C2.49215 47.5229 1.85765 47.2395 1.36052 46.9265C0.861716 46.6124 0.510737 46.2744 0.330175 45.9308L0.0941234 46.0549ZM0.0938462 44.6776C-0.0467856 44.9481 -0.133318 45.1463 -0.133318 45.3571C-0.133318 45.5669 -0.0475357 45.7706 0.0928057 46.0523L0.331492 45.9334C0.188989 45.6474 0.133349 45.4962 0.133349 45.3571C0.133349 45.219 0.188239 45.0742 0.330452 44.8006L0.0938462 44.6776ZM10.0559 39.3427C5.67356 41.3645 3.30304 42.4724 1.97428 43.1814C1.31024 43.5357 0.89863 43.7944 0.624405 44.0218C0.34523 44.2532 0.209336 44.4516 0.0934173 44.6784L0.330881 44.7998C0.432536 44.6008 0.546851 44.4325 0.794611 44.227C1.04732 44.0175 1.43937 43.7691 2.09981 43.4167C3.42001 42.7122 5.7817 41.6083 10.1676 39.5849L10.0559 39.3427ZM19.406 34.9218C18.452 35.4168 14.2561 37.4024 10.0558 39.3427L10.1676 39.5848C14.3657 37.6455 18.5681 35.657 19.5288 35.1584L19.406 34.9218ZM21.1455 33.9997L19.4049 34.9223L19.5298 35.1579L21.2704 34.2353L21.1455 33.9997ZM21.2052 27.0182L21.0746 34.1151L21.3413 34.12L21.4718 27.0231L21.2052 27.0182ZM22.5245 13.0989C22.1421 13.8693 21.8528 15.36 21.6382 17.6374C21.4229 19.9222 21.2814 23.0191 21.2052 27.0181L21.4718 27.0232C21.5479 23.0265 21.6893 19.9374 21.9037 17.6624C22.1188 15.3801 22.406 13.9374 22.7634 13.2175L22.5245 13.0989Z" fill="#BC9F77" mask="url(#path-1-inside-1_1782_3266)"/>
</svg>
