<svg width="269" height="243" viewBox="0 0 269 243" fill="none" xmlns="http://www.w3.org/2000/svg">
<mask id="mask0_1888_4104" style="mask-type:luminance" maskUnits="userSpaceOnUse" x="0" y="0" width="269" height="243">
<path d="M134.5 242.445C208.782 242.445 269 188.172 269 121.223C269 54.2732 208.782 3.65046e-05 134.5 2.35167e-05C60.2177 1.05288e-05 2.10282e-05 54.2732 9.32235e-06 121.223C-2.38345e-06 188.172 60.2177 242.445 134.5 242.445Z" fill="white"/>
</mask>
<g mask="url(#mask0_1888_4104)">
<path d="M647.374 -72.5474L647.374 -75.345C630.926 -71.9936 615.594 -62.6313 605.448 -47.1884C599.251 -48.0227 592.938 -48.0612 586.333 -47.1045C560.472 -86.6037 500.652 -86.682 474.701 -47.1885C468.508 -48.0228 462.195 -48.0612 455.586 -47.1045C429.726 -86.6037 369.906 -86.682 343.958 -47.1885C337.761 -48.0228 331.449 -48.0612 324.843 -47.1045C298.98 -86.6037 239.16 -86.682 213.212 -47.1885C207.015 -48.0228 200.702 -48.0612 194.097 -47.1045C168.234 -86.6037 108.414 -86.682 82.4658 -47.1885C76.2689 -48.0228 69.9562 -48.0613 63.3506 -47.1045C37.4858 -86.6037 -22.3339 -86.6821 -48.2834 -47.1886C-52.7609 -47.7922 -57.3023 -47.973 -61.9685 -47.6698L-61.9685 -44.9192C-58.1255 -45.1754 -54.0998 -45.1114 -49.8824 -44.6216C-18.8372 -41.0182 2.24251 -12.9969 -3.78047 -11.9961C-16.8147 -9.83061 -7.45252 -7.76054 -19.0007 -19.4847C-30.6796 -31.3413 -46.5759 -36.5165 -61.9685 -35.2508L-61.9685 -32.523C-46.6606 -33.8214 -30.7569 -28.4213 -19.5847 -16.0337C-12.4724 -8.14494 -14.4771 -9.49604 -18.9397 -7.61675C-26.7044 -4.34366 -21.1658 -4.4419 -29.6854 -12.3192C-38.6924 -20.6451 -50.5719 -24.1032 -61.9685 -22.8717L-61.9685 -20.0742C-50.141 -21.4338 -37.7443 -17.3819 -29.2381 -7.87587C-24.4426 -2.51705 -25.7295 -5.36446 -34.4334 1.53053C-40.6926 -8.05668 -51.7429 -11.9889 -61.97 -10.3702L-61.97 -7.60395C-54.7091 -8.90806 -46.9296 -7.04158 -41.0344 -1.83937C-34.0693 4.30533 -36.8764 2.32638 -44.0051 10.8857C-46.8211 3.02257 -55.143 0.207913 -61.97 2.29648L-61.97 5.27771C-59.1272 4.07041 -55.6736 3.85686 -52.168 5.64218C-48.8882 7.31076 -44.8209 11.5847 -47.5864 15.6138C-48.9863 17.6582 -46.6577 16.0281 -57.4984 16.0281C-59.3263 16.0281 -60.7722 16.0751 -61.97 16.1448L-61.97 18.9282C-22.4023 16.1391 2.32869 50.8362 -3.78048 51.8513C-15.3494 53.7761 -9.24323 55.5999 -16.3629 47.2015C-28.0017 33.4756 -45.2489 27.2469 -61.9685 28.5908L-61.9685 31.3713C-46.4556 30.0615 -30.3556 35.5983 -19.2399 48.1781C-12.621 55.6697 -14.3939 54.3157 -18.9397 56.2306C-28.3376 60.1928 -19.555 58.2238 -33.8657 48.1781C-42.3095 42.247 -52.3433 39.9833 -61.9685 41.0269L-61.9685 43.749C-50.1826 42.378 -37.8097 46.3928 -29.2381 55.9729C-24.4426 61.3317 -25.7295 58.4815 -34.4334 65.3793C-40.6822 55.8078 -51.7355 51.8598 -61.97 53.4729L-61.97 56.2448C-54.7091 54.9407 -46.9296 56.8072 -41.0344 62.0094C-34.0678 68.1541 -36.8824 66.1837 -44.0051 74.7345C-46.8286 66.8486 -55.1475 64.0538 -61.97 66.1453L-61.97 69.1265C-59.1272 67.9192 -55.6736 67.7056 -52.168 69.491C-48.8882 71.1595 -44.8209 75.4335 -47.5865 79.4626C-48.9804 81.4956 -46.7498 79.8769 -57.4985 79.8769C-59.3263 79.8769 -60.7722 79.9239 -61.97 79.9936L-61.97 82.8211C-39.9972 81.359 -17.3259 90.7511 -4.05393 111.045C-0.652349 116.25 -1.14274 115.26 -3.78049 115.7C-15.3494 117.622 -9.24324 119.446 -16.3629 111.047C-28.027 97.2944 -45.2682 91.09 -61.9685 92.4425L-61.9685 95.2372C-59.8301 95.0507 -57.6263 94.9781 -55.3422 95.0735C-29.1653 96.1498 -11.9553 117.417 -16.2723 119.022C-29.6646 124.007 -18.3944 123.785 -32.5446 112.971C-41.2573 106.314 -51.8589 103.772 -61.9685 104.869L-61.9685 107.628C-60.6727 107.464 -59.3545 107.36 -58.0097 107.342C-39.5038 107.128 -23.6847 122.087 -28.0151 124.753C-40.8264 132.645 -28.6838 127.901 -45.1077 119.812C-50.4219 117.195 -56.3245 116.389 -61.9685 117.295L-61.9685 120.064C-47.7782 117.747 -34.0559 128.57 -38.5869 132.824C-40.5336 134.654 -42.3154 136.553 -44.0051 138.58C-46.833 130.68 -55.1505 127.917 -61.97 130.013L-61.97 132.898C-53.3345 129.336 -43.7227 137.673 -47.5865 143.307C-48.9863 145.349 -46.7008 143.721 -57.4985 143.721C-59.3263 143.721 -60.7722 143.768 -61.97 143.835L-61.97 146.668C-40.012 145.195 -17.3512 154.554 -4.05394 174.889C-0.649388 180.097 -1.13681 179.105 -3.78051 179.545C-15.3554 181.467 -9.24028 183.296 -16.3629 174.892C-28.1028 161.072 -45.3232 154.93 -61.9685 156.287L-61.9685 159.079C-59.8301 158.895 -57.6263 158.823 -55.3422 158.915C-29.1193 159.989 -11.9642 181.266 -16.2723 182.868C-29.6646 187.853 -18.3944 187.628 -32.5446 176.817C-41.2232 170.185 -51.8292 167.618 -61.9685 168.714L-61.9685 171.471C-60.6727 171.307 -59.3531 171.203 -58.0097 171.187C-38.8618 170.931 -23.8928 186.061 -28.0151 188.599C-40.8294 196.491 -28.6824 191.747 -45.1077 183.658C-50.5066 181 -56.4018 180.246 -61.9685 181.141L-61.9685 183.913C-47.7782 181.596 -34.0559 192.416 -38.5869 196.67C-40.5574 198.523 -42.3407 200.43 -44.0051 202.426C-46.8286 194.54 -55.1475 191.766 -61.97 193.858L-61.97 196.689C-60.1957 195.951 -58.0706 195.638 -55.5725 196.047C-50.1009 196.939 -44.4479 202.576 -47.585 207.153C-49.1364 209.414 -50.8662 206.827 -61.9685 207.678L-61.9685 210.503C-39.8114 209.004 -16.9232 218.528 -3.66312 239.319C-0.563207 244.185 -0.933233 242.726 -6.58768 243.913C-13.905 245.445 -10.126 246.494 -15.5991 239.715C-27.2498 225.285 -44.8982 218.803 -61.9685 220.177L-61.9685 222.902C-46.3962 221.592 -30.2962 227.203 -19.24 239.715C-12.6211 247.206 -14.3939 245.855 -18.9398 247.767C-26.7029 251.04 -21.1748 250.935 -29.6855 243.067C-38.6092 234.82 -50.5051 231.31 -61.9685 232.548L-61.9685 235.354C-51.4725 233.729 -39.4771 236.068 -29.2381 247.511C-24.4709 252.835 -25.7043 249.999 -34.4334 256.917C-40.4252 247.739 -51.4175 243.314 -61.97 245.002L-61.97 247.78C-52.5514 246.117 -42.253 249.743 -36.6224 258.732C-53.0611 272.967 -37.2688 258.54 -56.3706 257.075C-58.4823 256.914 -60.3785 257.212 -61.97 257.714L-61.97 260.532C-60.1957 259.797 -58.0706 259.484 -55.5726 259.893C-50.1009 260.785 -44.4465 266.422 -47.585 270.999C-49.2048 273.359 -50.3476 270.588 -61.9685 271.516L-61.9685 274.349C-39.7877 272.858 -16.8935 282.424 -3.66313 303.165C-0.563218 308.028 -0.933244 306.572 -6.58769 307.759C-13.905 309.291 -10.1275 310.34 -15.5991 303.56C-27.1919 289.201 -44.8551 282.652 -61.9685 284.014L-61.9685 286.748C-46.4006 285.441 -30.3022 291.045 -19.24 303.56C-12.6211 311.052 -14.3939 309.701 -18.9398 311.613C-26.7029 314.886 -21.1748 314.781 -29.6855 306.913C-38.6375 298.637 -50.5289 295.156 -61.9686 296.394L-61.9686 299.185C-51.4815 297.558 -39.4934 299.894 -29.2382 311.357C-24.4456 316.71 -25.7296 313.865 -34.4334 320.763C-40.4252 311.584 -51.4176 307.16 -61.97 308.845L-61.97 311.626C-52.5514 309.963 -42.253 313.589 -36.6224 322.578C-53.0656 336.815 -37.1886 322.38 -56.3706 320.921C-58.4882 320.76 -60.3844 321.061 -61.97 321.56L-61.97 324.378C-60.1957 323.643 -58.0706 323.33 -55.5726 323.739C-50.1009 324.631 -44.4465 330.268 -47.585 334.845C-49.2048 337.205 -50.3476 334.433 -61.9686 335.362L-61.9686 338.612C-35.7174 336.671 -8.31152 349.267 2.21273 379.094C15.2127 415.926 -10.9582 431.254 -1.27506 431.254C3.53234 423.735 6.71547 415.173 7.87459 406.021C9.0352 415.173 12.2183 423.734 17.0257 431.254C27.9661 431.254 -0.359648 417.403 13.7059 378.618C36.9196 314.61 136.274 330.632 136.274 398.38C136.274 425.565 120.95 431.254 129.47 431.254C134.279 423.735 137.46 415.173 138.621 406.022C139.781 415.173 142.963 423.734 147.772 431.254C157.708 431.254 140.967 427.858 140.967 398.38C140.967 330.34 241.144 315.161 263.705 379.094C276.705 415.929 250.533 431.254 260.216 431.254C265.025 423.735 268.206 415.173 269.367 406.022C270.528 415.173 273.709 423.734 278.518 431.254C289.457 431.254 261.133 417.403 275.198 378.618C298.543 314.248 397.767 331.035 397.767 398.381C397.767 425.565 382.444 431.254 390.964 431.254C395.769 423.735 398.954 415.173 400.115 406.022C401.275 415.173 404.457 423.734 409.263 431.254C419.202 431.254 402.46 427.858 402.46 398.381C402.46 330.293 502.525 314.835 525.196 379.094C538.202 415.938 512.022 431.254 521.71 431.254C526.516 423.735 529.7 415.173 530.861 406.022C532.019 415.173 535.203 423.734 540.009 431.254C550.938 431.254 522.624 417.364 536.692 378.618C555.021 328.06 620.313 327.651 647.372 362.496L647.372 358.564C646.638 357.735 645.7 356.715 644.473 355.447C642.902 353.832 644.427 351.818 647.372 350.076L647.372 347.012C646.163 347.701 644.987 348.466 643.877 349.351C639.236 353.044 643.396 353.085 634.218 346.854C632.458 345.664 638.092 339.832 647.372 336.368L647.372 333.387C643.977 334.597 640.685 336.27 637.603 338.44C626.64 346.134 635.28 345.897 622.675 340.584C620.544 339.686 630.748 328.033 647.372 323.333L647.372 320.463C637.228 323.074 627.752 328.602 620.437 337.046C618.348 339.471 619.604 339.313 616.841 338.44C608.509 335.803 605.583 338.46 614.351 329.107C623.546 319.297 635.149 313.161 647.372 310.541L647.372 307.716C647.293 307.731 647.224 307.742 647.143 307.761C639.817 309.295 643.605 310.342 638.129 303.562C617.294 277.702 576.701 277.137 555.099 302.585C548.226 310.716 553.189 309.561 544.58 307.76C539.367 306.664 539.37 308.003 542.156 303.562C565.727 265.936 621.344 264.443 647.374 299.285L647.374 294.699C646.408 293.576 645.026 292.083 643.017 290.136C644.347 288.696 645.815 287.473 647.374 286.429L647.374 283.167C646.166 283.854 644.99 284.62 643.879 285.504C639.238 289.197 643.397 289.238 634.219 283.007C632.46 281.816 638.093 275.985 647.374 272.521L647.374 269.54C643.978 270.75 640.686 272.423 637.604 274.592C626.642 282.289 635.282 282.05 622.677 276.737C620.546 275.841 630.749 264.188 647.374 259.486L647.374 256.621C637.206 259.244 627.727 264.785 620.439 273.2C618.35 275.625 619.605 275.467 616.843 274.594C608.504 271.954 605.584 274.617 614.352 265.262C623.548 255.457 635.151 249.318 647.374 246.695L647.374 243.87C647.295 243.885 647.225 243.899 647.145 243.915C639.831 245.446 643.604 246.496 638.133 239.716C617.265 213.883 576.706 213.258 555.1 238.739C548.221 246.879 553.205 245.718 544.582 243.915C539.369 242.818 539.372 244.157 542.158 239.716C565.783 201.971 621.403 200.692 647.375 235.442L647.375 230.873C646.641 230.045 645.703 229.024 644.476 227.757C642.905 226.141 644.43 224.128 647.375 222.385L647.375 219.324C646.167 220.011 644.992 220.777 643.88 221.661C639.239 225.354 643.399 225.395 634.221 219.163C632.461 217.973 638.095 212.142 647.375 208.681L647.375 205.697C643.98 206.907 640.688 208.58 637.603 210.749C626.643 218.446 635.283 218.207 622.678 212.894C620.547 211.998 630.751 200.345 647.375 195.643L647.375 192.778C637.208 195.403 627.728 200.944 620.44 209.357C618.351 211.782 619.607 211.624 616.844 210.751C608.525 208.12 605.586 210.776 614.354 201.418C623.551 191.611 635.152 185.474 647.375 182.855L647.375 180.027C647.296 180.044 647.227 180.056 647.146 180.071C639.826 181.603 643.608 182.653 638.132 175.873C617.242 149.974 576.676 149.479 555.101 174.896C548.226 183.03 553.189 181.872 544.583 180.071C539.382 178.978 539.379 180.311 542.159 175.873C565.774 138.178 621.383 136.809 647.377 171.599L647.377 167.03C646.643 166.202 645.705 165.181 644.477 163.914C642.907 162.298 644.431 160.285 647.377 158.545L647.377 155.481C646.169 156.168 644.993 156.933 643.881 157.818C639.238 161.514 643.4 161.549 634.222 155.32C632.463 154.13 638.096 148.302 647.377 144.838L647.377 141.854C643.981 143.064 640.692 144.739 637.604 146.906C626.688 154.573 635.28 154.364 622.68 149.053C620.421 148.099 630.819 136.512 647.377 131.816L647.377 128.963C636.438 131.797 626.293 138.007 618.837 147.556C607.518 143.582 607.122 146.505 610.469 142.153C620.01 129.739 633.244 122.02 647.377 118.989L647.377 116.186C639.352 117.86 643.877 118.736 637.373 111.053C615.993 85.8437 575.939 85.9434 554.705 111.564C547.841 119.87 553.822 117.706 541.778 115.704C537.676 115.022 554.421 89.9084 582.885 83.9986C614.728 77.3912 638.731 95.9392 647.377 107.409L647.377 103.187C646.643 102.356 645.705 101.335 644.477 100.071C642.907 98.452 644.431 96.4389 647.377 94.6963L647.377 91.6353C646.169 92.3244 644.993 93.0889 643.881 93.9716C639.238 97.6676 643.4 97.706 634.222 91.4773C632.469 90.2871 638.099 84.467 647.377 81.0074L647.377 78.0376C643.314 79.4698 639.456 81.5185 635.994 84.2193C627.168 91.0872 635.077 90.1476 621.589 84.7475C628.496 76.1853 637.595 70.5916 647.378 67.9079L647.378 65.099C636.462 67.9236 626.321 74.1224 618.838 83.7067C607.519 79.736 607.124 82.6561 610.47 78.3066C619.993 65.9162 633.231 58.1798 647.378 55.1416L647.378 52.3383C639.353 54.0126 643.879 54.8882 637.374 47.2073C615.994 21.995 575.941 22.0946 554.706 47.7155C547.842 56.0214 553.824 53.8574 541.779 51.8557C537.841 51.2022 554.225 26.098 582.886 20.1498C614.857 13.5182 638.765 32.0477 647.378 43.527L647.378 39.3399C646.644 38.5085 645.706 37.4877 644.479 36.2234C642.874 34.5719 644.473 32.5887 647.378 30.8732L647.378 27.7894C636.543 33.9298 646.072 35.2781 633.109 26.8697C637.175 22.3765 642.086 19.1362 647.378 17.1045L647.378 14.1845C643.315 15.6168 639.458 17.6683 635.995 20.3662C627.195 27.2157 635.029 26.2746 621.591 20.8944C628.498 12.3323 637.597 6.73855 647.38 4.05487L647.38 1.24876C636.463 4.07054 626.322 10.2722 618.84 19.8537C607.521 15.883 607.125 18.803 610.472 14.4536C619.995 2.06311 633.232 -5.67328 647.38 -8.71146L647.38 -11.5147C638.119 -9.57707 645.44 -8.6175 634.736 -19.4846C613.389 -41.1519 577.877 -40.5896 557.16 -18.8696C546.307 -7.48567 555.5 -9.71519 541.779 -11.996C537.358 -12.7306 561.281 -49.5603 603.853 -44.6215C624.426 -42.2325 640.529 -29.2085 647.378 -20.346L647.378 -24.3722C645.996 -26.0066 644.565 -27.6011 643.021 -29.0932C644.348 -30.5311 645.816 -31.7541 647.378 -32.8005L647.378 -36.0508C645.055 -34.7211 642.883 -33.0511 640.964 -30.9924C638.509 -33.1692 635.888 -35.1767 633.111 -36.9819C637.173 -41.4723 642.088 -44.724 647.38 -46.767L647.38 -49.7084C641.152 -47.5059 635.369 -43.7744 630.679 -38.4825C627.789 -40.1867 624.756 -41.683 621.592 -42.9515C628.483 -51.4909 637.582 -57.1102 647.381 -59.8167L647.381 -62.6527C636.491 -59.8281 626.364 -53.6207 618.842 -43.9922C615.522 -45.1568 612.07 -46.058 608.527 -46.7001C618.107 -60.7022 632.22 -69.3057 647.374 -72.5474ZM473.104 -44.6215C504.143 -41.0181 525.267 -13.0025 519.203 -11.996C506.166 -9.82767 515.531 -7.76045 503.983 -19.4846C482.557 -41.2345 447.047 -40.5142 426.409 -18.8696C415.261 -7.18245 424.856 -9.6967 411.025 -11.996C406.6 -12.7292 430.54 -49.5575 473.104 -44.6215ZM493.299 306.916C479.155 293.844 457.454 292.601 441.857 303.563C426.677 314.215 436.786 316.088 426.186 311.616C422.358 310.003 420.492 311.321 426.871 303.944C446.887 280.8 483.725 280.841 503.745 303.562C510.362 311.053 508.589 309.702 504.044 311.614C496.28 314.892 501.823 314.796 493.299 306.916ZM488.554 320.767C480.883 309.016 464.978 304.984 452.298 311.753C435.835 320.537 448.985 324.738 435.263 316.293C429.536 312.763 467.368 281.882 493.75 311.357C498.544 316.721 497.255 313.865 488.554 320.767ZM507.386 303.563C486.383 277.564 445.818 277.272 424.355 302.587C417.464 310.709 422.474 309.571 413.834 307.762C408.624 306.668 408.624 308.004 411.41 303.563C435.771 264.651 494.528 264.295 519.323 303.169C522.429 308.032 522.046 306.579 516.4 307.763C509.08 309.294 512.859 310.342 507.386 303.563ZM362.553 306.916C348.502 293.928 326.797 292.54 311.11 303.563C295.933 314.215 306.04 316.088 295.44 311.616C291.612 310.003 289.757 311.31 296.125 303.943C316.065 280.837 352.882 280.803 372.999 303.562C379.616 311.053 377.846 309.702 373.3 311.614C365.537 314.889 371.065 314.786 362.553 306.916ZM357.807 320.767C350.121 308.993 334.21 304.998 321.553 311.752C305.075 320.534 318.246 324.744 304.518 316.293C298.766 312.748 336.617 281.879 363.002 311.36C367.794 316.713 366.512 313.868 357.807 320.767ZM376.638 303.563C355.766 277.706 315.196 277.134 293.608 302.587C286.723 310.712 291.716 309.569 283.086 307.762C277.876 306.668 277.879 308.004 280.666 303.563C305.02 264.651 363.778 264.292 388.576 303.169C391.675 308.032 391.304 306.576 385.652 307.763C378.337 309.294 382.113 310.342 376.638 303.563ZM231.805 306.916C217.575 293.767 195.861 292.673 180.364 303.563C165.186 314.215 175.292 316.088 164.692 311.616C160.864 310.003 159.007 311.31 165.377 303.943C185.356 280.788 222.204 280.844 242.251 303.562C248.87 311.053 247.095 309.702 242.553 311.614C234.786 314.889 240.328 314.793 231.805 306.916ZM227.06 320.767C219.375 308.993 203.463 304.998 190.807 311.752C174.329 320.537 187.519 324.758 173.77 316.293C168.045 312.763 205.868 281.882 232.256 311.357C237.048 316.716 235.764 313.865 227.06 320.767ZM245.893 303.563C224.986 277.665 184.415 277.175 162.861 302.587C155.976 310.712 160.973 309.568 152.34 307.762C147.127 306.666 147.133 308.004 149.919 303.563C174.276 264.654 233.034 264.295 257.829 303.169C260.929 308.032 260.561 306.576 254.906 307.763C247.587 309.294 251.365 310.342 245.893 303.563ZM101.059 306.916C86.9387 293.861 65.2171 292.601 49.6194 303.563C34.4394 314.215 44.549 316.088 33.9475 311.616C30.1179 310.003 28.2633 311.31 34.6311 303.943C54.571 280.837 91.4237 280.805 111.506 303.562C118.125 311.053 116.351 309.702 111.806 311.614C104.043 314.889 109.571 314.784 101.059 306.916ZM96.3143 320.767C88.6106 308.969 72.6934 305.01 60.0605 311.752C43.586 320.534 56.754 324.744 43.0258 316.293C37.3045 312.769 75.1276 281.887 101.51 311.357C106.304 316.718 105.018 313.865 96.3143 320.767ZM115.147 303.563C94.2412 277.668 53.6704 277.169 32.1137 302.587C25.2303 310.712 30.2219 309.568 21.5924 307.762C16.3838 306.668 16.3853 308.004 19.1716 303.563C43.4463 264.747 102.229 264.204 127.083 303.169C130.183 308.035 129.813 306.576 124.159 307.763C116.843 309.294 120.62 310.342 115.147 303.563ZM166.67 -36.6745C163.909 -34.8507 161.307 -32.8262 158.873 -30.6294C148.139 -42.5857 129.009 -42.8334 117.975 -30.9939C115.52 -33.1708 112.902 -35.1782 110.124 -36.9834C125.193 -53.645 151.902 -53.3916 166.67 -36.6745ZM107.689 -38.484C104.798 -40.1882 101.764 -41.6845 98.6044 -42.953C118.786 -67.9703 157.943 -67.9931 178.077 -42.7224C174.948 -41.4353 171.946 -39.9134 169.087 -38.195C153.157 -56.5423 123.913 -56.7957 107.689 -38.484ZM156.832 -28.7103C154.435 -26.3526 152.232 -23.8156 150.237 -21.1248C144.726 -29.2299 132.556 -29.5332 126.631 -21.6288C124.63 -24.2755 122.427 -26.7755 120.032 -29.0947C129.895 -39.7753 147.203 -39.6102 156.832 -28.7103ZM148.447 -18.575C147.169 -16.6558 145.989 -14.6712 144.928 -12.6182C127.437 -14.311 135.424 -8.89521 128.397 -19.1772C133.027 -26.7442 144.338 -26.3669 148.447 -18.575ZM189.679 15.3405C192.117 18.6335 191.857 16.0822 180.822 20.07C159.631 -7.34337 117.119 -7.38324 95.8492 19.8536C84.5299 15.8829 84.1361 18.8058 87.4812 14.4535C112.973 -18.7059 164.707 -18.3913 189.679 15.3405ZM297.416 -36.6745C294.657 -34.8507 292.053 -32.8262 289.621 -30.6294C278.887 -42.5857 259.757 -42.8334 248.723 -30.9939C246.268 -33.1707 243.648 -35.1782 240.87 -36.9834C255.941 -53.645 282.648 -53.3916 297.416 -36.6745ZM238.433 -38.484C235.544 -40.1882 232.51 -41.6845 229.349 -42.953C249.531 -67.9703 288.689 -67.9931 308.822 -42.7223C305.694 -41.4353 302.692 -39.9134 299.833 -38.195C283.905 -56.5422 254.66 -56.7957 238.433 -38.484ZM287.58 -28.7103C285.183 -26.3526 282.979 -23.8156 280.985 -21.1248C275.473 -29.2299 263.302 -29.5332 257.379 -21.6288C255.376 -24.2754 253.174 -26.7755 250.778 -29.0947C260.642 -39.7724 277.949 -39.6101 287.58 -28.7103ZM279.194 -18.5749C277.915 -16.6558 276.736 -14.6711 275.674 -12.6182C258.182 -14.311 266.174 -8.89234 259.142 -19.1772C263.774 -26.7441 275.084 -26.3669 279.194 -18.5749ZM320.424 15.3405C322.853 18.6193 322.615 16.078 311.568 20.07C290.365 -7.35901 247.853 -7.36613 226.594 19.8536C215.276 15.8829 214.881 18.8058 218.227 14.4535C243.669 -18.639 295.398 -18.4696 320.424 15.3405ZM428.163 -36.6744C425.403 -34.8507 422.799 -32.8262 420.364 -30.6294C409.633 -42.5857 390.503 -42.8334 379.468 -30.9939C377.013 -33.1707 374.391 -35.1781 371.614 -36.9834C386.684 -53.645 413.393 -53.3916 428.163 -36.6744ZM369.18 -38.484C366.292 -40.1881 363.256 -41.6845 360.095 -42.953C380.279 -67.9703 419.437 -67.993 439.57 -42.7223C436.441 -41.4353 433.44 -39.9134 430.58 -38.1949C414.651 -56.5422 385.407 -56.7956 369.18 -38.484ZM418.326 -28.7103C415.929 -26.3526 413.726 -23.8156 411.731 -21.1248C406.22 -29.2299 394.047 -29.5332 388.125 -21.6288C386.122 -24.2754 383.92 -26.7754 381.523 -29.0947C391.389 -39.7753 408.695 -39.6101 418.326 -28.7103ZM409.938 -18.5749C408.658 -16.6558 407.48 -14.6711 406.42 -12.6181C388.928 -14.3109 396.917 -8.89231 389.888 -19.1771C394.52 -26.7441 405.832 -26.3668 409.938 -18.5749ZM451.171 15.3405C453.61 18.6336 453.351 16.0823 442.313 20.0701C421.055 -7.43302 378.54 -7.29208 357.34 19.8536C346.024 15.8829 345.629 18.8058 348.975 14.4535C374.485 -18.7273 426.219 -18.3685 451.171 15.3405ZM418.193 286.459C408.064 277.474 392.775 277.243 382.388 285.505C377.741 289.201 381.906 289.24 372.728 283.008C369.419 280.767 392.242 262.136 416.311 273.66C419.612 275.239 429.418 281.712 427.503 283.008C418.353 289.22 421.768 289.632 418.193 286.459ZM418.326 290.522C406.008 302.632 417.111 297.802 405.384 292.964C401.946 291.546 398.436 291.505 394.964 292.692C382.423 296.98 394.05 302.252 381.523 290.139C391.458 279.385 408.823 279.766 418.326 290.522ZM376.113 274.594C365.151 282.288 373.791 282.054 361.186 276.738C358.516 275.615 375.234 257.538 399.742 257.538C425.031 257.538 440.405 276.169 439.046 276.738C429.111 280.925 431.436 281.966 429.542 279.944C415.903 265.401 392.921 262.781 376.113 274.594ZM358.948 273.202C356.853 275.623 358.123 275.471 355.352 274.595C347.016 271.959 344.093 274.618 352.861 265.263C380.566 235.727 429.828 239.339 452.537 272.646C441.334 274.802 443.084 276.386 441.638 274.595C420.619 248.62 380.411 248.419 358.948 273.202ZM335.871 257.078C333.499 256.897 331.382 257.279 329.683 257.895C314.059 263.59 329.479 273.177 313.601 259.158C322.855 243.65 346.018 243.408 355.616 258.735C339.179 272.969 354.971 258.544 335.871 257.078ZM344.654 271.002C342.82 273.674 341.606 269.762 325.085 272.1C321.071 272.659 324.577 257.921 336.669 259.896C342.142 260.788 347.794 266.428 344.654 271.002ZM287.446 286.459C277.413 277.561 262.131 277.164 251.641 285.505C246.996 289.201 251.16 289.239 241.982 283.008C238.687 280.776 261.536 262.156 285.565 273.66C288.854 275.233 298.672 281.71 296.757 283.008C287.605 289.22 291.022 289.632 287.446 286.459ZM287.58 290.522C275.262 302.632 286.365 297.802 274.638 292.964C271.149 291.526 267.643 291.52 264.218 292.692C251.677 296.98 263.304 302.252 250.778 290.139C260.739 279.358 278.098 279.793 287.58 290.522ZM245.366 274.594C234.405 282.288 243.043 282.051 230.438 276.738C227.762 275.612 244.51 257.538 268.997 257.538C294.303 257.538 309.675 276.16 308.299 276.738C298.302 280.954 300.703 281.98 298.795 279.944C285.202 265.451 262.228 262.746 245.366 274.594ZM228.202 273.203C226.103 275.622 227.38 275.469 224.607 274.594C216.435 272.008 213.365 274.597 222.115 265.261C249.754 235.781 299.052 239.293 321.791 272.645C310.584 274.8 312.338 276.385 310.895 274.594C289.753 248.469 249.531 248.561 228.202 273.203ZM205.123 257.078C202.752 256.897 200.634 257.279 198.937 257.895C183.333 263.582 198.715 273.159 182.853 259.158C192.098 243.664 215.266 243.398 224.87 258.735C208.427 272.969 224.231 258.544 205.123 257.078ZM213.907 271.002C212.085 273.654 210.886 269.759 194.338 272.1C190.325 272.656 193.829 257.921 205.921 259.896C211.393 260.788 217.047 266.425 213.907 271.002ZM156.699 286.459C146.666 277.561 131.384 277.164 120.894 285.505C116.25 289.201 120.414 289.239 111.234 283.008C107.934 280.77 130.757 262.139 154.817 273.66C158.107 275.233 167.927 281.712 166.009 283.008C156.859 289.22 160.276 289.632 156.699 286.459ZM156.832 290.522C144.515 302.632 155.617 297.802 143.89 292.964C140.401 291.526 136.896 291.52 133.47 292.692C120.929 296.98 132.556 302.252 120.032 290.139C129.988 279.363 147.35 279.788 156.832 290.522ZM114.62 274.594C103.66 282.288 112.297 282.054 99.6921 276.738C97.0216 275.615 113.744 257.538 138.251 257.538C163.48 257.538 178.969 276.143 177.553 276.738C167.562 280.951 169.954 281.977 168.048 279.944C154.406 265.395 131.424 262.79 114.62 274.594ZM97.4541 273.203C95.3558 275.622 96.6323 275.469 93.8608 274.594C85.6875 272.008 82.6203 274.591 91.3687 265.261C119.066 235.717 168.345 239.352 191.043 272.645C179.837 274.8 181.593 276.385 180.147 274.594C159.134 248.628 118.914 248.411 97.4541 273.203ZM186.557 -0.945244C195.789 -10.0384 210.745 -10.4072 220.459 -1.8379C227.426 4.30964 224.613 2.33354 217.487 10.8871C212.949 -1.78665 194.159 -1.33391 190.291 11.5406C182.898 2.42181 180.679 4.84353 186.557 -0.945244ZM180.675 1.93775C171.852 -5.195 171.143 -2.33621 174.762 -6.7326C189.344 -24.4506 217.027 -24.8905 232.256 -7.87582C237.048 -2.51985 235.764 -5.36726 227.061 1.53058C216.281 -14.9773 191.166 -14.7993 180.675 1.93775ZM209.326 5.64223C212.604 7.31081 216.672 11.5848 213.907 15.6138C212.514 17.6469 214.744 16.0281 203.995 16.0281C192.517 16.0281 194.861 17.8334 193.337 15.6138C190.313 11.2061 199.466 0.627947 209.326 5.64223ZM257.712 51.8513C246.144 53.7762 252.249 55.5999 245.131 47.2015C223.784 21.9835 183.608 22.1059 162.463 47.7098C155.599 56.0157 161.561 53.8502 149.536 51.8499C145.461 51.1736 162.196 26.0481 190.642 20.1441C235.356 10.8701 264.246 50.7665 257.712 51.8513ZM317.303 -0.945222C326.448 -9.95156 341.402 -10.4883 351.206 -1.83788C358.169 4.30682 355.362 2.32787 348.234 10.8872C343.703 -1.76812 324.91 -1.35383 321.037 11.5378C313.644 2.42183 311.422 4.84355 317.303 -0.945222ZM311.421 1.93777C302.6 -5.19498 301.892 -2.33903 305.508 -6.73258C320.091 -24.4506 347.776 -24.8905 363.002 -7.8758C367.795 -2.51698 366.508 -5.36439 357.807 1.5306C346.993 -15.0299 321.881 -14.748 311.421 1.93777ZM340.074 5.64225C343.35 7.31083 347.419 11.5848 344.654 15.6139C343.255 17.6583 345.582 16.0282 334.742 16.0282C323.228 16.0282 325.605 17.8306 324.084 15.6139C320.978 11.0865 330.336 0.689189 340.074 5.64225ZM388.457 51.8514C376.891 53.7762 382.994 55.6 375.877 47.2016C354.567 22.0732 314.458 22.0091 293.209 47.7098C286.345 56.0157 292.307 53.8502 280.282 51.8499C276.181 51.168 292.923 26.0539 321.386 20.1441C366.077 10.8758 395.016 50.7637 388.457 51.8514ZM362.553 243.069C348.351 229.938 326.629 228.809 311.11 239.716C295.933 250.368 306.04 252.24 295.44 247.768C291.612 246.155 289.754 247.465 296.125 240.099C316.028 217.031 352.839 216.905 372.999 239.715C379.616 247.206 377.846 245.855 373.3 247.767C365.537 251.042 371.065 250.939 362.553 243.069ZM357.807 256.92C350.121 245.146 334.21 241.151 321.553 247.905C304.266 257.126 318.645 261.147 304.518 252.445C298.766 248.9 336.623 218.037 363.002 247.512C367.768 252.838 366.534 250.002 357.807 256.92ZM376.638 239.716C355.613 213.669 315.034 213.474 293.608 238.739C286.723 246.864 291.719 245.721 283.086 243.915C277.876 242.821 277.879 244.157 280.666 239.716C304.918 200.967 363.665 200.267 388.576 239.322C391.675 244.185 391.304 242.729 385.652 243.916C378.337 245.446 382.113 246.496 376.638 239.716ZM231.805 243.069C217.49 229.838 195.766 228.893 180.364 239.716C165.186 250.368 175.292 252.24 164.692 247.768C160.864 246.155 159.007 247.465 165.377 240.099C185.216 217.106 222.067 216.844 242.251 239.715C248.871 247.206 247.098 245.855 242.553 247.767C234.787 251.044 240.328 250.948 231.805 243.069ZM227.06 256.92C219.375 245.146 203.463 241.151 190.807 247.905C173.903 256.92 187.707 261.027 173.771 252.445C168.037 248.912 205.884 218.04 232.256 247.512C237.048 252.865 235.764 250.018 227.06 256.92ZM245.893 239.716C224.989 213.82 184.418 213.322 162.861 238.739C155.976 246.864 160.973 245.721 152.34 243.914C147.127 242.818 147.133 244.157 149.919 239.716C174.329 200.684 233.106 200.558 257.829 239.322C260.929 244.188 260.561 242.729 254.906 243.916C247.587 245.446 251.365 246.496 245.893 239.716ZM268.999 26.8497C278.814 26.8497 288.831 33.8187 286.503 36.2177C277.337 45.6611 284.118 43.1938 276.667 38.6337C273.743 36.8427 269.825 35.9785 265.948 36.7872C251.374 39.8353 263.433 47.7539 252.236 36.2177C248.541 32.4121 261.837 26.8497 268.999 26.8497ZM240.869 26.8639C255.9 10.2408 282.703 10.517 297.416 27.1729C284.922 35.4318 293.698 34.3469 283.502 28.1624C275.129 23.0797 264.317 22.6569 255.359 27.6569C244.162 33.9042 253.909 35.3307 240.869 26.8639ZM276.704 42.1104C280.55 45.4803 278.756 45.2667 275.674 51.2278C258.06 49.5236 266.214 55.0177 259.142 44.6688C262.999 38.3675 271.477 37.5275 276.704 42.1104ZM320.424 79.1879C322.853 82.4667 322.615 79.9253 311.568 83.9174C290.328 56.4357 247.813 56.5311 226.594 83.701C215.276 79.7303 214.881 82.6531 218.227 78.3009C243.669 45.2083 295.398 45.3778 320.424 79.1879ZM287.446 222.612C277.413 213.713 262.131 213.316 251.641 221.658C246.996 225.354 251.16 225.392 241.982 219.161C238.687 216.928 261.536 198.309 285.565 209.813C288.854 211.386 298.672 217.862 296.757 219.161C287.605 225.374 291.022 225.785 287.446 222.612ZM287.58 226.675C275.262 238.785 286.365 233.954 274.638 229.119C271.149 227.679 267.643 227.673 264.218 228.845C251.674 233.136 263.307 238.408 250.778 226.292C260.739 215.51 278.098 215.947 287.58 226.675ZM245.364 210.746C234.405 218.44 243.043 218.204 230.438 212.891C227.783 211.773 244.486 193.691 268.997 193.691C294.251 193.691 309.705 212.301 308.299 212.891C298.372 217.075 300.689 218.116 298.794 216.097C285.153 201.551 262.169 198.94 245.364 210.746ZM228.202 209.357C226.103 211.776 227.38 211.623 224.607 210.748C216.353 208.137 213.359 210.756 222.115 201.416C249.668 172.029 298.981 175.342 321.791 208.799C310.323 211.004 312.372 212.58 310.895 210.748C289.875 184.775 249.656 184.57 228.202 209.357ZM268.999 178.599C260.457 178.599 264.875 180.755 259.141 172.362C263.805 164.742 275.128 165.252 279.194 172.966C273.95 180.822 278.272 178.599 268.999 178.599ZM274.638 165.272C271.155 163.834 267.652 163.826 264.218 164.997C251.659 169.294 263.311 174.563 250.778 162.447C260.745 151.659 278.104 152.106 287.58 162.829C275.256 174.943 286.36 170.107 274.638 165.272ZM287.446 158.766C277.43 149.882 262.145 149.459 251.641 157.812C246.997 161.508 251.16 161.543 241.982 155.315C238.676 153.077 261.504 134.446 285.565 145.967C288.854 147.54 298.672 154.016 296.757 155.315C287.605 161.526 291.025 161.938 287.446 158.766ZM295.109 148.774C280.269 136.53 258.607 136.492 243.75 148.059C234.95 154.912 242.82 153.991 229.349 148.588C249.638 123.437 288.863 123.775 308.822 148.818C296.061 154.072 302.759 155.087 295.109 148.774ZM226.594 147.548C215.276 143.578 214.881 146.498 218.227 142.145C243.614 109.125 295.351 109.164 320.424 143.035C322.85 146.311 322.615 143.773 311.568 147.765C290.422 120.387 247.913 120.274 226.594 147.548ZM259.141 108.516C262.989 102.232 271.462 101.362 276.704 105.958C280.55 109.328 278.756 109.114 275.674 115.075C258.06 113.371 266.214 118.862 259.141 108.516ZM276.667 102.481C273.743 100.69 269.825 99.8258 265.948 100.635C251.374 103.68 263.433 111.601 252.236 100.062C248.541 96.2552 261.837 90.6971 268.997 90.6971C278.056 90.6971 289.089 97.3984 286.501 100.062C277.337 109.508 284.116 107.04 276.667 102.481ZM283.501 92.0097C275.127 86.9271 264.316 86.5043 255.358 91.5043C244.153 97.7558 253.9 99.1738 240.867 90.7113C255.899 74.0882 282.701 74.3644 297.415 91.0202C284.92 99.2777 293.698 98.1943 283.501 92.0097ZM295.109 84.9268C280.269 72.6858 258.607 72.6445 243.75 84.2121C234.949 91.0644 242.82 90.1432 229.349 84.7403C249.64 59.5863 288.877 59.9337 308.822 84.9709C296.061 90.2244 302.759 91.2367 295.109 84.9268ZM242.554 56.2307C233.156 60.1928 241.936 58.2238 227.627 48.1782C211.216 36.6519 189.053 38.944 175.411 52.2457C166.464 60.9716 174.772 59.6262 160.891 54.7457C178.735 25.9214 220.263 23.2904 242.252 48.1782C248.873 55.6697 247.099 54.3143 242.554 56.2307ZM174.762 57.1148C189.328 39.4181 216.954 38.8729 232.256 55.9715C237.048 61.3275 235.764 58.4801 227.061 65.3779C216.272 48.8573 191.163 49.0523 180.675 65.7837C171.854 58.6524 171.145 61.5083 174.762 57.1148ZM186.557 62.9021C195.789 53.8089 210.745 53.4402 220.459 62.0095C227.428 68.1598 224.609 66.1866 217.487 74.7345C212.949 62.0607 194.159 62.5134 190.291 75.3851C182.899 66.2663 180.679 68.6909 186.557 62.9021ZM209.326 69.4896C212.604 71.1582 216.672 75.4321 213.907 79.4612C212.508 81.5056 214.792 79.8755 203.995 79.8755C192.517 79.8755 194.861 81.6807 193.339 79.4612C190.321 75.0648 199.461 64.4725 209.326 69.4896ZM257.712 115.699C246.144 117.621 252.249 119.444 245.131 111.046C223.785 85.8309 183.608 85.9504 162.463 111.557C155.599 119.863 161.561 117.698 149.536 115.697C145.479 115.021 162.216 89.8927 190.642 83.9914C235.359 74.716 264.246 114.614 257.712 115.699ZM242.252 112.023C248.873 119.517 247.1 118.163 242.554 120.078C233.156 124.04 241.937 122.071 227.627 112.023C211.216 100.499 189.053 102.791 175.411 116.093C166.458 124.825 174.772 123.474 160.891 118.593C178.734 89.7688 220.263 87.1378 242.252 112.023ZM174.762 120.959C189.328 103.266 216.954 102.72 232.256 119.819C237.048 125.175 235.764 122.327 227.061 129.225C216.298 112.742 191.189 112.856 180.675 129.631C171.854 122.5 171.143 125.356 174.762 120.959ZM186.557 126.745C195.789 117.655 210.747 117.285 220.459 125.855C227.439 132.014 224.586 130.057 217.487 138.58C212.949 125.904 194.159 126.357 190.291 139.231C182.898 130.114 180.679 132.535 186.557 126.745ZM205.921 132.201C211.399 133.096 217.044 138.733 213.907 143.307C212.088 145.957 210.855 142.07 194.338 144.405C190.316 144.973 193.814 130.222 205.921 132.201ZM257.829 175.474C260.923 180.34 260.57 178.881 254.906 180.069C247.586 181.6 251.365 182.65 245.893 175.87C224.745 149.698 184.189 149.748 162.861 174.893C155.977 183.018 160.97 181.875 152.34 180.069C147.124 178.972 147.136 180.311 149.919 175.87C174.366 136.845 233.104 136.711 257.829 175.474ZM165.377 176.253C185.227 153.249 222.021 153.004 242.251 175.869C248.87 183.363 247.097 182.009 242.553 183.924C234.785 187.197 240.332 187.105 231.805 179.221C217.721 166.205 196.024 164.868 180.366 175.869C165.134 186.563 175.316 188.401 164.692 183.924C160.864 182.309 159.007 183.619 165.377 176.253ZM232.256 183.666C237.047 189.022 235.767 186.172 227.061 193.073C219.375 181.299 203.463 177.304 190.807 184.058C174.199 192.917 187.567 197.093 173.771 188.598C167.97 185.026 205.902 154.227 232.256 183.666ZM224.87 194.889C208.427 209.123 224.23 194.7 205.123 193.232C202.752 193.051 200.634 193.433 198.937 194.049C183.312 199.744 198.73 209.337 182.853 195.312C192.101 179.809 215.275 179.567 224.87 194.889ZM205.921 196.048C211.393 196.941 217.046 202.577 213.907 207.154C212.086 209.807 210.886 205.912 194.338 208.252C190.325 208.809 193.831 194.074 205.921 196.048ZM259.141 236.209C263.803 228.59 275.128 229.099 279.194 236.81C273.962 244.652 278.295 242.447 268.998 242.447C260.448 242.447 264.887 244.608 259.141 236.209ZM336.669 196.048C342.144 196.944 347.794 202.577 344.654 207.155C342.888 209.727 340.898 206.014 325.085 208.252C321.071 208.812 324.577 194.074 336.669 196.048ZM335.871 193.232C333.499 193.051 331.382 193.433 329.683 194.049C314.059 199.744 329.48 209.331 313.601 195.312C322.849 179.815 346.016 179.562 355.616 194.889C339.176 209.129 354.977 194.7 335.871 193.232ZM321.553 184.058C304.266 193.279 318.645 197.3 304.518 188.598C298.714 185.019 336.663 154.234 363.002 183.665C367.794 189.021 366.511 186.173 357.807 193.071C350.121 181.3 334.21 177.304 321.553 184.058ZM362.553 179.223C348.482 166.215 326.772 164.866 311.113 175.87C295.881 186.565 306.064 188.403 295.44 183.925C291.612 182.309 289.754 183.619 296.125 176.253C315.934 153.293 352.732 152.963 372.999 175.869C379.616 183.36 377.846 182.009 373.3 183.924C365.537 187.194 371.068 187.092 362.553 179.223ZM376.638 175.869C355.554 149.752 314.982 149.691 293.608 174.892C286.723 183.017 291.716 181.874 283.086 180.067C277.87 178.971 277.885 180.309 280.666 175.869C305.081 136.898 363.818 136.658 388.576 175.474C391.669 180.341 391.316 178.878 385.652 180.069C378.334 181.6 382.113 182.648 376.638 175.869ZM344.654 143.307C342.888 145.88 340.901 142.167 325.085 144.405C321.063 144.971 324.559 130.22 336.669 132.201C342.145 133.096 347.791 138.733 344.654 143.307ZM321.039 139.231C313.643 130.114 311.422 132.535 317.303 126.745C326.466 117.722 341.42 117.222 351.206 125.855C358.172 132 355.347 130.038 348.234 138.58C343.704 125.922 324.911 126.337 321.039 139.231ZM311.421 129.632C302.589 122.488 301.886 125.361 305.508 120.959C320.015 103.338 347.623 102.635 363.002 119.819C367.794 125.175 366.508 122.327 357.807 129.225C347.019 112.703 321.91 112.898 311.421 129.632ZM358.373 112.023C341.928 100.478 319.776 102.816 306.157 116.093C297.198 124.83 305.521 123.476 291.637 118.593C309.485 89.7745 351.004 87.1321 372.999 112.023C379.619 119.517 377.846 118.163 373.3 120.078C363.903 124.04 372.682 122.068 358.373 112.023ZM375.879 111.046C354.569 85.9206 314.46 85.8565 293.211 111.557C286.341 119.869 292.328 117.699 280.284 115.697C276.182 115.015 292.924 89.9012 321.388 83.9914C365.857 74.7673 395.052 114.601 388.458 115.697C376.882 117.622 383 119.449 375.879 111.046ZM344.654 79.4612C343.26 81.4943 345.492 79.8755 334.742 79.8755C323.228 79.8755 325.605 81.6779 324.084 79.4612C321.071 75.0677 330.196 64.4654 340.074 69.4896C343.35 71.1568 347.419 75.4307 344.654 79.4612ZM321.039 75.3837C313.643 66.2663 311.422 68.6909 317.303 62.9007C326.448 53.8944 341.402 53.3576 351.206 62.0081C358.172 68.1528 355.356 66.1824 348.234 74.7331C343.701 62.0764 324.911 62.4935 321.039 75.3837ZM311.421 65.7851C302.603 58.6552 301.892 61.5083 305.508 57.1148C320.015 39.4908 347.623 38.7875 363.002 55.9716C367.795 61.3304 366.508 58.4801 357.807 65.378C347.019 48.8559 321.91 49.0538 311.421 65.7851ZM358.373 48.1782C341.928 36.6306 319.776 38.9683 306.157 52.2457C297.198 60.983 305.521 59.6319 291.637 54.7457C309.491 25.9158 351.015 23.299 372.999 48.1782C379.619 55.6697 377.846 54.3158 373.3 56.2307C363.906 60.1928 372.679 58.2224 358.373 48.1782ZM295.109 21.0809C280.102 8.70462 258.445 8.92672 243.75 20.3662C234.949 27.2184 242.82 26.2973 229.349 20.8944C249.635 -4.25392 288.872 -3.92076 308.822 21.125C296.061 26.3771 302.759 27.3893 295.109 21.0809ZM164.362 21.0808C149.359 8.70745 127.698 8.92385 113.006 20.3661C104.214 27.2099 112.047 26.2859 98.6043 20.8943C118.849 -4.2098 158.093 -3.95922 178.077 21.125C165.315 26.377 172.01 27.3893 164.362 21.0808ZM166.67 27.1729C154.174 35.4318 162.949 34.3469 152.755 28.1623C144.381 23.0797 133.57 22.6597 124.612 27.6569C113.417 33.9027 123.16 35.3321 110.123 26.8639C125.243 10.1468 152.041 10.6109 166.67 27.1729ZM138.251 26.8497C147.31 26.8497 158.342 33.5511 155.755 36.2177C146.61 45.6411 153.352 43.1838 145.919 38.6337C142.993 36.8427 139.073 35.9785 135.2 36.7871C120.626 39.8353 132.687 47.7539 121.488 36.2176C117.795 32.4092 131.091 26.8497 138.251 26.8497ZM145.958 42.1104C149.799 45.4774 148.013 45.261 144.928 51.2277C127.312 49.5236 135.469 55.0176 128.397 44.6687C132.217 38.4258 140.684 37.4833 145.958 42.1104ZM189.679 79.1878C192.117 82.4809 191.857 79.9296 180.822 83.9174C159.589 56.4271 117.058 56.541 95.8492 83.701C84.5299 79.7274 84.1376 82.6503 87.4812 78.3009C112.976 45.1386 164.71 45.4618 189.679 79.1878ZM178.077 84.9723C165.315 90.2244 172.011 91.2366 164.362 84.9282C149.359 72.5548 127.698 72.7712 113.006 84.2135C104.214 91.0572 112.047 90.1333 98.6043 84.7417C118.849 59.6376 158.093 59.8867 178.077 84.9723ZM166.67 91.0202C154.174 99.2791 162.949 98.1943 152.755 92.0097C144.381 86.9271 133.57 86.5071 124.612 91.5043C113.417 97.7501 123.16 99.1795 110.123 90.7113C125.243 73.9942 152.041 74.4583 166.67 91.0202ZM138.251 90.697C148.102 90.697 158.069 97.6817 155.755 100.062C146.61 109.488 153.352 107.031 145.919 102.481C142.993 100.69 139.073 99.8258 135.2 100.634C120.626 103.68 132.687 111.601 121.488 100.062C117.795 96.2552 131.091 90.697 138.251 90.697ZM145.958 105.958C149.799 109.325 148.013 109.108 144.928 115.075C127.312 113.368 135.469 118.865 128.397 108.516C132.243 102.229 140.718 101.363 145.958 105.958ZM189.679 143.035C192.107 146.314 191.871 143.773 180.822 147.762C159.672 120.381 117.171 120.272 95.8492 147.548C84.5284 143.575 84.1376 146.495 87.4812 142.145C112.973 108.989 164.707 109.302 189.679 143.035ZM178.077 148.818C165.316 154.082 171.978 155.056 164.362 148.774C149.359 136.398 127.698 136.614 113.006 148.059C104.195 154.916 112.102 153.999 98.6043 148.588C118.833 123.501 158.075 123.713 178.077 148.818ZM154.819 145.965C158.109 147.538 167.926 154.015 166.01 155.313C156.859 161.525 160.279 161.936 156.699 158.764C146.683 149.88 131.399 149.458 120.894 157.81C116.25 161.506 120.414 161.542 111.234 155.313C107.929 153.077 130.757 134.446 154.819 145.965ZM156.832 162.828C144.518 174.94 155.609 170.107 143.89 165.272C140.407 163.834 136.904 163.826 133.47 164.997C120.912 169.294 132.565 174.563 120.032 162.447C129.994 151.663 147.35 152.1 156.832 162.828ZM148.447 172.966C143.204 180.822 147.525 178.599 138.252 178.599C129.709 178.599 134.131 180.755 128.397 172.362C133.081 164.707 144.406 165.302 148.447 172.966ZM191.044 208.797C179.84 210.953 181.593 212.537 180.149 210.746C159.134 184.784 118.917 184.563 97.4556 209.356C95.3573 211.774 96.6338 211.622 93.8623 210.746C85.6028 208.135 82.6114 210.758 91.3702 201.414C119.066 171.871 168.34 175.5 191.044 208.797ZM138.251 193.691C163.674 193.691 178.88 212.335 177.553 212.891C167.623 217.078 169.942 218.116 168.048 216.097C154.443 201.591 131.455 198.916 114.618 210.746C103.701 218.41 112.291 218.201 99.6906 212.891C97.0172 211.764 113.752 193.691 138.251 193.691ZM154.819 209.813C158.107 211.386 167.926 217.862 166.01 219.161C156.859 225.372 160.277 225.784 156.699 222.612C146.666 213.713 131.384 213.316 120.894 221.658C116.25 225.354 120.414 225.389 111.234 219.161C107.935 216.925 130.757 198.292 154.819 209.813ZM156.832 226.675C144.52 238.785 155.612 233.954 143.89 229.119C140.401 227.679 136.896 227.673 133.47 228.845C120.914 233.138 132.586 238.432 120.032 226.292C130.023 215.477 147.38 215.977 156.832 226.675ZM148.447 236.81C143.204 244.666 147.525 242.447 138.252 242.447C129.704 242.447 134.131 244.599 128.397 236.209C133.094 228.533 144.424 229.181 148.447 236.81ZM399.742 242.447C391.197 242.447 395.624 244.599 389.888 236.209C394.563 228.571 405.89 229.127 409.938 236.81C404.705 244.652 409.039 242.447 399.742 242.447ZM405.384 229.119C401.946 227.699 398.436 227.657 394.964 228.845C382.408 233.139 394.078 238.432 381.523 226.292C391.472 215.524 408.832 215.935 418.326 226.676C406.011 238.788 417.102 233.951 405.384 229.119ZM418.193 222.612C408.064 213.627 392.775 213.396 382.388 221.658C377.744 225.354 381.906 225.389 372.728 219.161C369.419 216.917 392.254 198.295 416.311 209.813C419.6 211.386 429.415 217.862 427.503 219.161C418.231 225.456 421.786 225.799 418.193 222.612ZM376.11 210.747C365.194 218.41 373.786 218.201 361.186 212.891C358.522 211.77 375.228 193.691 399.742 193.691C424.981 193.691 440.457 212.298 439.046 212.891C429.117 217.078 431.433 218.116 429.542 216.097C415.874 201.527 392.884 198.96 376.11 210.747ZM358.948 209.354C356.853 211.776 358.123 211.624 355.352 210.748C347.193 208.167 344.108 210.754 352.861 201.416C380.627 171.815 429.878 175.564 452.537 208.799C441.066 211.004 443.118 212.58 441.638 210.748C420.521 184.653 380.313 184.687 358.948 209.354ZM399.742 178.599C391.2 178.599 395.621 180.755 389.888 172.362C394.552 164.742 405.875 165.252 409.938 172.966C404.708 180.802 409.044 178.599 399.742 178.599ZM405.384 165.272C401.901 163.834 398.395 163.826 394.964 164.997C382.411 169.297 394.075 174.582 381.523 162.447C391.505 151.644 408.859 152.12 418.326 162.829C406.014 174.938 417.105 170.107 405.384 165.272ZM418.193 158.766C408.153 149.862 392.866 149.479 382.388 157.812C377.741 161.508 381.906 161.543 372.728 155.315C369.37 153.037 392.273 134.46 416.311 145.967C419.6 147.54 429.415 154.016 427.503 155.315C418.353 161.526 421.768 161.938 418.193 158.766ZM425.852 148.774C410.852 136.398 389.191 136.614 374.495 148.057C365.71 154.9 373.529 153.974 360.094 148.588C380.332 123.492 419.573 123.72 439.568 148.818C426.81 154.083 433.477 155.061 425.852 148.774ZM357.34 147.548C346.024 143.575 345.628 146.498 348.975 142.145C374.418 109.053 426.146 109.228 451.171 143.035C453.598 146.314 453.363 143.773 442.313 147.762C421.043 120.225 378.505 120.448 357.34 147.548ZM389.888 108.516C393.71 102.273 402.174 101.328 407.45 105.958C411.296 109.331 409.499 109.12 406.42 115.075C388.809 113.368 396.958 118.862 389.888 108.516ZM407.413 102.481C404.487 100.69 400.571 99.8259 396.694 100.635C382.117 103.68 394.178 111.601 382.979 100.062C379.288 96.2552 392.583 90.6971 399.74 90.6971C409.594 90.6971 419.558 97.6818 417.248 100.062C408.083 109.508 414.864 107.04 407.413 102.481ZM414.249 92.0097C405.858 86.9186 395.046 86.5157 386.104 91.5043C374.901 97.7558 384.615 99.1539 371.615 90.7113C386.749 73.98 413.547 74.4726 428.164 91.0203C415.668 99.2777 424.442 98.1943 414.249 92.0097ZM425.852 84.9268C410.852 72.5534 389.191 72.7698 374.495 84.2121C365.695 91.0644 373.566 90.1433 360.094 84.7403C380.35 59.6248 419.588 59.8924 439.568 84.971C426.807 90.2244 433.504 91.2367 425.852 84.9268ZM357.34 83.701C346.024 79.7303 345.628 82.6532 348.975 78.3009C374.467 45.1415 426.198 45.4504 451.171 79.1879C453.598 82.4667 453.363 79.9254 442.313 83.9174C421.076 56.44 378.557 56.5339 357.34 83.701ZM389.888 44.6688C393.716 38.4145 402.185 37.4919 407.45 42.1104C411.296 45.4832 409.499 45.2724 406.42 51.2278C388.809 49.5236 396.958 55.0191 389.888 44.6688ZM407.413 38.6351C404.487 36.8441 400.571 35.9799 396.694 36.7886C382.117 39.8367 394.178 47.7554 382.979 36.2191C379.288 32.4093 392.583 26.8512 399.74 26.8512C408.802 26.8512 419.833 33.5525 417.248 36.2191C408.083 45.6611 414.864 43.1953 407.413 38.6351ZM414.249 28.1624C405.875 23.0798 395.064 22.6569 386.104 27.657C374.898 33.9113 384.618 35.3065 371.615 26.864C386.746 10.1326 413.547 10.6252 428.164 27.1729C415.668 35.4318 424.442 34.3469 414.249 28.1624ZM425.852 21.0809C410.881 8.7317 389.22 8.89827 374.495 20.3662C365.695 27.2185 373.566 26.2973 360.094 20.8944C380.35 -4.22115 419.588 -3.95348 439.568 21.125C426.807 26.3771 433.504 27.3893 425.852 21.0809ZM373.3 -7.61668C365.533 -4.34359 371.077 -4.43613 362.553 -12.3192C346.453 -27.204 321.379 -26.4423 306.159 -11.6016C297.199 -2.86438 305.523 -4.21547 291.639 -9.10162C309.236 -37.5287 350.298 -40.8288 372.658 -16.0336C379.768 -8.14487 377.762 -9.49597 373.3 -7.61668ZM242.554 -7.61671C234.787 -4.34077 240.334 -4.43616 231.807 -12.3192C215.775 -27.1371 190.7 -26.5092 175.413 -11.6017C166.446 -2.85586 174.774 -4.22119 160.892 -9.10164C178.535 -37.5985 219.601 -40.7705 241.912 -16.0336C249.02 -8.1449 247.015 -9.49884 242.554 -7.61671ZM111.806 -7.61673C104.042 -4.34364 109.58 -4.44187 101.059 -12.3192C84.9594 -27.204 59.8881 -26.4424 44.6665 -11.6017C35.7055 -2.86442 44.0289 -4.21551 30.1447 -9.10166C47.7366 -37.5173 88.7889 -40.8431 111.164 -16.0337C118.274 -8.14492 116.269 -9.49601 111.806 -7.61673ZM44.0156 -6.73262C58.5982 -24.4506 86.282 -24.8877 101.508 -7.87584C106.301 -2.51987 105.017 -5.36728 96.3128 1.53056C85.5003 -15.0314 60.3889 -14.7509 49.9271 1.9363C41.1088 -5.1936 40.3985 -2.33908 44.0156 -6.73262ZM55.8104 -0.945267C64.9556 -9.95161 79.9098 -10.4883 89.7133 -1.83793C96.6769 4.30677 93.8713 2.32783 86.7412 10.8871C82.1968 -1.80803 63.4101 -1.32397 59.5448 11.5392C52.1532 2.42178 49.933 4.84351 55.8104 -0.945267ZM78.5797 5.64221C81.8595 7.31079 85.9253 11.5847 83.1627 15.6138C81.7614 17.6583 84.09 16.0281 73.2493 16.0281C61.7338 16.0281 64.113 17.8305 62.5927 15.6138C59.4854 11.0864 68.8431 0.689144 78.5797 5.64221ZM126.964 51.8513C115.397 53.7762 121.503 55.5971 114.383 47.2015C93.0732 22.0703 52.9631 22.0119 31.7155 47.7098C24.8514 56.0156 30.8134 53.8502 18.7883 51.8499C14.7001 51.1708 31.3989 26.0567 59.8941 20.144C104.428 10.8942 133.552 50.7579 126.964 51.8513ZM111.505 48.1782C118.124 55.6697 116.352 54.3158 111.806 56.2306C102.409 60.1928 111.188 58.2238 96.879 48.1782C80.3987 36.6049 58.252 38.9995 44.665 52.2457C35.704 60.9829 44.0274 59.6318 30.1432 54.7457C47.9908 25.9271 89.4755 23.2833 111.505 48.1782ZM44.0155 57.1147C58.5209 39.4907 86.1289 38.7874 101.508 55.9715C106.304 61.3303 105.017 58.4801 96.3128 65.3779C85.5478 48.8914 60.4365 49.0196 49.9271 65.7837C41.1088 58.6552 40.3985 61.5083 44.0155 57.1147ZM55.8104 62.9021C64.9556 53.8957 79.9097 53.359 89.7133 62.0094C96.6799 68.157 93.8638 66.1809 86.7411 74.7345C82.1849 62.0052 63.4026 62.549 59.5448 75.3851C52.1532 66.2663 49.933 68.6909 55.8104 62.9021ZM78.5797 69.4896C81.858 71.1581 85.9253 75.4321 83.1612 79.4612C81.7688 81.4942 83.9979 79.8755 73.2492 79.8755C61.7724 79.8755 64.1144 81.6807 62.5927 79.4612C59.5775 75.0676 68.7019 64.4639 78.5797 69.4896ZM126.964 115.699C115.4 117.621 121.5 119.442 114.383 111.046C93.0732 85.9177 52.9631 85.8593 31.7154 111.557C24.8469 119.869 30.8342 117.699 18.7882 115.697C14.8353 115.041 31.2726 89.9311 59.8941 83.9914C104.546 74.716 133.518 114.611 126.964 115.699ZM111.505 112.023C118.124 119.514 116.352 118.163 111.806 120.078C102.412 124.037 111.179 122.064 96.879 112.023C80.3987 100.452 58.252 102.847 44.6649 116.093C35.7055 124.83 44.0274 123.476 30.1432 118.593C47.9937 89.7716 89.4799 87.1321 111.505 112.023ZM44.0155 120.959C58.5209 103.338 86.1289 102.635 101.508 119.819C106.301 125.175 105.017 122.327 96.3128 129.225C85.5478 112.736 60.435 112.867 49.9271 129.631C41.094 122.488 40.3925 125.361 44.0155 120.959ZM55.8104 126.745C64.9764 117.722 79.9276 117.222 89.7132 125.855C96.6799 132 93.8579 130.038 86.7411 138.58C82.1849 125.851 63.4026 126.392 59.5448 139.231C52.1532 130.114 49.933 132.535 55.8104 126.745ZM75.1752 132.201C80.6528 133.096 86.2998 138.733 83.1627 143.307C81.3958 145.883 79.3629 142.172 63.5913 144.405C59.5701 144.973 63.0891 130.225 75.1752 132.201ZM127.085 175.474C130.153 180.305 129.837 178.878 124.16 180.069C116.84 181.6 120.62 182.65 115.149 175.87C94.1625 149.876 53.5932 149.57 32.1152 174.893C25.2303 183.018 30.2249 181.875 21.5939 180.069C16.3778 178.972 16.3912 180.311 19.1731 175.87C43.6752 136.757 102.406 136.787 127.085 175.474ZM34.6311 176.253C54.357 153.39 91.1265 152.867 111.505 175.869C118.122 183.36 116.355 182.006 111.806 183.924C104.042 187.194 109.571 187.089 101.059 179.221C87.0146 166.239 65.3122 164.839 49.6194 175.869C34.3889 186.563 44.5713 188.401 33.9475 183.924C30.1179 182.309 28.2604 183.619 34.6311 176.253ZM101.51 183.666C106.305 189.025 105.018 186.175 96.3143 193.073C88.6106 181.274 72.6934 177.315 60.0605 184.058C42.7732 193.279 57.1552 197.3 43.0258 188.598C37.2257 185.026 75.1544 154.227 101.51 183.666ZM94.1253 194.889C77.6836 209.129 93.4834 194.7 74.3771 193.232C72.0054 193.051 69.8878 193.433 68.1922 194.049C52.5678 199.744 67.9871 209.331 52.1071 195.312C61.3533 179.815 84.5239 179.562 94.1253 194.889ZM75.1752 196.048C80.6513 196.944 86.2998 202.577 83.1627 207.154C81.3958 209.727 79.4045 206.014 63.5913 208.252C59.5805 208.812 63.0846 194.073 75.1752 196.048ZM127.085 239.322C130.184 244.188 129.814 242.729 124.16 243.916C116.843 245.448 120.62 246.497 115.149 239.717C94.0986 213.644 53.5218 213.501 32.1152 238.741C25.2303 246.866 30.2264 245.723 21.5939 243.916C16.3853 242.822 16.3868 244.158 19.1731 239.717C43.6321 200.605 102.41 200.64 127.085 239.322ZM34.6311 240.1C54.516 217.053 91.3717 216.901 111.506 239.716C118.125 247.21 116.352 245.856 111.806 247.768C104.042 251.042 109.571 250.936 101.059 243.069C86.8332 229.917 65.1101 228.829 49.6194 239.716C34.4394 250.368 44.549 252.24 33.9475 247.768C30.1179 246.155 28.2603 247.465 34.6311 240.1ZM101.51 247.514C106.302 252.867 105.018 250.019 96.3143 256.92C88.6106 245.122 72.6934 241.162 60.0605 247.905C42.7732 257.126 57.1552 261.147 43.0258 252.445C37.2926 248.912 75.135 218.037 101.51 247.514ZM94.1253 258.735C77.6851 272.969 93.4774 258.543 74.3771 257.078C72.0054 256.897 69.8878 257.279 68.1922 257.895C52.5678 263.59 67.9871 273.177 52.1071 259.158C61.3518 243.664 84.5165 243.398 94.1253 258.735ZM75.1751 259.896C80.6513 260.788 86.2998 266.427 83.1627 271.002C81.3274 273.674 80.1118 269.762 63.5913 272.1C59.5805 272.659 63.0846 257.921 75.1751 259.896ZM128.395 300.057C133.087 292.387 144.415 293.014 148.445 300.658C143.202 308.514 147.524 306.294 138.251 306.294C129.703 306.294 134.13 308.445 128.395 300.057ZM259.141 300.057C263.803 292.437 275.128 292.947 279.194 300.658C273.978 308.482 278.295 306.294 268.998 306.294C260.448 306.294 264.878 308.445 259.141 300.057ZM389.888 300.057C394.581 292.387 405.906 293.014 409.938 300.658C404.707 308.496 409.043 306.294 399.742 306.294C391.194 306.294 395.624 308.445 389.888 300.057ZM467.412 259.896C472.89 260.791 478.54 266.428 475.4 271.002C473.579 273.654 472.367 269.759 455.831 272.1C451.818 272.656 455.323 257.921 467.412 259.896ZM466.617 257.078C464.245 256.897 462.128 257.279 460.429 257.895C444.802 263.59 460.235 273.18 444.344 259.158C453.595 243.658 476.757 243.401 486.362 258.735C469.924 272.972 485.722 258.545 466.617 257.078ZM452.296 247.905C435.81 256.704 449.005 260.908 435.261 252.445C429.543 248.919 467.377 218.04 493.748 247.512C498.541 252.865 497.254 250.018 488.553 256.919C480.883 245.169 464.978 241.14 452.296 247.905ZM493.299 243.069C479.081 229.93 457.355 228.823 441.857 239.716C426.677 250.368 436.786 252.24 426.186 247.768C422.358 246.155 420.492 247.477 426.871 240.096C446.997 216.824 483.826 217.11 503.745 239.715C510.362 247.206 508.589 245.855 504.044 247.767C496.28 251.044 501.823 250.95 493.299 243.069ZM507.386 239.716C486.49 213.815 445.909 213.328 424.355 238.739C417.47 246.864 422.464 245.721 413.834 243.915C408.624 242.821 408.624 244.157 411.41 239.716C435.75 200.801 494.534 200.456 519.323 239.322C522.429 244.185 522.046 242.731 516.4 243.916C509.08 245.446 512.859 246.496 507.386 239.716ZM467.412 196.048C472.89 196.944 478.537 202.577 475.4 207.155C473.576 209.807 472.379 205.912 455.831 208.252C451.818 208.809 455.323 194.074 467.412 196.048ZM466.617 193.232C464.245 193.051 462.128 193.433 460.429 194.049C444.805 199.744 460.223 209.334 444.344 195.312C453.586 179.824 476.754 179.552 486.362 194.889C469.924 209.126 485.722 194.697 466.617 193.232ZM452.296 184.058C435.81 192.856 449.005 197.06 435.261 188.598C429.469 185.027 467.392 154.218 493.748 183.665C498.544 189.027 497.254 186.171 488.553 193.071C480.883 181.321 464.978 177.292 452.296 184.058ZM493.299 179.223C479.182 166.179 457.485 164.892 441.857 175.87C426.627 186.565 436.81 188.403 426.186 183.925C422.358 182.31 420.492 183.631 426.871 176.253C446.805 153.205 483.515 153.04 503.745 175.869C510.362 183.363 508.589 182.009 504.044 183.924C496.28 187.197 501.819 187.1 493.299 179.223ZM507.386 175.869C486.358 149.819 445.778 149.624 424.355 174.892C417.464 183.014 422.474 181.877 413.834 180.067C408.615 178.971 408.63 180.309 411.41 175.869C435.899 136.755 494.65 136.792 519.323 175.474C522.429 180.338 522.043 178.884 516.4 180.069C509.08 181.603 512.859 182.648 507.386 175.869ZM475.4 143.307C474.001 145.349 476.329 143.721 465.488 143.721C454.011 143.721 456.352 145.524 454.83 143.307C451.815 138.908 460.954 128.32 470.817 133.336C474.097 135.001 478.167 139.278 475.4 143.307ZM451.786 139.231C444.39 130.114 442.17 132.535 448.05 126.745C457.196 117.742 472.15 117.205 481.953 125.855C488.92 132 486.095 130.038 478.981 138.58C474.443 125.907 455.652 126.357 451.786 139.231ZM442.167 129.633C433.336 122.488 432.633 125.361 436.254 120.959C450.758 103.338 478.372 102.638 493.748 119.819C498.544 125.181 497.254 122.328 488.553 129.225C477.766 112.703 452.657 112.898 442.167 129.633ZM489.121 112.023C472.744 100.519 450.574 102.766 436.905 116.093C427.952 124.825 436.263 123.476 422.385 118.593C440.232 89.7688 481.72 87.1321 503.746 112.023C510.364 119.514 508.594 118.163 504.045 120.078C494.609 124.054 503.494 122.108 489.121 112.023ZM506.625 111.046C485.312 85.9177 445.203 85.8594 423.954 111.557C417.09 119.866 423.071 117.699 411.027 115.697C406.934 115.018 423.664 89.9012 452.134 83.9915C496.786 74.7289 525.755 114.61 519.204 115.697C507.652 117.619 513.736 119.442 506.625 111.046ZM475.4 79.4612C473.999 81.5057 476.329 79.8755 465.488 79.8755C454.011 79.8755 456.355 81.6808 454.83 79.4612C451.815 75.0648 460.954 64.4739 470.817 69.4896C474.097 71.1568 478.167 75.4307 475.4 79.4612ZM451.786 75.3838C444.39 66.2664 442.17 68.6909 448.05 62.9007C457.196 53.8944 472.15 53.3577 481.953 62.0081C488.921 68.1585 486.101 66.1824 478.981 74.7331C474.446 62.065 455.655 62.5035 451.786 75.3838ZM442.167 65.7852C433.343 58.6524 432.639 61.5084 436.254 57.1148C450.758 39.4908 478.372 38.7903 493.748 55.9716C498.547 61.3361 497.251 58.483 488.553 65.378C477.769 48.8616 452.659 49.0453 442.167 65.7852ZM489.121 48.1782C472.744 36.6719 450.574 38.9185 436.905 52.2457C427.952 60.9773 436.263 59.6291 422.385 54.7458C440.232 25.9243 481.72 23.2848 503.746 48.1782C510.364 55.6698 508.591 54.3158 504.045 56.2307C494.609 60.2099 503.494 58.2609 489.121 48.1782ZM506.625 47.2016C485.312 22.0704 445.203 22.012 423.954 47.7098C417.093 56.0157 423.055 53.8502 411.027 51.8499C407.035 51.1879 423.507 26.0866 452.134 20.1441C496.85 10.8673 525.74 50.7651 519.204 51.85C507.641 53.7748 513.736 55.5971 506.625 47.2016ZM475.4 15.6139C473.999 17.6583 476.329 16.0282 465.488 16.0282C454.011 16.0282 456.355 17.8334 454.83 15.6139C451.806 11.2061 460.957 0.629417 470.817 5.64227C474.097 7.31085 478.167 11.5848 475.4 15.6139ZM451.786 11.5392C444.39 2.42185 442.17 4.84357 448.051 -0.946622C457.196 -9.95296 472.15 -10.4869 481.953 -1.83928C488.917 4.30542 486.11 2.32647 478.981 10.8858C474.446 -1.78233 455.655 -1.34241 451.786 11.5392ZM442.167 1.93779C433.346 -5.19496 432.636 -2.33616 436.254 -6.73255C450.773 -24.3736 478.458 -24.9574 493.748 -7.87577C498.544 -2.51411 497.254 -5.36721 488.553 1.53062C477.742 -15.027 452.631 -14.7508 442.167 1.93779ZM493.299 -12.3177C477.275 -27.1271 452.198 -26.5163 436.905 -11.6002C427.946 -2.86293 436.269 -4.21402 422.385 -9.10017C440.02 -37.5885 481.075 -40.7889 503.402 -16.0322C510.518 -8.14058 508.512 -9.49737 504.047 -7.61524C496.28 -4.34072 501.826 -4.43469 493.299 -12.3177ZM452.537 -46.5877C449.019 -45.9114 445.606 -44.9661 442.311 -43.7759C421.111 -71.2149 378.716 -71.3516 357.339 -43.9923C354.019 -45.1569 350.57 -46.0581 347.024 -46.7002C371.997 -83.1526 427.593 -83.1726 452.537 -46.5877ZM342.358 -44.6216C373.406 -41.0182 394.483 -12.9969 388.457 -11.996C375.424 -9.83054 384.788 -7.76047 373.236 -19.4847C351.86 -41.1876 316.343 -40.5569 295.663 -18.8696C284.804 -7.48287 294.003 -9.71523 280.282 -11.996C275.869 -12.7264 299.804 -49.5575 342.358 -44.6216ZM321.791 -46.5877C318.273 -45.9114 314.86 -44.9661 311.568 -43.7759C290.365 -71.2121 247.971 -71.3516 226.594 -43.9923C223.274 -45.1569 219.823 -46.0581 216.279 -46.7002C241.252 -83.1527 296.847 -83.1726 321.791 -46.5877ZM211.61 -44.6216C242.66 -41.0153 263.735 -12.9969 257.71 -11.996C244.718 -9.83483 253.906 -7.89432 242.49 -19.4847C221.067 -41.2317 185.559 -40.5199 164.915 -18.8697C154.071 -7.49428 163.193 -9.7238 149.534 -11.996C145.085 -12.7321 169.088 -49.5519 211.61 -44.6216ZM191.044 -46.5877C187.527 -45.9115 184.114 -44.9661 180.822 -43.7759C159.619 -71.2149 117.225 -71.3516 95.8492 -43.9923C92.5294 -45.1569 89.0773 -46.0581 85.5345 -46.7002C110.505 -83.1527 166.101 -83.1726 191.044 -46.5877ZM80.8638 -44.6216C111.958 -41.0125 132.974 -12.994 126.964 -11.996C113.923 -9.82774 123.3 -7.75482 111.746 -19.4847C90.3166 -41.2346 54.8103 -40.5142 34.1689 -18.8697C23.3133 -7.48291 32.509 -9.71528 18.7883 -11.9961C14.3672 -12.7293 38.2853 -49.5604 80.8638 -44.6216ZM-45.2132 -46.7017C-20.24 -83.1541 35.3563 -83.1726 60.2968 -46.5877C56.7808 -45.9115 53.3658 -44.9661 50.0742 -43.7759C28.8727 -71.2135 -13.5216 -71.3516 -34.897 -43.9923C-38.2183 -45.1584 -41.669 -46.0596 -45.2132 -46.7017ZM-23.0591 -38.484C-25.948 -40.1882 -28.9825 -41.6845 -32.1448 -42.953C-11.9612 -67.9703 27.1934 -67.9931 47.331 -42.7224C44.1998 -41.4354 41.198 -39.9134 38.3388 -38.195C22.4128 -56.5423 -6.83282 -56.7957 -23.0591 -38.484ZM-12.7726 -30.9939C-15.2261 -33.1708 -17.846 -35.1782 -20.6234 -36.9835C-5.55333 -53.645 21.1541 -53.3916 35.924 -36.6745C33.1644 -34.8507 30.5608 -32.8262 28.1266 -30.6295C17.3929 -42.5857 -1.73565 -42.8335 -12.7726 -30.9939ZM-4.11484 -21.6274C-6.11655 -24.2741 -8.3174 -26.7741 -10.7144 -29.0933C-0.849965 -39.7739 16.4552 -39.6102 26.0863 -28.7089C23.6893 -26.3512 21.4855 -23.8142 19.4927 -21.1234C13.9794 -29.23 1.81007 -29.5332 -4.11484 -21.6274ZM17.7005 -18.575C16.421 -16.6558 15.2425 -14.6712 14.18 -12.6182C-3.31088 -14.311 4.67816 -8.89238 -2.35089 -19.1772C2.27967 -26.7442 13.5915 -26.3669 17.7005 -18.575ZM-43.265 14.4535C-17.8222 -18.6419 33.9044 -18.4668 58.9326 15.3405C61.3593 18.6193 61.1245 16.0779 50.0742 20.07C28.8296 -7.41316 -13.6836 -7.31066 -34.897 19.8536C-46.2148 15.8829 -46.6116 18.8057 -43.265 14.4535ZM-32.1433 20.8943C-11.8899 -4.22122 27.3494 -3.95355 47.3324 21.125C34.5672 26.377 41.2663 27.3893 33.6161 21.0808C18.6114 8.706 -3.04934 8.92382 -17.742 20.3661C-26.5439 27.217 -18.6708 26.2973 -32.1433 20.8943ZM-20.6234 26.8639C-5.49241 10.1326 21.3071 10.6252 35.924 27.1728C23.4277 35.4317 32.2044 34.3469 22.0085 28.1623C13.6955 23.1153 2.88448 22.6227 -6.13439 27.6569C-17.3422 33.9098 -7.62342 35.3065 -20.6234 26.8639ZM-9.25809 36.2176C-12.9524 32.4078 0.343325 26.8497 7.50314 26.8497C17.3185 26.8497 27.3375 33.8187 25.0089 36.2176C15.8429 45.661 22.6223 43.1938 15.1742 38.6337C12.2481 36.8426 8.33088 35.9784 4.45227 36.7871C-10.12 39.8353 1.94083 47.7553 -9.25809 36.2176ZM14.18 51.2277C-3.43275 49.5235 4.72124 55.0176 -2.3509 44.6687C1.47718 38.4144 9.94473 37.4918 15.2098 42.1103C19.0557 45.4802 17.2636 45.2667 14.18 51.2277ZM-43.265 78.3008C-17.8222 45.2083 33.9044 45.3806 58.9326 79.1878C61.3593 82.4666 61.1245 79.9253 50.0742 83.9174C28.9321 56.5666 -13.5795 56.4029 -34.8985 83.7009C-46.2163 79.7302 -46.6116 82.6531 -43.265 78.3008ZM-32.1434 84.7402C-11.8899 59.6261 27.3494 59.8924 47.3324 84.9723C34.5672 90.2244 41.2663 91.2366 33.6161 84.9282C18.7496 72.6658 -2.9156 72.6687 -17.7405 84.2135C-26.5528 91.0729 -18.6411 90.1546 -32.1434 84.7402ZM-20.6235 90.7113C-5.49242 73.9799 21.3071 74.4725 35.924 91.0202C23.4277 99.2791 32.2044 98.1942 22.0085 92.0097C13.6346 86.9271 2.82206 86.5042 -6.1344 91.5028C-17.3408 97.7543 -7.62343 99.1538 -20.6235 90.7113ZM-9.2581 100.062C-12.9524 96.2551 0.3448 90.697 7.50313 90.697C17.3185 90.697 27.3375 97.666 25.0089 100.062C15.8429 109.508 22.6223 107.038 15.1742 102.481C12.2481 100.69 8.33087 99.8258 4.45226 100.634C-10.12 103.68 1.94082 111.603 -9.2581 100.062ZM-2.35091 108.516C1.46974 102.273 9.93432 101.328 15.2098 105.958C19.0557 109.328 17.2635 109.114 14.18 115.075C-3.43276 113.371 4.72123 118.865 -2.35091 108.516ZM-45.2132 144.836C-22.4201 111.571 26.7758 108.12 54.3852 137.568C63.2005 146.972 60.3116 144.473 52.6376 146.901C46.368 148.887 41.0271 129.191 11.0399 127.275C-4.82668 126.273 -19.766 132.057 -30.317 142.373C-37.9568 149.842 -30.9307 147.432 -45.2132 144.836ZM-31.0541 149.046C-34.1614 147.736 -15.669 128.622 10.2375 129.974C33.2342 131.167 48.4945 148.334 46.8049 149.046C30.7049 155.831 45.6844 154.385 27.0671 144.366C13.7981 137.225 -3.00032 137.682 -16.1281 146.899C-27.0878 154.594 -18.4479 154.358 -31.0541 149.046ZM-19.5119 155.315C-20.7661 154.463 -21.1376 154.865 -18.653 152.511C6.21621 128.968 38.7118 152.978 35.2627 155.315C26.113 161.526 29.5309 161.938 25.9525 158.766C15.9751 149.917 0.696984 149.422 -9.85253 157.812C-14.4965 161.506 -10.331 161.543 -19.5119 155.315ZM-9.25811 163.909C-10.6996 162.425 -11.7413 162.702 -7.42134 159.477C8.42002 147.656 28.2381 160.581 25.0089 163.909C15.8756 173.322 22.5955 170.873 15.1741 166.328C12.2838 164.56 8.37098 163.662 4.45225 164.482C-10.12 167.527 1.94081 175.446 -9.25811 163.909ZM-2.35092 172.362C1.4727 166.116 9.93728 165.177 15.2098 169.801C19.0498 173.168 17.268 172.951 14.18 178.921C-3.44912 177.215 4.72568 182.721 -2.35092 172.362ZM-36.8854 210.746C-45.0468 208.165 -48.1289 210.752 -39.376 201.414C-11.8126 172.025 37.4873 175.338 60.2982 208.797C48.8289 211.003 50.8811 212.579 49.4025 210.746C28.2886 184.659 -11.9211 184.683 -33.2906 209.353C-35.3874 211.776 -34.1169 211.623 -36.8854 210.746ZM-31.0541 212.891C-33.7245 211.767 -17.002 193.69 7.50312 193.691C32.7572 193.691 48.2107 212.301 46.8048 212.891C36.878 217.075 39.1948 218.116 37.3015 216.097C23.7071 201.603 0.732642 198.898 -16.1296 210.746C-27.0432 218.41 -18.4538 218.202 -31.0541 212.891ZM-19.5119 219.162C-22.8288 216.91 0.0223092 198.299 24.0726 209.814C27.3613 211.387 37.1797 217.864 35.2626 219.162C26.113 225.374 29.5309 225.785 25.9525 222.613C15.935 213.729 0.653877 213.303 -9.85254 221.659C-14.4965 225.354 -10.3311 225.391 -19.5119 219.162ZM-10.7145 226.29C-0.723695 215.476 16.632 215.977 26.0862 226.675C13.7713 238.785 24.8706 233.954 13.1457 229.119C9.70545 227.698 6.19835 227.657 2.72544 228.845C-9.82877 233.137 1.81449 238.406 -10.7145 226.29ZM-2.35093 236.209C2.3242 228.571 13.6494 229.126 17.7004 236.81C12.468 244.652 16.8014 242.447 7.50459 242.447C-1.0432 242.447 3.38376 244.599 -2.35093 236.209ZM-36.8854 274.594C-45.2207 271.957 -48.1467 274.617 -39.376 265.261C-11.7354 235.789 37.5482 239.282 60.2982 272.645C49.0978 274.8 50.8469 276.385 49.4025 274.594C28.3852 248.625 -11.8216 248.416 -33.2906 273.2C-35.3875 275.623 -34.1169 275.469 -36.8854 274.594ZM-31.0541 276.738C-33.894 275.542 -16.7612 257.538 7.5031 257.538C32.8092 257.538 48.1824 276.16 46.8048 276.738C36.8081 280.953 39.2096 281.98 37.3015 279.944C23.7085 265.454 0.734116 262.746 -16.1297 274.594C-27.0878 282.287 -18.4479 282.054 -31.0541 276.738ZM-19.5119 283.008C-22.8392 280.75 0.0861974 262.175 24.0726 273.66C27.3628 275.233 37.1796 281.709 35.2626 283.008C26.113 289.22 29.5309 289.631 25.9525 286.459C15.935 277.575 0.653866 277.149 -9.85255 285.505C-14.4935 289.198 -10.3325 289.239 -19.5119 283.008ZM-10.7145 290.138C-0.759371 279.363 16.6022 279.787 26.0862 290.522C13.7713 302.632 24.8706 297.802 13.1457 292.964C9.70543 291.546 6.19834 291.505 2.72543 292.692C-9.83175 296.984 1.84122 302.278 -10.7145 290.138ZM-2.35094 300.057C2.34054 292.387 13.6687 293.014 17.7004 300.658C12.468 308.496 16.8013 306.294 7.50458 306.294C-1.04321 306.294 3.38375 308.445 -2.35094 300.057ZM7.87608 390.64C6.7021 381.488 5.49096 383.135 7.50457 383.135C10.5673 383.134 9.10951 381.033 7.87608 390.64ZM7.50457 380.396C3.55017 380.396 7.27423 379.41 -0.699946 366.443C-5.11799 359.263 12.0638 353.813 17.7019 364.505C8.42592 378.399 12.7489 380.396 7.50457 380.396ZM25.0103 355.45C15.8443 364.896 22.6237 362.426 15.1756 357.866C12.2496 356.078 8.33231 355.211 4.4537 356.022C-10.1201 359.068 1.94078 366.986 -9.25814 355.45C-13.0416 351.552 1.12345 345.345 9.98034 346.205C16.8563 346.875 27.6496 352.728 25.0103 355.45ZM35.2626 346.855C26.113 353.067 29.5309 353.478 25.9525 350.306C15.8295 341.327 0.539428 341.082 -9.85257 349.352C-14.498 353.046 -10.3326 353.087 -19.5134 346.855C-22.8407 344.597 0.084701 326.022 24.0711 337.507C27.3613 339.08 37.1811 345.56 35.2626 346.855ZM46.8063 340.585C36.8096 344.801 39.2111 345.827 37.303 343.791C23.6357 329.221 0.647913 326.654 -16.1282 338.441C-27.0878 346.135 -18.4494 345.901 -31.0541 340.585C-33.894 339.389 -16.7612 321.385 7.50309 321.385C32.8106 321.384 48.1839 340.006 46.8063 340.585ZM49.401 338.441C28.3465 312.429 -11.8587 312.303 -33.2921 337.047C-35.389 339.466 -34.1169 339.317 -36.8869 338.441C-45.191 335.813 -48.1423 338.455 -39.3775 329.109C-11.78 299.678 37.5274 303.082 60.2967 336.492C49.0963 338.643 50.8454 340.232 49.401 338.441ZM83.1627 334.848C81.3274 337.52 80.1118 333.608 63.5913 335.945C59.5804 336.505 63.0846 321.767 75.1751 323.741C80.6498 324.634 86.2997 330.271 83.1627 334.848ZM74.3771 320.925C72.0024 320.745 69.8848 321.126 68.1922 321.743C52.5678 327.437 67.9871 337.025 52.1071 323.005C61.3548 307.508 84.518 307.245 94.1253 322.583C77.6791 336.822 93.5591 322.385 74.3771 320.925ZM138.622 390.64C137.447 381.488 136.237 383.135 138.251 383.135C141.315 383.134 139.856 381.033 138.622 390.64ZM138.251 380.396C134.295 380.396 138.012 379.398 130.045 366.443C125.578 359.182 142.834 353.863 148.447 364.505C139.171 378.402 143.497 380.396 138.251 380.396ZM155.757 355.45C146.611 364.876 153.357 362.419 145.92 357.866C142.997 356.078 139.079 355.211 135.201 356.022C120.628 359.068 132.688 366.986 121.49 355.45C117.705 351.552 131.871 345.345 140.727 346.205C147.601 346.875 158.394 352.728 155.757 355.45ZM166.01 346.855C156.859 353.067 160.277 353.478 156.699 350.306C146.683 341.422 131.399 340.997 120.894 349.352C116.25 353.048 120.414 353.087 111.234 346.855C107.934 344.617 130.757 325.987 154.817 337.507C158.109 339.08 167.926 345.557 166.01 346.855ZM177.553 340.585C167.562 344.798 169.954 345.825 168.048 343.791C154.498 329.344 131.534 326.559 114.618 338.441C103.658 346.135 112.295 345.899 99.6906 340.585C97.0142 339.459 113.765 321.385 138.249 321.385C163.538 321.384 178.912 340.014 177.553 340.585ZM180.149 338.441C159.133 312.476 118.916 312.258 97.4556 337.047C95.3573 339.469 96.6338 339.317 93.8623 338.441C85.6845 335.856 82.6173 338.444 91.3702 329.109C119.122 299.506 168.39 303.26 191.044 336.492C179.838 338.646 181.593 340.232 180.149 338.441ZM213.907 334.848C212.085 337.5 210.886 333.605 194.338 335.945C190.325 336.502 193.829 321.767 205.921 323.741C211.393 324.634 217.047 330.271 213.907 334.848ZM205.123 320.925C202.755 320.745 200.634 321.126 198.937 321.743C183.308 327.437 198.741 337.027 182.853 323.005C192.098 307.511 215.266 307.245 224.87 322.583C208.425 336.82 224.304 322.385 205.123 320.925ZM269.37 390.64C268.195 381.488 266.983 383.136 268.998 383.136C272.06 383.134 270.6 381.036 269.37 390.64ZM268.998 380.396C265.043 380.396 268.758 379.398 260.792 366.443C256.357 359.233 273.559 353.816 279.196 364.505C269.915 378.402 274.243 380.396 268.998 380.396ZM286.503 355.45C277.337 364.896 284.118 362.426 276.667 357.866C273.743 356.078 269.825 355.211 265.948 356.023C251.374 359.068 263.433 366.986 252.236 355.45C248.451 351.552 262.617 345.345 271.473 346.205C278.35 346.875 289.14 352.728 286.503 355.45ZM296.757 346.855C287.605 353.067 291.022 353.478 287.445 350.306C277.429 341.422 262.145 340.997 251.64 349.352C246.994 353.048 251.158 353.087 241.98 346.855C238.686 344.623 261.534 326.004 285.564 337.507C288.854 339.08 298.675 345.56 296.757 346.855ZM308.3 340.585C298.303 344.801 300.705 345.827 298.797 343.791C285.152 329.246 262.166 326.634 245.366 338.441C234.405 346.135 243.043 345.899 230.438 340.585C227.609 339.395 244.713 321.385 268.997 321.385C294.305 321.384 309.676 340.006 308.3 340.585ZM310.895 338.441C289.745 312.311 249.522 312.417 228.202 337.047C226.103 339.469 227.38 339.317 224.607 338.441C216.353 335.83 213.359 338.447 222.115 329.109C249.589 299.792 298.92 302.945 321.791 336.492C310.584 338.646 312.338 340.232 310.895 338.441ZM344.654 334.848C342.82 337.52 341.606 333.608 325.085 335.945C321.071 336.505 324.577 321.767 336.669 323.741C342.142 324.634 347.794 330.271 344.654 334.848ZM335.871 320.925C333.493 320.745 331.373 321.129 329.683 321.743C314.059 327.437 329.479 337.025 313.601 323.005C322.855 307.497 346.018 307.255 355.616 322.583C339.173 336.822 355.053 322.385 335.871 320.925ZM400.116 390.64C398.941 381.488 397.728 383.136 399.742 383.136C402.807 383.134 401.35 381.033 400.116 390.64ZM399.742 380.396C395.789 380.396 399.513 379.41 391.537 366.443C387.119 359.263 404.302 353.813 409.939 364.505C400.665 378.399 404.986 380.396 399.742 380.396ZM417.249 355.45C408.083 364.896 414.864 362.426 407.413 357.866C404.487 356.078 400.569 355.211 396.694 356.023C382.12 359.068 394.178 366.986 382.979 355.45C379.197 351.552 393.364 345.345 402.219 346.205C409.079 346.872 419.894 352.725 417.249 355.45ZM427.504 346.855C418.353 353.067 421.77 353.478 418.193 350.306C408.046 341.306 392.753 341.105 382.388 349.352C377.741 353.046 381.906 353.087 372.728 346.855C369.419 344.614 392.242 325.984 416.311 337.507C419.6 339.08 429.42 345.557 427.504 346.855ZM439.046 340.585C429.111 344.772 431.436 345.813 429.542 343.792C415.874 329.218 392.884 326.657 376.113 338.441C365.151 346.135 373.791 345.901 361.186 340.585C358.516 339.462 375.234 321.385 399.742 321.385C424.999 321.384 440.452 339.996 439.046 340.585ZM441.638 338.441C420.624 312.473 380.417 312.261 358.947 337.047C356.851 339.466 358.122 339.317 355.35 338.441C347.046 335.813 344.098 338.455 352.86 329.109C380.531 299.6 429.83 303.173 452.535 336.492C441.333 338.646 443.084 340.232 441.638 338.441ZM475.4 334.848C473.579 337.5 472.367 333.605 455.831 335.946C451.818 336.502 455.323 321.767 467.412 323.741C472.89 324.634 478.54 330.273 475.4 334.848ZM466.617 320.925C464.245 320.745 462.125 321.126 460.429 321.743C444.802 327.437 460.235 337.027 444.344 323.005C453.586 307.52 476.751 307.237 486.362 322.583C469.927 336.814 485.784 322.385 466.617 320.925ZM530.862 390.64C529.687 381.488 528.474 383.136 530.488 383.136C533.554 383.134 532.097 381.033 530.862 390.64ZM530.489 380.396C526.537 380.396 530.252 379.398 522.285 366.443C517.827 359.19 535.071 353.854 540.687 364.505C530.904 379.145 535.966 380.396 530.489 380.396ZM547.997 355.45C538.86 364.862 545.582 362.411 538.16 357.866C535.276 356.104 531.366 355.2 527.442 356.023C512.868 359.065 524.926 366.986 513.727 355.45C509.945 351.552 524.111 345.345 532.967 346.205C539.843 346.875 550.634 352.728 547.997 355.45ZM558.247 346.855C549.099 353.067 552.516 353.478 548.939 350.306C538.923 341.422 523.636 340.997 513.134 349.353C508.487 353.046 512.652 353.087 503.474 346.855C500.134 344.592 523.083 326.022 547.057 337.507C550.359 339.083 560.163 345.557 558.247 346.855ZM569.791 340.585C559.858 344.772 562.184 345.81 560.288 343.792C546.722 329.327 523.755 326.573 506.857 338.441C495.897 346.135 504.537 345.899 491.932 340.585C489.277 339.468 505.968 321.385 530.488 321.385C555.729 321.384 571.201 339.993 569.791 340.585ZM606.148 334.848C604.391 337.403 602.345 333.713 586.576 335.946C582.55 336.505 586.062 321.767 598.16 323.742C603.63 324.634 609.282 330.271 606.148 334.848ZM597.362 320.925C594.984 320.745 592.864 321.129 591.174 321.743C575.55 327.437 590.979 337.025 575.092 323.005C584.337 307.511 607.504 307.245 617.107 322.583C600.707 336.793 616.477 322.382 597.362 320.925ZM619.298 320.767C611.627 309.016 595.724 304.984 583.044 311.753C567.623 319.974 579.494 324.599 566.009 316.293C560.205 312.714 598.142 281.917 624.493 311.36C629.285 316.713 628.003 313.868 619.298 320.767ZM557.614 303.944C577.444 280.931 614.355 280.714 634.488 303.562C641.106 311.054 639.336 309.7 634.79 311.614C627.025 314.888 632.555 314.782 624.043 306.915C609.879 293.827 588.162 292.622 572.603 303.562C557.405 314.226 567.544 316.089 556.932 311.614C553.104 310.003 551.244 311.313 557.614 303.944ZM583.282 336.492C571.855 338.689 573.863 340.271 572.386 338.441C551.465 312.59 511.254 312.141 489.694 337.047C487.596 339.469 488.869 339.317 486.098 338.441C477.76 335.802 474.84 338.461 483.607 329.109C511.266 299.603 560.561 303.162 583.282 336.492ZM530.489 306.294C521.945 306.294 526.372 308.447 520.635 300.057C525.306 292.427 536.625 292.964 540.685 300.658C535.454 308.485 539.806 306.294 530.489 306.294ZM536.13 292.963C532.619 291.516 529.112 291.527 525.71 292.691C513.155 296.984 524.799 302.254 512.269 290.138C522.233 279.352 539.602 279.799 549.07 290.522C536.758 302.637 547.842 297.796 536.13 292.963ZM558.247 283.008C549.099 289.22 552.516 289.631 548.939 286.459C538.923 277.572 523.639 277.149 513.134 285.505C508.487 289.201 512.652 289.24 503.474 283.008C500.134 280.744 523.083 262.175 547.057 273.66C550.129 275.128 560.144 281.73 558.247 283.008ZM569.791 276.738C559.858 280.925 562.184 281.966 560.288 279.944C546.649 265.401 523.67 262.784 506.857 274.594C495.897 282.288 504.537 282.051 491.932 276.738C489.1 275.548 506.201 257.538 530.488 257.538C555.735 257.538 571.204 276.146 569.791 276.738ZM606.148 271.002C604.391 273.56 602.345 269.867 586.576 272.1C582.55 272.659 586.062 257.921 598.16 259.896C603.63 260.788 609.282 266.425 606.148 271.002ZM597.362 257.078C594.99 256.897 592.873 257.279 591.174 257.895C575.55 263.59 590.979 273.177 575.092 259.158C584.337 243.664 607.504 243.398 617.107 258.735C600.588 273.045 616.556 258.552 597.362 257.078ZM619.298 256.92C611.627 245.169 595.724 241.137 583.044 247.905C566.529 256.716 579.758 260.916 566.009 252.445C560.208 248.869 598.148 218.076 624.493 247.512C629.285 252.868 628.003 250.021 619.298 256.92ZM557.614 240.1C577.545 216.968 614.453 216.982 634.488 239.716C641.109 247.208 639.336 245.854 634.79 247.769C627.025 251.042 632.555 250.936 624.043 243.069C609.73 229.841 587.997 228.893 572.603 239.716C557.405 250.38 567.544 252.243 556.932 247.769C553.104 246.155 551.244 247.465 557.614 240.1ZM583.282 272.645C571.855 274.844 573.863 276.426 572.386 274.594C551.465 248.742 511.254 248.294 489.694 273.203C487.596 275.622 488.869 275.469 486.098 274.594C477.76 271.954 474.84 274.614 483.607 265.262C511.095 235.938 560.419 239.107 583.282 272.645ZM530.489 242.447C521.942 242.447 526.372 244.602 520.635 236.209C525.337 228.521 536.668 229.193 540.685 236.81C535.454 244.635 539.806 242.447 530.489 242.447ZM536.131 229.119C532.619 227.67 529.112 227.681 525.71 228.845C513.152 233.141 524.831 238.429 512.269 226.292C522.27 215.469 539.627 215.987 549.07 226.676C536.758 238.791 547.842 233.951 536.131 229.119ZM558.247 219.162C548.974 225.458 552.532 225.799 548.939 222.613C538.923 213.726 523.639 213.306 513.134 221.659C508.487 225.355 512.652 225.394 503.474 219.162C500.134 216.898 523.083 198.329 547.057 209.814C550.129 211.28 560.141 217.876 558.247 219.162ZM569.791 212.891C559.858 217.078 562.184 218.118 560.288 216.097C546.682 201.588 523.694 198.913 506.857 210.747C495.94 218.41 504.532 218.201 491.932 212.891C489.262 211.767 505.983 193.691 530.488 193.691C555.804 193.691 571.184 212.307 569.791 212.891ZM606.148 207.155C604.746 209.196 607.073 207.569 596.236 207.569C584.803 207.569 587.09 209.363 585.578 207.155C582.565 202.758 591.713 192.164 601.565 197.183C604.841 198.849 608.907 203.123 606.148 207.155ZM600.481 193.807C598.429 193.192 596.705 193.004 594.342 193.306C575.94 195.67 591.272 209.598 575.09 195.311C584.329 179.825 607.506 179.553 617.106 194.888C601.385 208.511 616.462 198.607 600.481 193.807ZM623.248 190.195C615.646 195.353 622.858 192.9 611.783 185.479C602.458 179.227 589.617 178.988 579.847 186.077C569.29 193.746 576.826 195.862 568.473 190.195C565.098 187.902 562.428 188.564 570.429 181.175C584.436 168.245 606.593 167.734 621.219 180.46C630.177 188.255 627.097 187.584 623.248 190.195ZM557.614 176.253C577.377 153.316 614.239 152.949 634.488 175.869C641.106 183.363 639.336 182.006 634.79 183.924C627.025 187.194 632.558 187.092 624.043 179.222C609.937 166.186 588.241 164.891 572.603 175.869C557.38 186.561 567.55 188.402 556.932 183.924C553.104 182.312 551.244 183.619 557.614 176.253ZM583.285 208.798C572.084 210.947 573.832 212.538 572.386 210.747C551.416 184.837 511.196 184.516 489.694 209.356C487.596 211.774 488.869 211.622 486.098 210.747C477.812 208.124 474.846 210.761 483.607 201.414C511.098 172.087 560.422 175.265 583.285 208.798ZM530.489 178.599C522.792 178.599 525.584 180.265 522.285 174.903C517.821 167.637 535.072 162.321 540.687 172.966C535.454 180.79 539.806 178.599 530.489 178.599ZM547.997 163.91C538.86 173.322 545.582 170.87 538.16 166.328C535.261 164.555 531.345 163.665 527.442 164.482C512.868 167.527 524.926 175.446 513.727 163.91C509.945 160.011 524.111 153.804 532.967 154.664C539.84 155.333 550.631 161.187 547.997 163.91ZM558.247 155.315C549.099 161.526 552.516 161.938 548.939 158.766C538.923 149.882 523.636 149.459 513.134 157.812C508.487 161.508 512.652 161.546 503.474 155.315C500.146 153.06 523.013 134.449 547.057 145.967C550.36 147.546 560.163 154.016 558.247 155.315ZM569.791 149.046C559.858 153.233 562.184 154.271 560.288 152.252C546.725 137.787 523.752 135.031 506.857 146.899C495.94 154.566 504.532 154.357 491.932 149.046C489.21 147.897 506.068 129.843 530.488 129.843C555.787 129.843 571.172 148.465 569.791 149.046ZM606.148 143.307C604.746 145.349 607.07 143.721 596.236 143.721C584.765 143.721 587.093 145.521 585.578 143.307C582.451 138.744 591.844 128.388 601.565 133.336C604.841 135.001 608.907 139.275 606.148 143.307ZM600.481 129.96C598.469 129.356 596.745 129.151 594.342 129.459C575.932 131.822 591.286 145.759 575.09 131.466C584.338 115.966 607.51 115.714 617.106 131.041C601.385 144.658 616.462 134.759 600.481 129.96ZM623.248 126.348C615.646 131.506 622.858 129.053 611.783 121.631C602.468 115.388 589.623 115.134 579.847 122.232C569.29 129.899 576.826 132.014 568.473 126.348C565.098 124.057 562.428 124.716 570.429 117.327C584.534 104.308 606.686 103.969 621.219 116.613C630.177 124.408 627.097 123.737 623.248 126.348ZM634.49 112.023C641.107 119.517 639.337 118.16 634.791 120.078C625.37 124.049 634.274 122.147 619.864 112.023C603.596 100.595 581.418 102.675 567.651 116.093C558.683 124.839 567.018 123.468 553.131 118.593C570.979 89.7746 612.524 87.1265 634.49 112.023ZM583.282 144.953C571.98 147.121 573.845 148.71 572.386 146.899C551.358 120.858 511.089 120.791 489.694 145.508C487.602 147.924 488.864 147.775 486.098 146.899C477.846 144.288 474.854 146.905 483.607 137.567C511.098 108.24 560.422 111.419 583.282 144.953ZM520.635 108.516C524.463 102.262 532.93 101.339 538.195 105.958C542.032 109.319 540.256 109.1 537.165 115.075C519.558 113.371 527.708 118.859 520.635 108.516ZM547.997 100.062C538.86 109.474 545.582 107.023 538.16 102.481C535.226 100.684 531.305 99.8287 527.442 100.635C512.865 103.68 524.926 111.601 513.727 100.062C510.032 96.2581 523.331 90.6971 530.488 90.6971C540.329 90.6971 550.309 97.6733 547.997 100.062ZM544.995 92.0098C536.639 86.9371 525.828 86.4958 516.85 91.5044C505.656 97.7501 515.402 99.1795 502.361 90.7113C517.475 74.0085 544.255 74.4441 558.91 91.0203C546.404 99.2835 555.192 98.1943 544.995 92.0098ZM556.599 84.9268C541.736 72.6617 520.066 72.6702 505.243 84.2121C496.445 91.0616 504.326 90.1518 490.842 84.7403C511.104 59.6248 550.327 59.8953 570.316 84.971C557.551 90.2244 564.25 91.2367 556.599 84.9268ZM606.148 79.4613C604.754 81.4915 606.972 79.8756 596.236 79.8756C584.759 79.8756 587.096 81.678 585.578 79.4613C582.553 75.0478 591.722 64.4825 601.565 69.4896C604.841 71.1568 608.907 75.4279 606.148 79.4613ZM609.726 74.7332C605.186 62.0594 586.399 62.5064 582.53 75.3838C575.137 66.2664 572.916 68.6909 578.797 62.9008C587.954 53.8773 602.911 53.3748 612.698 62.0081C619.66 68.1514 616.855 66.1767 609.726 74.7332ZM619.298 65.3794C608.53 48.8901 583.42 49.0239 572.913 65.7852C564.107 58.6667 563.385 61.5055 567 57.1148C581.556 39.4325 609.173 38.8544 624.493 55.9716C629.285 61.3276 628.003 58.4802 619.298 65.3794ZM634.49 48.1783C641.107 55.6698 639.337 54.313 634.791 56.2307C625.37 60.2014 634.274 58.3022 619.864 48.1783C603.596 36.7474 581.418 38.8274 567.651 52.2458C558.683 60.9944 567.018 59.6234 553.131 54.7458C570.982 25.9187 612.53 23.2848 634.49 48.1783ZM581.917 79.1879C584.356 82.4824 584.094 79.9297 573.059 83.9174C551.956 56.534 509.379 56.4357 488.086 83.701C476.767 79.7275 476.375 82.6503 479.718 78.3009C505.215 45.1472 556.941 45.4504 581.917 79.1879ZM520.635 44.6688C524.464 38.4145 532.93 37.4919 538.195 42.1104C542.032 45.4718 540.256 45.2554 537.165 51.2278C519.558 49.5236 527.708 55.0134 520.635 44.6688ZM547.997 36.2177C538.86 45.627 545.582 43.1754 538.16 38.6337C535.226 36.837 531.305 35.9814 527.442 36.7872C512.865 39.8325 524.926 47.754 513.727 36.2177C510.032 32.4107 523.331 26.8498 530.488 26.8498C540.156 26.8498 550.388 33.749 547.997 36.2177ZM544.995 28.1624C536.618 23.0798 525.807 22.6598 516.85 27.657C505.647 33.9085 515.361 35.3065 502.361 26.864C517.475 10.1611 544.255 10.5968 558.91 27.1729C546.404 35.4375 555.192 34.347 544.995 28.1624ZM556.6 21.0809C541.736 8.81572 520.066 8.82426 505.243 20.3662C496.445 27.2156 504.326 26.3059 490.842 20.8944C511.104 -4.22113 550.327 -3.95061 570.316 21.1251C557.554 26.3771 564.25 27.3893 556.6 21.0809ZM606.148 15.6139C604.746 17.6583 607.07 16.0282 596.236 16.0282C584.759 16.0282 587.096 17.8306 585.578 15.6139C582.441 11.0396 591.856 0.703472 601.565 5.6423C604.841 7.31088 608.907 11.5848 606.148 15.6139ZM609.726 10.8858C605.189 -1.78516 586.399 -1.34381 582.53 11.5393C575.137 2.42188 572.916 4.8436 578.797 -0.946599C587.954 -9.97002 602.911 -10.4726 612.698 -1.83926C619.663 4.30687 616.849 2.33646 609.726 10.8858ZM619.298 1.53207C608.558 -14.916 583.441 -14.8548 572.913 1.93782C564.082 -5.20348 563.379 -2.33044 567 -6.73253C581.519 -24.3679 609.198 -24.963 624.493 -7.87575C629.285 -2.51978 628.003 -5.36434 619.298 1.53207ZM634.146 -16.0336C641.266 -8.13629 639.252 -9.49877 634.791 -7.61664C627.027 -4.34355 632.559 -4.44605 624.044 -12.3191C607.91 -27.2296 582.849 -26.4166 567.653 -11.6016C558.684 -2.85294 567.02 -4.22396 553.133 -9.10157C570.675 -37.4332 611.699 -40.9256 634.146 -16.0336ZM581.917 15.3406C584.356 18.635 584.095 16.0823 573.059 20.0701C551.871 -7.34188 509.359 -7.38317 488.086 19.8537C476.767 15.883 476.375 18.803 479.718 14.4536C505.16 -18.6304 556.892 -18.4638 581.917 15.3406ZM520.635 -19.1785C525.267 -26.7441 536.579 -26.3668 540.685 -18.5749C539.406 -16.6557 538.227 -14.6711 537.165 -12.6181C519.68 -14.3123 527.662 -8.89798 520.635 -19.1785ZM542.479 -21.1247C536.967 -29.227 524.795 -29.5331 518.873 -21.6287C516.87 -24.2754 514.667 -26.7754 512.27 -29.0946C522.136 -39.7752 539.443 -39.6087 549.071 -28.7102C546.673 -26.3526 544.47 -23.817 542.479 -21.1247ZM551.11 -30.6294C540.376 -42.5856 521.249 -42.8334 510.212 -30.9939C507.76 -33.1707 505.139 -35.1781 502.361 -36.9834C517.432 -53.645 544.139 -53.3915 558.91 -36.6744C556.149 -34.8507 553.546 -32.8262 551.11 -30.6294ZM561.325 -38.1949C545.399 -56.5422 516.155 -56.7942 499.927 -38.484C497.04 -40.1881 494.004 -41.6844 490.843 -42.953C511.027 -67.9702 550.181 -67.993 570.317 -42.7223C567.185 -41.4353 564.186 -39.9133 561.325 -38.1949ZM573.059 -43.7758C551.859 -71.212 509.463 -71.3515 488.086 -43.9923C484.767 -45.1568 481.314 -46.058 477.772 -46.7001C502.745 -83.1526 558.341 -83.1711 583.282 -46.5862C579.767 -45.9114 576.354 -44.9661 573.059 -43.7758Z" fill="#EDEDED" fill-opacity="0.1"/>
</g>
</svg>
