<svg width="104" height="50" viewBox="0 0 104 50" fill="none" xmlns="http://www.w3.org/2000/svg">
<path d="M81.7039 0.0529105C81.2651 0.162619 80.8554 0.41129 80.7091 0.638021C80.5994 0.820868 80.5701 1.20119 80.497 3.65135C80.4458 5.19458 80.4092 6.90604 80.4092 7.45458C80.4092 8.42001 80.4019 8.4639 80.241 8.56629C79.9118 8.78571 77.9002 9.59755 74.8646 10.7312C73.1602 11.3675 71.6899 11.9453 71.5875 12.0111C71.3242 12.1794 71.2218 12.4427 71.3242 12.6694C71.4339 12.9107 72.0118 13.1887 72.6262 13.2984C73.7893 13.5032 76.4958 13.2252 78.9097 12.6621C79.5168 12.5231 80.1093 12.3841 80.2337 12.3622L80.4604 12.3256L80.5116 13.4739L80.5555 14.6149L80.1239 15.2878C79.8899 15.6608 79.4071 16.4214 79.056 16.9846C77.8124 18.9886 75.9398 21.4534 74.2647 23.3111C73.8039 23.8158 72.7359 24.9202 71.8801 25.7686C71.0316 26.6097 70.2635 27.4215 70.1757 27.5605C69.2102 29.1403 73.1675 30.1642 76.1081 29.0891C77.198 28.6868 78.5293 27.7945 80.0362 26.4268C80.3361 26.1635 80.5921 25.9587 80.6067 25.9734C80.6287 25.9953 80.5994 27.5824 80.5482 29.506C80.4312 34.1357 80.5116 36.4103 80.9944 41.8884C81.1553 43.7096 81.287 45.9769 81.287 46.9496V47.5786L81.0529 47.6591C80.5043 47.8492 80.4238 48.1418 80.8042 48.588C81.8429 49.8021 85.0103 49.7509 86.5391 48.4929C87.0145 48.1052 87.5485 47.3519 87.9801 46.4596C89.1358 44.0826 89.4211 41.1058 89.187 33.7334C89.0993 30.8079 88.953 22.6455 88.9895 22.609C89.0042 22.587 89.2748 22.6967 89.5967 22.843C93.3053 24.5398 96.9554 25.5492 99.6839 25.6296C100.737 25.6589 101.037 25.6442 101.637 25.5199C103.239 25.1908 104.183 24.4155 103.97 23.6183C103.795 22.982 103.136 22.4115 101.878 21.8045C101.001 21.3876 100.876 21.3364 97.3065 20.1149C94.6 19.1934 90.7671 17.9647 89.465 17.6063L88.6238 17.3722L88.536 16.5238C88.3824 15.083 88.1776 13.4959 87.8631 11.426C87.7021 10.3436 87.5924 9.44396 87.629 9.43664C87.8338 9.36351 89.882 8.02506 90.6134 7.48383C92.9249 5.76507 93.4882 4.58753 92.3105 3.90002C91.7692 3.57821 91.1694 3.4685 90.1746 3.51239C89.0993 3.54896 88.9237 3.61478 87.7168 4.37543C87.2047 4.69724 86.7512 4.94591 86.7146 4.92397C86.6707 4.90203 86.6195 4.75575 86.5903 4.60947C86.4952 4.07555 85.9758 2.6274 85.6613 1.98378C85.259 1.15731 84.5129 0.360093 83.9569 0.162617C83.5327 0.0163392 82.1355 -0.056798 81.7039 0.0529105Z" fill="#EDEDED"/>
<path d="M59.3205 3.56348C58.9328 3.66587 58.4793 3.90723 58.3988 4.06814C58.1501 4.52891 58.0111 5.88199 57.9599 8.35408L57.9161 10.5483L57.4406 10.7823C56.9944 11.0017 55.5753 11.6161 52.5762 12.896C51.852 13.2032 51.1718 13.5177 51.062 13.5981C50.1623 14.2345 51.6106 15.0463 53.6295 15.0463C54.6536 15.0463 56.6213 14.7464 57.7917 14.4173L57.9526 14.3734V15.6095V16.8528L57.4113 17.1234C56.7384 17.4526 56.614 17.6135 55.6484 19.4346C54.8146 21.0071 53.8197 22.6162 53.0663 23.6036C52.781 23.9839 52.2982 24.6202 51.9983 25.0151C51.2888 25.944 51.1132 26.2951 51.2303 26.5584C51.5009 27.1435 53.0444 27.4434 54.2879 27.1508C55.173 26.9387 56.4677 26.1049 57.7405 24.9274L58.2964 24.4154L58.3403 25.0517C58.3696 25.4028 58.4208 26.7412 58.4647 28.0285C58.6256 33.0092 58.6914 34.6183 58.8304 36.8783C58.9109 38.1655 58.9987 39.365 59.0206 39.5479L59.0645 39.877L58.6987 40.0086C58.1794 40.1915 58.1574 40.3158 58.5744 40.9741C58.9767 41.625 59.2912 41.8371 60.0813 42.0053C60.9956 42.2028 62.2684 42.0126 63.0218 41.5738C64.2946 40.8278 65.1358 38.9262 65.443 36.1103C65.6625 34.1063 65.7283 32.2705 65.6771 29.2718C65.6552 27.6628 65.6113 26.0025 65.5893 25.5929L65.5381 24.8323L65.9697 24.8981C66.2111 24.9274 66.928 24.9566 67.5717 24.9566C68.5811 24.9566 68.8152 24.9347 69.2687 24.7884C69.9417 24.5763 70.4025 24.2399 70.4903 23.8815C70.6512 23.2306 70.066 22.6747 68.3032 21.8117C67.6229 21.4752 66.6427 21.0437 66.138 20.8608L65.2163 20.5171L65.1285 19.4785C64.9017 16.787 64.6018 13.6128 64.4994 12.8594C64.3751 11.916 64.3604 11.5356 64.4482 11.5356C64.5579 11.5356 66.5256 10.2191 67.1328 9.74372C68.1934 8.90994 68.9981 7.98107 68.9981 7.59344C68.9981 7.18386 68.5884 6.87668 67.8423 6.71577C66.928 6.52561 66.0941 6.65726 64.7481 7.22043C63.6728 7.66658 63.5119 7.71777 63.5119 7.5715C63.5119 7.38133 62.8609 5.46509 62.6268 4.98238C62.1294 3.93649 61.5369 3.56348 60.2934 3.5196C59.913 3.50497 59.4741 3.52691 59.3205 3.56348Z" fill="#EDEDED"/>
<path d="M33.1144 1.6985C32.3829 1.83746 31.7684 2.10076 30.3932 2.83946C29.0107 3.58548 27.8989 4.09014 26.4286 4.646C24.9802 5.19454 24.4024 5.37007 22.1421 5.94787C20.2329 6.43059 19.6477 6.65001 19.3478 6.97182C18.887 7.46916 19.2893 7.908 20.4304 8.14204C21.1765 8.29563 23.3856 8.35414 24.6072 8.25175C27.2478 8.03233 29.9909 7.32288 32.4048 6.23311C34.5846 5.26036 36.2305 3.97312 36.5158 3.02231C36.5889 2.78095 36.5816 2.70781 36.4572 2.47377C36.0988 1.8082 34.5042 1.43519 33.1144 1.6985Z" fill="#EDEDED"/>
<path d="M2.80889 1.76429C1.83601 1.94713 1.01675 2.31283 0.687581 2.70047C0.394987 3.05885 0.446191 3.29289 1.03138 4.1925C2.34074 6.19651 3.97195 7.28628 6.63456 7.95916C8.16337 8.3468 9.363 8.31754 10.2774 7.87871C10.9942 7.53495 11.3819 6.86207 11.3161 6.07217C11.1771 4.32415 8.98263 2.49568 6.29076 1.87399C5.4715 1.68383 3.54769 1.62532 2.80889 1.76429Z" fill="#EDEDED"/>
<path d="M30.2542 8.8736C29.7714 9.02719 29.5666 9.16615 29.413 9.48065C29.04 10.1974 28.8937 11.2872 28.7401 14.3151C28.6376 16.2387 28.623 18.9595 28.6596 26.3465C28.6888 31.1079 28.623 33.4776 28.4109 35.4157C28.2719 36.703 28.0963 37.7196 28.0012 37.7196C27.7672 37.7196 26.4139 36.6372 25.2289 35.4962C24.2487 34.5527 24.0439 34.4503 23.0637 34.3772C21.8933 34.2894 20.7742 34.699 20.7742 35.2036C20.7742 35.4084 21.3374 36.7908 21.747 37.6099C22.4712 39.0654 23.5904 40.3673 24.8412 41.2157C26.1286 42.0933 27.6282 42.4883 29.6983 42.4883C31.4246 42.4883 32.712 42.225 33.8092 41.6618C35.1259 40.9743 35.8208 39.9869 36.3036 38.1219C36.8083 36.1764 36.9985 33.5361 36.8742 30.2229C36.7059 25.7833 36.3475 22.9236 35.3966 18.3378C34.6212 14.6223 34.2262 13.0937 33.5971 11.3896C32.99 9.72201 32.7632 9.25392 32.4926 9.07839C32.0171 8.76389 30.9345 8.66881 30.2542 8.8736Z" fill="#EDEDED"/>
<path d="M23.8391 13.2546C22.559 13.496 20.7303 14.2347 19.6623 14.9515C18.9381 15.4269 18.1115 16.2314 17.914 16.6337C17.7751 16.9116 17.7677 16.9994 17.8336 17.2334C17.8775 17.3797 18.0457 17.6284 18.2066 17.7819L18.4919 18.0599L18.2213 18.3305C18.075 18.4768 17.914 18.7401 17.8628 18.9083C17.7385 19.3179 17.8701 19.8518 18.3602 20.8977C18.5504 21.3219 18.9162 22.1191 19.1576 22.6749C19.4063 23.2308 19.7208 23.8671 19.8598 24.0865C20.0427 24.3718 20.1085 24.5327 20.0719 24.6643C20.0061 24.9349 20.0939 25.1032 20.3718 25.2348C20.7815 25.4323 21.352 25.4689 21.8129 25.3299C22.164 25.2275 22.3322 25.1105 23.0491 24.423C24.5998 22.9382 26.0774 21.1975 26.8089 19.9907C27.7086 18.4914 28.2353 16.8458 28.2353 15.5219C28.2353 14.5419 28.1548 14.2786 27.7233 13.8617C27.2039 13.3643 26.6626 13.2034 25.3825 13.1742C24.7388 13.1596 24.2048 13.1888 23.8391 13.2546ZM24.139 15.6755C24.139 16.012 23.861 17.248 23.5538 18.2573C23.0125 20.0639 22.5078 21.6291 22.4566 21.6291C22.4346 21.6291 22.281 21.4243 22.1128 21.1683C21.9445 20.9196 21.5056 20.3638 21.1399 19.9469C20.5328 19.252 20.189 18.7547 20.189 18.5718C20.189 18.5353 20.2914 18.4621 20.4084 18.4109C20.6717 18.3012 20.7888 18.1184 20.6937 17.9648C20.4742 17.6137 20.7741 17.2992 22.0981 16.5093C22.8589 16.0486 23.9415 15.4927 24.0878 15.4854C24.117 15.4854 24.139 15.5731 24.139 15.6755Z" fill="#EDEDED"/>
<path d="M1.60927 16.8458C0.775375 17.0067 0 17.4675 0 17.8112C0 18.0892 0.358428 18.3963 1.11917 18.762C2.904 19.6251 4.81318 20.02 7.21245 20.02C8.68274 20.02 9.3045 19.9323 9.64098 19.6763C10.3432 19.1497 9.91163 18.8205 7.20514 17.8405C4.85707 16.9921 4.31577 16.8604 2.92594 16.8385C2.30418 16.8238 1.71168 16.8312 1.60927 16.8458Z" fill="#EDEDED"/>
<path d="M9.88969 24.5252C9.67756 24.5764 9.41422 24.6715 9.29719 24.7373C9.09968 24.8397 6.598 27.8677 2.74307 32.6729C0.307225 35.7155 0.146299 35.9861 0.548616 36.4688C0.833895 36.7979 1.38251 37.0539 2.15788 37.2148C3.6428 37.522 5.10577 37.2733 6.38587 36.4981C6.98569 36.1324 7.99514 35.1596 8.66079 34.2893C10.4456 31.9634 12.3914 28.2553 13.0936 25.849L13.2618 25.2785L13.1155 25.0811C12.7791 24.6349 12.0622 24.4082 10.9723 24.4155C10.5919 24.4155 10.1018 24.4667 9.88969 24.5252Z" fill="#EDEDED"/>
</svg>
