<svg width="500" height="661" viewBox="0 0 500 661" fill="none" xmlns="http://www.w3.org/2000/svg">
<path d="M22.6631 660.718L22.6631 653.789L15.1383 653.789L15.1383 660.718L22.6631 660.718Z" fill="#BC9F77"/>
<path d="M15.1367 653.789L15.1367 646.861L7.61192 646.861L7.61192 653.789L15.1367 653.789Z" fill="#CEA97F"/>
<path d="M7.52441 660.718L7.52441 653.789L-0.000387192 653.789L-0.000387489 660.718L7.52441 660.718Z" fill="#BC9F77"/>
<path d="M7.52441 646.779L7.52441 639.85L-0.000387192 639.85L-0.000387489 646.779L7.52441 646.779Z" fill="#BC9F77"/>
<path d="M500 646.616L500 639.688L492.475 639.687L492.475 646.616L500 646.616Z" fill="#BC9F77"/>
<path d="M492.475 653.544L492.475 646.616L484.95 646.616L484.95 653.544L492.475 653.544Z" fill="#CEA97F"/>
<path d="M500 660.555L500 653.626L492.475 653.626L492.475 660.555L500 660.555Z" fill="#BC9F77"/>
<path d="M484.862 660.555L484.862 653.626L477.338 653.626L477.338 660.555L484.862 660.555Z" fill="#BC9F77"/>
<path d="M484.862 7.64626L484.862 0.717773L477.338 0.717773L477.338 7.64626L484.862 7.64626Z" fill="#BC9F77"/>
<path d="M492.475 14.5747L492.475 7.64624L484.95 7.64624L484.95 14.5747L492.475 14.5747Z" fill="#CEA97F"/>
<path d="M500 7.64626L500 0.717773L492.475 0.717773L492.475 7.64626L500 7.64626Z" fill="#BC9F77"/>
<path d="M500 21.5847L500 14.6562L492.475 14.6562L492.475 21.5847L500 21.5847Z" fill="#BC9F77"/>
<path d="M7.52441 21.7476L7.52441 14.8191L-0.000387192 14.8191L-0.000387489 21.7476L7.52441 21.7476Z" fill="#BC9F77"/>
<path d="M15.1367 14.8194L15.1367 7.89087L7.61192 7.89087L7.61192 14.8194L15.1367 14.8194Z" fill="#CEA97F"/>
<path d="M7.52441 7.80911L7.52441 0.880615L-0.000387192 0.880615L-0.000387489 7.80911L7.52441 7.80911Z" fill="#BC9F77"/>
<path d="M22.6631 7.80911L22.6631 0.880615L15.1383 0.880615L15.1383 7.80911L22.6631 7.80911Z" fill="#BC9F77"/>
<path d="M23.902 638.628L23.902 652.892L476.275 652.892L476.275 638.628L491.768 638.628L491.768 22.5628L476.275 22.5628L476.275 8.2168L23.902 8.21678L23.902 22.5628L8.4098 22.5628L8.40977 638.628L23.902 638.628Z" stroke="#CEA97F" stroke-width="0.835" stroke-miterlimit="10"/>
<path d="M467.866 15.9607L467.866 30.3067L483.358 30.3067L483.358 630.885L467.866 630.885L467.866 645.231L32.3129 645.231L32.3129 630.885L16.7321 630.885L16.7321 30.3067L32.3129 30.3067L32.3129 15.9607L467.866 15.9607Z" stroke="#CEA97F" stroke-width="3.3401" stroke-miterlimit="10"/>
</svg>
