<svg width="153" height="22" viewBox="0 0 153 22" fill="none" xmlns="http://www.w3.org/2000/svg">
<path d="M72.2 17.6L72.2 21L152.2 21L152.2 17.6L72.2 17.6Z" fill="#BC9F77"/>
<path d="M0.0482054 10.9521L-9.65179 10.9521L-9.65179 20.9522L0.0482058 20.9522L0.0482054 10.9521Z" fill="#BC9F77"/>
<path d="M9.7957 1.00391L0.0957031 1.00391L0.0957036 11.0039L9.7957 11.0039L9.7957 1.00391Z" fill="#BC9F77"/>
<path d="M19.4978 11.0024L9.79779 11.0024L9.79779 21.0024L19.4978 21.0024L19.4978 11.0024Z" fill="#BC9F77"/>
<path d="M29.2453 0.954345L19.5453 0.954346L19.5453 10.9543L29.2453 10.9543L29.2453 0.954345Z" fill="#BC9F77"/>
<path d="M38.9473 10.9529L29.2473 10.9529L29.2473 20.9529L38.9473 20.9529L38.9473 10.9529Z" fill="#BC9F77"/>
<path d="M48.66 1.03979L38.96 1.03979L38.96 11.0398L48.66 11.0398L48.66 1.03979Z" fill="#BC9F77"/>
<path d="M58.362 11.0383L48.662 11.0383L48.662 21.0383L58.362 21.0383L58.362 11.0383Z" fill="#BC9F77"/>
<path d="M68.0609 1.03882L58.3609 1.03882L58.3609 11.0388L68.0609 11.0388L68.0609 1.03882Z" fill="#BC9F77"/>
<path d="M77.763 11.0374L68.063 11.0374L68.063 21.0374L77.763 21.0374L77.763 11.0374Z" fill="#BC9F77"/>
</svg>
