<svg width="64" height="64" viewBox="0 0 64 64" fill="none" xmlns="http://www.w3.org/2000/svg">
<path d="M49.0849 36.9609C48.0366 34.8694 47.5617 31.0619 51.2715 24.7819C56.2839 16.2873 54.8799 12.2965 54.8678 12.2642C54.8082 12.1101 54.8501 11.9357 54.9693 11.8228C55.0923 11.7162 55.2648 11.6896 55.4126 11.7575C57.4749 12.7474 62.1676 17.496 63.5482 25.8656C64.6859 32.8255 62.316 36.5671 60.7991 38.1734C59.1281 39.9472 56.9352 40.8325 54.7847 40.6086C52.1961 40.3384 50.1161 39.008 49.0849 36.9609ZM62.7612 25.9906C61.5106 18.4149 57.6829 14.3474 55.8165 12.9541C56.0125 14.667 55.8222 18.6457 51.9538 25.1845C48.4279 31.1539 48.83 34.6862 49.7964 36.5969C50.7033 38.4011 52.5519 39.5717 54.8685 39.8108C56.7703 40.015 58.714 39.216 60.2195 37.6249C61.6343 36.1225 63.845 32.6175 62.7612 25.9906Z" fill="#353938"/>
<path d="M56.7234 20.2014C57.0436 20.8565 57.3277 21.5319 57.5535 22.2364C57.778 22.9385 57.9498 23.6703 58.0627 24.4141C58.2999 25.9044 58.3119 27.4511 58.1578 29.0004C57.8255 32.1084 56.8483 35.1866 55.5381 38.1114C54.2292 41.0349 52.6235 43.8353 50.8333 46.502C49.9334 47.8286 48.991 49.1312 48.0132 50.3976C47.5153 51.0254 47.0125 51.6475 46.4962 52.2519C46.2413 52.5563 45.9807 52.855 45.708 53.1448C45.578 53.2932 45.4416 53.4346 45.3053 53.5722C45.2457 53.6426 45.1683 53.7022 45.1087 53.7682L45.0091 53.8563L44.973 53.8861L44.9673 53.8925C44.973 53.8925 44.973 53.8925 44.973 53.8861C44.9857 53.881 44.9857 53.8747 44.9965 53.881L45.1569 54.5387C45.1804 54.526 45.2095 54.5076 45.24 54.4968L45.2755 54.467L45.299 54.4556L45.3763 54.3839L45.5063 54.2711C45.5837 54.2007 45.6547 54.1296 45.7257 54.058C45.8684 53.9045 46.0098 53.7555 46.1468 53.6071C46.4189 53.3046 46.6865 52.9977 46.9465 52.6882C47.4735 52.0712 47.9834 51.4345 48.4812 50.7971C49.4711 49.5129 50.4128 48.1939 51.3083 46.8336C53.0972 44.12 54.7093 41.2758 55.9833 38.2864C56.3092 37.5394 56.6048 36.7841 56.8768 36.0206C57.1552 35.2589 57.3994 34.4878 57.6182 33.7065C58.0564 32.1572 58.3646 30.5687 58.4958 28.9953C58.6189 27.4194 58.5719 25.834 58.2701 24.3501C58.1223 23.6037 57.9321 22.8693 57.6721 22.1819C57.3994 21.4869 57.0905 20.8267 56.7234 20.2014Z" fill="#353938"/>
<path fill-rule="evenodd" clip-rule="evenodd" d="M54.9104 53.6015C48.0196 58.2461 38.4736 59.2658 28.2643 56.1604C24.4714 54.958 21.3253 53.1741 17.8228 51.3534C14.7306 49.7522 17.9598 52.4854 18.8844 53.2458C26.2254 59.1415 35.2147 61.1442 43.9242 60.4447C43.0066 60.7707 42.0636 61.0618 41.0978 61.304C39.8478 61.6236 38.5922 61.8615 37.3353 62.0149C35.7176 61.8253 34.1239 61.5824 32.5062 61.2026C30.2486 60.6464 27.8191 59.7808 25.4904 58.626L25.3896 58.5898C20.0747 56.6873 15.6128 53.4461 12.3659 49.054C12.3532 49.0425 12.3481 49.0368 12.3481 49.0368C7.54878 42.0623 6.74213 33.8265 10.2154 25.8329C14.3749 16.441 25.6744 8.69407 35.7359 13.5384C39.1553 15.2507 42.9527 19.3156 41.0508 23.3977C39.8428 25.9724 39.6221 23.0242 39.3145 21.9994C38.8877 20.6309 38.1838 19.327 36.892 18.5775C33.271 16.4828 28.0569 16.5183 24.8094 19.783C22.8669 21.7381 21.3722 23.7827 20.5136 25.987C20.5966 25.7974 20.6854 25.6046 20.7748 25.415C22.8067 21.3646 27.3822 17.0066 32.3407 18.0847C38.2073 19.4894 37.6917 25.9572 36.2572 30.662C46.6923 26.117 45.1634 11.1667 32.146 7.14101C24.0934 4.92462 16.8824 6.52778 11.2821 10.5629C15.146 6.4688 20.1768 3.38171 26.0422 1.89714C36.2338 -0.689601 46.5332 2.16983 53.8622 8.637C46.1704 1.45703 35.1012 -1.7905 24.1397 0.988389C7.00975 5.33175 -3.35371 22.7344 0.989024 39.8593C5.33302 56.9905 22.7357 67.3533 39.8605 63.0112C46.8166 61.2451 52.6585 57.3285 56.8478 52.1474L56.9074 52.0852L56.8839 52.1036C59.283 49.1307 61.1379 45.7487 62.3529 42.1219C60.7644 46.4476 58.2226 50.3762 54.9104 53.6015ZM13.2188 54.5147C12.7686 54.034 12.3304 53.5362 11.8864 53.0213C6.73071 46.6968 3.82689 36.9795 7.21014 28.7938C7.51897 28.055 7.22789 29.395 7.21014 29.5072C5.53976 38.8662 7.8684 46.6086 14.4155 53.2521C15.009 53.8501 15.6185 54.431 16.2349 55.0049C18.3378 56.9435 19.4285 58.3241 21.8764 59.8467C22.0121 59.9298 22.1484 60.0129 22.2905 60.096C18.9675 58.7737 15.8975 56.8839 13.2188 54.5147Z" fill="#353938"/>
<path d="M24.3327 35.8032C24.3327 36.3213 24.2553 36.7342 24.1018 37.0411C23.9484 37.3481 23.7499 37.5751 23.507 37.7203C23.2641 37.8655 23.0009 37.9632 22.7181 38.0114C22.4353 38.0602 22.1727 38.0837 21.9298 38.0837C21.3312 38.0837 20.7281 38.0761 20.1212 38.0602C19.5143 38.0444 18.9036 38.0355 18.2885 38.0355C17.2694 38.0355 16.2452 38.0926 15.2185 38.2054C14.1906 38.3196 13.1918 38.5625 12.2209 38.9335C12.2044 38.8047 12.1923 38.6709 12.1841 38.5333C12.1752 38.3957 12.1714 38.2619 12.1714 38.1325C12.1714 37.485 12.3166 36.9999 12.6083 36.6765C12.8994 36.3531 13.2913 36.1387 13.7847 36.0328C14.2781 35.9282 14.8247 35.8749 15.4234 35.8749C15.6986 35.8749 16.2769 35.8749 17.1584 35.8749C18.0399 35.8749 19.1123 35.8673 20.3743 35.8508C21.6381 35.8356 22.9572 35.8191 24.3327 35.8032ZM17.6822 29.8808C17.6822 30.3989 17.6296 31.1104 17.525 32.0167C17.4191 32.9229 17.2859 33.9337 17.1242 35.0505C16.9625 36.1666 16.8001 37.3075 16.6384 38.4724C16.4767 39.6367 16.3429 40.7503 16.2383 41.8094C16.1324 42.8697 16.0804 43.7962 16.0804 44.5889C16.0804 45.1869 16.1083 45.7133 16.1653 46.1667C16.2218 46.6188 16.3067 46.9752 16.4203 47.2346C15.4652 46.9917 14.729 46.6956 14.2115 46.3481C13.694 46.0012 13.3376 45.5801 13.1436 45.0873C12.9489 44.5933 12.8525 44.015 12.8525 43.351C12.8525 42.8507 12.9007 42.1829 12.9977 41.3496C13.0941 40.5163 13.212 39.5822 13.3497 38.5466C13.4873 37.511 13.6249 36.4349 13.7619 35.3181C13.8988 34.2013 14.0168 33.1017 14.1138 32.0173C14.2108 30.9335 14.2597 29.9303 14.2597 29.0076C14.2597 28.6677 14.2508 28.3284 14.2349 27.9885C14.2191 27.6486 14.195 27.3251 14.1627 27.0176C15.0035 27.0499 15.6631 27.1387 16.1406 27.2846C16.6175 27.4304 16.9656 27.6283 17.1844 27.8794C17.4032 28.1305 17.5402 28.4216 17.5966 28.7526C17.6537 29.0843 17.6822 29.4604 17.6822 29.8808ZM27.8516 29.8808C27.8516 30.3989 27.799 31.1104 27.6937 32.0167C27.5885 32.9229 27.4553 33.9337 27.2936 35.0505C27.1312 36.1666 26.9695 37.3075 26.8078 38.4724C26.6455 39.6367 26.5123 40.7503 26.407 41.8094C26.3018 42.8697 26.2497 43.7962 26.2497 44.5889C26.2497 45.8185 26.3626 46.7007 26.589 47.2346C25.634 46.9917 24.8984 46.6956 24.3809 46.3481C23.8628 46.0012 23.507 45.5801 23.313 45.0873C23.1183 44.5933 23.0212 44.015 23.0212 43.351C23.0212 42.8507 23.0701 42.1829 23.1665 41.3496C23.2635 40.5163 23.3808 39.5822 23.5191 38.5466C23.656 37.511 23.7943 36.4349 23.9313 35.3181C24.0682 34.2013 24.1856 33.1017 24.2832 32.0173C24.3802 30.9335 24.4284 29.9303 24.4284 29.0076C24.4284 28.6677 24.4202 28.3284 24.4043 27.9885C24.3885 27.6486 24.3644 27.3251 24.332 27.0176C25.1729 27.0499 25.8325 27.1387 26.31 27.2846C26.7869 27.4304 27.135 27.6283 27.3538 27.8794C27.572 28.1305 27.7096 28.4216 27.766 28.7526C27.8231 29.0843 27.8516 29.4604 27.8516 29.8808Z" fill="#353938"/>
<path d="M30.3408 52.1119C30.3897 51.9185 30.486 51.6636 30.6325 51.3477C30.7778 51.0319 31.0086 50.7136 31.3244 50.3889C31.6396 50.0655 32.0727 49.7941 32.6225 49.5765C33.1723 49.3571 33.8769 49.248 34.7343 49.248C35.9151 49.248 37.068 49.2081 38.1924 49.1269C39.3167 49.0464 40.3409 48.9373 41.263 48.7997C42.185 48.6621 42.9137 48.5035 43.447 48.3266C43.3018 49.5391 42.9327 50.4745 42.3429 51.1296C41.7519 51.7847 41.0283 52.1119 40.1703 52.1119C39.7981 52.1119 39.325 52.0758 38.7511 52.0028C38.1765 51.9299 37.5214 51.8614 36.7845 51.7974C36.0476 51.7333 35.2518 51.6997 34.3937 51.6997C33.7628 51.6997 33.1077 51.7282 32.4278 51.7853C31.748 51.8411 31.053 51.9515 30.3408 52.1119ZM34.9765 51.0928L32.379 51.0693C32.1203 50.7459 31.9427 50.3946 31.845 50.0128C31.748 49.6336 31.6998 49.1929 31.6998 48.69C31.6998 48.1896 31.748 47.5219 31.845 46.6886C31.9421 45.8553 32.0594 44.9212 32.197 43.8856C32.3346 42.85 32.4722 41.7738 32.6098 40.6577C32.7468 39.5403 32.8641 38.4407 32.9618 37.3563C33.0588 36.2725 33.107 35.2692 33.107 34.3472C33.107 34.0073 33.0988 33.6674 33.0829 33.3281C33.0664 32.9882 33.0423 32.6641 33.01 32.3572C33.8509 32.3895 34.5104 32.4783 34.9879 32.6242C35.4655 32.77 35.8136 32.9679 36.0318 33.219C36.2506 33.4695 36.3882 33.7606 36.4446 34.0922C36.5011 34.4239 36.5296 34.8006 36.5296 35.2204C36.5296 35.7385 36.477 36.45 36.3717 37.3563C36.2664 38.2625 36.1326 39.274 35.9709 40.3901C35.8092 41.5062 35.6468 42.6471 35.4858 43.812C35.3234 44.9763 35.1902 46.0899 35.085 47.149C34.9797 48.2093 34.9271 49.1358 34.9271 49.9285C34.9271 50.139 34.9309 50.3407 34.9398 50.5354C34.948 50.7288 34.96 50.9159 34.9765 51.0928Z" fill="#353938"/>
</svg>
